<svg xmlns="http://www.w3.org/2000/svg" width="120" height="120" viewBox="0 0 120 120">
  <g id="Group_3205" data-name="Group 3205" transform="translate(-426 -179)">
    <g id="Ellipse_19" data-name="Ellipse 19" transform="translate(426 179)" fill="#fff" stroke="#d0d0d0" stroke-width="1">
      <circle cx="60" cy="60" r="60" stroke="none"/>
      <circle cx="60" cy="60" r="59.5" fill="none"/>
    </g>
    <g id="Group_3246" data-name="Group 3246" transform="translate(454 148.3)">
      <path id="Path_4354" data-name="Path 4354" d="M63.864,72.522v36.456a5.328,5.328,0,0,1-5.322,5.322H5.322A5.328,5.328,0,0,1,0,108.978V93.012a1.064,1.064,0,0,1,2.129,0v15.966a3.2,3.2,0,0,0,3.193,3.193h53.22a3.2,3.2,0,0,0,3.193-3.193V72.522a3.2,3.2,0,0,0-3.193-3.193H5.322a3.2,3.2,0,0,0-3.193,3.193V76.78h54.55a1.064,1.064,0,0,1,0,2.129H2.129v6.919h54.55a1.064,1.064,0,0,1,0,2.129H1.064A1.064,1.064,0,0,1,0,86.891V72.522A5.328,5.328,0,0,1,5.322,67.2h53.22A5.328,5.328,0,0,1,63.864,72.522ZM55.349,100.2a3.462,3.462,0,0,0-5.339-2.9,5.588,5.588,0,1,1-1.447-1.584,5.587,5.587,0,1,1,3.326,10.075,1.064,1.064,0,0,1,0-2.129A3.463,3.463,0,0,0,55.349,100.2Zm-6.652,0a3.459,3.459,0,1,0-3.459,3.459A3.463,3.463,0,0,0,48.7,100.2ZM9.713,97.934h8.914a1.064,1.064,0,1,0,0-2.129H9.713a1.064,1.064,0,1,0,0,2.129Zm0,6.652h8.914a1.064,1.064,0,1,0,0-2.129H9.713a1.064,1.064,0,1,0,0,2.129Z"/>
    </g>
  </g>
</svg>
