<svg xmlns="http://www.w3.org/2000/svg" width="344.828" height="488.556" viewBox="0 0 344.828 488.556">
  <g id="Group_3223" data-name="Group 3223" transform="translate(-1488.807 -439.99)">
    <ellipse id="Ellipse_45" data-name="Ellipse 45" cx="45.966" cy="26.539" rx="45.966" ry="26.539" transform="translate(1501.565 875.469)" fill="#d4ecff"/>
    <g id="Group_3222" data-name="Group 3222" transform="translate(1488.807 807.125)">
      <g id="Group_904" data-name="Group 904" transform="translate(7.529 26.366)">
        <path id="Path_4099" data-name="Path 4099" d="M497.327,227.172h-2.189c-2.454-4.822-6.973-9.368-13.562-13.172-21-12.124-55.049-12.124-76.047,0-6.59,3.8-11.108,8.35-13.562,13.172h-2.187v8.781h0c0,7.946,5.25,15.892,15.75,21.953,21,12.125,55.049,12.125,76.049,0,10.5-6.063,15.75-14.009,15.75-21.955h0Z" transform="translate(-389.779 -196.125)" fill="#f9bf30"/>
        <path id="Path_4100" data-name="Path 4100" d="M431.89,205.437c-9.66,1.233-18.848,4.011-26.361,8.349-6.59,3.8-11.108,8.35-13.562,13.172h-2.187v8.781c0,7.946,5.25,15.892,15.75,21.953,7.515,4.338,16.7,7.116,26.361,8.349Z" transform="translate(-389.779 -195.911)" fill="#fdd762"/>
        <path id="Path_4101" data-name="Path 4101" d="M455.274,254.7c10.4-6.052,15.6-13.958,15.6-21.866v-8.781h-2.189c-2.092-4.11-5.7-8.016-10.8-11.436h-2.62Z" transform="translate(-363.33 -193.01)" fill="#e8a200"/>
        <g id="Group_902" data-name="Group 902" transform="translate(1.51 11.378)" opacity="0.4">
          <path id="Path_4102" data-name="Path 4102" d="M465.089,221.01a25.789,25.789,0,0,0-2.333-3.376v26.39a25.7,25.7,0,0,0,2.333-3.38Z" transform="translate(-361.818 -202.363)" fill="#e8a200"/>
          <path id="Path_4103" data-name="Path 4103" d="M403.159,213.253a42.421,42.421,0,0,0-7.512,5.455v33.007c.733.671,1.5,1.332,2.333,1.977V217.917h4.4v38.767c.262.159.514.32.782.476.508.292,1.029.571,1.55.851V217.917h4.4v42.207q1.15.495,2.333.952V217.917h4.4v44.675q1.154.356,2.332.678V217.917h4.4v46.416q1.16.246,2.333.46V217.917h4.4v47.564q1.162.152,2.332.274V217.917h4.4v48.194c.776.044,1.554.073,2.333.1V217.917h4.4v48.315q1.167-.019,2.332-.069V217.917h4.4v47.961c.781-.07,1.558-.147,2.333-.239V217.917h4.4v47.1q1.173-.2,2.332-.425V217.917h4.4V263.6q1.177-.3,2.333-.636V217.917h4.4v43.621q1.181-.427,2.332-.893V217.917h4.4v40.743q1.19-.6,2.333-1.237V217.917h4.4v36.715c.824-.591,1.6-1.2,2.333-1.812v-34.9h.389a43.618,43.618,0,0,0-6.643-4.664,64.756,64.756,0,0,0-16.5-6.5H419.657A64.7,64.7,0,0,0,403.159,213.253Z" transform="translate(-388.918 -206.756)" fill="#e8a200"/>
          <path id="Path_4104" data-name="Path 4104" d="M393.186,218.828a23.92,23.92,0,0,0-1.654,2.722h-.678v16.1a23.032,23.032,0,0,0,2.332,4.22Z" transform="translate(-390.854 -201.881)" fill="#e8a200"/>
        </g>
        <ellipse id="Ellipse_29" data-name="Ellipse 29" cx="53.774" cy="31.047" rx="53.774" ry="31.047" fill="#fdd762"/>
        <path id="Path_4105" data-name="Path 4105" d="M455.6,235c15.459-8.926,19.522-21.931,12.22-33.012-20.176-5.892-45.435-3.98-62.291,5.753-15.46,8.926-19.523,21.931-12.22,33.01C413.48,246.647,438.739,244.735,455.6,235Z" transform="translate(-389.775 -198.65)" fill="#fff" opacity="0.2"/>
        <path id="Path_4106" data-name="Path 4106" d="M481.573,242.491c-21,12.125-55.047,12.124-76.049,0-10.147-5.858-15.376-13.476-15.717-21.153-.364,8.211,4.864,16.488,15.717,22.755,21,12.125,55.049,12.125,76.049,0,10.852-6.265,16.081-14.543,15.716-22.752C496.948,229.015,491.72,236.632,481.573,242.491Z" transform="translate(-389.774 -189.49)" fill="#fff" opacity="0.7"/>
        <ellipse id="Ellipse_30" data-name="Ellipse 30" cx="38.17" cy="22.038" rx="38.17" ry="22.038" transform="translate(15.604 9.009)" fill="#e8a200"/>
        <path id="Path_4107" data-name="Path 4107" d="M412.072,213.536c14.906-8.607,39.074-8.606,53.982,0,7.011,4.047,10.721,9.278,11.138,14.578.47-5.971-3.241-12.031-11.138-16.589-14.907-8.607-39.076-8.607-53.982,0-7.9,4.56-11.607,10.619-11.138,16.589C401.351,222.812,405.063,217.583,412.072,213.536Z" transform="translate(-385.29 -196.06)" fill="#f9bf30"/>
        <path id="Path_4108" data-name="Path 4108" d="M452.114,213.354l-2.959.845.841.334-2.889,1.669a16.3,16.3,0,0,0-7.325-1.713,14.01,14.01,0,0,0-7.053,1.908,10.931,10.931,0,0,0-2.128,1.546,4.533,4.533,0,0,0-1.143,1.631,5.526,5.526,0,0,0-.373,1.564,8.916,8.916,0,0,0,.066,1.693l.343,2.694a8.09,8.09,0,0,1,.069,1.888,3.405,3.405,0,0,1-.64,1.53,5.181,5.181,0,0,1-1.694,1.45,3.451,3.451,0,0,1-3.628.264q-1.211-.7-.615-1.739a9.4,9.4,0,0,1,3.22-2.6V224.3l-2.528.949-3.637-1.543a11.782,11.782,0,0,0-4.313,3.873l-.416-.467v1.982h.008c.013,1.36,1.05,2.7,3.135,4.022l-1.438.83-1.953-.894v2.022l1.753,1.014,3.424-1.977a14.938,14.938,0,0,0,6.926,1.381,13.752,13.752,0,0,0,6.532-1.756,11.034,11.034,0,0,0,2.318-1.72,5.562,5.562,0,0,0,1.284-1.874,7.051,7.051,0,0,0,.477-1.849,9.976,9.976,0,0,0-.007-1.963l-.291-2.607c-.045-.524-.069-.9-.067-1.14a5.1,5.1,0,0,1,.128-.988,2.3,2.3,0,0,1,.587-1.127,5.522,5.522,0,0,1,1.261-.953,5.106,5.106,0,0,1,1.943-.619,3.122,3.122,0,0,1,1.94.324,1.8,1.8,0,0,1,.605.467.558.558,0,0,1,.107.337l-3.01.628v2.02l6.1,2.715c.5-.316.945-.608,1.336-.88a12.935,12.935,0,0,0,1.228-.984,7.371,7.371,0,0,0,1.021-1.1,3.914,3.914,0,0,0,.58-1.19,2.573,2.573,0,0,0,.1-.6l.007-.008v-2.125l-.776.161c-.011-.014-.017-.027-.028-.041a7.2,7.2,0,0,0-1.629-1.391l3.2-1.849Z" transform="translate(-379.568 -192.714)" fill="#f9bf30"/>
        <g id="Group_903" data-name="Group 903" transform="translate(35.496 19.608)">
          <path id="Path_4109" data-name="Path 4109" d="M415.064,233.35l3.39-1.957q-3.477-2.2-3.109-4.48t4.694-4.932L426.2,224.6a9.4,9.4,0,0,0-3.22,2.6q-.6,1.042.615,1.741a3.455,3.455,0,0,0,3.628-.265,5.181,5.181,0,0,0,1.694-1.45,3.4,3.4,0,0,0,.64-1.53,8.09,8.09,0,0,0-.069-1.888l-.343-2.694a8.916,8.916,0,0,1-.066-1.693,5.527,5.527,0,0,1,.373-1.564,4.533,4.533,0,0,1,1.143-1.631,10.932,10.932,0,0,1,2.128-1.546,14.025,14.025,0,0,1,7.053-1.908,16.3,16.3,0,0,1,7.325,1.713l3.219-1.859,1.788,1.032-3.2,1.849a7.2,7.2,0,0,1,1.629,1.391,3.505,3.505,0,0,1,.74,1.332,2.43,2.43,0,0,1-.042,1.285,3.914,3.914,0,0,1-.58,1.19,7.3,7.3,0,0,1-1.021,1.1,12.934,12.934,0,0,1-1.228.984c-.392.272-.838.564-1.336.88l-6.1-2.714q.7-.423,1.141-.709c.295-.19.6-.4.9-.629a3.8,3.8,0,0,0,.664-.6,1.621,1.621,0,0,0,.289-.531.55.55,0,0,0-.094-.517,1.8,1.8,0,0,0-.605-.467,3.122,3.122,0,0,0-1.94-.324,5.105,5.105,0,0,0-1.943.619,5.483,5.483,0,0,0-1.261.955,2.288,2.288,0,0,0-.587,1.126,5.1,5.1,0,0,0-.128.988c0,.236.023.616.067,1.141l.291,2.607a9.962,9.962,0,0,1,.007,1.961,7.051,7.051,0,0,1-.477,1.849,5.562,5.562,0,0,1-1.284,1.874,11.086,11.086,0,0,1-2.318,1.721,13.767,13.767,0,0,1-6.532,1.755,14.938,14.938,0,0,1-6.926-1.381l-3.424,1.977Z" transform="translate(-415.064 -212.619)" fill="#fdd762"/>
        </g>
      </g>
      <g id="Group_907" data-name="Group 907" transform="translate(7.529 17.577)">
        <path id="Path_4110" data-name="Path 4110" d="M497.327,220.912h-2.189c-2.454-4.822-6.973-9.368-13.562-13.172-21-12.125-55.049-12.125-76.047,0-6.59,3.8-11.108,8.35-13.562,13.172h-2.187v8.781h0c0,7.946,5.25,15.89,15.75,21.953,21,12.124,55.049,12.125,76.049,0,10.5-6.062,15.75-14.008,15.75-21.953h0Z" transform="translate(-389.779 -189.865)" fill="#f9bf30"/>
        <path id="Path_4111" data-name="Path 4111" d="M431.89,199.176c-9.66,1.234-18.848,4.011-26.361,8.35-6.59,3.8-11.108,8.35-13.562,13.172h-2.187v8.781c0,7.946,5.25,15.89,15.75,21.953,7.515,4.338,16.7,7.115,26.361,8.349Z" transform="translate(-389.779 -189.651)" fill="#fdd762"/>
        <path id="Path_4112" data-name="Path 4112" d="M455.274,248.443c10.4-6.052,15.6-13.957,15.6-21.865V217.8h-2.189c-2.092-4.11-5.7-8.016-10.8-11.437h-2.62Z" transform="translate(-363.33 -186.75)" fill="#e8a200"/>
        <g id="Group_905" data-name="Group 905" transform="translate(1.509 11.378)" opacity="0.4">
          <path id="Path_4113" data-name="Path 4113" d="M465.089,214.75a25.788,25.788,0,0,0-2.333-3.376v26.39a25.79,25.79,0,0,0,2.333-3.38Z" transform="translate(-361.818 -196.103)" fill="#e8a200"/>
          <path id="Path_4114" data-name="Path 4114" d="M403.159,206.993a42.347,42.347,0,0,0-7.512,5.454v33.009c.733.671,1.5,1.332,2.333,1.977V211.655h4.4v38.769c.262.157.514.32.782.476.508.292,1.029.571,1.55.849V211.655h4.4v42.208q1.15.495,2.333.95V211.655h4.4v44.676q1.154.356,2.332.678V211.655h4.4v46.417q1.16.244,2.333.461V211.655h4.4v47.565q1.162.152,2.332.274V211.655h4.4v48.2c.776.042,1.554.073,2.333.1V211.655h4.4v48.316q1.167-.019,2.332-.069V211.655h4.4v47.963q1.171-.105,2.333-.239V211.655h4.4v47.1q1.173-.2,2.332-.425V211.655h4.4v45.683q1.177-.3,2.333-.635V211.655h4.4v43.622q1.181-.427,2.332-.893V211.655h4.4V252.4q1.19-.6,2.333-1.237V211.655h4.4v36.716c.824-.591,1.6-1.2,2.333-1.814v-34.9h.389a43.714,43.714,0,0,0-6.643-4.662,64.7,64.7,0,0,0-16.5-6.5H419.657A64.7,64.7,0,0,0,403.159,206.993Z" transform="translate(-388.918 -200.496)" fill="#e8a200"/>
          <path id="Path_4115" data-name="Path 4115" d="M393.186,212.567a24.058,24.058,0,0,0-1.654,2.723h-.678v16.1a23.043,23.043,0,0,0,2.332,4.221Z" transform="translate(-390.854 -195.621)" fill="#e8a200"/>
        </g>
        <ellipse id="Ellipse_31" data-name="Ellipse 31" cx="53.774" cy="31.047" rx="53.774" ry="31.047" fill="#fdd762"/>
        <path id="Path_4116" data-name="Path 4116" d="M455.6,228.742c15.459-8.926,19.522-21.932,12.22-33.012-20.176-5.892-45.435-3.98-62.291,5.752-15.46,8.926-19.523,21.932-12.22,33.012C413.48,240.386,438.739,238.475,455.6,228.742Z" transform="translate(-389.776 -192.39)" fill="#fff" opacity="0.2"/>
        <path id="Path_4117" data-name="Path 4117" d="M481.573,236.231c-21,12.125-55.047,12.124-76.049,0-10.147-5.858-15.376-13.477-15.717-21.153-.364,8.211,4.864,16.488,15.717,22.755,21,12.124,55.049,12.124,76.049,0,10.852-6.265,16.081-14.543,15.716-22.752C496.948,222.755,491.72,230.372,481.573,236.231Z" transform="translate(-389.774 -183.23)" fill="#fff" opacity="0.7"/>
        <ellipse id="Ellipse_32" data-name="Ellipse 32" cx="38.17" cy="22.038" rx="38.17" ry="22.038" transform="translate(15.604 9.009)" fill="#e8a200"/>
        <path id="Path_4118" data-name="Path 4118" d="M412.072,207.276c14.906-8.607,39.074-8.607,53.982,0,7.011,4.047,10.721,9.277,11.138,14.578.47-5.971-3.241-12.031-11.138-16.589-14.907-8.607-39.076-8.607-53.982,0-7.9,4.56-11.607,10.619-11.138,16.589C401.351,216.551,405.063,211.322,412.072,207.276Z" transform="translate(-385.29 -189.799)" fill="#f9bf30"/>
        <path id="Path_4119" data-name="Path 4119" d="M452.114,207.094l-2.959.845.841.334-2.889,1.668a16.315,16.315,0,0,0-7.325-1.711,14.011,14.011,0,0,0-7.053,1.908,10.931,10.931,0,0,0-2.128,1.544,4.549,4.549,0,0,0-1.143,1.633,5.516,5.516,0,0,0-.373,1.564,8.9,8.9,0,0,0,.066,1.692l.343,2.694a8.1,8.1,0,0,1,.069,1.89,3.394,3.394,0,0,1-.64,1.529,5.164,5.164,0,0,1-1.694,1.45,3.452,3.452,0,0,1-3.628.265q-1.211-.7-.615-1.739a9.4,9.4,0,0,1,3.22-2.6v-2.02l-2.528.949-3.637-1.544a11.771,11.771,0,0,0-4.313,3.875l-.416-.467v1.982h.008c.013,1.362,1.05,2.7,3.135,4.023l-1.438.83-1.953-.894v2.022l1.753,1.014,3.424-1.977a14.955,14.955,0,0,0,6.926,1.381,13.752,13.752,0,0,0,6.532-1.756,11.036,11.036,0,0,0,2.318-1.721,5.557,5.557,0,0,0,1.284-1.873,7.06,7.06,0,0,0,.477-1.85,9.962,9.962,0,0,0-.007-1.961l-.291-2.607c-.045-.524-.069-.9-.067-1.14a5.1,5.1,0,0,1,.128-.988,2.3,2.3,0,0,1,.587-1.127,5.441,5.441,0,0,1,1.261-.953,5.106,5.106,0,0,1,1.943-.621,3.113,3.113,0,0,1,1.94.326,1.778,1.778,0,0,1,.605.467.555.555,0,0,1,.107.337l-3.01.626v2.022l6.1,2.714c.5-.314.945-.606,1.336-.88a12.689,12.689,0,0,0,1.228-.983,7.308,7.308,0,0,0,1.021-1.1,3.906,3.906,0,0,0,.58-1.189,2.573,2.573,0,0,0,.1-.6l.007-.008v-2.127l-.776.161c-.011-.013-.017-.025-.028-.039a7.2,7.2,0,0,0-1.629-1.391l3.2-1.849Z" transform="translate(-379.568 -186.453)" fill="#f9bf30"/>
        <g id="Group_906" data-name="Group 906" transform="translate(35.496 19.607)">
          <path id="Path_4120" data-name="Path 4120" d="M415.064,227.09l3.39-1.957q-3.477-2.2-3.109-4.48t4.694-4.933l6.166,2.617a9.388,9.388,0,0,0-3.22,2.6q-.6,1.042.615,1.739a3.454,3.454,0,0,0,3.628-.264,5.167,5.167,0,0,0,1.694-1.452,3.394,3.394,0,0,0,.64-1.529,8.1,8.1,0,0,0-.069-1.89l-.343-2.694a8.9,8.9,0,0,1-.066-1.692,5.515,5.515,0,0,1,.373-1.564,4.549,4.549,0,0,1,1.143-1.633,10.929,10.929,0,0,1,2.128-1.544,14.01,14.01,0,0,1,7.053-1.908,16.315,16.315,0,0,1,7.325,1.711l3.219-1.859,1.788,1.033-3.2,1.849a7.2,7.2,0,0,1,1.629,1.391,3.485,3.485,0,0,1,.74,1.332,2.43,2.43,0,0,1-.042,1.285,3.93,3.93,0,0,1-.58,1.19,7.37,7.37,0,0,1-1.021,1.1,12.933,12.933,0,0,1-1.228.984c-.392.272-.838.564-1.336.88l-6.1-2.715q.7-.423,1.141-.709t.9-.629a3.747,3.747,0,0,0,.664-.6,1.649,1.649,0,0,0,.289-.531.548.548,0,0,0-.094-.517,1.778,1.778,0,0,0-.605-.467,3.123,3.123,0,0,0-1.94-.326,5.106,5.106,0,0,0-1.943.621,5.48,5.48,0,0,0-1.261.953,2.3,2.3,0,0,0-.587,1.127,5.1,5.1,0,0,0-.128.988c0,.236.023.616.067,1.14l.291,2.607a9.977,9.977,0,0,1,.007,1.963,7.066,7.066,0,0,1-.477,1.849,5.576,5.576,0,0,1-1.284,1.874,11.085,11.085,0,0,1-2.318,1.72,13.752,13.752,0,0,1-6.532,1.756,14.955,14.955,0,0,1-6.926-1.381l-3.424,1.977Z" transform="translate(-415.064 -206.358)" fill="#fdd762"/>
        </g>
      </g>
      <g id="Group_910" data-name="Group 910" transform="translate(0 13.445)">
        <path id="Path_4121" data-name="Path 4121" d="M491.964,217.968h-2.189c-2.454-4.821-6.973-9.366-13.562-13.171-21-12.125-55.049-12.125-76.047,0-6.59,3.8-11.109,8.35-13.562,13.172h-2.187v8.783h0c0,7.944,5.25,15.89,15.75,21.952,21,12.125,55.048,12.125,76.049,0,10.5-6.062,15.75-14.009,15.75-21.953h0Z" transform="translate(-384.415 -186.922)" fill="#f9bf30"/>
        <path id="Path_4122" data-name="Path 4122" d="M426.527,196.233c-9.66,1.234-18.848,4.011-26.361,8.349-6.59,3.8-11.109,8.35-13.562,13.172h-2.187v8.783c0,7.944,5.25,15.89,15.75,21.952,7.515,4.338,16.7,7.116,26.361,8.35Z" transform="translate(-384.415 -186.708)" fill="#fdd762"/>
        <path id="Path_4123" data-name="Path 4123" d="M449.911,245.5c10.4-6.052,15.6-13.959,15.6-21.865v-8.783h-2.189c-2.092-4.11-5.7-8.015-10.8-11.436h-2.62Z" transform="translate(-357.966 -183.806)" fill="#e8a200"/>
        <g id="Group_908" data-name="Group 908" transform="translate(1.51 11.378)" opacity="0.4">
          <path id="Path_4124" data-name="Path 4124" d="M459.725,211.806a25.625,25.625,0,0,0-2.332-3.375v26.388a25.539,25.539,0,0,0,2.332-3.38Z" transform="translate(-356.455 -193.16)" fill="#e8a200"/>
          <path id="Path_4125" data-name="Path 4125" d="M397.8,204.049a42.37,42.37,0,0,0-7.512,5.455v33.007c.733.671,1.5,1.332,2.333,1.977V208.712h4.4V247.48c.263.159.512.322.782.476.507.293,1.029.573,1.55.851V208.712h4.4v42.208q1.15.495,2.333.95V208.712h4.4v44.675c.769.239,1.547.463,2.332.679V208.712h4.4v46.416q1.158.246,2.333.46V208.712h4.4v47.564q1.162.152,2.332.275V208.712h4.4v48.194c.776.044,1.554.073,2.333.1V208.712h4.4v48.316q1.167-.019,2.332-.069V208.712h4.4v47.961c.781-.07,1.558-.147,2.333-.237V208.712h4.4v47.1q1.173-.2,2.332-.427V208.712h4.4V254.4q1.177-.3,2.333-.635V208.712h4.4v43.621q1.184-.425,2.333-.893V208.712h4.4v40.744c.793-.4,1.571-.809,2.332-1.238V208.712h4.4v36.716c.824-.591,1.6-1.2,2.333-1.814v-34.9h.389a43.712,43.712,0,0,0-6.643-4.662,64.726,64.726,0,0,0-16.5-6.5H414.294A64.735,64.735,0,0,0,397.8,204.049Z" transform="translate(-383.555 -197.553)" fill="#e8a200"/>
          <path id="Path_4126" data-name="Path 4126" d="M387.823,209.624a24.178,24.178,0,0,0-1.654,2.722h-.678v16.1a23.087,23.087,0,0,0,2.332,4.221Z" transform="translate(-385.491 -192.678)" fill="#e8a200"/>
        </g>
        <ellipse id="Ellipse_33" data-name="Ellipse 33" cx="53.774" cy="31.047" rx="53.774" ry="31.047" fill="#fdd762"/>
        <path id="Path_4127" data-name="Path 4127" d="M450.233,225.8c15.459-8.924,19.522-21.931,12.219-33.01-20.174-5.893-45.434-3.981-62.289,5.752-15.46,8.926-19.523,21.931-12.22,33.012C408.117,237.443,433.376,235.531,450.233,225.8Z" transform="translate(-384.412 -189.446)" fill="#fff" opacity="0.2"/>
        <path id="Path_4128" data-name="Path 4128" d="M476.21,233.288c-21,12.124-55.047,12.124-76.048,0-10.147-5.86-15.376-13.477-15.717-21.153-.364,8.21,4.864,16.488,15.717,22.754,21,12.125,55.048,12.125,76.048,0,10.852-6.265,16.081-14.543,15.716-22.754C491.585,219.811,486.357,227.428,476.21,233.288Z" transform="translate(-384.411 -180.286)" fill="#fff" opacity="0.7"/>
        <path id="Path_4129" data-name="Path 4129" d="M460.691,233.487c-14.906,8.606-39.074,8.606-53.98,0s-14.907-22.56,0-31.166,39.074-8.607,53.982,0S475.6,224.88,460.691,233.487Z" transform="translate(-379.927 -186.856)" fill="#e8a200"/>
        <path id="Path_4130" data-name="Path 4130" d="M406.709,204.332c14.906-8.606,39.074-8.606,53.982,0,7.009,4.047,10.721,9.277,11.138,14.578.47-5.971-3.241-12.031-11.138-16.591-14.907-8.606-39.076-8.607-53.982,0-7.9,4.558-11.607,10.617-11.138,16.588C395.988,213.608,399.7,208.379,406.709,204.332Z" transform="translate(-379.926 -186.856)" fill="#f9bf30"/>
        <path id="Path_4131" data-name="Path 4131" d="M446.751,204.15l-2.959.847.841.334L441.744,207a16.3,16.3,0,0,0-7.325-1.711,14.01,14.01,0,0,0-7.053,1.908,10.931,10.931,0,0,0-2.13,1.544,4.57,4.57,0,0,0-1.141,1.631,5.492,5.492,0,0,0-.373,1.564,8.917,8.917,0,0,0,.066,1.693l.343,2.694a8.17,8.17,0,0,1,.069,1.888,3.4,3.4,0,0,1-.64,1.53,5.164,5.164,0,0,1-1.694,1.45,3.454,3.454,0,0,1-3.629.265q-1.209-.7-.614-1.741a9.422,9.422,0,0,1,3.22-2.6V215.1l-2.528.949-3.637-1.543a11.781,11.781,0,0,0-4.312,3.873l-.416-.466v1.982h.008c.013,1.36,1.05,2.7,3.135,4.022l-1.437.831-1.953-.894v2.022l1.753,1.012,3.424-1.977a14.936,14.936,0,0,0,6.925,1.381,13.737,13.737,0,0,0,6.533-1.755,11.074,11.074,0,0,0,2.318-1.721,5.583,5.583,0,0,0,1.284-1.874,7.036,7.036,0,0,0,.477-1.849,9.962,9.962,0,0,0-.007-1.961l-.291-2.607c-.045-.525-.069-.905-.067-1.141a5.176,5.176,0,0,1,.126-.988,2.313,2.313,0,0,1,.588-1.126,5.483,5.483,0,0,1,1.261-.955,5.131,5.131,0,0,1,1.942-.619,3.125,3.125,0,0,1,1.942.324,1.813,1.813,0,0,1,.605.468.559.559,0,0,1,.107.338l-3.011.626v2.022l6.1,2.714q.747-.472,1.336-.88a12.715,12.715,0,0,0,1.228-.984,7.238,7.238,0,0,0,1.021-1.1,3.914,3.914,0,0,0,.58-1.19,2.7,2.7,0,0,0,.1-.6l.007-.007v-2.127l-.778.161a.379.379,0,0,0-.027-.039,7.2,7.2,0,0,0-1.628-1.391l3.2-1.85Z" transform="translate(-374.204 -183.51)" fill="#f9bf30"/>
        <g id="Group_909" data-name="Group 909" transform="translate(35.497 19.608)">
          <path id="Path_4132" data-name="Path 4132" d="M409.7,224.147l3.39-1.958q-3.477-2.2-3.109-4.478t4.694-4.933l6.166,2.615a9.4,9.4,0,0,0-3.22,2.6q-.6,1.04.615,1.739a3.452,3.452,0,0,0,3.627-.265,5.164,5.164,0,0,0,1.694-1.45,3.4,3.4,0,0,0,.64-1.53,8.1,8.1,0,0,0-.069-1.888l-.343-2.694a8.907,8.907,0,0,1-.066-1.692,5.489,5.489,0,0,1,.373-1.565,4.569,4.569,0,0,1,1.141-1.631,10.99,10.99,0,0,1,2.13-1.544,14.01,14.01,0,0,1,7.053-1.908,16.315,16.315,0,0,1,7.325,1.711l3.219-1.859,1.788,1.032-3.2,1.85a7.2,7.2,0,0,1,1.628,1.391,3.485,3.485,0,0,1,.74,1.332,2.43,2.43,0,0,1-.042,1.285,3.906,3.906,0,0,1-.58,1.189,7.237,7.237,0,0,1-1.021,1.1,12.492,12.492,0,0,1-1.228.984q-.587.409-1.336.88l-6.1-2.714q.7-.423,1.143-.709c.295-.19.6-.4.9-.629a3.69,3.69,0,0,0,.664-.6,1.621,1.621,0,0,0,.289-.531.55.55,0,0,0-.094-.517,1.813,1.813,0,0,0-.605-.467,3.125,3.125,0,0,0-1.942-.324,5.131,5.131,0,0,0-1.942.619,5.483,5.483,0,0,0-1.261.955,2.313,2.313,0,0,0-.588,1.126,5.188,5.188,0,0,0-.126.99c0,.236.022.616.067,1.14l.291,2.607a9.962,9.962,0,0,1,.007,1.961,7.059,7.059,0,0,1-.477,1.85,5.592,5.592,0,0,1-1.284,1.873,11.073,11.073,0,0,1-2.318,1.721,13.753,13.753,0,0,1-6.533,1.756,14.954,14.954,0,0,1-6.925-1.383l-3.424,1.977Z" transform="translate(-409.701 -203.415)" fill="#fdd762"/>
        </g>
      </g>
      <g id="Group_913" data-name="Group 913" transform="translate(7.529 0)">
        <path id="Path_4133" data-name="Path 4133" d="M497.327,208.391h-2.189c-2.454-4.822-6.973-9.368-13.562-13.171-21-12.125-55.049-12.125-76.047,0-6.59,3.8-11.108,8.35-13.562,13.172h-2.187v8.781h0c0,7.946,5.25,15.892,15.75,21.953,21,12.125,55.049,12.125,76.049,0,10.5-6.063,15.75-14.009,15.75-21.955h0Z" transform="translate(-389.779 -177.344)" fill="#f9bf30"/>
        <path id="Path_4134" data-name="Path 4134" d="M431.89,186.656c-9.66,1.233-18.848,4.011-26.361,8.349-6.59,3.8-11.108,8.35-13.562,13.172h-2.187v8.781c0,7.946,5.25,15.892,15.75,21.953,7.515,4.338,16.7,7.116,26.361,8.349Z" transform="translate(-389.779 -177.13)" fill="#fdd762"/>
        <path id="Path_4135" data-name="Path 4135" d="M455.274,235.923c10.4-6.052,15.6-13.959,15.6-21.866v-8.781h-2.189c-2.092-4.11-5.7-8.016-10.8-11.436h-2.62Z" transform="translate(-363.33 -174.229)" fill="#e8a200"/>
        <g id="Group_911" data-name="Group 911" transform="translate(1.51 11.378)" opacity="0.4">
          <path id="Path_4136" data-name="Path 4136" d="M465.089,202.229a25.885,25.885,0,0,0-2.333-3.376v26.39a25.7,25.7,0,0,0,2.333-3.38Z" transform="translate(-361.818 -183.582)" fill="#e8a200"/>
          <path id="Path_4137" data-name="Path 4137" d="M403.159,194.472a42.35,42.35,0,0,0-7.512,5.455v33.007c.733.671,1.5,1.332,2.333,1.977V199.136h4.4V237.9c.262.159.514.32.782.476.508.292,1.029.571,1.55.851V199.136h4.4v42.207q1.15.495,2.333.952V199.136h4.4V243.81q1.154.356,2.332.678V199.136h4.4v46.416q1.16.246,2.333.46V199.136h4.4V246.7q1.162.152,2.332.274V199.136h4.4V247.33c.776.044,1.554.073,2.333.1V199.136h4.4v48.315c.778-.013,1.555-.036,2.332-.067V199.136h4.4V247.1c.781-.07,1.558-.147,2.333-.239V199.136h4.4v47.1q1.173-.2,2.332-.425V199.136h4.4v45.683q1.177-.3,2.333-.636V199.136h4.4v43.62q1.181-.427,2.332-.893V199.136h4.4v40.743q1.19-.6,2.333-1.237V199.136h4.4v36.715c.824-.59,1.6-1.2,2.333-1.812v-34.9h.389a43.514,43.514,0,0,0-6.643-4.662,64.706,64.706,0,0,0-16.5-6.5H419.657A64.706,64.706,0,0,0,403.159,194.472Z" transform="translate(-388.918 -187.975)" fill="#e8a200"/>
          <path id="Path_4138" data-name="Path 4138" d="M393.186,200.046a24.06,24.06,0,0,0-1.654,2.723h-.678v16.1a23.077,23.077,0,0,0,2.332,4.22Z" transform="translate(-390.854 -183.1)" fill="#e8a200"/>
        </g>
        <ellipse id="Ellipse_34" data-name="Ellipse 34" cx="53.774" cy="31.047" rx="53.774" ry="31.047" fill="#fdd762"/>
        <path id="Path_4139" data-name="Path 4139" d="M455.6,216.221c15.459-8.926,19.522-21.931,12.22-33.012-20.176-5.892-45.435-3.98-62.291,5.753-15.46,8.926-19.523,21.931-12.22,33.01C413.48,227.866,438.739,225.954,455.6,216.221Z" transform="translate(-389.775 -179.869)" fill="#fff" opacity="0.2"/>
        <path id="Path_4140" data-name="Path 4140" d="M481.573,223.71c-21,12.125-55.047,12.124-76.049,0-10.147-5.86-15.376-13.477-15.717-21.155-.364,8.211,4.864,16.488,15.717,22.755,21,12.125,55.049,12.125,76.049,0,10.852-6.265,16.081-14.543,15.716-22.752C496.948,210.234,491.72,217.851,481.573,223.71Z" transform="translate(-389.774 -170.709)" fill="#fff" opacity="0.7"/>
        <ellipse id="Ellipse_35" data-name="Ellipse 35" cx="38.17" cy="22.038" rx="38.17" ry="22.038" transform="translate(15.604 9.009)" fill="#e8a200"/>
        <path id="Path_4141" data-name="Path 4141" d="M412.072,194.755c14.906-8.607,39.074-8.606,53.982,0,7.011,4.047,10.721,9.278,11.138,14.578.47-5.971-3.241-12.031-11.138-16.589-14.907-8.607-39.076-8.607-53.982,0-7.9,4.56-11.607,10.619-11.138,16.589C401.351,204.031,405.063,198.8,412.072,194.755Z" transform="translate(-385.29 -177.279)" fill="#f9bf30"/>
        <path id="Path_4142" data-name="Path 4142" d="M452.114,194.573l-2.959.845.841.334-2.889,1.669a16.3,16.3,0,0,0-7.325-1.713,14.01,14.01,0,0,0-7.053,1.908,10.873,10.873,0,0,0-2.128,1.546,4.533,4.533,0,0,0-1.143,1.631,5.516,5.516,0,0,0-.373,1.564,8.916,8.916,0,0,0,.066,1.693l.343,2.693a8.1,8.1,0,0,1,.069,1.89,3.4,3.4,0,0,1-.64,1.53,5.181,5.181,0,0,1-1.694,1.45,3.451,3.451,0,0,1-3.628.264q-1.211-.7-.615-1.739a9.388,9.388,0,0,1,3.22-2.6v-2.022l-2.528.949-3.637-1.543a11.782,11.782,0,0,0-4.313,3.873l-.416-.467v1.982h.008c.013,1.36,1.05,2.7,3.135,4.022l-1.438.83-1.953-.894v2.022l1.753,1.014,3.424-1.977a14.956,14.956,0,0,0,6.926,1.381,13.752,13.752,0,0,0,6.532-1.756,11.034,11.034,0,0,0,2.318-1.72,5.576,5.576,0,0,0,1.284-1.874,7.051,7.051,0,0,0,.477-1.849,9.962,9.962,0,0,0-.007-1.961l-.291-2.607c-.045-.525-.069-.905-.067-1.141a5.1,5.1,0,0,1,.128-.988,2.3,2.3,0,0,1,.587-1.127,5.52,5.52,0,0,1,1.261-.953,5.13,5.13,0,0,1,1.943-.621,3.132,3.132,0,0,1,1.94.326,1.778,1.778,0,0,1,.605.467.558.558,0,0,1,.107.337l-3.01.626v2.022l6.1,2.715c.5-.316.945-.608,1.336-.88a12.937,12.937,0,0,0,1.228-.984,7.372,7.372,0,0,0,1.021-1.1,3.913,3.913,0,0,0,.58-1.19,2.572,2.572,0,0,0,.1-.6l.007-.007v-2.128l-.776.163c-.011-.014-.017-.027-.028-.041a7.2,7.2,0,0,0-1.629-1.391l3.2-1.849Z" transform="translate(-379.568 -173.933)" fill="#f9bf30"/>
        <g id="Group_912" data-name="Group 912" transform="translate(35.496 19.608)">
          <path id="Path_4143" data-name="Path 4143" d="M415.064,214.569l3.39-1.957q-3.477-2.2-3.109-4.48t4.694-4.932l6.166,2.615a9.4,9.4,0,0,0-3.22,2.6q-.6,1.042.615,1.739a3.451,3.451,0,0,0,3.628-.264,5.18,5.18,0,0,0,1.694-1.45,3.4,3.4,0,0,0,.64-1.53,8.09,8.09,0,0,0-.069-1.888l-.343-2.694a8.916,8.916,0,0,1-.066-1.693,5.538,5.538,0,0,1,.373-1.564,4.533,4.533,0,0,1,1.143-1.631,10.872,10.872,0,0,1,2.128-1.544,14.012,14.012,0,0,1,7.053-1.909,16.3,16.3,0,0,1,7.325,1.713l3.219-1.859,1.788,1.032-3.2,1.849a7.2,7.2,0,0,1,1.629,1.391,3.5,3.5,0,0,1,.74,1.334,2.425,2.425,0,0,1-.042,1.283,3.914,3.914,0,0,1-.58,1.19,7.371,7.371,0,0,1-1.021,1.1,12.943,12.943,0,0,1-1.228.984c-.392.272-.838.564-1.336.88l-6.1-2.715q.7-.421,1.141-.708c.295-.189.6-.4.9-.629a3.8,3.8,0,0,0,.664-.6,1.621,1.621,0,0,0,.289-.531.55.55,0,0,0-.094-.517,1.8,1.8,0,0,0-.605-.467,3.122,3.122,0,0,0-1.94-.324,5.105,5.105,0,0,0-1.943.619,5.482,5.482,0,0,0-1.261.955,2.288,2.288,0,0,0-.587,1.126,5.1,5.1,0,0,0-.128.988c0,.236.023.616.067,1.141l.291,2.607a9.962,9.962,0,0,1,.007,1.961,7.051,7.051,0,0,1-.477,1.849,5.562,5.562,0,0,1-1.284,1.874,11.034,11.034,0,0,1-2.318,1.72,13.752,13.752,0,0,1-6.532,1.756,14.938,14.938,0,0,1-6.926-1.381l-3.424,1.977Z" transform="translate(-415.064 -193.838)" fill="#fdd762"/>
        </g>
      </g>
    </g>
    <g id="Group_3224" data-name="Group 3224" transform="translate(1595.588 697.497)">
      <rect id="Rectangle_342" data-name="Rectangle 342" width="3.066" height="8.907" transform="matrix(-0.574, -0.819, 0.819, -0.574, 1.761, 24.34)" fill="#fdd762"/>
      <rect id="Rectangle_343" data-name="Rectangle 343" width="3.066" height="8.907" transform="matrix(-0.574, -0.819, 0.819, -0.574, 4.363, 18.768)" fill="#fdd762"/>
      <rect id="Rectangle_344" data-name="Rectangle 344" width="3.066" height="8.907" transform="matrix(-0.574, -0.819, 0.819, -0.574, 6.964, 13.197)" fill="#fdd762"/>
      <rect id="Rectangle_345" data-name="Rectangle 345" width="3.066" height="8.907" transform="matrix(-0.574, -0.819, 0.819, -0.574, 9.566, 7.626)" fill="#fdd762"/>
    </g>
    <path id="Path_4307" data-name="Path 4307" d="M484.759,143.51a12.468,12.468,0,1,1,12.467-12.467A12.482,12.482,0,0,1,484.759,143.51Zm0-22.215a9.747,9.747,0,1,0,9.747,9.748A9.759,9.759,0,0,0,484.759,121.3Z" transform="translate(1024.166 518.597)" fill="#ff2c9c"/>
    <ellipse id="Ellipse_46" data-name="Ellipse 46" cx="9.011" cy="9.011" rx="9.011" ry="9.011" transform="translate(1488.807 648.846)" fill="#fdd762"/>
    <g id="Group_3226" data-name="Group 3226" transform="translate(1456.877 595.185)">
      <rect id="Rectangle_348" data-name="Rectangle 348" width="9.5" height="2" transform="translate(306.465 146.729) rotate(-45)" fill="#b45ef4"/>
      <rect id="Rectangle_349" data-name="Rectangle 349" width="2" height="9.5" transform="translate(306.465 141.425) rotate(-45)" fill="#b45ef4"/>
    </g>
    <g id="Group_3227" data-name="Group 3227" transform="translate(1416.877 595.185)">
      <g id="Group_875" data-name="Group 875">
        <path id="Path_4009" data-name="Path 4009" d="M350.555,305.065a2.218,2.218,0,1,1,1.862,2.524A2.218,2.218,0,0,1,350.555,305.065Z" fill="#1d31c6"/>
      </g>
      <rect id="Rectangle_350" data-name="Rectangle 350" width="9.231" height="9.231" transform="matrix(-0.989, -0.149, 0.149, -0.989, 368.837, 321.295)" fill="#1d31c6"/>
    </g>
    <g id="Group_3228" data-name="Group 3228" transform="translate(1416.877 595.185)">
      <g id="Group_927" data-name="Group 927">
        <path id="Path_4195" data-name="Path 4195" d="M373.1,82.057a2.217,2.217,0,1,1-1.292-2.857A2.217,2.217,0,0,1,373.1,82.057Z" fill="#01c8ef"/>
      </g>
      <rect id="Rectangle_351" data-name="Rectangle 351" width="9.231" height="9.231" transform="translate(358.624 62.361) rotate(20.659)" fill="#fdd762"/>
    </g>
    <g id="Group_863" data-name="Group 863" transform="translate(1469.968 474.402)">
      <path id="Path_3978" data-name="Path 3978" d="M359.685,311.287,317.738,287.07l-41.947,24.218,41.947,24.218Z" transform="translate(1.706 118.488)" fill="#d4ecff"/>
      <g id="Group_862" data-name="Group 862" transform="translate(275.221 247.435)">
        <g id="Group_859" data-name="Group 859" transform="translate(0 95.862)">
          <path id="Path_3979" data-name="Path 3979" d="M286.306,354.975V297l44.223-25.532v57.98Z" transform="translate(-242.083 -271.464)" fill="#721bd5"/>
          <path id="Path_3980" data-name="Path 3980" d="M319.443,297l-44.222-25.532v57.98l44.222,25.532Z" transform="translate(-275.221 -271.464)" fill="#b45ef4"/>
        </g>
        <g id="Group_860" data-name="Group 860" transform="translate(0 54.903)">
          <path id="Path_3981" data-name="Path 3981" d="M286.306,327.688V286.729L330.529,261.2v40.959Z" transform="translate(-242.083 -261.197)" fill="#e8a200"/>
          <path id="Path_3982" data-name="Path 3982" d="M319.443,286.729,275.221,261.2v40.959l44.222,25.532Z" transform="translate(-275.221 -261.197)" fill="#f9bf30"/>
        </g>
        <g id="Group_861" data-name="Group 861" transform="translate(0)">
          <path id="Path_3983" data-name="Path 3983" d="M286.306,308.739V279.367l44.223-25.532v29.372Z" transform="translate(-242.083 -228.303)" fill="#5793ce"/>
          <path id="Path_3984" data-name="Path 3984" d="M319.443,279.367l-44.222-25.532v29.372l44.222,25.532Z" transform="translate(-275.221 -228.303)" fill="#01c8ef"/>
          <path id="Path_3985" data-name="Path 3985" d="M363.666,272.966l-44.223-25.532-44.222,25.532L319.443,298.5Z" transform="translate(-275.221 -247.435)" fill="#396caa"/>
        </g>
      </g>
    </g>
    <g id="Group_3243" data-name="Group 3243" transform="translate(1350.968 474.401)">
      <path id="Path_3978-2" data-name="Path 3978" d="M359.685,311.287,317.738,287.07l-41.947,24.218,41.947,24.218Z" transform="translate(1.706 118.488)" fill="#d4ecff"/>
      <g id="Group_862-2" data-name="Group 862" transform="translate(275.221 247.435)">
        <g id="Group_859-2" data-name="Group 859" transform="translate(0 95.862)">
          <path id="Path_3979-2" data-name="Path 3979" d="M286.306,354.975V297l44.223-25.532v57.98Z" transform="translate(-242.083 -271.464)" fill="#721bd5"/>
          <path id="Path_3980-2" data-name="Path 3980" d="M319.443,297l-44.222-25.532v57.98l44.222,25.532Z" transform="translate(-275.221 -271.464)" fill="#b45ef4"/>
        </g>
        <g id="Group_860-2" data-name="Group 860" transform="translate(0 54.903)">
          <path id="Path_3981-2" data-name="Path 3981" d="M286.306,327.688V286.729L330.529,261.2v40.959Z" transform="translate(-242.083 -261.197)" fill="#e8a200"/>
          <path id="Path_3982-2" data-name="Path 3982" d="M319.443,286.729,275.221,261.2v40.959l44.222,25.532Z" transform="translate(-275.221 -261.197)" fill="#f9bf30"/>
        </g>
        <path id="Path_3985-2" data-name="Path 3985" d="M363.666,272.966l-44.223-25.532-44.222,25.532L319.443,298.5Z" transform="translate(-275.221 -218.435)" fill="#c48900"/>
      </g>
    </g>
    <g id="Group_3244" data-name="Group 3244" transform="translate(840.469 154.494)">
      <path id="Path_4336" data-name="Path 4336" d="M854.728,351.876c1.719-4.8,1.839-10.366,2.792-15.415.6-3.194.615-5.4-1.159-8.142-1.18-1.818-4.96-6.289-5.965-4.466-.845,1.224,3.229,6.334,3.773,7.684-.693-1.515-4.746-8.861-7.176-7.318-1.97,1.248,3.883,7.655,4.259,9.314-1.279-2.224-4.448-6.564-5.892-5.724-1.4,1.677,2.279,5.612,3.728,8.108-.879-1.17-4.474-5.358-5.115-3.045-.612,2.2,3.482,5.413,3.969,7.911a22.48,22.48,0,0,1-.476,10.538C846.9,352.9,853.8,354.459,854.728,351.876Z" transform="translate(80.144 69.022)" fill="#fcd4ca"/>
      <path id="Path_4337" data-name="Path 4337" d="M810.138,354.151c-1.761-4.785-1.925-10.347-2.922-15.389-.63-3.189-.662-5.4,1.089-8.15,1.161-1.831,4.905-6.334,5.923-4.518.856,1.217-3.173,6.36-3.7,7.715.68-1.523,4.67-8.9,7.114-7.38,1.98,1.232-3.817,7.692-4.178,9.35,1.259-2.234,4.388-6.6,5.842-5.777,1.41,1.667-2.232,5.633-3.66,8.144.871-1.18,4.429-5.4,5.091-3.092.628,2.192-3.435,5.444-3.9,7.946a22.428,22.428,0,0,0,.568,10.533C817.976,355.111,811.088,356.725,810.138,354.151Z" transform="translate(20.199 72.653)" fill="#fcd4ca"/>
      <path id="Path_4338" data-name="Path 4338" d="M829.935,404.464a46.05,46.05,0,0,1,1.306,8.762c.016,3.618-1.316,5.711-2.423,6.619-2.219,1.818-28.36,4.416-30.641,1.824s-.764-6.787,5.18-8.236c6.371-1.554,7.26-2.412,11.271-3.935s4.775-6.8,4.775-6.8Z" transform="translate(4.591 197.139)" fill="#110239"/>
      <path id="Path_4339" data-name="Path 4339" d="M857.273,392.605s6.569-.706,9.8.921,4.492,3.762,4.8,5.162c.612,2.8-8.929,27.277-12.275,28.135s-6.391-2.4-4.989-8.354c1.5-6.384,1.143-7.563,1.6-11.828a4.536,4.536,0,0,0-3.383-5.128Z" transform="translate(94.56 180.588)" fill="#110239"/>
      <path id="Path_4340" data-name="Path 4340" d="M878.854,370.122H853.311s-35.6,26.62-40.3,32.886c-2.983,3.979-8.178,55.124-8.178,55.124l14.588,1.366s7.08-45.457,9.5-49.188,49.926-18,49.926-18S884.882,385.037,878.854,370.122Z" transform="translate(16.989 144.496)" fill="#f45762"/>
      <path id="Path_4341" data-name="Path 4341" d="M857.211,370.122H832.239c-.259,0-.044,14.421-2.412,20.527-2.632,6.787-10.42,13.942-11.6,14.392,10.577-4.018,38.985-12.733,38.985-12.733S863.239,385.037,857.211,370.122Z" transform="translate(38.632 144.496)" fill="#c9071e" opacity="0.35" style="mix-blend-mode: multiply;isolation: isolate"/>
      <path id="Path_4342" data-name="Path 4342" d="M858.495,369.794l-35.2,1.975s28.737,53.965,32.093,56.762,47.8,13.6,47.8,13.6l3.718-14.06s-34.43-9.419-37.289-11.781c-1.648-1.36-9.01-19.444-8.513-28.97C861.681,376.285,860.493,371.319,858.495,369.794Z" transform="translate(46.821 143.966)" fill="#f45762"/>
      <path id="Path_4343" data-name="Path 4343" d="M867.522,374.532s-6.525,4.288-12.118.931c0,0-2.608,1.635-8.576,1.285s-19.017-9.675-20.509-11.912-9.7-30.576-9.7-30.576l-9.507,1.117s6.153,37.718,8.016,41.418c1.714,3.4,20.587,17.06,29.713,21.134a3.284,3.284,0,0,1,1.988,3.252c-.5,6.386-2.752,23.622-5.013,31.905,0,0,16.195,11.362,46.771,1.852,0,0-.311-21.131-3.626-38a9.164,9.164,0,0,1,2.5-8.252c6.177-6.222,18.431-18.544,19.957-19.931,2.051-1.865,8.576-35.115,8.576-35.115l-9.57-.62s-9.2,24.734-10.441,26.474-16.284,15.538-17.649,16.158S871.625,374.437,867.522,374.532Z" transform="translate(20.675 84.525)" fill="#bbeadb"/>
      <path id="Path_4344" data-name="Path 4344" d="M838.855,367.63c8.1-3.362,13.042-7.059,14.366-16.631.633-4.581,4.382-13.309,3.95-17.7-1.491,4-9.044,24.166-10.164,25.733-.662.929-5.243,5.277-9.586,9.235C837.9,368.054,838.384,367.824,838.855,367.63Z" transform="translate(69.656 84.983)" fill="#83ccc3"/>
      <path id="Path_4345" data-name="Path 4345" d="M830.5,412.5c1.986-.092,7.8-18.476,8.484-21.432.615-2.669,3.15-20.671,3.5-23.219a7.213,7.213,0,0,1,2.867-5.389c5.015-4.435,10.541-8.343,15.849-12.409a8.939,8.939,0,0,1,1.724-.845c-2.645,2.642-5.685,5.7-8.453,8.479l-.408.408-.16.16q-.977.985-1.886,1.9l-.589.591c-.622.628-1.222,1.23-1.766,1.779a9.164,9.164,0,0,0-2.5,8.249c3.315,16.872,3.626,38,3.626,38A80.6,80.6,0,0,1,830.5,412.5Z" transform="translate(58.473 110.689)" fill="#83ccc3"/>
      <path id="Path_4346" data-name="Path 4346" d="M813.135,352.8a45.144,45.144,0,0,0,23.494,23.324c7.59,3.362,9.12,3.788,9.84,4.816-.3,5.361-1.515,10.6-2.622,16.108.474-3.684.824-6.912.986-8.989a3.306,3.306,0,0,0-2-3.275c-9.131-4.081-27.983-17.725-29.7-21.126-.945-1.876-2.993-12.5-4.783-22.513C809.872,345.182,811.481,349.125,813.135,352.8Z" transform="translate(22.673 97.662)" fill="#83ccc3"/>
      <g id="Group_3149" data-name="Group 3149" transform="translate(883.25 285.496) rotate(41)">
        <path id="Path_4088" data-name="Path 4088" d="M110.32,70.8h-2.245a55.167,55.167,0,0,1-105.832,0H0V55.191H0a55.16,55.16,0,1,1,110.32,0h0Z" transform="translate(0 0)" fill="#f9bf30"/>
        <path id="Path_4089" data-name="Path 4089" d="M43.2,107.733A55.17,55.17,0,0,1,2.243,69.476H0V53.867A55.158,55.158,0,0,1,43.2,0Z" transform="translate(0 1.325)" fill="#fdd762"/>
        <path id="Path_4090" data-name="Path 4090" d="M0,0A55.029,55.029,0,0,1,16.006,38.868v15.61H13.761A54.841,54.841,0,0,1,2.689,74.807H0Z" transform="translate(94.315 16.323)" fill="#e8a200"/>
        <g id="Group_898" data-name="Group 898" transform="translate(1.548 0.039)" opacity="0.4">
          <path id="Path_4091" data-name="Path 4091" d="M2.393,40.91a55.178,55.178,0,0,1-2.393,6V0A54.916,54.916,0,0,1,2.393,6.009Z" transform="translate(103.541 31.669)" fill="#e8a200"/>
          <path id="Path_4092" data-name="Path 4092" d="M7.706,94.178A55.329,55.329,0,0,1,0,84.482V25.8c.752-1.193,1.542-2.368,2.393-3.514v63.6H6.9V16.972c.269-.282.527-.569.8-.846.52-.519,1.054-1.016,1.588-1.512V85.887h4.51V10.858c.788-.586,1.584-1.153,2.393-1.692V85.887h4.51V6.471q1.184-.633,2.392-1.205V85.887h4.51V3.377Q28.8,2.939,30,2.558V85.887h4.51V1.335q1.192-.27,2.392-.487V85.887h4.51V.215c.8-.075,1.594-.13,2.393-.172V85.887h4.51V0c.8.022,1.6.065,2.392.122V85.887h4.51V.629c.8.125,1.6.265,2.393.424V85.887h4.51V2.156c.8.232,1.6.487,2.392.756V85.887h4.51V4.682q1.207.532,2.393,1.128V85.887h4.51V8.345q1.212.76,2.392,1.587V85.887h4.51V13.461q1.22,1.059,2.393,2.2V85.887h4.51V20.621c.844,1.051,1.636,2.126,2.392,3.224V85.887h.4a55.225,55.225,0,0,1-23.742,19.84H24.63A54.976,54.976,0,0,1,7.706,94.178Z" transform="translate(6.902 0)" fill="#e8a200"/>
          <path id="Path_4093" data-name="Path 4093" d="M2.393,40.957c-.635-1.595-1.218-3.2-1.7-4.841H0V7.5A54.875,54.875,0,0,1,2.393,0Z" transform="translate(0 34.646)" fill="#e8a200"/>
        </g>
        <ellipse id="Ellipse_27" data-name="Ellipse 27" cx="55.16" cy="55.19" rx="55.16" ry="55.19" transform="translate(0 15.611)" fill="#fdd762"/>
        <path id="Path_4094" data-name="Path 4094" d="M67.505,16.156A55.213,55.213,0,0,1,80.041,74.839,55.17,55.17,0,0,1,3.608,5.931,55.146,55.146,0,0,1,67.505,16.156Z" transform="translate(0.012 45.215)" fill="#fff" opacity="0.2"/>
        <path id="Path_4095" data-name="Path 4095" d="M94.15,19.011A55.146,55.146,0,0,0,.018,56.616a55.146,55.146,0,1,1,110.254,0A55,55,0,0,0,94.15,19.011Z" transform="translate(0.015 12.765)" fill="#fff" opacity="0.7"/>
        <ellipse id="Ellipse_28" data-name="Ellipse 28" cx="39.154" cy="39.176" rx="39.154" ry="39.176" transform="translate(16.006 31.626)" fill="#e8a200"/>
        <path id="Path_4096" data-name="Path 4096" d="M11.466,25.914a39.138,39.138,0,0,0,55.373,0A39.035,39.035,0,0,0,78.264,0,39.153,39.153,0,1,1,.04,0,39.045,39.045,0,0,0,11.466,25.914Z" transform="translate(16.007 69.012)" fill="#f9bf30"/>
        <path id="Path_4097" data-name="Path 4097" d="M38.005,40.413l-3.036-1.5.863-.594L32.868,35.35a11.375,11.375,0,0,1-7.513,3.045A10.249,10.249,0,0,1,18.12,35a14.275,14.275,0,0,1-2.183-2.748,9.6,9.6,0,0,1-1.172-2.9,16.044,16.044,0,0,1-.383-2.78,27.381,27.381,0,0,1,.068-3.01l.351-4.787a24.881,24.881,0,0,0,.071-3.359,8.845,8.845,0,0,0-.657-2.718,7.7,7.7,0,0,0-1.738-2.58q-2.1-2.1-3.721-.469a2.81,2.81,0,0,0-.631,3.092,13.6,13.6,0,0,0,3.3,4.617v3.594L8.834,19.268,5.1,22.011A18.4,18.4,0,0,1,.68,15.126l-.426.831V12.433H.262A10.733,10.733,0,0,1,3.478,5.281L2,3.806,0,5.4V1.8L1.8,0,5.311,3.514a9.94,9.94,0,0,1,13.806.666,14.671,14.671,0,0,1,2.378,3.057,11.964,11.964,0,0,1,1.318,3.332,20.385,20.385,0,0,1,.49,3.287,30.691,30.691,0,0,1-.007,3.489L23,21.978c-.046.931-.071,1.607-.069,2.026a15.769,15.769,0,0,0,.131,1.757,5.558,5.558,0,0,0,.6,2,7.408,7.408,0,0,0,1.293,1.694,3.956,3.956,0,0,0,1.993,1.1,2.1,2.1,0,0,0,1.992-.579,2.473,2.473,0,0,0,.619-.831,1.513,1.513,0,0,0,.109-.6l-3.087-1.113V23.848l6.255-4.826c.513.562.969,1.081,1.371,1.565a18.2,18.2,0,0,1,1.26,1.749,12.98,12.98,0,0,1,1.047,1.959,9.663,9.663,0,0,1,.595,2.114,7.693,7.693,0,0,1,.1,1.073l.007.015v3.781l-.8-.287c-.012.022-.017.045-.029.07a10.723,10.723,0,0,1-1.67,2.473l3.285,3.287Z" transform="translate(36.411 48.888)" fill="#f9bf30"/>
        <g id="Group_899" data-name="Group 899" transform="translate(36.411 52.481)">
          <path id="Path_4098" data-name="Path 4098" d="M0,1.8,3.478,5.281Q-.089,9.2.288,13.244T5.1,22.011l6.325-4.649a13.6,13.6,0,0,1-3.3-4.617,2.81,2.81,0,0,1,.631-3.092q1.624-1.632,3.721.469A7.71,7.71,0,0,1,14.214,12.7a8.876,8.876,0,0,1,.657,2.72,24.839,24.839,0,0,1-.071,3.356l-.351,4.789a27.39,27.39,0,0,0-.068,3.01,16.044,16.044,0,0,0,.383,2.78,9.6,9.6,0,0,0,1.172,2.9A14.277,14.277,0,0,0,18.12,35a10.249,10.249,0,0,0,7.236,3.391,11.375,11.375,0,0,0,7.513-3.045l3.3,3.3,1.835-1.834L34.72,33.533a10.724,10.724,0,0,0,1.67-2.473,8.352,8.352,0,0,0,.76-2.368,7.437,7.437,0,0,0-.045-2.283,9.686,9.686,0,0,0-.595-2.116,13.084,13.084,0,0,0-1.047-1.957,18.187,18.187,0,0,0-1.26-1.749c-.4-.484-.858-1-1.371-1.565l-6.255,4.826q.715.752,1.171,1.258t.926,1.12a5.849,5.849,0,0,1,.681,1.066,3.944,3.944,0,0,1,.3.943,1.571,1.571,0,0,1-.1.918,2.473,2.473,0,0,1-.619.831,2.1,2.1,0,0,1-1.992.579,3.975,3.975,0,0,1-1.993-1.1,7.464,7.464,0,0,1-1.293-1.695,5.558,5.558,0,0,1-.6-2A15.769,15.769,0,0,1,22.927,24c0-.419.023-1.1.069-2.026l.3-4.637a30.647,30.647,0,0,0,.007-3.486,20.342,20.342,0,0,0-.49-3.287,11.933,11.933,0,0,0-1.318-3.332A14.674,14.674,0,0,0,19.116,4.18,9.94,9.94,0,0,0,5.311,3.514L1.8,0Z" fill="#fdd762"/>
        </g>
      </g>
      <g id="Group_3242" data-name="Group 3242" transform="translate(863.82 412.177)">
        <path id="Path_4347" data-name="Path 4347" d="M839.162,343.033s-1.347,12.4,2.682,14.245c0,0-4.61,10.07-11.731,9.709s-4.809-4.406-4.809-4.406,3.351-3.561,1.721-13.071S839.162,343.033,839.162,343.033Z" transform="translate(-814.33 -312.207)" fill="#fcd4ca"/>
        <path id="Path_4348" data-name="Path 4348" d="M838.528,360.839a13.457,13.457,0,0,0-12.783-1.858,22.777,22.777,0,0,0,.078-9.471c-1.632-9.51,12.137-6.478,12.137-6.478s-1.347,12.4,2.682,14.245A25.426,25.426,0,0,1,838.528,360.839Z" transform="translate(-813.128 -312.207)" fill="#e8a393"/>
        <path id="Path_4349" data-name="Path 4349" d="M828.695,340.645a6.98,6.98,0,1,0,3.7-9.112A6.956,6.956,0,0,0,828.695,340.645Z" transform="translate(-809.165 -330.966)" fill="#ff2c9c"/>
        <path id="Path_4350" data-name="Path 4350" d="M827.176,337.958s-3.634,3.011-3.043,7.053.426,2.328-.191,3.158-3.558,5.894-2.98,6.3a15.239,15.239,0,0,0,4.019.874s-.256,2.054-.526,4.843,8.948,2.174,11.318-.055,7.456-9.664,4.863-16.5S832.887,333.17,827.176,337.958Z" transform="translate(-820.887 -323.193)" fill="#fcd4ca"/>
        <path id="Path_4351" data-name="Path 4351" d="M843.428,334.067s-6.248-.249-9.152-.3-6.441-.489-9.654,1.855-4.864,7.412-1.188,10.789c0,0,1.057-4.524,3.825-4.869s3.82,3.634,6.01,4.968,2.438,9.251,1.693,11.551c0,0-9.186,4.8-11.062,3.723,0,0-.3,1.656-.542,4.51s-.861,7.093,2.758,7.409,11.823-5.13,12.254-6.206.139-8.5,3.328-8.709,3.095,1.722,3.095,1.722,2.185.4,4.686-4.56,1.049-9.186-1.227-12.357A55.026,55.026,0,0,1,843.428,334.067Z" transform="translate(-820.155 -326.554)" fill="#ff2c9c"/>
        <path id="Path_4352" data-name="Path 4352" d="M827.728,346.433A21.321,21.321,0,0,1,829,340.861c.952-2.051,4.084-1.423,4.751,1.855S827.453,348.419,827.728,346.433Z" transform="translate(-809.844 -316.881)" fill="#fcd4ca"/>
        <path id="Path_4353" data-name="Path 4353" d="M830.391,340.29a2.607,2.607,0,0,0-2.166,2.1c-.348,1.771,1.222,3.425,1.824,2.132s-.155-1.693-.314-2.383A2.15,2.15,0,0,1,830.391,340.29Z" transform="translate(-809.109 -315.897)" fill="#e8a393"/>
      </g>
    </g>
  </g>
</svg>
