<svg xmlns="http://www.w3.org/2000/svg" width="19.147" height="19.147" viewBox="0 0 19.147 19.147">
  <path id="Path_3976" data-name="Path 3976" d="M-491.026,659.892a9.277,9.277,0,0,1-1.293,4.787,9.679,9.679,0,0,1-3.493,3.494,9.282,9.282,0,0,1-4.787,1.293,9.282,9.282,0,0,1-4.787-1.293,9.677,9.677,0,0,1-3.493-3.494,9.275,9.275,0,0,1-1.293-4.787,9.279,9.279,0,0,1,1.293-4.787,9.676,9.676,0,0,1,3.493-3.493,9.281,9.281,0,0,1,4.787-1.293,9.281,9.281,0,0,1,4.787,1.293,9.677,9.677,0,0,1,3.493,3.493A9.281,9.281,0,0,1-491.026,659.892Zm-9.3-6.408a5.174,5.174,0,0,0-2.663.656,5.392,5.392,0,0,0-1.853,1.814.386.386,0,0,0-.077.328.484.484,0,0,0,.193.29l1.351,1a.361.361,0,0,0,.309.1.42.42,0,0,0,.309-.173,7.4,7.4,0,0,1,.965-1,2.075,2.075,0,0,1,1.235-.386,2.176,2.176,0,0,1,1.216.367,1.069,1.069,0,0,1,.56.907.949.949,0,0,1-.347.733,7.443,7.443,0,0,1-.888.579l-.077.039a5.578,5.578,0,0,0-1.351.965,2.442,2.442,0,0,0-.695,1.737v.154a.444.444,0,0,0,.135.328.444.444,0,0,0,.328.135h2.162a.446.446,0,0,0,.328-.135.446.446,0,0,0,.135-.328v-.039a.667.667,0,0,1,.309-.54,6.6,6.6,0,0,1,.734-.463,6.939,6.939,0,0,0,1.428-1.081,2.934,2.934,0,0,0,.733-2.046,3.32,3.32,0,0,0-.656-1.988,4.6,4.6,0,0,0-1.7-1.428A4.7,4.7,0,0,0-500.329,653.484Zm-.27,9.574a1.709,1.709,0,0,0-1.254.521,1.709,1.709,0,0,0-.521,1.255,1.709,1.709,0,0,0,.521,1.254,1.71,1.71,0,0,0,1.254.521,1.71,1.71,0,0,0,1.254-.521,1.709,1.709,0,0,0,.521-1.254,1.709,1.709,0,0,0-.521-1.255A1.709,1.709,0,0,0-500.6,663.058Z" transform="translate(510.173 -650.319)" fill="#fff"/>
</svg>
