<svg xmlns="http://www.w3.org/2000/svg" width="326.809" height="305.254" viewBox="0 0 326.809 305.254">
  <g id="Group_3261" data-name="Group 3261" transform="translate(-926.306 -362.796)">
    <g id="Group_3192" data-name="Group 3192" transform="translate(670.085 300.435)">
      <ellipse id="Ellipse_11" data-name="Ellipse 11" cx="53.243" cy="12.904" rx="53.243" ry="12.904" transform="translate(278.538 302.806)" fill="#d4ecff"/>
      <g id="Group_863" data-name="Group 863" transform="translate(265 30)">
        <path id="Path_3978" data-name="Path 3978" d="M296.82,293.14l-10.514-6.07-10.514,6.07,10.514,6.07Z" fill="#d4ecff"/>
        <g id="Group_862" data-name="Group 862">
          <g id="Group_859" data-name="Group 859">
            <path id="Path_3979" data-name="Path 3979" d="M286.306,292.4V277.863l11.085-6.4V286Z" fill="#721bd5"/>
            <path id="Path_3980" data-name="Path 3980" d="M286.306,277.863l-11.085-6.4V286l11.085,6.4Z" fill="#b45ef4"/>
          </g>
          <g id="Group_860" data-name="Group 860">
            <path id="Path_3981" data-name="Path 3981" d="M286.306,277.863V267.6l11.085-6.4v10.267Z" fill="#e8a200"/>
            <path id="Path_3982" data-name="Path 3982" d="M286.306,267.6l-11.085-6.4v10.267l11.085,6.4Z" fill="#f9bf30"/>
          </g>
          <g id="Group_861" data-name="Group 861">
            <path id="Path_3983" data-name="Path 3983" d="M286.306,267.6v-7.362l11.085-6.4V261.2Z" fill="#5793ce"/>
            <path id="Path_3984" data-name="Path 3984" d="M286.306,260.234l-11.085-6.4V261.2l11.085,6.4Z" fill="#01c8ef"/>
            <path id="Path_3985" data-name="Path 3985" d="M297.391,253.835l-11.085-6.4-11.085,6.4,11.085,6.4Z" fill="#396caa"/>
          </g>
        </g>
      </g>
      <g id="Group_864" data-name="Group 864">
        <rect id="Rectangle_342" data-name="Rectangle 342" width="2.254" height="6.549" transform="matrix(-0.574, -0.819, 0.819, -0.574, 546.469, 180.823)" fill="#fdd762"/>
        <rect id="Rectangle_343" data-name="Rectangle 343" width="2.254" height="6.549" transform="matrix(-0.574, -0.819, 0.819, -0.574, 548.382, 176.727)" fill="#fdd762"/>
        <rect id="Rectangle_344" data-name="Rectangle 344" width="2.254" height="6.549" transform="matrix(-0.574, -0.819, 0.819, -0.574, 550.295, 172.63)" fill="#fdd762"/>
        <rect id="Rectangle_345" data-name="Rectangle 345" width="2.254" height="6.549" transform="matrix(-0.574, -0.819, 0.819, -0.574, 552.208, 168.534)" fill="#fdd762"/>
      </g>
      <g id="Group_869" data-name="Group 869" transform="translate(55 47)">
        <g id="Group_865" data-name="Group 865">
          <path id="Path_3986" data-name="Path 3986" d="M524.129,204.755l-12.277-7.088-12.277,7.088,12.277,7.088Z" fill="#d4ecff"/>
          <path id="Path_3987" data-name="Path 3987" d="M517.6,193.3v-44.15l10.428-6.021v44.15Z" fill="#1d31c6"/>
          <path id="Path_3988" data-name="Path 3988" d="M517.6,149.146l-10.428-6.021v44.15L517.6,193.3Z" fill="#1d8cc6"/>
          <path id="Path_3989" data-name="Path 3989" d="M528.03,143.125,517.6,137.1l-10.428,6.02,10.428,6.021Z" fill="#00a0c9"/>
        </g>
        <g id="Group_866" data-name="Group 866">
          <path id="Path_3990" data-name="Path 3990" d="M528.03,195.3,517.6,189.283V193.3l10.428,6.021Z" fill="#95d359"/>
        </g>
        <g id="Group_867" data-name="Group 867">
          <path id="Path_3991" data-name="Path 3991" d="M507.174,199.317V167.207l10.428-6.021V193.3Z" fill="#c13d1a"/>
          <path id="Path_3992" data-name="Path 3992" d="M507.174,167.207l-10.428-6.021V193.3l10.428,6.021Z" fill="#db5126"/>
          <path id="Path_3993" data-name="Path 3993" d="M517.6,161.187l-10.428-6.02-10.428,6.02,10.428,6.021Z" fill="#ef602e"/>
          <path id="Path_3994" data-name="Path 3994" d="M507.174,199.317V167.207l10.428-6.021V193.3Z" fill="#5793ce"/>
          <path id="Path_3995" data-name="Path 3995" d="M507.174,167.207l-10.428-6.021V193.3l10.428,6.021Z" fill="#01c8ef"/>
          <path id="Path_3996" data-name="Path 3996" d="M517.6,161.187l-10.428-6.02-10.428,6.02,10.428,6.021Z" fill="#396caa"/>
        </g>
        <g id="Group_868" data-name="Group 868">
          <path id="Path_3997" data-name="Path 3997" d="M517.6,205.337V187.276l10.428-6.02v18.062Z" fill="#e8a200"/>
          <path id="Path_3998" data-name="Path 3998" d="M517.6,187.276l-10.428-6.02v18.062l10.428,6.021Z" fill="#f9bf30"/>
          <path id="Path_3999" data-name="Path 3999" d="M528.03,181.255,517.6,175.235l-10.428,6.021,10.428,6.02Z" fill="#fdd762"/>
        </g>
      </g>
      <g id="Group_872" data-name="Group 872">
        <path id="Path_4000" data-name="Path 4000" d="M330.193,112.356,319.7,106.3l-10.489,6.056,10.489,6.056Z" fill="#d4ecff"/>
        <g id="Group_870" data-name="Group 870">
          <path id="Path_4001" data-name="Path 4001" d="M319.7,112.794V105.97l12.532-7.235v6.824Z" fill="#e8a200"/>
          <path id="Path_4002" data-name="Path 4002" d="M319.7,105.97l-12.532-7.235v6.824l12.532,7.235Z" fill="#f9bf30"/>
          <path id="Path_4003" data-name="Path 4003" d="M332.236,98.735,319.7,91.5l-12.532,7.235L319.7,105.97Z" fill="#fdd762"/>
          <path id="Path_4004" data-name="Path 4004" d="M328.012,98.735l-8.308-4.8-8.308,4.8,8.308,4.8Z" fill="#e8a200"/>
        </g>
        <g id="Group_871" data-name="Group 871">
          <path id="Path_4005" data-name="Path 4005" d="M319.7,99.644V92.82l12.532-7.235v6.824Z" fill="#5793ce"/>
          <path id="Path_4006" data-name="Path 4006" d="M319.7,92.82l-12.532-7.235v6.824L319.7,99.644Z" fill="#01c8ef"/>
          <path id="Path_4007" data-name="Path 4007" d="M332.236,85.585,319.7,78.349l-12.532,7.235L319.7,92.82Z" fill="#396caa"/>
        </g>
      </g>
      <g id="Group_873" data-name="Group 873">
        <rect id="Rectangle_346" data-name="Rectangle 346" width="9.5" height="2" transform="translate(482.291 322.294) rotate(-45)" fill="#b45ef4"/>
        <rect id="Rectangle_347" data-name="Rectangle 347" width="2" height="9.5" transform="translate(482.291 316.99) rotate(-44.996)" fill="#b45ef4"/>
      </g>
      <path id="Path_4008" data-name="Path 4008" d="M481.458,136.908a9.167,9.167,0,1,1,9.166-9.166A9.177,9.177,0,0,1,481.458,136.908Zm0-16.333a7.167,7.167,0,1,0,7.166,7.167A7.175,7.175,0,0,0,481.458,120.575Z" transform="translate(61 -40)" fill="#ff2c9c"/>
      <circle id="Ellipse_12" data-name="Ellipse 12" cx="6.625" cy="6.625" r="6.625" transform="translate(527.666 87.159)" fill="#fdd762"/>
      <g id="Group_874" data-name="Group 874">
        <rect id="Rectangle_348" data-name="Rectangle 348" width="9.5" height="2" transform="translate(306.465 146.729) rotate(-45)" fill="#b45ef4"/>
        <rect id="Rectangle_349" data-name="Rectangle 349" width="2" height="9.5" transform="translate(306.465 141.425) rotate(-45)" fill="#b45ef4"/>
      </g>
      <circle id="Ellipse_13" data-name="Ellipse 13" cx="4.857" cy="4.857" r="4.857" transform="translate(315.816 197.843)" fill="#fdd762"/>
      <g id="Group_876" data-name="Group 876">
        <g id="Group_875" data-name="Group 875">
          <path id="Path_4009" data-name="Path 4009" d="M350.555,305.065a2.218,2.218,0,1,1,1.862,2.524A2.218,2.218,0,0,1,350.555,305.065Z" fill="#1d31c6"/>
        </g>
        <rect id="Rectangle_350" data-name="Rectangle 350" width="9.231" height="9.231" transform="matrix(-0.989, -0.149, 0.149, -0.989, 368.837, 321.295)" fill="#1d31c6"/>
      </g>
      <g id="Group_928" data-name="Group 928">
        <g id="Group_927" data-name="Group 927">
          <path id="Path_4195" data-name="Path 4195" d="M373.1,82.057a2.217,2.217,0,1,1-1.292-2.857A2.217,2.217,0,0,1,373.1,82.057Z" fill="#01c8ef"/>
        </g>
        <rect id="Rectangle_351" data-name="Rectangle 351" width="9.231" height="9.231" transform="translate(358.624 62.361) rotate(20.659)" fill="#fdd762"/>
      </g>
      <g id="Group_3150" data-name="Group 3150" transform="translate(-19 50)">
        <path id="Path_3978-2" data-name="Path 3978" d="M296.82,293.14l-10.514-6.07-10.514,6.07,10.514,6.07Z" fill="#d4ecff"/>
        <g id="Group_862-2" data-name="Group 862">
          <g id="Group_859-2" data-name="Group 859">
            <path id="Path_3979-2" data-name="Path 3979" d="M286.306,292.4V277.863l11.085-6.4V286Z" fill="#721bd5"/>
            <path id="Path_3980-2" data-name="Path 3980" d="M286.306,277.863l-11.085-6.4V286l11.085,6.4Z" fill="#b45ef4"/>
          </g>
          <g id="Group_860-2" data-name="Group 860">
            <path id="Path_3981-2" data-name="Path 3981" d="M286.306,277.863V267.6l11.085-6.4v10.267Z" fill="#e8a200"/>
            <path id="Path_3982-2" data-name="Path 3982" d="M286.306,267.6l-11.085-6.4v10.267l11.085,6.4Z" fill="#f9bf30"/>
          </g>
          <g id="Group_861-2" data-name="Group 861">
            <path id="Path_3983-2" data-name="Path 3983" d="M286.306,267.6v-7.362l11.085-6.4V261.2Z" fill="#5793ce"/>
            <path id="Path_3984-2" data-name="Path 3984" d="M286.306,260.234l-11.085-6.4V261.2l11.085,6.4Z" fill="#01c8ef"/>
            <path id="Path_3985-2" data-name="Path 3985" d="M297.391,253.835l-11.085-6.4-11.085,6.4,11.085,6.4Z" fill="#396caa"/>
          </g>
        </g>
      </g>
      <ellipse id="Ellipse_43" data-name="Ellipse 43" cx="32.743" cy="18.904" rx="32.743" ry="18.904" transform="translate(400.538 329.806)" fill="#d4ecff"/>
      <g id="Group_3200" data-name="Group 3200" transform="translate(-54 66)">
        <g id="Group_917" data-name="Group 917">
          <path id="Path_4144" data-name="Path 4144" d="M524.486,254.87h-1.559c-1.748-3.434-4.968-6.673-9.661-9.382-14.959-8.637-39.213-8.637-54.172,0-4.693,2.71-7.912,5.948-9.66,9.383h-1.559v6.255h0c0,5.66,3.741,11.32,11.22,15.638,14.959,8.637,39.213,8.637,54.172,0,7.479-4.319,11.219-9.979,11.219-15.639h0Z" fill="#f9bf30"/>
          <path id="Path_4145" data-name="Path 4145" d="M477.873,239.54a50.781,50.781,0,0,0-18.779,5.947c-4.693,2.71-7.912,5.948-9.66,9.383h-1.559v6.255c0,5.66,3.741,11.32,11.22,15.638a50.776,50.776,0,0,0,18.778,5.948Z" fill="#fdd762"/>
          <path id="Path_4146" data-name="Path 4146" d="M513.371,276.7c7.408-4.311,11.115-9.943,11.115-15.576V254.87h-1.559a22.332,22.332,0,0,0-7.69-8.146h-1.866Z" fill="#e8a200"/>
          <g id="Group_915" data-name="Group 915" opacity="0.4">
            <path id="Path_4147" data-name="Path 4147" d="M522.514,254.142a18.255,18.255,0,0,0-1.661-2.4v18.8a18.292,18.292,0,0,0,1.661-2.408Z" fill="#e8a200"/>
            <path id="Path_4148" data-name="Path 4148" d="M459.094,245.487a30.171,30.171,0,0,0-5.35,3.886v23.512c.521.478,1.071.949,1.662,1.408V248.809h3.132v27.615c.187.113.365.228.557.339.361.209.732.407,1.1.606v-28.56h3.132v30.065q.819.354,1.662.678V248.809h3.132v31.823q.822.255,1.661.483V248.809h3.132v33.063q.825.176,1.662.328V248.809h3.131V282.69q.828.108,1.662.2V248.809h3.132v34.33c.553.031,1.107.052,1.661.069v-34.4H487.3v34.417q.832-.014,1.662-.049V248.809h3.132v34.164c.555-.05,1.109-.1,1.661-.169V248.809h3.132v33.553q.837-.139,1.662-.3V248.809h3.132V281.35q.839-.215,1.661-.452V248.809h3.132v31.072q.843-.3,1.662-.636V248.809h3.132v29.023c.564-.284,1.119-.576,1.661-.882V248.809h3.132v26.154c.586-.421,1.137-.853,1.662-1.292V248.809H518a31.064,31.064,0,0,0-4.732-3.321,46.069,46.069,0,0,0-11.754-4.628H470.847A46.1,46.1,0,0,0,459.094,245.487Z" fill="#e8a200"/>
            <path id="Path_4149" data-name="Path 4149" d="M450.612,252.931a17.07,17.07,0,0,0-1.178,1.939h-.483v11.466a16.448,16.448,0,0,0,1.661,3.007Z" fill="#e8a200"/>
          </g>
          <ellipse id="Ellipse_36" data-name="Ellipse 36" cx="38.305" cy="22.115" rx="38.305" ry="22.115" transform="translate(447.875 232.755)" fill="#fdd762"/>
          <path id="Path_4150" data-name="Path 4150" d="M494.762,258.649c11.012-6.357,13.906-15.622,8.7-23.514-14.371-4.2-32.364-2.836-44.372,4.1-11.012,6.358-13.906,15.622-8.7,23.515C464.761,266.944,482.754,265.582,494.762,258.649Z" fill="#fff" opacity="0.2"/>
          <path id="Path_4151" data-name="Path 4151" d="M513.267,270.508c-14.959,8.637-39.213,8.637-54.172,0-7.228-4.174-10.953-9.6-11.2-15.068-.26,5.848,3.465,11.745,11.2,16.208,14.959,8.637,39.213,8.637,54.172,0,7.73-4.464,11.455-10.36,11.195-16.208C524.219,260.909,520.495,266.335,513.267,270.508Z" fill="#fff" opacity="0.7"/>
          <ellipse id="Ellipse_37" data-name="Ellipse 37" cx="27.19" cy="15.698" rx="27.19" ry="15.698" transform="translate(458.99 239.172)" fill="#e8a200"/>
          <path id="Path_4152" data-name="Path 4152" d="M466.954,245.2c10.618-6.13,27.834-6.13,38.453,0,4.993,2.883,7.637,6.608,7.934,10.384.335-4.254-2.309-8.57-7.934-11.818-10.619-6.13-27.835-6.131-38.453,0-5.625,3.247-8.268,7.563-7.934,11.816C459.317,251.811,461.961,248.086,466.954,245.2Z" fill="#f9bf30"/>
          <path id="Path_4153" data-name="Path 4153" d="M499.552,247.457l-2.107.6.6.238-2.058,1.188a11.6,11.6,0,0,0-5.218-1.219,9.967,9.967,0,0,0-5.024,1.359,7.786,7.786,0,0,0-1.517,1.1,3.246,3.246,0,0,0-.813,1.162,3.909,3.909,0,0,0-.266,1.114,6.187,6.187,0,0,0,.047,1.206l.244,1.919a5.757,5.757,0,0,1,.048,1.345,2.408,2.408,0,0,1-.455,1.09,3.679,3.679,0,0,1-1.207,1.033,2.463,2.463,0,0,1-2.585.189q-.861-.5-.437-1.24a6.689,6.689,0,0,1,2.294-1.85v-1.44l-1.8.676-2.592-1.1a8.388,8.388,0,0,0-3.071,2.759l-.3-.332v1.411h.006c.009.969.748,1.925,2.233,2.865l-1.024.592-1.391-.637v1.44l1.249.721,2.439-1.408a10.639,10.639,0,0,0,4.933.984,9.807,9.807,0,0,0,4.654-1.25,7.853,7.853,0,0,0,1.65-1.226,3.966,3.966,0,0,0,.916-1.335,5.014,5.014,0,0,0,.34-1.317,7.026,7.026,0,0,0-.006-1.4l-.206-1.857q-.05-.561-.049-.813a3.79,3.79,0,0,1,.091-.7,1.623,1.623,0,0,1,.419-.8,3.862,3.862,0,0,1,.9-.68,3.655,3.655,0,0,1,1.383-.441,2.226,2.226,0,0,1,1.383.231,1.292,1.292,0,0,1,.431.333.4.4,0,0,1,.076.241l-2.145.446v1.44l4.345,1.933q.532-.336.952-.627a9.062,9.062,0,0,0,.875-.7,5.154,5.154,0,0,0,.727-.784,2.788,2.788,0,0,0,.413-.848,1.92,1.92,0,0,0,.071-.43l.005-.005v-.022a.133.133,0,0,1,0-.02v-1.473l-.554.115c-.008-.01-.011-.019-.019-.029a5.155,5.155,0,0,0-1.16-.991l2.28-1.317Z" fill="#f9bf30"/>
          <g id="Group_916" data-name="Group 916">
            <path id="Path_4154" data-name="Path 4154" d="M473.161,261.49l2.415-1.395q-2.477-1.569-2.215-3.191t3.343-3.513l4.393,1.863a6.7,6.7,0,0,0-2.294,1.85q-.425.742.437,1.24a2.461,2.461,0,0,0,2.585-.189,3.679,3.679,0,0,0,1.207-1.033,2.408,2.408,0,0,0,.455-1.09,5.759,5.759,0,0,0-.048-1.345l-.244-1.919a6.184,6.184,0,0,1-.047-1.206,3.909,3.909,0,0,1,.266-1.114,3.254,3.254,0,0,1,.813-1.162,7.786,7.786,0,0,1,1.517-1.1,9.977,9.977,0,0,1,5.024-1.359,11.609,11.609,0,0,1,5.218,1.219l2.293-1.324,1.273.735-2.28,1.318a5.13,5.13,0,0,1,1.16.991,2.5,2.5,0,0,1,.527.949,1.731,1.731,0,0,1-.03.915,2.794,2.794,0,0,1-.413.847,5.154,5.154,0,0,1-.727.784,9.062,9.062,0,0,1-.875.7q-.418.291-.952.627l-4.345-1.933q.5-.3.814-.505c.21-.135.424-.285.642-.448a2.644,2.644,0,0,0,.474-.428,1.153,1.153,0,0,0,.206-.378.391.391,0,0,0-.067-.368,1.291,1.291,0,0,0-.431-.333,2.226,2.226,0,0,0-1.383-.231,3.655,3.655,0,0,0-1.383.441,3.862,3.862,0,0,0-.9.68,1.632,1.632,0,0,0-.419.8,3.79,3.79,0,0,0-.091.7c0,.168.016.44.049.813l.206,1.857a7.026,7.026,0,0,1,.006,1.4,5.015,5.015,0,0,1-.34,1.317,3.966,3.966,0,0,1-.916,1.335,7.853,7.853,0,0,1-1.65,1.226,9.785,9.785,0,0,1-4.654,1.25,10.639,10.639,0,0,1-4.933-.984l-2.439,1.408Z" fill="#fdd762"/>
          </g>
        </g>
        <g id="Group_920" data-name="Group 920">
          <path id="Path_4155" data-name="Path 4155" d="M529.083,245.482h-1.559c-1.748-3.435-4.967-6.673-9.661-9.382-14.959-8.637-39.212-8.637-54.171,0-4.694,2.71-7.913,5.948-9.661,9.383h-1.558v6.255h0c0,5.66,3.74,11.32,11.219,15.638,14.96,8.637,39.213,8.637,54.172,0,7.48-4.319,11.219-9.979,11.219-15.639h0Z" fill="#f9bf30"/>
          <path id="Path_4156" data-name="Path 4156" d="M482.47,230.152a50.77,50.77,0,0,0-18.778,5.947c-4.694,2.71-7.913,5.948-9.661,9.383h-1.558v6.255c0,5.66,3.74,11.32,11.219,15.638a50.776,50.776,0,0,0,18.778,5.948Z" fill="#fdd762"/>
          <path id="Path_4157" data-name="Path 4157" d="M517.968,267.313c7.408-4.311,11.115-9.943,11.115-15.576v-6.255h-1.559a22.332,22.332,0,0,0-7.69-8.146h-1.866Z" fill="#e8a200"/>
          <g id="Group_918" data-name="Group 918" opacity="0.4">
            <path id="Path_4158" data-name="Path 4158" d="M527.112,244.754a18.436,18.436,0,0,0-1.662-2.4v18.8a18.3,18.3,0,0,0,1.662-2.408Z" fill="#e8a200"/>
            <path id="Path_4159" data-name="Path 4159" d="M463.692,236.1a30.218,30.218,0,0,0-5.351,3.886V263.5c.522.478,1.071.949,1.662,1.408V239.421h3.132v27.615c.187.113.366.228.557.339.362.208.733.407,1.1.606v-28.56h3.132v30.065q.819.354,1.662.678V239.421h3.132v31.823q.822.255,1.661.483V239.421h3.132v33.063q.826.176,1.662.328V239.421h3.132V273.3q.828.108,1.661.2V239.421H487.1v34.33c.553.031,1.107.052,1.662.069v-34.4H491.9v34.417q.831-.014,1.661-.049V239.421h3.132v34.164c.556-.05,1.11-.1,1.662-.169V239.421h3.132v33.553q.836-.139,1.661-.3V239.421h3.132v32.541q.838-.213,1.662-.453V239.421h3.132v31.072q.842-.3,1.661-.636V239.421h3.132v29.023c.565-.284,1.12-.576,1.662-.882V239.421h3.131v26.153c.587-.42,1.137-.852,1.662-1.291V239.421h.277a31.064,31.064,0,0,0-4.732-3.321,46.04,46.04,0,0,0-11.754-4.628H475.444A46.09,46.09,0,0,0,463.692,236.1Z" fill="#e8a200"/>
            <path id="Path_4160" data-name="Path 4160" d="M455.209,243.543a17.217,17.217,0,0,0-1.178,1.939h-.483v11.466a16.444,16.444,0,0,0,1.661,3.007Z" fill="#e8a200"/>
          </g>
          <ellipse id="Ellipse_38" data-name="Ellipse 38" cx="38.305" cy="22.115" rx="38.305" ry="22.115" transform="translate(452.473 223.367)" fill="#fdd762"/>
          <path id="Path_4161" data-name="Path 4161" d="M499.359,249.261c11.012-6.358,13.906-15.622,8.7-23.514-14.371-4.2-32.365-2.836-44.372,4.1-11.013,6.358-13.907,15.622-8.7,23.515C469.358,257.556,487.351,256.194,499.359,249.261Z" fill="#fff" opacity="0.2"/>
          <path id="Path_4162" data-name="Path 4162" d="M517.864,261.121c-14.959,8.636-39.212,8.636-54.172,0-7.228-4.174-10.953-9.6-11.2-15.068-.259,5.848,3.465,11.745,11.2,16.208,14.96,8.637,39.213,8.637,54.172,0,7.73-4.464,11.455-10.36,11.2-16.208C528.816,251.521,525.092,256.947,517.864,261.121Z" fill="#fff" opacity="0.7"/>
          <ellipse id="Ellipse_39" data-name="Ellipse 39" cx="27.19" cy="15.698" rx="27.19" ry="15.698" transform="translate(463.588 229.784)" fill="#e8a200"/>
          <path id="Path_4163" data-name="Path 4163" d="M471.551,235.815c10.618-6.13,27.834-6.13,38.453,0,4.994,2.884,7.637,6.609,7.934,10.385.335-4.253-2.309-8.57-7.934-11.818-10.619-6.131-27.835-6.131-38.453,0-5.624,3.247-8.268,7.563-7.934,11.816C463.915,242.423,466.558,238.7,471.551,235.815Z" fill="#f9bf30"/>
          <path id="Path_4164" data-name="Path 4164" d="M504.15,238.069l-2.108.6.6.238-2.058,1.188a11.623,11.623,0,0,0-5.218-1.22,9.981,9.981,0,0,0-5.024,1.36,7.744,7.744,0,0,0-1.516,1.1,3.237,3.237,0,0,0-.814,1.162,3.945,3.945,0,0,0-.266,1.114,6.35,6.35,0,0,0,.047,1.206l.244,1.919a5.767,5.767,0,0,1,.049,1.345,2.421,2.421,0,0,1-.456,1.09,3.679,3.679,0,0,1-1.207,1.033,2.459,2.459,0,0,1-2.584.189q-.863-.5-.438-1.24a6.7,6.7,0,0,1,2.294-1.85v-1.44l-1.8.676-2.591-1.1a8.392,8.392,0,0,0-3.072,2.759l-.3-.332v1.412h.006c.009.969.748,1.924,2.233,2.865l-1.024.592-1.391-.637v1.44l1.249.721,2.439-1.408a10.643,10.643,0,0,0,4.934.984,9.807,9.807,0,0,0,4.653-1.25,7.862,7.862,0,0,0,1.651-1.226,3.962,3.962,0,0,0,.915-1.335,5.014,5.014,0,0,0,.34-1.317,7.1,7.1,0,0,0-.005-1.4l-.207-1.857c-.032-.374-.049-.645-.048-.813a3.629,3.629,0,0,1,.091-.7,1.63,1.63,0,0,1,.418-.8,3.906,3.906,0,0,1,.9-.68,3.637,3.637,0,0,1,1.384-.441,2.224,2.224,0,0,1,1.382.231,1.279,1.279,0,0,1,.431.333.4.4,0,0,1,.076.241l-2.144.446v1.44l4.344,1.933q.533-.336.952-.627a9.058,9.058,0,0,0,.875-.7,5.155,5.155,0,0,0,.727-.784,2.765,2.765,0,0,0,.413-.848,1.813,1.813,0,0,0,.071-.43l.005-.005v-1.515l-.553.115c-.008-.01-.012-.019-.02-.028a5.157,5.157,0,0,0-1.16-.992l2.281-1.317Z" fill="#f9bf30"/>
          <g id="Group_919" data-name="Group 919">
            <path id="Path_4165" data-name="Path 4165" d="M477.758,252.1l2.415-1.4q-2.477-1.569-2.215-3.191T481.3,244l4.392,1.863a6.711,6.711,0,0,0-2.294,1.85q-.424.742.438,1.24a2.459,2.459,0,0,0,2.584-.189,3.679,3.679,0,0,0,1.207-1.033,2.421,2.421,0,0,0,.456-1.09,5.767,5.767,0,0,0-.049-1.345l-.244-1.919a6.347,6.347,0,0,1-.047-1.206,3.945,3.945,0,0,1,.266-1.114,3.246,3.246,0,0,1,.814-1.162,7.744,7.744,0,0,1,1.516-1.1,9.98,9.98,0,0,1,5.024-1.359,11.609,11.609,0,0,1,5.218,1.219l2.293-1.324,1.274.735-2.281,1.317a5.156,5.156,0,0,1,1.16.992,2.482,2.482,0,0,1,.527.949,1.727,1.727,0,0,1-.03.914,2.765,2.765,0,0,1-.413.848,5.155,5.155,0,0,1-.727.784,9.058,9.058,0,0,1-.875.7q-.418.291-.952.627l-4.344-1.933q.5-.3.813-.505c.21-.135.424-.285.643-.448a2.668,2.668,0,0,0,.473-.428,1.154,1.154,0,0,0,.206-.378.391.391,0,0,0-.067-.368,1.291,1.291,0,0,0-.431-.333,2.224,2.224,0,0,0-1.382-.231,3.654,3.654,0,0,0-1.384.441,3.906,3.906,0,0,0-.9.68,1.63,1.63,0,0,0-.418.8,3.629,3.629,0,0,0-.091.7c0,.168.016.44.048.813l.207,1.857a7.1,7.1,0,0,1,.005,1.4,5.03,5.03,0,0,1-.34,1.318,3.969,3.969,0,0,1-.915,1.334,7.862,7.862,0,0,1-1.651,1.226,9.807,9.807,0,0,1-4.653,1.251,10.657,10.657,0,0,1-4.934-.985l-2.439,1.408Z" fill="#fdd762"/>
          </g>
        </g>
      </g>
    </g>
    <g id="Group_3191" data-name="Group 3191" transform="translate(672.863 64.802)">
      <g id="Group_3186" data-name="Group 3186" transform="translate(309.596 321.073)">
        <g id="Group_3181" data-name="Group 3181" transform="translate(-37.495 95.752)">
          <path id="Path_4213" data-name="Path 4213" d="M333.7,490.046c-5.986-51.672,6.642-96.273,6.642-96.273h-4.152c-13.414,43.1-10.405,87.763-9.668,96.273Z" transform="translate(-271.83 -355.236)" fill="#09c9ce"/>
          <path id="Path_4214" data-name="Path 4214" d="M354.658,441.9v-7.759s-26.878-13.255-38.85-32.069l-3.911,1.1S323.872,421.982,354.658,441.9Z" transform="translate(-298.114 -339.462)" fill="#09c9ce"/>
          <path id="Path_4215" data-name="Path 4215" d="M326.361,448.408V440.6s32.516-18.19,47.036-35.922l2.26,3.142S360.664,428.37,326.361,448.408Z" transform="translate(-270.609 -334.498)" fill="#09c9ce"/>
          <path id="Path_4216" data-name="Path 4216" d="M320.4,403.163a41.67,41.67,0,0,0-.731,17.346l4.765,4.277s-3.665-13.072-.978-20.648Z" transform="translate(-284.5 -337.379)" fill="#09c9ce"/>
          <path id="Path_4217" data-name="Path 4217" d="M353.888,411.322c-4.445.955-10.37-.334-14.682-1.634l-.041.041a9.487,9.487,0,0,1-1.837,3.285,41.81,41.81,0,0,0,17.137,1.462Z" transform="translate(-249.754 -324.971)" fill="#09c9ce"/>
          <path id="Path_4218" data-name="Path 4218" d="M353.678,422.391a41.707,41.707,0,0,0-14.752-9.163l-6.064,2.049s13.188,3.229,18.463,9.294Z" transform="translate(-258.247 -318.24)" fill="#09c9ce"/>
          <path id="Path_4219" data-name="Path 4219" d="M325.942,410.322a42.2,42.2,0,0,0-8.667,13.928l3.064.952c1.32-4.77,5.806-9.86,9.062-13.072A7.736,7.736,0,0,1,325.942,410.322Z" transform="translate(-287.887 -323.766)" fill="#09c9ce"/>
          <path id="Path_4220" data-name="Path 4220" d="M312.334,416.56s13.379-.337,21.643-4.1l-2.69-3.758s-10.73,5.487-18.724,4.663Z" transform="translate(-297.283 -326.852)" fill="#09c9ce"/>
          <path id="Path_4221" data-name="Path 4221" d="M339.217,406.067s-5.667,12.126-5.98,21.2l4.564-.731s-.125-12.048,4.178-18.837Z" transform="translate(-257.533 -331.857)" fill="#09c9ce"/>
          <g id="Group_3156" data-name="Group 3156" transform="translate(53.281)">
            <path id="Path_4222" data-name="Path 4222" d="M331.471,410.945a7.549,7.549,0,0,1,1.2,2.411,12.723,12.723,0,0,1-.075,2.405l12.158,2.751c.339-1.149.673-1.982.989-2.13,1.175-.554,15.019-5.5,14.505-17.781s-7.875-16.232-11.409-17.517-17.146-1.5-22.145,10.35C322.615,401.109,330.267,408.54,331.471,410.945Z" transform="translate(-325.509 -380.492)" fill="#ffd066"/>
            <g id="Group_3154" data-name="Group 3154" transform="translate(9.246 14.314)">
              <g id="Group_3153" data-name="Group 3153">
                <path id="Path_4223" data-name="Path 4223" d="M329.8,406.361s2.121-9.378,1.735-10.872-2.481-6.894-2.794-8,1.044-2.008,1.555-.357c.438,1.41,2.542,6.384,2.832,8.287s-1.352,11.885-1.352,11.885Z" transform="translate(-328.696 -383.911)" fill="#0186cb"/>
                <path id="Path_4224" data-name="Path 4224" d="M332.3,405.422s2.118-9.378,3.108-10.562,5.208-5.156,5.969-6.024-.081-2.263-1.254-.992c-1,1.088-5.04,4.672-6.12,6.265s-3.894,11.311-3.894,11.311Z" transform="translate(-326.001 -381.796)" fill="#0186cb"/>
                <g id="Group_3152" data-name="Group 3152" transform="translate(0.882)">
                  <path id="Path_4225" data-name="Path 4225" d="M343.041,392.026a8.164,8.164,0,0,1-5.069-.955l-.049.023a3.951,3.951,0,0,1-4.416-1.4,15.126,15.126,0,0,1-4.506-.238l.2-.9a15.207,15.207,0,0,0,3.7.287c-.7-1.222-.653-2.356.139-2.96a1.723,1.723,0,0,1,2.49.136,2.15,2.15,0,0,1-.232,2.936,2.51,2.51,0,0,1-.769.47,3.214,3.214,0,0,0,2.553,1,2.529,2.529,0,0,1-.557-.728,1.59,1.59,0,0,1,.519-2,1.7,1.7,0,0,1,1.851-.435,1.6,1.6,0,0,1,.856,1.541,2.4,2.4,0,0,1-.894,1.709,7.154,7.154,0,0,0,4.045.659Zm-5.031-3.914a1.54,1.54,0,0,0-.386.258c-.456.4-.392.705-.287.923a2.136,2.136,0,0,0,.7.749,1.606,1.606,0,0,0,.827-1.239.736.736,0,0,0-.357-.714A.6.6,0,0,0,338.01,388.112Zm-4.115.583a1.818,1.818,0,0,0,.783-.386,1.229,1.229,0,0,0,.148-1.686c-.31-.369-.76-.372-1.233-.009s-.226,1.2.128,1.8C333.773,388.513,333.834,388.605,333.9,388.7Z" transform="translate(-329 -385.425)" fill="#0186cb"/>
                </g>
              </g>
            </g>
            <g id="Group_3155" data-name="Group 3155" transform="translate(6.408 32.586)">
              <path id="Path_4226" data-name="Path 4226" d="M334.725,394.424a19.567,19.567,0,0,1-6.532-2.7c.023.078.052.154.07.229.247,1.039-.946,8.946-.4,12.225a2.389,2.389,0,0,0,.467,1.242,8.65,8.65,0,0,0,7.44,1.683,2.417,2.417,0,0,0,.957-.92c1.9-2.727,4.228-10.376,4.9-11.209.049-.061.107-.119.16-.177A19.57,19.57,0,0,1,334.725,394.424Z" transform="translate(-327.718 -391.722)" fill="#1e1ea4"/>
              <path id="Path_4227" data-name="Path 4227" d="M333.695,396.958a22.227,22.227,0,0,0,6.253.488c.337-.894.641-1.7.891-2.313a18.516,18.516,0,0,1-12.8-2.9c-.038.662-.11,1.52-.191,2.472A22.34,22.34,0,0,0,333.695,396.958Z" transform="translate(-327.482 -390.743)" fill="#110239"/>
              <path id="Path_4228" data-name="Path 4228" d="M333,398.1a23.509,23.509,0,0,0,5.583.525c.31-.746.618-1.52.908-2.278a18.5,18.5,0,0,1-11.6-2.623c-.061.812-.119,1.639-.157,2.449A23.48,23.48,0,0,0,333,398.1Z" transform="translate(-327.684 -387.915)" fill="#110239"/>
              <path id="Path_4229" data-name="Path 4229" d="M327.718,395.237a14.79,14.79,0,0,0,.145,2.255c.015.1.035.189.055.279a21.836,21.836,0,0,0,8.638,1.953c.055-.072.113-.145.171-.226a14.739,14.739,0,0,0,1.1-1.973A18.555,18.555,0,0,1,327.718,395.237Z" transform="translate(-327.718 -385.038)" fill="#110239"/>
            </g>
          </g>
          <path id="Path_4248" data-name="Path 4248" d="M333.4,414.331s-5.882-5.931-11.441-6.114-14.172,6.964-14.172,6.964,7.565,9.59,14.172,8.368C329.58,422.145,333.4,414.331,333.4,414.331Z" transform="translate(-305.92 -327.775)" fill="#09c9ce"/>
          <path id="Path_4249" data-name="Path 4249" d="M367.578,414.331s-5.882-5.931-11.438-6.114-14.175,6.964-14.175,6.964,7.565,9.59,14.175,8.368C363.753,422.145,367.578,414.331,367.578,414.331Z" transform="translate(-240.936 -327.775)" fill="#09c9ce"/>
          <g id="Group_3193" data-name="Group 3193" transform="translate(424.85 -51.855) rotate(139)">
            <path id="Path_4088" data-name="Path 4088" d="M350.584,134.161H350.1a11.931,11.931,0,0,0-22.888,0h-.485v3.376h0a11.929,11.929,0,1,0,23.858,0h0Z" transform="translate(0 -2.879)" fill="#f9bf30"/>
            <path id="Path_4089" data-name="Path 4089" d="M336.067,126.132a11.931,11.931,0,0,0-8.857,8.274h-.485v3.376a11.929,11.929,0,0,0,9.342,11.65Z" transform="translate(0 -3.123)" fill="#fdd762"/>
            <path id="Path_4090" data-name="Path 4090" d="M392.22,149.494a11.9,11.9,0,0,0,3.462-8.406v-3.376H395.2a11.86,11.86,0,0,0-2.395-4.4h-.581Z" transform="translate(-45.098 -6.43)" fill="#e8a200"/>
            <g id="Group_898" data-name="Group 898" transform="translate(327.06 123.72)" opacity="0.4">
              <path id="Path_4091" data-name="Path 4091" d="M400.22,139.627a11.936,11.936,0,0,0-.518-1.3v10.145a11.875,11.875,0,0,0,.518-1.3Z" transform="translate(-377.31 -132.458)" fill="#e8a200"/>
              <path id="Path_4092" data-name="Path 4092" d="M334.259,129.949a11.965,11.965,0,0,0-1.666,2.1v12.69c.163.258.334.512.518.76V131.742h.975v14.9c.058.061.114.123.174.183.112.112.228.22.344.327V131.742h.975v16.226c.17.127.343.249.518.366V131.742h.975v17.175q.256.137.517.261V131.742h.975v17.844q.257.095.518.177V131.742h.975v18.286q.258.058.517.105V131.742h.975V150.27c.172.016.345.028.518.037V131.742h.975v18.574c.173,0,.345-.014.517-.026V131.742h.975V150.18c.173-.027.346-.057.518-.092V131.742h.975V149.85c.173-.05.346-.105.517-.164V131.742h.975V149.3q.261-.115.518-.244V131.742h.975v16.77q.262-.164.517-.343V131.742h.975V147.4q.264-.229.518-.475V131.742H352v14.115c.182-.227.354-.46.517-.7V131.742h.087a11.943,11.943,0,0,0-5.135-4.291h-9.55A11.89,11.89,0,0,0,334.259,129.949Z" transform="translate(-331.1 -127.451)" fill="#e8a200"/>
              <path id="Path_4093" data-name="Path 4093" d="M328.318,139.522c-.137.345-.263.693-.367,1.047h-.15v6.188a11.864,11.864,0,0,0,.518,1.622Z" transform="translate(-327.8 -133.007)" fill="#e8a200"/>
            </g>
            <ellipse id="Ellipse_27" data-name="Ellipse 27" cx="11.929" cy="11.936" rx="11.929" ry="11.936" transform="translate(326.725 119.346)" fill="#fdd762"/>
            <path id="Path_4094" data-name="Path 4094" d="M341.332,133.324a11.941,11.941,0,0,0,2.711-12.691,11.931,11.931,0,0,0-16.53,14.9A11.926,11.926,0,0,0,341.332,133.324Z" transform="translate(-0.006 -0.002)" fill="#fff" opacity="0.2"/>
            <path id="Path_4095" data-name="Path 4095" d="M347.1,150.164a11.926,11.926,0,0,1-20.357-8.133,11.926,11.926,0,1,0,23.844,0A11.894,11.894,0,0,1,347.1,150.164Z" transform="translate(-0.007 -10.442)" fill="#fff" opacity="0.7"/>
            <ellipse id="Ellipse_28" data-name="Ellipse 28" cx="8.468" cy="8.472" rx="8.468" ry="8.472" transform="translate(330.186 122.81)" fill="#e8a200"/>
            <path id="Path_4096" data-name="Path 4096" d="M340.321,129.019a8.467,8.467,0,0,1,14.446,5.6,8.468,8.468,0,1,0-16.917,0A8.444,8.444,0,0,1,340.321,129.019Z" transform="translate(-7.654 -2.954)" fill="#f9bf30"/>
            <path id="Path_4097" data-name="Path 4097" d="M360.229,134.049l-.657.325.187.128-.641.642a2.46,2.46,0,0,0-1.625-.658,2.216,2.216,0,0,0-1.565.733,3.085,3.085,0,0,0-.472.594,2.077,2.077,0,0,0-.254.627,3.468,3.468,0,0,0-.083.6,5.919,5.919,0,0,0,.015.651l.076,1.035a5.382,5.382,0,0,1,.015.726,1.914,1.914,0,0,1-.142.588,1.665,1.665,0,0,1-.376.558q-.454.453-.8.1a.608.608,0,0,1-.136-.669,2.942,2.942,0,0,1,.714-1v-.777l-.561.365-.807-.593a3.981,3.981,0,0,0-.957,1.489l-.092-.18v.762h0a2.321,2.321,0,0,0,.7,1.547l-.319.319-.433-.344v.777l.389.39.76-.76a2.15,2.15,0,0,0,2.986-.144,3.173,3.173,0,0,0,.514-.661,2.588,2.588,0,0,0,.285-.721,4.408,4.408,0,0,0,.106-.711,6.627,6.627,0,0,0,0-.755l-.064-1c-.01-.2-.015-.348-.015-.438a3.4,3.4,0,0,1,.028-.38,1.2,1.2,0,0,1,.13-.433,1.6,1.6,0,0,1,.28-.366.855.855,0,0,1,.431-.239.453.453,0,0,1,.431.125.534.534,0,0,1,.134.18.327.327,0,0,1,.024.13l-.668.241v.777l1.353,1.044c.111-.121.21-.234.3-.338a3.943,3.943,0,0,0,.273-.378,2.807,2.807,0,0,0,.226-.424,2.089,2.089,0,0,0,.129-.457,1.665,1.665,0,0,0,.022-.232l0,0v-.818l-.172.062s0-.01-.006-.015a2.318,2.318,0,0,0-.361-.535l.71-.711Z" transform="translate(-17.411 -6.768)" fill="#f9bf30"/>
            <g id="Group_899" data-name="Group 899" transform="translate(334.599 126.885)">
              <path id="Path_4098" data-name="Path 4098" d="M352.01,141.284l.752-.752a2.235,2.235,0,0,1-.69-1.722,3.376,3.376,0,0,1,1.041-1.9l1.368,1.005a2.942,2.942,0,0,0-.714,1,.608.608,0,0,0,.136.669q.351.353.8-.1a1.668,1.668,0,0,0,.376-.558,1.921,1.921,0,0,0,.142-.588,5.372,5.372,0,0,0-.015-.726l-.076-1.036a5.919,5.919,0,0,1-.015-.651,3.468,3.468,0,0,1,.083-.6,2.077,2.077,0,0,1,.254-.627,3.085,3.085,0,0,1,.472-.594,2.216,2.216,0,0,1,1.565-.733,2.46,2.46,0,0,1,1.625.658l.714-.715.4.4-.71.711a2.318,2.318,0,0,1,.361.535,1.806,1.806,0,0,1,.164.512,1.609,1.609,0,0,1-.01.494,2.094,2.094,0,0,1-.129.458,2.828,2.828,0,0,1-.226.423,3.937,3.937,0,0,1-.273.378c-.087.1-.186.217-.3.338l-1.353-1.044q.155-.163.253-.272t.2-.242a1.266,1.266,0,0,0,.147-.23.853.853,0,0,0,.064-.2.34.34,0,0,0-.021-.2.534.534,0,0,0-.134-.18.455.455,0,0,0-.431-.125.86.86,0,0,0-.431.239,1.614,1.614,0,0,0-.28.366,1.2,1.2,0,0,0-.13.433,3.4,3.4,0,0,0-.028.38c0,.091,0,.237.015.438l.064,1a6.618,6.618,0,0,1,0,.754,4.4,4.4,0,0,1-.106.711,2.581,2.581,0,0,1-.285.721,3.173,3.173,0,0,1-.514.661,2.15,2.15,0,0,1-2.986.144l-.76.76Z" transform="translate(-352.01 -133.314)" fill="#fdd762"/>
            </g>
          </g>
          <g id="Group_3194" data-name="Group 3194" transform="matrix(-0.017, -1, 1, -0.017, -26.012, 448.892)">
            <path id="Path_4088-2" data-name="Path 4088" d="M350.584,134.161H350.1a11.931,11.931,0,0,0-22.888,0h-.485v3.376h0a11.929,11.929,0,1,0,23.858,0h0Z" transform="translate(0 -2.879)" fill="#f9bf30"/>
            <path id="Path_4089-2" data-name="Path 4089" d="M336.067,126.132a11.931,11.931,0,0,0-8.857,8.274h-.485v3.376a11.929,11.929,0,0,0,9.342,11.65Z" transform="translate(0 -3.123)" fill="#fdd762"/>
            <path id="Path_4090-2" data-name="Path 4090" d="M392.22,149.494a11.9,11.9,0,0,0,3.462-8.406v-3.376H395.2a11.86,11.86,0,0,0-2.395-4.4h-.581Z" transform="translate(-45.098 -6.43)" fill="#e8a200"/>
            <g id="Group_898-2" data-name="Group 898" transform="translate(327.06 123.72)" opacity="0.4">
              <path id="Path_4091-2" data-name="Path 4091" d="M400.22,139.627a11.936,11.936,0,0,0-.518-1.3v10.145a11.875,11.875,0,0,0,.518-1.3Z" transform="translate(-377.31 -132.458)" fill="#e8a200"/>
              <path id="Path_4092-2" data-name="Path 4092" d="M334.259,129.949a11.965,11.965,0,0,0-1.666,2.1v12.69c.163.258.334.512.518.76V131.742h.975v14.9c.058.061.114.123.174.183.112.112.228.22.344.327V131.742h.975v16.226c.17.127.343.249.518.366V131.742h.975v17.175q.256.137.517.261V131.742h.975v17.844q.257.095.518.177V131.742h.975v18.286q.258.058.517.105V131.742h.975V150.27c.172.016.345.028.518.037V131.742h.975v18.574c.173,0,.345-.014.517-.026V131.742h.975V150.18c.173-.027.346-.057.518-.092V131.742h.975V149.85c.173-.05.346-.105.517-.164V131.742h.975V149.3q.261-.115.518-.244V131.742h.975v16.77q.262-.164.517-.343V131.742h.975V147.4q.264-.229.518-.475V131.742H352v14.115c.182-.227.354-.46.517-.7V131.742h.087a11.943,11.943,0,0,0-5.135-4.291h-9.55A11.89,11.89,0,0,0,334.259,129.949Z" transform="translate(-331.1 -127.451)" fill="#e8a200"/>
              <path id="Path_4093-2" data-name="Path 4093" d="M328.318,139.522c-.137.345-.263.693-.367,1.047h-.15v6.188a11.864,11.864,0,0,0,.518,1.622Z" transform="translate(-327.8 -133.007)" fill="#e8a200"/>
            </g>
            <ellipse id="Ellipse_27-2" data-name="Ellipse 27" cx="11.929" cy="11.936" rx="11.929" ry="11.936" transform="translate(326.725 119.346)" fill="#fdd762"/>
            <path id="Path_4094-2" data-name="Path 4094" d="M341.332,133.324a11.941,11.941,0,0,0,2.711-12.691,11.931,11.931,0,0,0-16.53,14.9A11.926,11.926,0,0,0,341.332,133.324Z" transform="translate(-0.006 -0.002)" fill="#fff" opacity="0.2"/>
            <path id="Path_4095-2" data-name="Path 4095" d="M347.1,150.164a11.926,11.926,0,0,1-20.357-8.133,11.926,11.926,0,1,0,23.844,0A11.894,11.894,0,0,1,347.1,150.164Z" transform="translate(-0.007 -10.442)" fill="#fff" opacity="0.7"/>
            <ellipse id="Ellipse_28-2" data-name="Ellipse 28" cx="8.468" cy="8.472" rx="8.468" ry="8.472" transform="translate(330.186 122.81)" fill="#e8a200"/>
            <path id="Path_4096-2" data-name="Path 4096" d="M340.321,129.019a8.467,8.467,0,0,1,14.446,5.6,8.468,8.468,0,1,0-16.917,0A8.444,8.444,0,0,1,340.321,129.019Z" transform="translate(-7.654 -2.954)" fill="#f9bf30"/>
            <path id="Path_4097-2" data-name="Path 4097" d="M360.229,134.049l-.657.325.187.128-.641.642a2.46,2.46,0,0,0-1.625-.658,2.216,2.216,0,0,0-1.565.733,3.085,3.085,0,0,0-.472.594,2.077,2.077,0,0,0-.254.627,3.468,3.468,0,0,0-.083.6,5.919,5.919,0,0,0,.015.651l.076,1.035a5.382,5.382,0,0,1,.015.726,1.914,1.914,0,0,1-.142.588,1.665,1.665,0,0,1-.376.558q-.454.453-.8.1a.608.608,0,0,1-.136-.669,2.942,2.942,0,0,1,.714-1v-.777l-.561.365-.807-.593a3.981,3.981,0,0,0-.957,1.489l-.092-.18v.762h0a2.321,2.321,0,0,0,.7,1.547l-.319.319-.433-.344v.777l.389.39.76-.76a2.15,2.15,0,0,0,2.986-.144,3.173,3.173,0,0,0,.514-.661,2.588,2.588,0,0,0,.285-.721,4.408,4.408,0,0,0,.106-.711,6.627,6.627,0,0,0,0-.755l-.064-1c-.01-.2-.015-.348-.015-.438a3.4,3.4,0,0,1,.028-.38,1.2,1.2,0,0,1,.13-.433,1.6,1.6,0,0,1,.28-.366.855.855,0,0,1,.431-.239.453.453,0,0,1,.431.125.534.534,0,0,1,.134.18.327.327,0,0,1,.024.13l-.668.241v.777l1.353,1.044c.111-.121.21-.234.3-.338a3.943,3.943,0,0,0,.273-.378,2.807,2.807,0,0,0,.226-.424,2.089,2.089,0,0,0,.129-.457,1.665,1.665,0,0,0,.022-.232l0,0v-.818l-.172.062s0-.01-.006-.015a2.318,2.318,0,0,0-.361-.535l.71-.711Z" transform="translate(-17.411 -6.768)" fill="#f9bf30"/>
            <g id="Group_899-2" data-name="Group 899" transform="translate(334.599 126.885)">
              <path id="Path_4098-2" data-name="Path 4098" d="M352.01,141.284l.752-.752a2.235,2.235,0,0,1-.69-1.722,3.376,3.376,0,0,1,1.041-1.9l1.368,1.005a2.942,2.942,0,0,0-.714,1,.608.608,0,0,0,.136.669q.351.353.8-.1a1.668,1.668,0,0,0,.376-.558,1.921,1.921,0,0,0,.142-.588,5.372,5.372,0,0,0-.015-.726l-.076-1.036a5.919,5.919,0,0,1-.015-.651,3.468,3.468,0,0,1,.083-.6,2.077,2.077,0,0,1,.254-.627,3.085,3.085,0,0,1,.472-.594,2.216,2.216,0,0,1,1.565-.733,2.46,2.46,0,0,1,1.625.658l.714-.715.4.4-.71.711a2.318,2.318,0,0,1,.361.535,1.806,1.806,0,0,1,.164.512,1.609,1.609,0,0,1-.01.494,2.094,2.094,0,0,1-.129.458,2.828,2.828,0,0,1-.226.423,3.937,3.937,0,0,1-.273.378c-.087.1-.186.217-.3.338l-1.353-1.044q.155-.163.253-.272t.2-.242a1.266,1.266,0,0,0,.147-.23.853.853,0,0,0,.064-.2.34.34,0,0,0-.021-.2.534.534,0,0,0-.134-.18.455.455,0,0,0-.431-.125.86.86,0,0,0-.431.239,1.614,1.614,0,0,0-.28.366,1.2,1.2,0,0,0-.13.433,3.4,3.4,0,0,0-.028.38c0,.091,0,.237.015.438l.064,1a6.618,6.618,0,0,1,0,.754,4.4,4.4,0,0,1-.106.711,2.581,2.581,0,0,1-.285.721,3.173,3.173,0,0,1-.514.661,2.15,2.15,0,0,1-2.986.144l-.76.76Z" transform="translate(-352.01 -133.314)" fill="#fdd762"/>
            </g>
          </g>
          <g id="Group_3195" data-name="Group 3195" transform="translate(422.447 253.725) rotate(-170)">
            <path id="Path_4088-3" data-name="Path 4088" d="M350.584,134.161H350.1a11.931,11.931,0,0,0-22.888,0h-.485v3.376h0a11.929,11.929,0,1,0,23.858,0h0Z" transform="translate(0 -2.879)" fill="#f9bf30"/>
            <path id="Path_4089-3" data-name="Path 4089" d="M336.067,126.132a11.931,11.931,0,0,0-8.857,8.274h-.485v3.376a11.929,11.929,0,0,0,9.342,11.65Z" transform="translate(0 -3.123)" fill="#fdd762"/>
            <path id="Path_4090-3" data-name="Path 4090" d="M392.22,149.494a11.9,11.9,0,0,0,3.462-8.406v-3.376H395.2a11.86,11.86,0,0,0-2.395-4.4h-.581Z" transform="translate(-45.098 -6.43)" fill="#e8a200"/>
            <g id="Group_898-3" data-name="Group 898" transform="translate(327.06 123.72)" opacity="0.4">
              <path id="Path_4091-3" data-name="Path 4091" d="M400.22,139.627a11.936,11.936,0,0,0-.518-1.3v10.145a11.875,11.875,0,0,0,.518-1.3Z" transform="translate(-377.31 -132.458)" fill="#e8a200"/>
              <path id="Path_4092-3" data-name="Path 4092" d="M334.259,129.949a11.965,11.965,0,0,0-1.666,2.1v12.69c.163.258.334.512.518.76V131.742h.975v14.9c.058.061.114.123.174.183.112.112.228.22.344.327V131.742h.975v16.226c.17.127.343.249.518.366V131.742h.975v17.175q.256.137.517.261V131.742h.975v17.844q.257.095.518.177V131.742h.975v18.286q.258.058.517.105V131.742h.975V150.27c.172.016.345.028.518.037V131.742h.975v18.574c.173,0,.345-.014.517-.026V131.742h.975V150.18c.173-.027.346-.057.518-.092V131.742h.975V149.85c.173-.05.346-.105.517-.164V131.742h.975V149.3q.261-.115.518-.244V131.742h.975v16.77q.262-.164.517-.343V131.742h.975V147.4q.264-.229.518-.475V131.742H352v14.115c.182-.227.354-.46.517-.7V131.742h.087a11.943,11.943,0,0,0-5.135-4.291h-9.55A11.89,11.89,0,0,0,334.259,129.949Z" transform="translate(-331.1 -127.451)" fill="#e8a200"/>
              <path id="Path_4093-3" data-name="Path 4093" d="M328.318,139.522c-.137.345-.263.693-.367,1.047h-.15v6.188a11.864,11.864,0,0,0,.518,1.622Z" transform="translate(-327.8 -133.007)" fill="#e8a200"/>
            </g>
            <ellipse id="Ellipse_27-3" data-name="Ellipse 27" cx="11.929" cy="11.936" rx="11.929" ry="11.936" transform="translate(326.725 119.346)" fill="#fdd762"/>
            <path id="Path_4094-3" data-name="Path 4094" d="M341.332,133.324a11.941,11.941,0,0,0,2.711-12.691,11.931,11.931,0,0,0-16.53,14.9A11.926,11.926,0,0,0,341.332,133.324Z" transform="translate(-0.006 -0.002)" fill="#fff" opacity="0.2"/>
            <path id="Path_4095-3" data-name="Path 4095" d="M347.1,150.164a11.926,11.926,0,0,1-20.357-8.133,11.926,11.926,0,1,0,23.844,0A11.894,11.894,0,0,1,347.1,150.164Z" transform="translate(-0.007 -10.442)" fill="#fff" opacity="0.7"/>
            <ellipse id="Ellipse_28-3" data-name="Ellipse 28" cx="8.468" cy="8.472" rx="8.468" ry="8.472" transform="translate(330.186 122.81)" fill="#e8a200"/>
            <path id="Path_4096-3" data-name="Path 4096" d="M340.321,129.019a8.467,8.467,0,0,1,14.446,5.6,8.468,8.468,0,1,0-16.917,0A8.444,8.444,0,0,1,340.321,129.019Z" transform="translate(-7.654 -2.954)" fill="#f9bf30"/>
            <path id="Path_4097-3" data-name="Path 4097" d="M360.229,134.049l-.657.325.187.128-.641.642a2.46,2.46,0,0,0-1.625-.658,2.216,2.216,0,0,0-1.565.733,3.085,3.085,0,0,0-.472.594,2.077,2.077,0,0,0-.254.627,3.468,3.468,0,0,0-.083.6,5.919,5.919,0,0,0,.015.651l.076,1.035a5.382,5.382,0,0,1,.015.726,1.914,1.914,0,0,1-.142.588,1.665,1.665,0,0,1-.376.558q-.454.453-.8.1a.608.608,0,0,1-.136-.669,2.942,2.942,0,0,1,.714-1v-.777l-.561.365-.807-.593a3.981,3.981,0,0,0-.957,1.489l-.092-.18v.762h0a2.321,2.321,0,0,0,.7,1.547l-.319.319-.433-.344v.777l.389.39.76-.76a2.15,2.15,0,0,0,2.986-.144,3.173,3.173,0,0,0,.514-.661,2.588,2.588,0,0,0,.285-.721,4.408,4.408,0,0,0,.106-.711,6.627,6.627,0,0,0,0-.755l-.064-1c-.01-.2-.015-.348-.015-.438a3.4,3.4,0,0,1,.028-.38,1.2,1.2,0,0,1,.13-.433,1.6,1.6,0,0,1,.28-.366.855.855,0,0,1,.431-.239.453.453,0,0,1,.431.125.534.534,0,0,1,.134.18.327.327,0,0,1,.024.13l-.668.241v.777l1.353,1.044c.111-.121.21-.234.3-.338a3.943,3.943,0,0,0,.273-.378,2.807,2.807,0,0,0,.226-.424,2.089,2.089,0,0,0,.129-.457,1.665,1.665,0,0,0,.022-.232l0,0v-.818l-.172.062s0-.01-.006-.015a2.318,2.318,0,0,0-.361-.535l.71-.711Z" transform="translate(-17.411 -6.768)" fill="#f9bf30"/>
            <g id="Group_899-3" data-name="Group 899" transform="translate(334.599 126.885)">
              <path id="Path_4098-3" data-name="Path 4098" d="M352.01,141.284l.752-.752a2.235,2.235,0,0,1-.69-1.722,3.376,3.376,0,0,1,1.041-1.9l1.368,1.005a2.942,2.942,0,0,0-.714,1,.608.608,0,0,0,.136.669q.351.353.8-.1a1.668,1.668,0,0,0,.376-.558,1.921,1.921,0,0,0,.142-.588,5.372,5.372,0,0,0-.015-.726l-.076-1.036a5.919,5.919,0,0,1-.015-.651,3.468,3.468,0,0,1,.083-.6,2.077,2.077,0,0,1,.254-.627,3.085,3.085,0,0,1,.472-.594,2.216,2.216,0,0,1,1.565-.733,2.46,2.46,0,0,1,1.625.658l.714-.715.4.4-.71.711a2.318,2.318,0,0,1,.361.535,1.806,1.806,0,0,1,.164.512,1.609,1.609,0,0,1-.01.494,2.094,2.094,0,0,1-.129.458,2.828,2.828,0,0,1-.226.423,3.937,3.937,0,0,1-.273.378c-.087.1-.186.217-.3.338l-1.353-1.044q.155-.163.253-.272t.2-.242a1.266,1.266,0,0,0,.147-.23.853.853,0,0,0,.064-.2.34.34,0,0,0-.021-.2.534.534,0,0,0-.134-.18.455.455,0,0,0-.431-.125.86.86,0,0,0-.431.239,1.614,1.614,0,0,0-.28.366,1.2,1.2,0,0,0-.13.433,3.4,3.4,0,0,0-.028.38c0,.091,0,.237.015.438l.064,1a6.618,6.618,0,0,1,0,.754,4.4,4.4,0,0,1-.106.711,2.581,2.581,0,0,1-.285.721,3.173,3.173,0,0,1-.514.661,2.15,2.15,0,0,1-2.986.144l-.76.76Z" transform="translate(-352.01 -133.314)" fill="#fdd762"/>
            </g>
          </g>
          <g id="Group_3196" data-name="Group 3196" transform="matrix(-0.225, 0.974, -0.974, -0.225, 242.77, -240.094)">
            <path id="Path_4088-4" data-name="Path 4088" d="M350.584,134.161H350.1a11.931,11.931,0,0,0-22.888,0h-.485v3.376h0a11.929,11.929,0,1,0,23.858,0h0Z" transform="translate(0 -2.879)" fill="#f9bf30"/>
            <path id="Path_4089-4" data-name="Path 4089" d="M336.067,126.132a11.931,11.931,0,0,0-8.857,8.274h-.485v3.376a11.929,11.929,0,0,0,9.342,11.65Z" transform="translate(0 -3.123)" fill="#fdd762"/>
            <path id="Path_4090-4" data-name="Path 4090" d="M392.22,149.494a11.9,11.9,0,0,0,3.462-8.406v-3.376H395.2a11.86,11.86,0,0,0-2.395-4.4h-.581Z" transform="translate(-45.098 -6.43)" fill="#e8a200"/>
            <g id="Group_898-4" data-name="Group 898" transform="translate(327.06 123.72)" opacity="0.4">
              <path id="Path_4091-4" data-name="Path 4091" d="M400.22,139.627a11.936,11.936,0,0,0-.518-1.3v10.145a11.875,11.875,0,0,0,.518-1.3Z" transform="translate(-377.31 -132.458)" fill="#e8a200"/>
              <path id="Path_4092-4" data-name="Path 4092" d="M334.259,129.949a11.965,11.965,0,0,0-1.666,2.1v12.69c.163.258.334.512.518.76V131.742h.975v14.9c.058.061.114.123.174.183.112.112.228.22.344.327V131.742h.975v16.226c.17.127.343.249.518.366V131.742h.975v17.175q.256.137.517.261V131.742h.975v17.844q.257.095.518.177V131.742h.975v18.286q.258.058.517.105V131.742h.975V150.27c.172.016.345.028.518.037V131.742h.975v18.574c.173,0,.345-.014.517-.026V131.742h.975V150.18c.173-.027.346-.057.518-.092V131.742h.975V149.85c.173-.05.346-.105.517-.164V131.742h.975V149.3q.261-.115.518-.244V131.742h.975v16.77q.262-.164.517-.343V131.742h.975V147.4q.264-.229.518-.475V131.742H352v14.115c.182-.227.354-.46.517-.7V131.742h.087a11.943,11.943,0,0,0-5.135-4.291h-9.55A11.89,11.89,0,0,0,334.259,129.949Z" transform="translate(-331.1 -127.451)" fill="#e8a200"/>
              <path id="Path_4093-4" data-name="Path 4093" d="M328.318,139.522c-.137.345-.263.693-.367,1.047h-.15v6.188a11.864,11.864,0,0,0,.518,1.622Z" transform="translate(-327.8 -133.007)" fill="#e8a200"/>
            </g>
            <ellipse id="Ellipse_27-4" data-name="Ellipse 27" cx="11.929" cy="11.936" rx="11.929" ry="11.936" transform="translate(326.725 119.346)" fill="#fdd762"/>
            <path id="Path_4094-4" data-name="Path 4094" d="M341.332,133.324a11.941,11.941,0,0,0,2.711-12.691,11.931,11.931,0,0,0-16.53,14.9A11.926,11.926,0,0,0,341.332,133.324Z" transform="translate(-0.006 -0.002)" fill="#fff" opacity="0.2"/>
            <path id="Path_4095-4" data-name="Path 4095" d="M347.1,150.164a11.926,11.926,0,0,1-20.357-8.133,11.926,11.926,0,1,0,23.844,0A11.894,11.894,0,0,1,347.1,150.164Z" transform="translate(-0.007 -10.442)" fill="#fff" opacity="0.7"/>
            <ellipse id="Ellipse_28-4" data-name="Ellipse 28" cx="8.468" cy="8.472" rx="8.468" ry="8.472" transform="translate(330.186 122.81)" fill="#e8a200"/>
            <path id="Path_4096-4" data-name="Path 4096" d="M340.321,129.019a8.467,8.467,0,0,1,14.446,5.6,8.468,8.468,0,1,0-16.917,0A8.444,8.444,0,0,1,340.321,129.019Z" transform="translate(-7.654 -2.954)" fill="#f9bf30"/>
            <path id="Path_4097-4" data-name="Path 4097" d="M360.229,134.049l-.657.325.187.128-.641.642a2.46,2.46,0,0,0-1.625-.658,2.216,2.216,0,0,0-1.565.733,3.085,3.085,0,0,0-.472.594,2.077,2.077,0,0,0-.254.627,3.468,3.468,0,0,0-.083.6,5.919,5.919,0,0,0,.015.651l.076,1.035a5.382,5.382,0,0,1,.015.726,1.914,1.914,0,0,1-.142.588,1.665,1.665,0,0,1-.376.558q-.454.453-.8.1a.608.608,0,0,1-.136-.669,2.942,2.942,0,0,1,.714-1v-.777l-.561.365-.807-.593a3.981,3.981,0,0,0-.957,1.489l-.092-.18v.762h0a2.321,2.321,0,0,0,.7,1.547l-.319.319-.433-.344v.777l.389.39.76-.76a2.15,2.15,0,0,0,2.986-.144,3.173,3.173,0,0,0,.514-.661,2.588,2.588,0,0,0,.285-.721,4.408,4.408,0,0,0,.106-.711,6.627,6.627,0,0,0,0-.755l-.064-1c-.01-.2-.015-.348-.015-.438a3.4,3.4,0,0,1,.028-.38,1.2,1.2,0,0,1,.13-.433,1.6,1.6,0,0,1,.28-.366.855.855,0,0,1,.431-.239.453.453,0,0,1,.431.125.534.534,0,0,1,.134.18.327.327,0,0,1,.024.13l-.668.241v.777l1.353,1.044c.111-.121.21-.234.3-.338a3.943,3.943,0,0,0,.273-.378,2.807,2.807,0,0,0,.226-.424,2.089,2.089,0,0,0,.129-.457,1.665,1.665,0,0,0,.022-.232l0,0v-.818l-.172.062s0-.01-.006-.015a2.318,2.318,0,0,0-.361-.535l.71-.711Z" transform="translate(-17.411 -6.768)" fill="#f9bf30"/>
            <g id="Group_899-4" data-name="Group 899" transform="translate(334.599 126.885)">
              <path id="Path_4098-4" data-name="Path 4098" d="M352.01,141.284l.752-.752a2.235,2.235,0,0,1-.69-1.722,3.376,3.376,0,0,1,1.041-1.9l1.368,1.005a2.942,2.942,0,0,0-.714,1,.608.608,0,0,0,.136.669q.351.353.8-.1a1.668,1.668,0,0,0,.376-.558,1.921,1.921,0,0,0,.142-.588,5.372,5.372,0,0,0-.015-.726l-.076-1.036a5.919,5.919,0,0,1-.015-.651,3.468,3.468,0,0,1,.083-.6,2.077,2.077,0,0,1,.254-.627,3.085,3.085,0,0,1,.472-.594,2.216,2.216,0,0,1,1.565-.733,2.46,2.46,0,0,1,1.625.658l.714-.715.4.4-.71.711a2.318,2.318,0,0,1,.361.535,1.806,1.806,0,0,1,.164.512,1.609,1.609,0,0,1-.01.494,2.094,2.094,0,0,1-.129.458,2.828,2.828,0,0,1-.226.423,3.937,3.937,0,0,1-.273.378c-.087.1-.186.217-.3.338l-1.353-1.044q.155-.163.253-.272t.2-.242a1.266,1.266,0,0,0,.147-.23.853.853,0,0,0,.064-.2.34.34,0,0,0-.021-.2.534.534,0,0,0-.134-.18.455.455,0,0,0-.431-.125.86.86,0,0,0-.431.239,1.614,1.614,0,0,0-.28.366,1.2,1.2,0,0,0-.13.433,3.4,3.4,0,0,0-.028.38c0,.091,0,.237.015.438l.064,1a6.618,6.618,0,0,1,0,.754,4.4,4.4,0,0,1-.106.711,2.581,2.581,0,0,1-.285.721,3.173,3.173,0,0,1-.514.661,2.15,2.15,0,0,1-2.986.144l-.76.76Z" transform="translate(-352.01 -133.314)" fill="#fdd762"/>
            </g>
          </g>
          <g id="Group_3197" data-name="Group 3197" transform="translate(-136.667 -217.451) rotate(42)">
            <path id="Path_4088-5" data-name="Path 4088" d="M350.584,134.161H350.1a11.931,11.931,0,0,0-22.888,0h-.485v3.376h0a11.929,11.929,0,1,0,23.858,0h0Z" transform="translate(0 -2.879)" fill="#f9bf30"/>
            <path id="Path_4089-5" data-name="Path 4089" d="M336.067,126.132a11.931,11.931,0,0,0-8.857,8.274h-.485v3.376a11.929,11.929,0,0,0,9.342,11.65Z" transform="translate(0 -3.123)" fill="#fdd762"/>
            <path id="Path_4090-5" data-name="Path 4090" d="M392.22,149.494a11.9,11.9,0,0,0,3.462-8.406v-3.376H395.2a11.86,11.86,0,0,0-2.395-4.4h-.581Z" transform="translate(-45.098 -6.43)" fill="#e8a200"/>
            <g id="Group_898-5" data-name="Group 898" transform="translate(327.06 123.72)" opacity="0.4">
              <path id="Path_4091-5" data-name="Path 4091" d="M400.22,139.627a11.936,11.936,0,0,0-.518-1.3v10.145a11.875,11.875,0,0,0,.518-1.3Z" transform="translate(-377.31 -132.458)" fill="#e8a200"/>
              <path id="Path_4092-5" data-name="Path 4092" d="M334.259,129.949a11.965,11.965,0,0,0-1.666,2.1v12.69c.163.258.334.512.518.76V131.742h.975v14.9c.058.061.114.123.174.183.112.112.228.22.344.327V131.742h.975v16.226c.17.127.343.249.518.366V131.742h.975v17.175q.256.137.517.261V131.742h.975v17.844q.257.095.518.177V131.742h.975v18.286q.258.058.517.105V131.742h.975V150.27c.172.016.345.028.518.037V131.742h.975v18.574c.173,0,.345-.014.517-.026V131.742h.975V150.18c.173-.027.346-.057.518-.092V131.742h.975V149.85c.173-.05.346-.105.517-.164V131.742h.975V149.3q.261-.115.518-.244V131.742h.975v16.77q.262-.164.517-.343V131.742h.975V147.4q.264-.229.518-.475V131.742H352v14.115c.182-.227.354-.46.517-.7V131.742h.087a11.943,11.943,0,0,0-5.135-4.291h-9.55A11.89,11.89,0,0,0,334.259,129.949Z" transform="translate(-331.1 -127.451)" fill="#e8a200"/>
              <path id="Path_4093-5" data-name="Path 4093" d="M328.318,139.522c-.137.345-.263.693-.367,1.047h-.15v6.188a11.864,11.864,0,0,0,.518,1.622Z" transform="translate(-327.8 -133.007)" fill="#e8a200"/>
            </g>
            <ellipse id="Ellipse_27-5" data-name="Ellipse 27" cx="11.929" cy="11.936" rx="11.929" ry="11.936" transform="translate(326.725 119.346)" fill="#fdd762"/>
            <path id="Path_4094-5" data-name="Path 4094" d="M341.332,133.324a11.941,11.941,0,0,0,2.711-12.691,11.931,11.931,0,0,0-16.53,14.9A11.926,11.926,0,0,0,341.332,133.324Z" transform="translate(-0.006 -0.002)" fill="#fff" opacity="0.2"/>
            <path id="Path_4095-5" data-name="Path 4095" d="M347.1,150.164a11.926,11.926,0,0,1-20.357-8.133,11.926,11.926,0,1,0,23.844,0A11.894,11.894,0,0,1,347.1,150.164Z" transform="translate(-0.007 -10.442)" fill="#fff" opacity="0.7"/>
            <ellipse id="Ellipse_28-5" data-name="Ellipse 28" cx="8.468" cy="8.472" rx="8.468" ry="8.472" transform="translate(330.186 122.81)" fill="#e8a200"/>
            <path id="Path_4096-5" data-name="Path 4096" d="M340.321,129.019a8.467,8.467,0,0,1,14.446,5.6,8.468,8.468,0,1,0-16.917,0A8.444,8.444,0,0,1,340.321,129.019Z" transform="translate(-7.654 -2.954)" fill="#f9bf30"/>
            <path id="Path_4097-5" data-name="Path 4097" d="M360.229,134.049l-.657.325.187.128-.641.642a2.46,2.46,0,0,0-1.625-.658,2.216,2.216,0,0,0-1.565.733,3.085,3.085,0,0,0-.472.594,2.077,2.077,0,0,0-.254.627,3.468,3.468,0,0,0-.083.6,5.919,5.919,0,0,0,.015.651l.076,1.035a5.382,5.382,0,0,1,.015.726,1.914,1.914,0,0,1-.142.588,1.665,1.665,0,0,1-.376.558q-.454.453-.8.1a.608.608,0,0,1-.136-.669,2.942,2.942,0,0,1,.714-1v-.777l-.561.365-.807-.593a3.981,3.981,0,0,0-.957,1.489l-.092-.18v.762h0a2.321,2.321,0,0,0,.7,1.547l-.319.319-.433-.344v.777l.389.39.76-.76a2.15,2.15,0,0,0,2.986-.144,3.173,3.173,0,0,0,.514-.661,2.588,2.588,0,0,0,.285-.721,4.408,4.408,0,0,0,.106-.711,6.627,6.627,0,0,0,0-.755l-.064-1c-.01-.2-.015-.348-.015-.438a3.4,3.4,0,0,1,.028-.38,1.2,1.2,0,0,1,.13-.433,1.6,1.6,0,0,1,.28-.366.855.855,0,0,1,.431-.239.453.453,0,0,1,.431.125.534.534,0,0,1,.134.18.327.327,0,0,1,.024.13l-.668.241v.777l1.353,1.044c.111-.121.21-.234.3-.338a3.943,3.943,0,0,0,.273-.378,2.807,2.807,0,0,0,.226-.424,2.089,2.089,0,0,0,.129-.457,1.665,1.665,0,0,0,.022-.232l0,0v-.818l-.172.062s0-.01-.006-.015a2.318,2.318,0,0,0-.361-.535l.71-.711Z" transform="translate(-17.411 -6.768)" fill="#f9bf30"/>
            <g id="Group_899-5" data-name="Group 899" transform="translate(334.599 126.885)">
              <path id="Path_4098-5" data-name="Path 4098" d="M352.01,141.284l.752-.752a2.235,2.235,0,0,1-.69-1.722,3.376,3.376,0,0,1,1.041-1.9l1.368,1.005a2.942,2.942,0,0,0-.714,1,.608.608,0,0,0,.136.669q.351.353.8-.1a1.668,1.668,0,0,0,.376-.558,1.921,1.921,0,0,0,.142-.588,5.372,5.372,0,0,0-.015-.726l-.076-1.036a5.919,5.919,0,0,1-.015-.651,3.468,3.468,0,0,1,.083-.6,2.077,2.077,0,0,1,.254-.627,3.085,3.085,0,0,1,.472-.594,2.216,2.216,0,0,1,1.565-.733,2.46,2.46,0,0,1,1.625.658l.714-.715.4.4-.71.711a2.318,2.318,0,0,1,.361.535,1.806,1.806,0,0,1,.164.512,1.609,1.609,0,0,1-.01.494,2.094,2.094,0,0,1-.129.458,2.828,2.828,0,0,1-.226.423,3.937,3.937,0,0,1-.273.378c-.087.1-.186.217-.3.338l-1.353-1.044q.155-.163.253-.272t.2-.242a1.266,1.266,0,0,0,.147-.23.853.853,0,0,0,.064-.2.34.34,0,0,0-.021-.2.534.534,0,0,0-.134-.18.455.455,0,0,0-.431-.125.86.86,0,0,0-.431.239,1.614,1.614,0,0,0-.28.366,1.2,1.2,0,0,0-.13.433,3.4,3.4,0,0,0-.028.38c0,.091,0,.237.015.438l.064,1a6.618,6.618,0,0,1,0,.754,4.4,4.4,0,0,1-.106.711,2.581,2.581,0,0,1-.285.721,3.173,3.173,0,0,1-.514.661,2.15,2.15,0,0,1-2.986.144l-.76.76Z" transform="translate(-352.01 -133.314)" fill="#fdd762"/>
            </g>
          </g>
          <g id="Group_3198" data-name="Group 3198" transform="matrix(-0.105, 0.995, -0.995, -0.105, 175.668, -263.931)">
            <path id="Path_4088-6" data-name="Path 4088" d="M350.584,134.161H350.1a11.931,11.931,0,0,0-22.888,0h-.485v3.376h0a11.929,11.929,0,1,0,23.858,0h0Z" transform="translate(0 -2.879)" fill="#f9bf30"/>
            <path id="Path_4089-6" data-name="Path 4089" d="M336.067,126.132a11.931,11.931,0,0,0-8.857,8.274h-.485v3.376a11.929,11.929,0,0,0,9.342,11.65Z" transform="translate(0 -3.123)" fill="#fdd762"/>
            <path id="Path_4090-6" data-name="Path 4090" d="M392.22,149.494a11.9,11.9,0,0,0,3.462-8.406v-3.376H395.2a11.86,11.86,0,0,0-2.395-4.4h-.581Z" transform="translate(-45.098 -6.43)" fill="#e8a200"/>
            <g id="Group_898-6" data-name="Group 898" transform="translate(327.06 123.72)" opacity="0.4">
              <path id="Path_4091-6" data-name="Path 4091" d="M400.22,139.627a11.936,11.936,0,0,0-.518-1.3v10.145a11.875,11.875,0,0,0,.518-1.3Z" transform="translate(-377.31 -132.458)" fill="#e8a200"/>
              <path id="Path_4092-6" data-name="Path 4092" d="M334.259,129.949a11.965,11.965,0,0,0-1.666,2.1v12.69c.163.258.334.512.518.76V131.742h.975v14.9c.058.061.114.123.174.183.112.112.228.22.344.327V131.742h.975v16.226c.17.127.343.249.518.366V131.742h.975v17.175q.256.137.517.261V131.742h.975v17.844q.257.095.518.177V131.742h.975v18.286q.258.058.517.105V131.742h.975V150.27c.172.016.345.028.518.037V131.742h.975v18.574c.173,0,.345-.014.517-.026V131.742h.975V150.18c.173-.027.346-.057.518-.092V131.742h.975V149.85c.173-.05.346-.105.517-.164V131.742h.975V149.3q.261-.115.518-.244V131.742h.975v16.77q.262-.164.517-.343V131.742h.975V147.4q.264-.229.518-.475V131.742H352v14.115c.182-.227.354-.46.517-.7V131.742h.087a11.943,11.943,0,0,0-5.135-4.291h-9.55A11.89,11.89,0,0,0,334.259,129.949Z" transform="translate(-331.1 -127.451)" fill="#e8a200"/>
              <path id="Path_4093-6" data-name="Path 4093" d="M328.318,139.522c-.137.345-.263.693-.367,1.047h-.15v6.188a11.864,11.864,0,0,0,.518,1.622Z" transform="translate(-327.8 -133.007)" fill="#e8a200"/>
            </g>
            <ellipse id="Ellipse_27-6" data-name="Ellipse 27" cx="11.929" cy="11.936" rx="11.929" ry="11.936" transform="translate(326.725 119.346)" fill="#fdd762"/>
            <path id="Path_4094-6" data-name="Path 4094" d="M341.332,133.324a11.941,11.941,0,0,0,2.711-12.691,11.931,11.931,0,0,0-16.53,14.9A11.926,11.926,0,0,0,341.332,133.324Z" transform="translate(-0.006 -0.002)" fill="#fff" opacity="0.2"/>
            <path id="Path_4095-6" data-name="Path 4095" d="M347.1,150.164a11.926,11.926,0,0,1-20.357-8.133,11.926,11.926,0,1,0,23.844,0A11.894,11.894,0,0,1,347.1,150.164Z" transform="translate(-0.007 -10.442)" fill="#fff" opacity="0.7"/>
            <ellipse id="Ellipse_28-6" data-name="Ellipse 28" cx="8.468" cy="8.472" rx="8.468" ry="8.472" transform="translate(330.186 122.81)" fill="#e8a200"/>
            <path id="Path_4096-6" data-name="Path 4096" d="M340.321,129.019a8.467,8.467,0,0,1,14.446,5.6,8.468,8.468,0,1,0-16.917,0A8.444,8.444,0,0,1,340.321,129.019Z" transform="translate(-7.654 -2.954)" fill="#f9bf30"/>
            <path id="Path_4097-6" data-name="Path 4097" d="M360.229,134.049l-.657.325.187.128-.641.642a2.46,2.46,0,0,0-1.625-.658,2.216,2.216,0,0,0-1.565.733,3.085,3.085,0,0,0-.472.594,2.077,2.077,0,0,0-.254.627,3.468,3.468,0,0,0-.083.6,5.919,5.919,0,0,0,.015.651l.076,1.035a5.382,5.382,0,0,1,.015.726,1.914,1.914,0,0,1-.142.588,1.665,1.665,0,0,1-.376.558q-.454.453-.8.1a.608.608,0,0,1-.136-.669,2.942,2.942,0,0,1,.714-1v-.777l-.561.365-.807-.593a3.981,3.981,0,0,0-.957,1.489l-.092-.18v.762h0a2.321,2.321,0,0,0,.7,1.547l-.319.319-.433-.344v.777l.389.39.76-.76a2.15,2.15,0,0,0,2.986-.144,3.173,3.173,0,0,0,.514-.661,2.588,2.588,0,0,0,.285-.721,4.408,4.408,0,0,0,.106-.711,6.627,6.627,0,0,0,0-.755l-.064-1c-.01-.2-.015-.348-.015-.438a3.4,3.4,0,0,1,.028-.38,1.2,1.2,0,0,1,.13-.433,1.6,1.6,0,0,1,.28-.366.855.855,0,0,1,.431-.239.453.453,0,0,1,.431.125.534.534,0,0,1,.134.18.327.327,0,0,1,.024.13l-.668.241v.777l1.353,1.044c.111-.121.21-.234.3-.338a3.943,3.943,0,0,0,.273-.378,2.807,2.807,0,0,0,.226-.424,2.089,2.089,0,0,0,.129-.457,1.665,1.665,0,0,0,.022-.232l0,0v-.818l-.172.062s0-.01-.006-.015a2.318,2.318,0,0,0-.361-.535l.71-.711Z" transform="translate(-17.411 -6.768)" fill="#f9bf30"/>
            <g id="Group_899-6" data-name="Group 899" transform="translate(334.599 126.885)">
              <path id="Path_4098-6" data-name="Path 4098" d="M352.01,141.284l.752-.752a2.235,2.235,0,0,1-.69-1.722,3.376,3.376,0,0,1,1.041-1.9l1.368,1.005a2.942,2.942,0,0,0-.714,1,.608.608,0,0,0,.136.669q.351.353.8-.1a1.668,1.668,0,0,0,.376-.558,1.921,1.921,0,0,0,.142-.588,5.372,5.372,0,0,0-.015-.726l-.076-1.036a5.919,5.919,0,0,1-.015-.651,3.468,3.468,0,0,1,.083-.6,2.077,2.077,0,0,1,.254-.627,3.085,3.085,0,0,1,.472-.594,2.216,2.216,0,0,1,1.565-.733,2.46,2.46,0,0,1,1.625.658l.714-.715.4.4-.71.711a2.318,2.318,0,0,1,.361.535,1.806,1.806,0,0,1,.164.512,1.609,1.609,0,0,1-.01.494,2.094,2.094,0,0,1-.129.458,2.828,2.828,0,0,1-.226.423,3.937,3.937,0,0,1-.273.378c-.087.1-.186.217-.3.338l-1.353-1.044q.155-.163.253-.272t.2-.242a1.266,1.266,0,0,0,.147-.23.853.853,0,0,0,.064-.2.34.34,0,0,0-.021-.2.534.534,0,0,0-.134-.18.455.455,0,0,0-.431-.125.86.86,0,0,0-.431.239,1.614,1.614,0,0,0-.28.366,1.2,1.2,0,0,0-.13.433,3.4,3.4,0,0,0-.028.38c0,.091,0,.237.015.438l.064,1a6.618,6.618,0,0,1,0,.754,4.4,4.4,0,0,1-.106.711,2.581,2.581,0,0,1-.285.721,3.173,3.173,0,0,1-.514.661,2.15,2.15,0,0,1-2.986.144l-.76.76Z" transform="translate(-352.01 -133.314)" fill="#fdd762"/>
            </g>
          </g>
        </g>
        <g id="Group_3185" data-name="Group 3185" transform="translate(54.597)">
          <g id="Group_3182" data-name="Group 3182" transform="translate(60.178 90.081)">
            <path id="Path_4250" data-name="Path 4250" d="M379.063,375.555c-.379.323-1.146-.542-1.48-.707-.669-.332-1.17.154-1.8.355-.243.076-.8.345-.93.076-.091-.181.116-.462-.015-.6-.172-.183-.647.154-.831.212-.453.147-1.1.216-.87-.471a3.737,3.737,0,0,1,2.109-1.743,3.242,3.242,0,0,1,2.526-.167,2.9,2.9,0,0,1,1.445,2.66A.557.557,0,0,1,379.063,375.555Z" transform="translate(-368.287 -369.473)" fill="#e8a393"/>
            <path id="Path_4251" data-name="Path 4251" d="M384.386,374.883a3.9,3.9,0,0,0-.517-1.958,9.54,9.54,0,0,0-1.485-2.178c-.221,0-1.137,1.035-1.509,1.26a5.15,5.15,0,0,1-1.9.359,10.253,10.253,0,0,0-1.556.091c-.907.281-1.764.528-2.671.792a17.845,17.845,0,0,0-2.669,1.389c-.588.258-2.171,1.784-1.463,2.564.6.664,2-1.019,2.37-1.349a12.485,12.485,0,0,1,2.475-1.215,10.1,10.1,0,0,0-1.458.453,1.911,1.911,0,0,0-.72.909c-.265.553.031.693.493.709a2.048,2.048,0,0,0,1.425-.676,5.647,5.647,0,0,1,2.4-1.157,2.231,2.231,0,0,1,1.271-.054,3.361,3.361,0,0,1,1.206.5c.707.617-.684,1.331-.878,1.91a1.356,1.356,0,0,0,.1,1.152c.267.323.789.029,1.041-.194a7.226,7.226,0,0,0,.7-.894c.292-.354.578-.716.872-1.066a2.56,2.56,0,0,1,1.1-.89,5.773,5.773,0,0,0,1.424-.452C384.464,374.871,384.365,374.9,384.386,374.883Z" transform="translate(-370.439 -370.747)" fill="#fcd4ca"/>
          </g>
          <g id="Group_3183" data-name="Group 3183" transform="translate(0 94.867)">
            <path id="Path_4252" data-name="Path 4252" d="M367.495,381.326s10.891-12.388,17.229-6.216-.462,14.622-5.281,19.639l-2.617-2.31s11.1-8.576,5.928-14.391c-4.7-5.283-12.852,5.808-12.852,5.808Z" transform="translate(-312.655 -373.387)" fill="#ebebeb"/>
            <path id="Path_4253" data-name="Path 4253" d="M369.827,376.487a25.536,25.536,0,0,0-2.332,2.318l2.408,2.53a31.338,31.338,0,0,1,2.191-2.552Z" transform="translate(-312.655 -370.865)" fill="#c8c8c8"/>
            <path id="Path_4254" data-name="Path 4254" d="M375.951,382.171a30.52,30.52,0,0,1-3.31,3.123l2.617,2.31c.919-.957,1.9-2.047,2.845-3.221Z" transform="translate(-308.469 -366.241)" fill="#c8c8c8"/>
            <path id="Path_4255" data-name="Path 4255" d="M378.524,389.335l-38.993,5.9.7,6.689,48.851-4.841Z" transform="translate(-335.402 -360.414)" fill="#ebebeb"/>
            <path id="Path_4256" data-name="Path 4256" d="M341.355,392.435l-1.824.276.7,6.69,2.327-.23C342.342,397.416,341.4,392.966,341.355,392.435Z" transform="translate(-335.402 -357.892)" fill="#ebebeb"/>
            <path id="Path_4257" data-name="Path 4257" d="M382.76,392.395c-.112-.136-.23-.267-.345-.4-8.732,1.2-42.637,5.335-42.637,5.335l.256,2.43,45.737-4.532A18.767,18.767,0,0,1,382.76,392.395Z" transform="translate(-335.201 -358.251)" fill="#c8c8c8"/>
            <path id="Path_4258" data-name="Path 4258" d="M368.837,379.718s-6.461-8.4-12.125-2.662c-5.986,6.062,1.761,12.587,1.761,12.587l2.024-2.069s-5.536-5.3-1.628-8.67c3.5-3.014,7.921,3.021,7.921,3.021Z" transform="translate(-323.272 -372.032)" fill="#ebebeb"/>
            <path id="Path_4259" data-name="Path 4259" d="M365.968,381.1l.872-.861c-1.282-1.48-5.707-6.648-9.883-2.72-3.8,3.576.627,8.784,2.035,10.148l.684-.918s-5.536-5.3-1.628-8.67C361.545,375.061,365.968,381.1,365.968,381.1Z" transform="translate(-322.451 -371.204)" fill="#c8c8c8"/>
            <path id="Path_4260" data-name="Path 4260" d="M401.786,402.214l-20.261,19.795-27.99-27.13,21.037-20.6Z" transform="translate(-324.011 -372.659)" fill="#ebebeb"/>
            <path id="Path_4261" data-name="Path 4261" d="M354.054,386.914l27.991,27.131,4.214-4.117-28.144-26.989Z" transform="translate(-323.588 -365.617)" fill="#c8c8c8"/>
            <path id="Path_4262" data-name="Path 4262" d="M377.33,377.209l-1.495-1.534L355,396.33l1.538,1.491Z" transform="translate(-322.815 -371.526)" fill="#c8c8c8"/>
            <path id="Path_4263" data-name="Path 4263" d="M342.417,392.977l-4.211-1.037a.767.767,0,0,0-.941.874l1.405,8.358a.769.769,0,0,0,1.137.542l3.574-2.02Z" transform="translate(-337.254 -358.314)" fill="#ebebeb"/>
            <path id="Path_4264" data-name="Path 4264" d="M337.7,395.341l.607,3.611a.769.769,0,0,0,1.137.542l3.574-2.02-.406-2.829Z" transform="translate(-336.891 -356.095)" fill="#c8c8c8"/>
          </g>
          <path id="Path_4265" data-name="Path 4265" d="M402.342,332.511c-.105.19-.2.386-.308.575a30.509,30.509,0,0,1-3.491,5c-.829.909-2.265,1.723-2.945,2.628a9.975,9.975,0,0,1-.881,1.021c1.19,2.66,4.251,9.673,4.769,12.576,0,0,8.744-2.849,11.091-7.257C410.577,347.051,404.412,338.058,402.342,332.511Z" transform="translate(-290.512 -311.769)" fill="#fcd4ca"/>
          <path id="Path_4266" data-name="Path 4266" d="M401.283,348.583a13.293,13.293,0,0,1,2.379-7.722,20.923,20.923,0,0,1,1.737-2.114,46.915,46.915,0,0,1-3.057-6.236c-.105.19-.2.386-.308.575a30.509,30.509,0,0,1-3.491,5c-.829.909-2.265,1.723-2.945,2.628a9.975,9.975,0,0,1-.881,1.021c1.19,2.66,4.251,9.673,4.769,12.576a35.515,35.515,0,0,0,3.417-1.375A6.874,6.874,0,0,1,401.283,348.583Z" transform="translate(-290.512 -311.769)" fill="#e8a393"/>
          <path id="Path_4267" data-name="Path 4267" d="M409.725,419.654s.468,9.138-.86,10.5-19.427,3.331-21.119,1.792-1-4.414,2.813-5.8c4.082-1.487,6.218-.513,8.748-1.808s1.512-5.364,1.512-5.364Z" transform="translate(-296.889 -241.441)" fill="#110239"/>
          <path id="Path_4268" data-name="Path 4268" d="M433.26,418.969s2.6,8.635,1.413,10.115-19.357,5.448-21.19,4.078-1.416-4.3,2.24-6.046c3.922-1.875,6.142-1.112,8.534-2.644s.99-5.484.99-5.484Z" transform="translate(-276.11 -241.441)" fill="#110239"/>
          <path id="Path_4269" data-name="Path 4269" d="M435.847,414.7a272.919,272.919,0,0,0-2.876-50.923,23.248,23.248,0,0,0-9.116,1.592c-5.6,2.428-11.231,4.751-16.852,7.081,4.361,9.455,13.722,40.231,14.8,46.658,1.342,7.99,7.266,48.09,7.266,48.09l10.322-.43C439.347,460.222,435.771,416.9,435.847,414.7Z" transform="translate(-280.518 -286.332)" fill="#09c9ce"/>
          <path id="Path_4270" data-name="Path 4270" d="M416.028,368.193a92.483,92.483,0,0,1-9.054,3.493c4.28,9.276,13.539,39.812,14.81,46.558,1.491-4.24,7.335-19.329,10.162-30.569a60.246,60.246,0,0,0,1.266-23l-.013-.091C427.542,364.873,422.062,365.386,416.028,368.193Z" transform="translate(-280.541 -285.676)" fill="#23a1ad"/>
          <path id="Path_4271" data-name="Path 4271" d="M434.238,366.9c-3.95,1.255-11.127,3.025-16.557,4.855-3.93,9.424-14.531,36.595-16.506,46.551-2.735,13.775-7.3,47.287-7.3,47.287l11.642,1.534s11.695-47.541,13.365-50.578c5.507-10.017,11.535-17.928,14.993-24.16,8.358-15.068,8.882-22.434,10.016-27.744C440.814,365.458,437.544,365.85,434.238,366.9Z" transform="translate(-291.197 -285.631)" fill="#09c9ce"/>
          <path id="Path_4272" data-name="Path 4272" d="M427.908,343.23a10.177,10.177,0,0,0-12.66,3.7c-4.586,6.731-13.151,19.215-16.045,22.833-4.024,5.03-22.853,24.434-22.853,24.434l4.887,5.462s24.721-19.072,27.883-23.119,22.566-23.306,22.135-29.057A5.213,5.213,0,0,0,427.908,343.23Z" transform="translate(-305.452 -303.8)" fill="#0186cb"/>
          <path id="Path_4273" data-name="Path 4273" d="M427.908,343.23a10.177,10.177,0,0,0-12.66,3.7c-4.586,6.731-13.151,19.215-16.045,22.833-4.024,5.03-22.853,24.434-22.853,24.434l4.887,5.462s24.721-19.072,27.883-23.119,22.566-23.306,22.135-29.057A5.213,5.213,0,0,0,427.908,343.23Z" transform="translate(-305.452 -303.8)" fill="#0056a3" opacity="0.65"/>
          <g id="Group_3184" data-name="Group 3184" transform="translate(108.398 33.855)">
            <path id="Path_4274" data-name="Path 4274" d="M411.074,398.916a80.8,80.8,0,0,0,18.448-3.9c6.686-2.37,12.389-6.285,13.272-9.194,0,0-11.292-27.5-18.861-36.8s-16.19-9.285-16.19-9.285-5.468,5.312-10.714,6.532c0,0,5.248,20.486,7.691,28.58S411.074,398.916,411.074,398.916Z" transform="translate(-397.029 -339.742)" fill="#0186cb"/>
            <path id="Path_4275" data-name="Path 4275" d="M410.737,361.3c-.02-3.7.617-9.546-1.045-13.791-.437.368-.885.727-1.289,1.126-2.412,2.372-4.795,4.909-7.9,6.36a6.909,6.909,0,0,1-1.242.4c1.327,4.967,2.7,9.994,3.652,13.144,2.445,8.093,6.354,24.062,6.354,24.062s2.639-.2,6.452-.854C411.361,382.93,410.788,371.539,410.737,361.3Z" transform="translate(-395.217 -333.427)" fill="#0056a3" opacity="0.65"/>
          </g>
          <path id="Path_4276" data-name="Path 4276" d="M406.556,326.953s-7.547-5.032-11.86-2.085-6.755,5.39-6.323,7.475,2.259,7.45,2.16,9.894-1.2,6.227-.675,6.994,3.259-.479,3.594-.239,5.168,5.223,6.465,5.27,7.908-8.432,7.716-11.786S409.646,331.263,406.556,326.953Z" transform="translate(-295.712 -318.739)" fill="#fcd4ca"/>
          <path id="Path_4277" data-name="Path 4277" d="M400.284,335.274c-.575,1.581-2.8,4.359-8.841,5.007s-10.42-11.426,0-16.529,12.074-1.293,14.375-1.581a8.067,8.067,0,0,1,6.365,1.451c3.48,2.655,6.033,6.746,3.8,13.642-2.258,6.971-5.821,8.113-5.821,8.113-.921-1.132-2.046-3.288-1.324-4.557a8.122,8.122,0,0,0,1.15-1.833,2.248,2.248,0,0,0-3.774-2.154c-1.016.812-.4,3.074-.646,4.167-.258,1.162-.8,1.257-1.258,1.329-.9.145-2.713-1.786-2.492-5.041C401.962,335.178,400.859,333.693,400.284,335.274Z" transform="translate(-298.28 -321.073)" fill="#ff2c9c"/>
          <path id="Path_4278" data-name="Path 4278" d="M383.567,373.387a6.43,6.43,0,0,0-1.112.361,4.7,4.7,0,0,1-2.477.684c-1.289.044-3.3.007-4.358.684-.618.393-4.225,2.976-2.566,4.207.221.165.852.306.972.2.345-.323,1.32-1.217,1.32-1.217a9.681,9.681,0,0,0-.874.892,2.407,2.407,0,0,0-.386.629c-.08.43.557,1.021.954,1s.515-.479.736-.758l-.013.024c-.187.334-.724.734,0,1.424.805.769.845.056,1.2-.21a2.792,2.792,0,0,0,.361-.346c-.114.147-.566.646-.638.794-.236.488,1.05,1.255,1.75.854.43-.245,1.237-1.346,1.521-1.38a5.8,5.8,0,0,0,.965-.278,5.9,5.9,0,0,0,2.474-1.654c.3-.325.927-.925,1.215-1.275a8.482,8.482,0,0,0,1.1-1.57A5.835,5.835,0,0,1,383.567,373.387Z" transform="translate(-308.484 -278.519)" fill="#fcd4ca"/>
          <path id="Path_4279" data-name="Path 4279" d="M381.937,402.481l-4.96-6.325s17.032-16.9,23.357-25.2,12.252-24.26,17.679-25.923,11.417.671,9.207,8.815-17.161,20.506-20.035,24.34S384.954,400.228,381.937,402.481Z" transform="translate(-304.942 -301.991)" fill="#0186cb"/>
        </g>
      </g>
    </g>
  </g>
</svg>
