<?xml version="1.0" encoding="utf-8"?>
<!-- Generator: Adobe Illustrator 24.2.0, SVG Export Plug-In . SVG Version: 6.00 Build 0)  -->
<!DOCTYPE svg PUBLIC "-//W3C//DTD SVG 1.1//EN" "http://www.w3.org/Graphics/SVG/1.1/DTD/svg11.dtd" [
	<!ENTITY ns_extend "http://ns.adobe.com/Extensibility/1.0/">
	<!ENTITY ns_ai "http://ns.adobe.com/AdobeIllustrator/10.0/">
	<!ENTITY ns_graphs "http://ns.adobe.com/Graphs/1.0/">
	<!ENTITY ns_vars "http://ns.adobe.com/Variables/1.0/">
	<!ENTITY ns_imrep "http://ns.adobe.com/ImageReplacement/1.0/">
	<!ENTITY ns_sfw "http://ns.adobe.com/SaveForWeb/1.0/">
	<!ENTITY ns_custom "http://ns.adobe.com/GenericCustomNamespace/1.0/">
	<!ENTITY ns_adobe_xpath "http://ns.adobe.com/XPath/1.0/">
]>
<svg version="1.1" id="Layer_1" xmlns:x="&ns_extend;" xmlns:i="&ns_ai;" xmlns:graph="&ns_graphs;"
	 xmlns="http://www.w3.org/2000/svg" xmlns:xlink="http://www.w3.org/1999/xlink" x="0px" y="0px" width="27px" height="27px"
	 viewBox="0 0 27 27" style="enable-background:new 0 0 27 27;" xml:space="preserve">
<style type="text/css">
	.st0{fill:#FFFFFF;}
</style>
<metadata>
	<sfw  xmlns="&ns_sfw;">
		<slices></slices>
		<sliceSourceBounds  bottomLeftOrigin="true" height="27" width="27" x="0" y="0"></sliceSourceBounds>
	</sfw>
</metadata>
<g id="Group_558" transform="translate(313.813 -242.688)">
	<path id="Path_643" class="st0" d="M-300.3,242.7c2.4,0,4.7,0.6,6.7,1.8c2,1.2,3.7,2.9,4.9,4.9c1.2,2,1.8,4.4,1.8,6.7
		c0,2.4-0.6,4.7-1.8,6.7c-1.2,2-2.9,3.7-4.9,4.9c-2,1.2-4.4,1.8-6.7,1.8c-2.4,0-4.7-0.6-6.7-1.8c-2-1.2-3.7-2.9-4.9-4.9
		c-1.2-2-1.8-4.4-1.8-6.7c0-2.4,0.6-4.7,1.8-6.7c1.2-2,2.9-3.7,4.9-4.9C-305,243.3-302.7,242.7-300.3,242.7z M-300.3,245.3
		c-1.9,0-3.8,0.5-5.4,1.5c-1.6,1-3,2.3-4,4c-1,1.7-1.5,3.5-1.5,5.5c0,1.9,0.5,3.8,1.5,5.5c0.2-0.8,0.6-1.5,1.1-2.1
		c0.6-0.7,1.4-1.2,2.3-1.5c-0.7-1.1-1-2.4-1-3.6c0-1.2,0.3-2.5,0.9-3.6c0.6-1.1,1.5-1.9,2.5-2.5c1.1-0.6,2.3-0.9,3.5-0.9
		c1.2,0,2.4,0.3,3.5,0.9c1.1,0.6,1.9,1.5,2.5,2.5c0.6,1.1,0.9,2.3,0.9,3.5c0,1.3-0.3,2.6-1,3.7c0.9,0.3,1.7,0.8,2.3,1.5
		c0.5,0.6,0.9,1.3,1.1,2.1c1-1.6,1.5-3.5,1.5-5.5c0-1.9-0.5-3.8-1.5-5.5c-1-1.6-2.3-3-4-4C-296.5,245.8-298.4,245.3-300.3,245.3
		L-300.3,245.3z M-307.3,264.6c1,0.8,2.1,1.4,3.2,1.9c1.2,0.4,2.5,0.7,3.7,0.7c1.3,0,2.5-0.2,3.7-0.7c1.2-0.4,2.3-1.1,3.2-1.9V263
		c0-0.5-0.2-1.1-0.5-1.5c-0.3-0.4-0.8-0.8-1.3-0.9l-1.4-0.4c-1.1,0.8-2.5,1.2-3.8,1.1c-1.4,0-2.7-0.4-3.8-1.1l-1.4,0.4
		c-0.5,0.1-1,0.5-1.3,0.9c-0.3,0.4-0.5,1-0.5,1.5L-307.3,264.6z M-296,254.4c0-1.2-0.4-2.3-1.3-3.1c-0.8-0.8-1.9-1.3-3.1-1.3
		c-1.2,0-2.3,0.4-3.1,1.3c-0.8,0.8-1.3,1.9-1.3,3.1c0,1.2,0.4,2.3,1.3,3.1c0.8,0.8,1.9,1.3,3.1,1.3c1.2,0,2.3-0.4,3.1-1.3
		C-296.4,256.7-295.9,255.6-296,254.4z"/>
</g>
</svg>
