<?xml version="1.0" encoding="utf-8"?>
<!-- Generator: Adobe Illustrator 24.2.0, SVG Export Plug-In . SVG Version: 6.00 Build 0)  -->
<!DOCTYPE svg PUBLIC "-//W3C//DTD SVG 1.1//EN" "http://www.w3.org/Graphics/SVG/1.1/DTD/svg11.dtd" [
	<!ENTITY ns_extend "http://ns.adobe.com/Extensibility/1.0/">
	<!ENTITY ns_ai "http://ns.adobe.com/AdobeIllustrator/10.0/">
	<!ENTITY ns_graphs "http://ns.adobe.com/Graphs/1.0/">
	<!ENTITY ns_vars "http://ns.adobe.com/Variables/1.0/">
	<!ENTITY ns_imrep "http://ns.adobe.com/ImageReplacement/1.0/">
	<!ENTITY ns_sfw "http://ns.adobe.com/SaveForWeb/1.0/">
	<!ENTITY ns_custom "http://ns.adobe.com/GenericCustomNamespace/1.0/">
	<!ENTITY ns_adobe_xpath "http://ns.adobe.com/XPath/1.0/">
]>
<svg version="1.1" id="Layer_1" xmlns:x="&ns_extend;" xmlns:i="&ns_ai;" xmlns:graph="&ns_graphs;"
	 xmlns="http://www.w3.org/2000/svg" xmlns:xlink="http://www.w3.org/1999/xlink" x="0px" y="0px" width="20.8px" height="19.7px"
	 viewBox="0 0 20.8 19.7" style="enable-background:new 0 0 20.8 19.7;" xml:space="preserve">
<style type="text/css">
	.st0{fill:#FFFFFF;}
</style>
<metadata>
	<sfw  xmlns="&ns_sfw;">
		<slices></slices>
		<sliceSourceBounds  bottomLeftOrigin="true" height="19.7" width="20.8" x="0" y="0"></sliceSourceBounds>
	</sfw>
</metadata>
<path id="Path_452" class="st0" d="M20.7,18.4l-1-3.1c-0.1-0.4-0.5-0.7-1-0.7h-1V7.3h1c0.6,0,1-0.5,1-1V4.2c0-0.4-0.3-0.8-0.7-1
	l-8.3-3.1C10.5,0,10.3,0,10,0.1L1.7,3.2C1.3,3.3,1,3.7,1,4.2v2.1c0,0.6,0.5,1,1,1c0,0,0,0,0,0h1v7.3h-1c-0.4,0-0.8,0.3-1,0.7l-1,3.1
	C0,18.7,0,19,0.2,19.3c0.2,0.3,0.5,0.4,0.8,0.4h18.7c0.3,0,0.6-0.2,0.8-0.4C20.8,19,20.8,18.7,20.7,18.4z M15.6,14.5h-2.1V7.3h2.1
	V14.5z M11.4,7.3v7.3H9.3V7.3H11.4z M3.1,4.9l7.3-2.7l7.3,2.7v0.3H3.1L3.1,4.9z M5.2,7.3h2.1v7.3H5.2V7.3z M2.5,17.6l0.3-1h15.1
	l0.3,1L2.5,17.6z"/>
</svg>
