<svg xmlns="http://www.w3.org/2000/svg" width="35.236" height="31.554" viewBox="0 0 35.236 31.554">
  <g id="Group_837" data-name="Group 837" transform="translate(-66 -58.098)">
    <path id="Path_815" data-name="Path 815" d="M92.939,71.361c0-.007,0-.013,0-.02a.79.79,0,0,0-.019-.1h0a.79.79,0,0,0-.03-.088l-.011-.024c-.009-.021-.02-.041-.031-.062l-.015-.026-.008-.014c-.012-.019-.025-.036-.038-.054l-.007-.01a.771.771,0,0,0-.064-.073l-.013-.012a.8.8,0,0,0-.061-.053l-.016-.013a.806.806,0,0,0-.088-.058L80.791,64.082l6.762-4.258L98.89,66.268l-4.774,3.006a.8.8,0,0,0,.85,1.349l5.9-3.716a.8.8,0,0,0-.031-1.368L87.926,58.2a.8.8,0,0,0-.819.018L78.82,63.439l-.005,0L74.673,66.05l-.006,0-8.293,5.222a.8.8,0,0,0,.031,1.368l12.909,7.338a.8.8,0,0,0,.819-.018l5.9-3.716a.8.8,0,1,0-.849-1.349l-5.5,3.462L68.351,71.915l6.762-4.258L87.2,74.529v9.1a.8.8,0,0,0,1.222.675L92.573,81.7a.8.8,0,0,0,.372-.675V71.455s0-.009,0-.014Q92.944,71.4,92.939,71.361ZM88.8,82.188V74.066a.8.8,0,0,0-.4-.693l-11.752-6.68,2.616-1.647L90.6,71.49l-.993.625a.8.8,0,1,0,.849,1.349l.9-.565v7.682Z" transform="translate(-0.002)" fill="#1d31c6"/>
    <path id="Path_816" data-name="Path 816" d="M420.249,190.264l-5.9,3.716a.8.8,0,1,0,.849,1.349l5.9-3.716a.8.8,0,1,0-.849-1.349Z" transform="translate(-320.234 -121.517)" fill="#1d31c6"/>
    <path id="Path_817" data-name="Path 817" d="M85.183,265.6l-5.5,3.462-12.494-7.1a.8.8,0,1,0-.788,1.386l12.909,7.338a.8.8,0,0,0,.819-.018l5.9-3.716a.8.8,0,0,0-.85-1.349Z" transform="translate(0 -187.518)" fill="#1d31c6"/>
    <path id="Path_818" data-name="Path 818" d="M420.249,230.264l-5.9,3.716a.8.8,0,1,0,.849,1.349l5.9-3.716a.8.8,0,1,0-.849-1.349Z" transform="translate(-320.234 -158.328)" fill="#1d31c6"/>
    <path id="Path_819" data-name="Path 819" d="M85.183,305.6l-5.5,3.462-12.494-7.1a.8.8,0,0,0-.788,1.386l12.909,7.338a.8.8,0,0,0,.819-.018l5.9-3.716a.8.8,0,0,0-.85-1.349Z" transform="translate(0 -224.329)" fill="#1d31c6"/>
    <path id="Path_820" data-name="Path 820" d="M420.249,270.264l-5.9,3.716a.8.8,0,1,0,.849,1.349l5.9-3.716a.8.8,0,1,0-.849-1.349Z" transform="translate(-320.234 -195.14)" fill="#1d31c6"/>
    <path id="Path_821" data-name="Path 821" d="M85.183,345.6l-5.5,3.462-12.494-7.1a.8.8,0,0,0-.788,1.386l12.909,7.338a.8.8,0,0,0,.819-.018l5.9-3.716a.8.8,0,0,0-.85-1.349Z" transform="translate(0 -261.14)" fill="#1d31c6"/>
  </g>
</svg>
