<?xml version="1.0" encoding="utf-8"?>
<!-- Generator: Adobe Illustrator 24.2.0, SVG Export Plug-In . SVG Version: 6.00 Build 0)  -->
<!DOCTYPE svg PUBLIC "-//W3C//DTD SVG 1.1//EN" "http://www.w3.org/Graphics/SVG/1.1/DTD/svg11.dtd" [
	<!ENTITY ns_extend "http://ns.adobe.com/Extensibility/1.0/">
	<!ENTITY ns_ai "http://ns.adobe.com/AdobeIllustrator/10.0/">
	<!ENTITY ns_graphs "http://ns.adobe.com/Graphs/1.0/">
	<!ENTITY ns_vars "http://ns.adobe.com/Variables/1.0/">
	<!ENTITY ns_imrep "http://ns.adobe.com/ImageReplacement/1.0/">
	<!ENTITY ns_sfw "http://ns.adobe.com/SaveForWeb/1.0/">
	<!ENTITY ns_custom "http://ns.adobe.com/GenericCustomNamespace/1.0/">
	<!ENTITY ns_adobe_xpath "http://ns.adobe.com/XPath/1.0/">
]>
<svg version="1.1" id="Layer_1" xmlns:x="&ns_extend;" xmlns:i="&ns_ai;" xmlns:graph="&ns_graphs;"
	 xmlns="http://www.w3.org/2000/svg" xmlns:xlink="http://www.w3.org/1999/xlink" x="0px" y="0px" width="22px" height="19.7px"
	 viewBox="0 0 22 19.7" style="enable-background:new 0 0 22 19.7;" xml:space="preserve">
<style type="text/css">
	.st0{fill:#FFFFFF;}
</style>
<metadata>
	<sfw  xmlns="&ns_sfw;">
		<slices></slices>
		<sliceSourceBounds  bottomLeftOrigin="true" height="19.7" width="22.1" x="-0.1" y="0"></sliceSourceBounds>
	</sfw>
</metadata>
<g id="Group_826" transform="translate(-66 -58.098)">
	<path id="Path_815" class="st0" d="M82.8,66.4C82.8,66.4,82.8,66.4,82.8,66.4C82.8,66.3,82.8,66.3,82.8,66.4L82.8,66.4
		c0-0.1,0-0.1,0-0.1l0,0c0,0,0,0,0,0l0,0v0c0,0,0,0,0,0v0c0,0,0,0,0,0l0,0c0,0,0,0,0,0l0,0c0,0,0,0-0.1,0l-7.3-4.2l4.2-2.7l7.1,4
		l-3,1.9c-0.2,0.2-0.3,0.5-0.1,0.7c0.1,0.2,0.4,0.2,0.6,0.1l3.7-2.3c0.2-0.1,0.3-0.5,0.1-0.7c0-0.1-0.1-0.1-0.2-0.2l-8-4.6
		c-0.2-0.1-0.4-0.1-0.5,0L74,61.4l0,0l-2.6,1.6l0,0l-5.2,3.3C66,66.5,66,66.8,66.1,67c0,0.1,0.1,0.1,0.2,0.2l8,4.6
		c0.2,0.1,0.4,0.1,0.5,0l3.7-2.3c0.2-0.2,0.3-0.5,0.1-0.7c-0.1-0.2-0.4-0.2-0.6-0.1l-3.4,2.2l-7.1-4l4.2-2.7l7.5,4.3V74
		c0,0.3,0.2,0.5,0.5,0.5c0.1,0,0.2,0,0.3-0.1l2.6-1.6c0.1-0.1,0.2-0.2,0.2-0.4L82.8,66.4C82.8,66.4,82.8,66.4,82.8,66.4
		C82.8,66.4,82.8,66.4,82.8,66.4z M80.2,73.1V68c0-0.2-0.1-0.3-0.3-0.4l-7.3-4.2l1.6-1l7.1,4l-0.6,0.4c-0.2,0.1-0.4,0.4-0.2,0.7
		c0.1,0.2,0.4,0.4,0.7,0.2c0,0,0.1,0,0.1-0.1l0.6-0.4v4.8L80.2,73.1z"/>
	<path id="Path_816" class="st0" d="M87.2,64.7L83.5,67c-0.2,0.1-0.4,0.4-0.2,0.7c0.1,0.2,0.4,0.4,0.7,0.2c0,0,0.1,0,0.1-0.1
		l3.7-2.3c0.2-0.1,0.4-0.4,0.2-0.7C87.8,64.7,87.5,64.6,87.2,64.7C87.3,64.7,87.2,64.7,87.2,64.7z"/>
	<path id="Path_817" class="st0" d="M78,70.6l-3.4,2.2l-7.8-4.4c-0.2-0.2-0.5-0.1-0.7,0.1c-0.2,0.2-0.1,0.5,0.1,0.7
		c0,0,0.1,0,0.1,0.1l8,4.6c0.2,0.1,0.4,0.1,0.5,0l3.7-2.3c0.2-0.2,0.3-0.5,0.1-0.7C78.4,70.5,78.2,70.5,78,70.6L78,70.6z"/>
	<path id="Path_818" class="st0" d="M87.2,66.7L83.5,69c-0.2,0.1-0.4,0.4-0.2,0.7c0.1,0.2,0.4,0.4,0.7,0.2c0,0,0.1,0,0.1-0.1
		l3.7-2.3c0.2-0.1,0.4-0.4,0.2-0.7C87.8,66.6,87.5,66.5,87.2,66.7C87.3,66.7,87.2,66.7,87.2,66.7z"/>
	<path id="Path_819" class="st0" d="M78,72.5l-3.4,2.2l-7.8-4.4c-0.3-0.1-0.5,0-0.7,0.3c-0.1,0.2,0,0.5,0.2,0.6l8,4.6
		c0.2,0.1,0.4,0.1,0.5,0l3.7-2.3c0.2-0.2,0.3-0.5,0.1-0.7C78.4,72.5,78.2,72.4,78,72.5L78,72.5z"/>
	<path id="Path_820" class="st0" d="M87.2,68.7L83.5,71c-0.2,0.1-0.4,0.4-0.2,0.7s0.4,0.4,0.7,0.2c0,0,0.1,0,0.1-0.1l3.7-2.3
		c0.2-0.1,0.4-0.4,0.2-0.7S87.5,68.5,87.2,68.7C87.3,68.7,87.2,68.7,87.2,68.7z"/>
	<path id="Path_821" class="st0" d="M78,74.5l-3.4,2.2l-7.8-4.4c-0.3-0.1-0.5,0-0.7,0.3c-0.1,0.2,0,0.5,0.2,0.6l8,4.6
		c0.2,0.1,0.4,0.1,0.5,0l3.7-2.3c0.2-0.2,0.3-0.5,0.1-0.7C78.4,74.5,78.2,74.4,78,74.5L78,74.5z"/>
</g>
</svg>
