<svg xmlns="http://www.w3.org/2000/svg" width="282.653" height="300.516" viewBox="0 0 282.653 300.516">
  <g id="Group_929" data-name="Group 929" transform="translate(-274.915 -53.565)">
    <path id="Path_3977" data-name="Path 3977" d="M475.166,354.081,274.915,238.466l7.439-5.031L482.606,349.051Z" fill="#d4ecff"/>
    <ellipse id="Ellipse_9" data-name="Ellipse 9" cx="32.743" cy="18.904" rx="32.743" ry="18.904" transform="translate(335.296 195.109)" fill="#d4ecff"/>
    <ellipse id="Ellipse_10" data-name="Ellipse 10" cx="32.743" cy="18.904" rx="32.743" ry="18.904" transform="translate(393.504 228.553)" fill="#d4ecff"/>
    <ellipse id="Ellipse_11" data-name="Ellipse 11" cx="32.743" cy="18.904" rx="32.743" ry="18.904" transform="translate(454.538 263.806)" fill="#d4ecff"/>
    <g id="Group_863" data-name="Group 863">
      <path id="Path_3978" data-name="Path 3978" d="M296.82,293.14l-10.514-6.07-10.514,6.07,10.514,6.07Z" fill="#d4ecff"/>
      <g id="Group_862" data-name="Group 862">
        <g id="Group_859" data-name="Group 859">
          <path id="Path_3979" data-name="Path 3979" d="M286.306,292.4V277.863l11.085-6.4V286Z" fill="#721bd5"/>
          <path id="Path_3980" data-name="Path 3980" d="M286.306,277.863l-11.085-6.4V286l11.085,6.4Z" fill="#b45ef4"/>
        </g>
        <g id="Group_860" data-name="Group 860">
          <path id="Path_3981" data-name="Path 3981" d="M286.306,277.863V267.6l11.085-6.4v10.267Z" fill="#e8a200"/>
          <path id="Path_3982" data-name="Path 3982" d="M286.306,267.6l-11.085-6.4v10.267l11.085,6.4Z" fill="#f9bf30"/>
        </g>
        <g id="Group_861" data-name="Group 861">
          <path id="Path_3983" data-name="Path 3983" d="M286.306,267.6v-7.362l11.085-6.4V261.2Z" fill="#5793ce"/>
          <path id="Path_3984" data-name="Path 3984" d="M286.306,260.234l-11.085-6.4V261.2l11.085,6.4Z" fill="#01c8ef"/>
          <path id="Path_3985" data-name="Path 3985" d="M297.391,253.835l-11.085-6.4-11.085,6.4,11.085,6.4Z" fill="#396caa"/>
        </g>
      </g>
    </g>
    <g id="Group_864" data-name="Group 864">
      <rect id="Rectangle_342" data-name="Rectangle 342" width="2.254" height="6.549" transform="matrix(-0.574, -0.819, 0.819, -0.574, 546.469, 180.823)" fill="#fdd762"/>
      <rect id="Rectangle_343" data-name="Rectangle 343" width="2.254" height="6.549" transform="matrix(-0.574, -0.819, 0.819, -0.574, 548.382, 176.727)" fill="#fdd762"/>
      <rect id="Rectangle_344" data-name="Rectangle 344" width="2.254" height="6.549" transform="matrix(-0.574, -0.819, 0.819, -0.574, 550.295, 172.63)" fill="#fdd762"/>
      <rect id="Rectangle_345" data-name="Rectangle 345" width="2.254" height="6.549" transform="matrix(-0.574, -0.819, 0.819, -0.574, 552.208, 168.534)" fill="#fdd762"/>
    </g>
    <g id="Group_869" data-name="Group 869">
      <g id="Group_865" data-name="Group 865">
        <path id="Path_3986" data-name="Path 3986" d="M524.129,204.755l-12.277-7.088-12.277,7.088,12.277,7.088Z" fill="#d4ecff"/>
        <path id="Path_3987" data-name="Path 3987" d="M517.6,193.3v-44.15l10.428-6.021v44.15Z" fill="#1d31c6"/>
        <path id="Path_3988" data-name="Path 3988" d="M517.6,149.146l-10.428-6.021v44.15L517.6,193.3Z" fill="#1d8cc6"/>
        <path id="Path_3989" data-name="Path 3989" d="M528.03,143.125,517.6,137.1l-10.428,6.02,10.428,6.021Z" fill="#00a0c9"/>
      </g>
      <g id="Group_866" data-name="Group 866">
        <path id="Path_3990" data-name="Path 3990" d="M528.03,195.3,517.6,189.283V193.3l10.428,6.021Z" fill="#95d359"/>
      </g>
      <g id="Group_867" data-name="Group 867">
        <path id="Path_3991" data-name="Path 3991" d="M507.174,199.317V167.207l10.428-6.021V193.3Z" fill="#c13d1a"/>
        <path id="Path_3992" data-name="Path 3992" d="M507.174,167.207l-10.428-6.021V193.3l10.428,6.021Z" fill="#db5126"/>
        <path id="Path_3993" data-name="Path 3993" d="M517.6,161.187l-10.428-6.02-10.428,6.02,10.428,6.021Z" fill="#ef602e"/>
        <path id="Path_3994" data-name="Path 3994" d="M507.174,199.317V167.207l10.428-6.021V193.3Z" fill="#5793ce"/>
        <path id="Path_3995" data-name="Path 3995" d="M507.174,167.207l-10.428-6.021V193.3l10.428,6.021Z" fill="#01c8ef"/>
        <path id="Path_3996" data-name="Path 3996" d="M517.6,161.187l-10.428-6.02-10.428,6.02,10.428,6.021Z" fill="#396caa"/>
      </g>
      <g id="Group_868" data-name="Group 868">
        <path id="Path_3997" data-name="Path 3997" d="M517.6,205.337V187.276l10.428-6.02v18.062Z" fill="#e8a200"/>
        <path id="Path_3998" data-name="Path 3998" d="M517.6,187.276l-10.428-6.02v18.062l10.428,6.021Z" fill="#f9bf30"/>
        <path id="Path_3999" data-name="Path 3999" d="M528.03,181.255,517.6,175.235l-10.428,6.021,10.428,6.02Z" fill="#fdd762"/>
      </g>
    </g>
    <g id="Group_872" data-name="Group 872">
      <path id="Path_4000" data-name="Path 4000" d="M330.193,112.356,319.7,106.3l-10.489,6.056,10.489,6.056Z" fill="#d4ecff"/>
      <g id="Group_870" data-name="Group 870">
        <path id="Path_4001" data-name="Path 4001" d="M319.7,112.794V105.97l12.532-7.235v6.824Z" fill="#e8a200"/>
        <path id="Path_4002" data-name="Path 4002" d="M319.7,105.97l-12.532-7.235v6.824l12.532,7.235Z" fill="#f9bf30"/>
        <path id="Path_4003" data-name="Path 4003" d="M332.236,98.735,319.7,91.5l-12.532,7.235L319.7,105.97Z" fill="#fdd762"/>
        <path id="Path_4004" data-name="Path 4004" d="M328.012,98.735l-8.308-4.8-8.308,4.8,8.308,4.8Z" fill="#e8a200"/>
      </g>
      <g id="Group_871" data-name="Group 871">
        <path id="Path_4005" data-name="Path 4005" d="M319.7,99.644V92.82l12.532-7.235v6.824Z" fill="#5793ce"/>
        <path id="Path_4006" data-name="Path 4006" d="M319.7,92.82l-12.532-7.235v6.824L319.7,99.644Z" fill="#01c8ef"/>
        <path id="Path_4007" data-name="Path 4007" d="M332.236,85.585,319.7,78.349l-12.532,7.235L319.7,92.82Z" fill="#396caa"/>
      </g>
    </g>
    <g id="Group_873" data-name="Group 873">
      <rect id="Rectangle_346" data-name="Rectangle 346" width="9.5" height="2" transform="translate(482.291 322.294) rotate(-45)" fill="#b45ef4"/>
      <rect id="Rectangle_347" data-name="Rectangle 347" width="2" height="9.5" transform="translate(482.291 316.99) rotate(-44.996)" fill="#b45ef4"/>
    </g>
    <path id="Path_4008" data-name="Path 4008" d="M481.458,136.908a9.167,9.167,0,1,1,9.166-9.166A9.177,9.177,0,0,1,481.458,136.908Zm0-16.333a7.167,7.167,0,1,0,7.166,7.167A7.175,7.175,0,0,0,481.458,120.575Z" fill="#ff2c9c"/>
    <circle id="Ellipse_12" data-name="Ellipse 12" cx="6.625" cy="6.625" r="6.625" transform="translate(466.666 127.159)" fill="#fdd762"/>
    <g id="Group_874" data-name="Group 874">
      <rect id="Rectangle_348" data-name="Rectangle 348" width="9.5" height="2" transform="translate(306.465 146.729) rotate(-45)" fill="#b45ef4"/>
      <rect id="Rectangle_349" data-name="Rectangle 349" width="2" height="9.5" transform="translate(306.465 141.425) rotate(-45)" fill="#b45ef4"/>
    </g>
    <circle id="Ellipse_13" data-name="Ellipse 13" cx="4.857" cy="4.857" r="4.857" transform="translate(315.816 197.843)" fill="#fdd762"/>
    <g id="Group_876" data-name="Group 876">
      <g id="Group_875" data-name="Group 875">
        <path id="Path_4009" data-name="Path 4009" d="M350.555,305.065a2.218,2.218,0,1,1,1.862,2.524A2.218,2.218,0,0,1,350.555,305.065Z" fill="#1d31c6"/>
      </g>
      <rect id="Rectangle_350" data-name="Rectangle 350" width="9.231" height="9.231" transform="matrix(-0.989, -0.149, 0.149, -0.989, 368.837, 321.295)" fill="#1d31c6"/>
    </g>
    <g id="Group_901" data-name="Group 901">
      <g id="Group_879" data-name="Group 879">
        <path id="Path_4010" data-name="Path 4010" d="M408.292,186.664h-1.559c-1.748-3.435-4.967-6.673-9.661-9.383-14.959-8.637-39.212-8.637-54.171,0-4.694,2.709-7.913,5.948-9.661,9.383h-1.558v6.255h0c0,5.66,3.74,11.319,11.22,15.637,14.959,8.637,39.212,8.638,54.171,0,7.48-4.318,11.219-9.978,11.219-15.638h0Z" fill="#f9bf30"/>
        <path id="Path_4011" data-name="Path 4011" d="M361.679,171.333a50.752,50.752,0,0,0-18.778,5.948c-4.694,2.709-7.913,5.948-9.661,9.383h-1.558v6.255c0,5.66,3.74,11.319,11.22,15.637a50.747,50.747,0,0,0,18.777,5.948Z" fill="#fdd762"/>
        <path id="Path_4012" data-name="Path 4012" d="M397.177,208.494c7.408-4.31,11.115-9.942,11.115-15.575v-6.255h-1.559a22.33,22.33,0,0,0-7.689-8.147h-1.867Z" fill="#e8a200"/>
        <g id="Group_877" data-name="Group 877" opacity="0.4">
          <path id="Path_4013" data-name="Path 4013" d="M406.321,185.936a18.276,18.276,0,0,0-1.662-2.4v18.8a18.272,18.272,0,0,0,1.662-2.408Z" fill="#e8a200"/>
          <path id="Path_4014" data-name="Path 4014" d="M342.9,177.281a30.118,30.118,0,0,0-5.35,3.885v23.513c.521.478,1.07.949,1.661,1.408V180.6h3.132v27.616c.187.112.366.228.558.338.361.209.732.408,1.1.606V180.6h3.132v30.066q.819.353,1.661.678V180.6h3.132v31.824q.822.254,1.662.483V180.6h3.131v33.064q.826.176,1.662.328V180.6h3.132v33.882q.828.108,1.661.2V180.6h3.132v34.331c.553.03,1.107.052,1.662.069V180.6h3.132v34.417q.831-.014,1.661-.049V180.6H375.9v34.165q.834-.075,1.662-.17V180.6h3.132v33.553q.836-.14,1.661-.3V180.6h3.132v32.541q.839-.213,1.662-.452V180.6h3.132v31.073q.842-.3,1.661-.637V180.6h3.132v29.023q.848-.425,1.662-.881V180.6h3.132v26.154c.586-.421,1.136-.853,1.661-1.292V180.6h.278a31.2,31.2,0,0,0-4.733-3.321,46.112,46.112,0,0,0-11.754-4.628H354.654A46.084,46.084,0,0,0,342.9,177.281Z" fill="#e8a200"/>
          <path id="Path_4015" data-name="Path 4015" d="M334.419,184.724a17.15,17.15,0,0,0-1.179,1.94h-.483v11.465a16.362,16.362,0,0,0,1.662,3.007Z" fill="#e8a200"/>
        </g>
        <ellipse id="Ellipse_14" data-name="Ellipse 14" cx="38.305" cy="22.115" rx="38.305" ry="22.115" transform="translate(331.682 164.548)" fill="#fdd762"/>
        <path id="Path_4016" data-name="Path 4016" d="M378.568,190.443c11.012-6.358,13.907-15.622,8.705-23.515-14.371-4.2-32.364-2.835-44.372,4.1-11.012,6.358-13.907,15.623-8.7,23.515C348.567,198.738,366.56,197.376,378.568,190.443Z" fill="#fff" opacity="0.2"/>
        <path id="Path_4017" data-name="Path 4017" d="M397.073,202.3c-14.959,8.636-39.212,8.636-54.171,0-7.229-4.173-10.954-9.6-11.2-15.068-.259,5.849,3.466,11.745,11.2,16.209,14.959,8.637,39.212,8.637,54.171,0,7.731-4.463,11.455-10.359,11.2-16.207C408.026,192.7,404.3,198.129,397.073,202.3Z" fill="#fff" opacity="0.7"/>
        <ellipse id="Ellipse_15" data-name="Ellipse 15" cx="27.19" cy="15.698" rx="27.19" ry="15.698" transform="translate(342.797 170.965)" fill="#e8a200"/>
        <path id="Path_4018" data-name="Path 4018" d="M350.76,177c10.619-6.131,27.835-6.131,38.453,0,4.994,2.883,7.638,6.609,7.935,10.384.334-4.253-2.31-8.57-7.935-11.817-10.618-6.131-27.834-6.131-38.453,0-5.624,3.248-8.268,7.564-7.933,11.817C343.124,183.6,345.767,179.879,350.76,177Z" fill="#f9bf30"/>
        <path id="Path_4019" data-name="Path 4019" d="M383.359,179.251l-2.108.6.6.238-2.058,1.188a11.621,11.621,0,0,0-5.217-1.219,9.981,9.981,0,0,0-5.025,1.359,7.818,7.818,0,0,0-1.516,1.1,3.224,3.224,0,0,0-.813,1.163,3.9,3.9,0,0,0-.267,1.114A6.334,6.334,0,0,0,367,186l.244,1.919a5.719,5.719,0,0,1,.049,1.346,2.407,2.407,0,0,1-.456,1.089,3.674,3.674,0,0,1-1.206,1.033,2.461,2.461,0,0,1-2.585.189q-.861-.5-.438-1.239a6.687,6.687,0,0,1,2.294-1.85v-1.44l-1.8.676-2.591-1.1a8.385,8.385,0,0,0-3.072,2.76l-.3-.333v1.412h.006c.009.97.749,1.925,2.233,2.866l-1.024.591-1.391-.637v1.44l1.249.722,2.439-1.408a10.656,10.656,0,0,0,4.934.984,9.793,9.793,0,0,0,4.653-1.251,7.863,7.863,0,0,0,1.651-1.226,3.959,3.959,0,0,0,.915-1.334,5.035,5.035,0,0,0,.34-1.317,7.031,7.031,0,0,0-.005-1.4l-.207-1.857c-.032-.373-.049-.644-.048-.812a3.705,3.705,0,0,1,.091-.7,1.637,1.637,0,0,1,.418-.8,3.876,3.876,0,0,1,.9-.679,3.643,3.643,0,0,1,1.384-.442,2.222,2.222,0,0,1,1.383.232,1.273,1.273,0,0,1,.43.332.4.4,0,0,1,.076.241l-2.144.446v1.44l4.345,1.934c.355-.225.672-.433.951-.627a9.217,9.217,0,0,0,.875-.7,5.2,5.2,0,0,0,.727-.785,2.76,2.76,0,0,0,.413-.847,1.828,1.828,0,0,0,.071-.43l.005-.006v-1.515l-.553.115c-.008-.009-.012-.018-.02-.028a5.13,5.13,0,0,0-1.16-.991l2.281-1.317Z" fill="#f9bf30"/>
        <g id="Group_878" data-name="Group 878">
          <path id="Path_4020" data-name="Path 4020" d="M356.967,193.283l2.415-1.394q-2.477-1.569-2.215-3.191t3.344-3.513l4.392,1.863a6.687,6.687,0,0,0-2.294,1.85q-.425.743.438,1.239a2.462,2.462,0,0,0,2.585-.188,3.676,3.676,0,0,0,1.206-1.034,2.407,2.407,0,0,0,.456-1.089,5.719,5.719,0,0,0-.049-1.346L367,184.562a6.347,6.347,0,0,1-.047-1.206,3.9,3.9,0,0,1,.267-1.114,3.212,3.212,0,0,1,.813-1.162,7.777,7.777,0,0,1,1.516-1.1,9.981,9.981,0,0,1,5.025-1.359,11.609,11.609,0,0,1,5.217,1.22l2.293-1.325,1.274.736-2.281,1.317a5.13,5.13,0,0,1,1.16.991,2.5,2.5,0,0,1,.528.949,1.741,1.741,0,0,1-.031.915,2.776,2.776,0,0,1-.413.848,5.248,5.248,0,0,1-.727.784,9.217,9.217,0,0,1-.875.7c-.279.194-.6.4-.951.627l-4.345-1.934q.5-.3.813-.5c.21-.136.425-.285.643-.449a2.67,2.67,0,0,0,.473-.427,1.177,1.177,0,0,0,.207-.378.394.394,0,0,0-.068-.368,1.261,1.261,0,0,0-.43-.333,2.236,2.236,0,0,0-1.383-.232,3.643,3.643,0,0,0-1.384.442,3.9,3.9,0,0,0-.9.679,1.637,1.637,0,0,0-.418.8,3.7,3.7,0,0,0-.091.7c0,.168.016.439.048.812l.207,1.857a7.031,7.031,0,0,1,.005,1.4,5.025,5.025,0,0,1-.34,1.317,3.972,3.972,0,0,1-.915,1.335,7.86,7.86,0,0,1-1.651,1.225,9.793,9.793,0,0,1-4.653,1.251,10.656,10.656,0,0,1-4.934-.984l-2.439,1.408Z" fill="#fdd762"/>
        </g>
      </g>
      <g id="Group_882" data-name="Group 882">
        <path id="Path_4021" data-name="Path 4021" d="M408.292,180.4h-1.559c-1.748-3.434-4.967-6.672-9.661-9.382-14.959-8.637-39.212-8.637-54.171,0-4.694,2.71-7.913,5.948-9.661,9.383h-1.558v6.256h0c0,5.659,3.74,11.319,11.22,15.637,14.959,8.637,39.212,8.638,54.171,0,7.48-4.318,11.219-9.979,11.219-15.638h0Z" fill="#f9bf30"/>
        <path id="Path_4022" data-name="Path 4022" d="M361.679,165.073A50.769,50.769,0,0,0,342.9,171.02c-4.694,2.71-7.913,5.948-9.661,9.383h-1.558v6.256c0,5.659,3.74,11.319,11.22,15.637a50.765,50.765,0,0,0,18.777,5.948Z" fill="#fdd762"/>
        <path id="Path_4023" data-name="Path 4023" d="M397.177,202.234c7.408-4.311,11.115-9.943,11.115-15.575V180.4h-1.559a22.328,22.328,0,0,0-7.689-8.146h-1.867Z" fill="#e8a200"/>
        <g id="Group_880" data-name="Group 880" opacity="0.4">
          <path id="Path_4024" data-name="Path 4024" d="M406.321,179.675a18.268,18.268,0,0,0-1.662-2.4v18.8a18.14,18.14,0,0,0,1.662-2.408Z" fill="#e8a200"/>
          <path id="Path_4025" data-name="Path 4025" d="M342.9,171.02a30.171,30.171,0,0,0-5.35,3.886v23.512c.521.478,1.07.949,1.661,1.408V174.342h3.132v27.615c.187.113.366.229.558.339.361.209.732.408,1.1.606v-28.56h3.132v30.066q.819.353,1.661.677V174.342h3.132v31.823q.822.255,1.662.484V174.342h3.131V207.4q.826.176,1.662.328V174.342h3.132v33.881q.828.108,1.661.2V174.342h3.132v34.33c.553.031,1.107.052,1.662.069v-34.4h3.132v34.417q.831-.014,1.661-.049V174.342H375.9v34.164c.556-.05,1.11-.1,1.662-.169v-34h3.132V207.9q.836-.14,1.661-.3V174.342h3.132v32.541c.559-.142,1.113-.294,1.662-.452V174.342h3.132v31.072q.842-.3,1.661-.636V174.342h3.132v29.023c.565-.284,1.12-.576,1.662-.882V174.342h3.132V200.5c.586-.421,1.136-.853,1.661-1.292V174.342h.278a31.2,31.2,0,0,0-4.733-3.321,46.039,46.039,0,0,0-11.754-4.628H354.654A46.082,46.082,0,0,0,342.9,171.02Z" fill="#e8a200"/>
          <path id="Path_4026" data-name="Path 4026" d="M334.419,178.464a17.227,17.227,0,0,0-1.179,1.939h-.483v11.466a16.4,16.4,0,0,0,1.662,3.007Z" fill="#e8a200"/>
        </g>
        <ellipse id="Ellipse_16" data-name="Ellipse 16" cx="38.305" cy="22.115" rx="38.305" ry="22.115" transform="translate(331.682 158.288)" fill="#fdd762"/>
        <path id="Path_4027" data-name="Path 4027" d="M378.568,184.182c11.012-6.357,13.907-15.622,8.705-23.514-14.371-4.2-32.364-2.836-44.372,4.1-11.012,6.358-13.907,15.622-8.7,23.515C348.567,192.477,366.56,191.115,378.568,184.182Z" fill="#fff" opacity="0.2"/>
        <path id="Path_4028" data-name="Path 4028" d="M397.073,196.042c-14.959,8.636-39.212,8.636-54.171,0-7.229-4.173-10.954-9.6-11.2-15.068-.259,5.848,3.466,11.745,11.2,16.208,14.959,8.637,39.212,8.637,54.171,0,7.731-4.464,11.455-10.359,11.2-16.208C408.026,186.442,404.3,191.868,397.073,196.042Z" fill="#fff" opacity="0.7"/>
        <ellipse id="Ellipse_17" data-name="Ellipse 17" cx="27.19" cy="15.698" rx="27.19" ry="15.698" transform="translate(342.797 164.705)" fill="#e8a200"/>
        <path id="Path_4029" data-name="Path 4029" d="M350.76,170.736c10.619-6.13,27.835-6.13,38.453,0,4.994,2.883,7.638,6.608,7.935,10.384.334-4.253-2.31-8.57-7.935-11.818-10.618-6.13-27.834-6.131-38.453,0-5.624,3.247-8.268,7.564-7.933,11.816C343.124,177.344,345.767,173.619,350.76,170.736Z" fill="#f9bf30"/>
        <path id="Path_4030" data-name="Path 4030" d="M383.359,172.99l-2.108.6.6.238-2.058,1.188a11.607,11.607,0,0,0-5.217-1.219,9.971,9.971,0,0,0-5.025,1.359,7.776,7.776,0,0,0-1.516,1.1,3.229,3.229,0,0,0-.813,1.162,3.913,3.913,0,0,0-.267,1.114,6.344,6.344,0,0,0,.047,1.206l.244,1.919a5.712,5.712,0,0,1,.049,1.345,2.41,2.41,0,0,1-.456,1.09,3.674,3.674,0,0,1-1.206,1.033,2.461,2.461,0,0,1-2.585.189q-.861-.5-.438-1.24a6.711,6.711,0,0,1,2.294-1.85v-1.44l-1.8.676-2.591-1.1a8.393,8.393,0,0,0-3.072,2.759l-.3-.332V184.2h.006c.009.969.749,1.925,2.233,2.865l-1.024.592-1.391-.637v1.44l1.249.721,2.439-1.408a10.657,10.657,0,0,0,4.934.985,9.816,9.816,0,0,0,4.653-1.251,7.862,7.862,0,0,0,1.651-1.226,3.962,3.962,0,0,0,.915-1.335,5.015,5.015,0,0,0,.34-1.317,7.021,7.021,0,0,0-.005-1.4l-.207-1.857c-.032-.373-.049-.645-.048-.813a3.705,3.705,0,0,1,.091-.7,1.638,1.638,0,0,1,.418-.8,3.9,3.9,0,0,1,.9-.68,3.66,3.66,0,0,1,1.384-.441,2.228,2.228,0,0,1,1.383.231,1.286,1.286,0,0,1,.43.333.392.392,0,0,1,.076.241l-2.144.446v1.44l4.345,1.933q.532-.336.951-.627a9.062,9.062,0,0,0,.875-.7,5.153,5.153,0,0,0,.727-.784,2.765,2.765,0,0,0,.413-.848,1.812,1.812,0,0,0,.071-.43l.005,0v-1.515l-.553.115c-.008-.01-.012-.019-.02-.028a5.13,5.13,0,0,0-1.16-.991l2.281-1.318Z" fill="#f9bf30"/>
        <g id="Group_881" data-name="Group 881">
          <path id="Path_4031" data-name="Path 4031" d="M356.967,187.023l2.415-1.395q-2.477-1.569-2.215-3.19t3.344-3.514l4.392,1.863a6.711,6.711,0,0,0-2.294,1.85q-.425.743.438,1.24a2.461,2.461,0,0,0,2.585-.189,3.674,3.674,0,0,0,1.206-1.033,2.41,2.41,0,0,0,.456-1.09,5.712,5.712,0,0,0-.049-1.345L367,178.3a6.344,6.344,0,0,1-.047-1.206,3.913,3.913,0,0,1,.267-1.114,3.229,3.229,0,0,1,.813-1.162,7.818,7.818,0,0,1,1.516-1.1,9.981,9.981,0,0,1,5.025-1.359,11.608,11.608,0,0,1,5.217,1.219l2.293-1.324,1.274.735-2.281,1.318a5.13,5.13,0,0,1,1.16.991,2.5,2.5,0,0,1,.528.949,1.742,1.742,0,0,1-.031.915,2.759,2.759,0,0,1-.413.847,5.154,5.154,0,0,1-.727.784,9.064,9.064,0,0,1-.875.7q-.418.291-.951.627l-4.345-1.933q.5-.3.813-.5c.21-.135.425-.285.643-.448a2.63,2.63,0,0,0,.473-.428,1.157,1.157,0,0,0,.207-.378.4.4,0,0,0-.068-.368,1.286,1.286,0,0,0-.43-.333,2.228,2.228,0,0,0-1.383-.231,3.66,3.66,0,0,0-1.384.441,3.9,3.9,0,0,0-.9.68,1.638,1.638,0,0,0-.418.8,3.7,3.7,0,0,0-.091.705c0,.168.016.439.048.812l.207,1.857a7.021,7.021,0,0,1,.005,1.4,5.031,5.031,0,0,1-.34,1.318,3.969,3.969,0,0,1-.915,1.334,7.862,7.862,0,0,1-1.651,1.226,9.793,9.793,0,0,1-4.653,1.251,10.657,10.657,0,0,1-4.934-.985l-2.439,1.408Z" fill="#fdd762"/>
        </g>
      </g>
      <g id="Group_885" data-name="Group 885">
        <path id="Path_4032" data-name="Path 4032" d="M408.292,174.143h-1.559c-1.748-3.435-4.967-6.673-9.661-9.382-14.959-8.637-39.212-8.637-54.171,0-4.694,2.71-7.913,5.948-9.661,9.383h-1.558V180.4h0c0,5.66,3.74,11.32,11.22,15.638,14.959,8.637,39.212,8.637,54.171,0,7.48-4.319,11.219-9.979,11.219-15.639h0Z" fill="#f9bf30"/>
        <path id="Path_4033" data-name="Path 4033" d="M361.679,158.813A50.751,50.751,0,0,0,342.9,164.76c-4.694,2.71-7.913,5.948-9.661,9.383h-1.558V180.4c0,5.66,3.74,11.32,11.22,15.638a50.746,50.746,0,0,0,18.777,5.947Z" fill="#fdd762"/>
        <path id="Path_4034" data-name="Path 4034" d="M397.177,195.974c7.408-4.311,11.115-9.943,11.115-15.576v-6.255h-1.559A22.321,22.321,0,0,0,399.044,166h-1.867Z" fill="#e8a200"/>
        <g id="Group_883" data-name="Group 883" opacity="0.4">
          <path id="Path_4035" data-name="Path 4035" d="M406.321,173.415a18.344,18.344,0,0,0-1.662-2.4v18.8a18.206,18.206,0,0,0,1.662-2.408Z" fill="#e8a200"/>
          <path id="Path_4036" data-name="Path 4036" d="M342.9,164.76a30.172,30.172,0,0,0-5.35,3.886v23.512c.521.478,1.07.949,1.661,1.408V168.082h3.132V195.7c.187.113.366.228.558.339.361.208.732.407,1.1.606v-28.56h3.132v30.065q.819.353,1.661.678V168.082h3.132V199.9q.822.254,1.662.483V168.082h3.131v33.063q.826.175,1.662.328V168.082h3.132v33.881q.828.108,1.661.2V168.082h3.132v34.33c.553.031,1.107.052,1.662.069v-34.4h3.132V202.5q.831-.014,1.661-.048V168.082H375.9v34.164c.556-.05,1.11-.1,1.662-.169V168.082h3.132v33.552q.836-.14,1.661-.3V168.082h3.132v32.541q.839-.215,1.662-.453V168.082h3.132v31.072q.842-.3,1.661-.636V168.082h3.132V197.1q.848-.426,1.662-.882V168.082h3.132v26.153c.586-.42,1.136-.852,1.661-1.291V168.082h.278a31.057,31.057,0,0,0-4.733-3.321,46.078,46.078,0,0,0-11.754-4.629H354.654A46.084,46.084,0,0,0,342.9,164.76Z" fill="#e8a200"/>
          <path id="Path_4037" data-name="Path 4037" d="M334.419,172.2a17.139,17.139,0,0,0-1.179,1.939h-.483v11.466a16.355,16.355,0,0,0,1.662,3.006Z" fill="#e8a200"/>
        </g>
        <ellipse id="Ellipse_18" data-name="Ellipse 18" cx="38.305" cy="22.115" rx="38.305" ry="22.115" transform="translate(331.682 152.027)" fill="#fdd762"/>
        <path id="Path_4038" data-name="Path 4038" d="M378.568,177.922c11.012-6.358,13.907-15.622,8.705-23.514-14.371-4.2-32.364-2.836-44.372,4.1-11.012,6.358-13.907,15.622-8.7,23.515C348.567,186.217,366.56,184.855,378.568,177.922Z" fill="#fff" opacity="0.2"/>
        <path id="Path_4039" data-name="Path 4039" d="M397.073,189.781c-14.959,8.637-39.212,8.637-54.171,0-7.229-4.173-10.954-9.6-11.2-15.068-.259,5.849,3.466,11.745,11.2,16.209,14.959,8.637,39.212,8.637,54.171,0,7.731-4.463,11.455-10.359,11.2-16.207C408.026,180.182,404.3,185.608,397.073,189.781Z" fill="#fff" opacity="0.7"/>
        <ellipse id="Ellipse_19" data-name="Ellipse 19" cx="27.19" cy="15.698" rx="27.19" ry="15.698" transform="translate(342.797 158.445)" fill="#e8a200"/>
        <path id="Path_4040" data-name="Path 4040" d="M350.76,164.476c10.619-6.13,27.835-6.13,38.453,0,4.994,2.883,7.638,6.609,7.935,10.384.334-4.253-2.31-8.569-7.935-11.817-10.618-6.131-27.834-6.131-38.453,0-5.624,3.247-8.268,7.563-7.933,11.816C343.124,171.084,345.767,167.359,350.76,164.476Z" fill="#f9bf30"/>
        <path id="Path_4041" data-name="Path 4041" d="M383.359,166.73l-2.108.6.6.238-2.058,1.189a11.609,11.609,0,0,0-5.217-1.22,9.981,9.981,0,0,0-5.025,1.359,7.819,7.819,0,0,0-1.516,1.1,3.212,3.212,0,0,0-.813,1.162,3.905,3.905,0,0,0-.267,1.114,6.347,6.347,0,0,0,.047,1.206l.244,1.919a5.711,5.711,0,0,1,.049,1.345,2.41,2.41,0,0,1-.456,1.09,3.686,3.686,0,0,1-1.206,1.033,2.46,2.46,0,0,1-2.585.188q-.861-.5-.438-1.239a6.7,6.7,0,0,1,2.294-1.85v-1.44l-1.8.676-2.591-1.1a8.392,8.392,0,0,0-3.072,2.759l-.3-.333v1.412h.006c.009.969.749,1.924,2.233,2.865l-1.024.591-1.391-.637v1.44l1.249.722,2.439-1.408a10.643,10.643,0,0,0,4.934.984,9.793,9.793,0,0,0,4.653-1.251,7.86,7.86,0,0,0,1.651-1.225,3.963,3.963,0,0,0,.915-1.335,5.025,5.025,0,0,0,.34-1.317,7.021,7.021,0,0,0-.005-1.4l-.207-1.857c-.032-.374-.049-.645-.048-.813a3.7,3.7,0,0,1,.091-.7,1.637,1.637,0,0,1,.418-.8,3.932,3.932,0,0,1,.9-.679,3.642,3.642,0,0,1,1.384-.441,2.229,2.229,0,0,1,1.383.231,1.274,1.274,0,0,1,.43.333.391.391,0,0,1,.076.24l-2.144.447v1.439l4.345,1.934c.355-.225.672-.433.951-.627a9.219,9.219,0,0,0,.875-.7,5.249,5.249,0,0,0,.727-.784,2.765,2.765,0,0,0,.413-.848,1.828,1.828,0,0,0,.071-.43l.005-.005v-1.515l-.553.115c-.008-.01-.012-.019-.02-.029a5.13,5.13,0,0,0-1.16-.991l2.281-1.317Z" fill="#f9bf30"/>
        <g id="Group_884" data-name="Group 884">
          <path id="Path_4042" data-name="Path 4042" d="M356.967,180.762l2.415-1.394q-2.477-1.569-2.215-3.191t3.344-3.513l4.392,1.863a6.7,6.7,0,0,0-2.294,1.85q-.425.742.438,1.24a2.463,2.463,0,0,0,2.585-.189,3.686,3.686,0,0,0,1.206-1.033,2.41,2.41,0,0,0,.456-1.09,5.711,5.711,0,0,0-.049-1.345L367,172.041a6.347,6.347,0,0,1-.047-1.206,3.913,3.913,0,0,1,.267-1.114,3.212,3.212,0,0,1,.813-1.162,7.818,7.818,0,0,1,1.516-1.1,9.991,9.991,0,0,1,5.025-1.359,11.609,11.609,0,0,1,5.217,1.22l2.293-1.324,1.274.735-2.281,1.317a5.13,5.13,0,0,1,1.16.991,2.51,2.51,0,0,1,.528.95,1.738,1.738,0,0,1-.031.914,2.765,2.765,0,0,1-.413.848,5.2,5.2,0,0,1-.727.784,9.217,9.217,0,0,1-.875.7c-.279.194-.6.4-.951.627l-4.345-1.933q.5-.3.813-.505c.21-.135.425-.285.643-.448a2.707,2.707,0,0,0,.473-.428,1.157,1.157,0,0,0,.207-.378.4.4,0,0,0-.068-.368,1.274,1.274,0,0,0-.43-.333,2.229,2.229,0,0,0-1.383-.231,3.642,3.642,0,0,0-1.384.441,3.905,3.905,0,0,0-.9.68,1.629,1.629,0,0,0-.418.8,3.705,3.705,0,0,0-.091.7c0,.168.016.439.048.813l.207,1.857a7.021,7.021,0,0,1,.005,1.4,5.024,5.024,0,0,1-.34,1.317,3.962,3.962,0,0,1-.915,1.335,7.9,7.9,0,0,1-1.651,1.226,9.8,9.8,0,0,1-4.653,1.25,10.643,10.643,0,0,1-4.934-.984l-2.439,1.408Z" fill="#fdd762"/>
        </g>
      </g>
      <g id="Group_888" data-name="Group 888">
        <path id="Path_4043" data-name="Path 4043" d="M408.292,167.883h-1.559c-1.748-3.435-4.967-6.673-9.661-9.383-14.959-8.637-39.212-8.637-54.171,0-4.694,2.709-7.913,5.948-9.661,9.383h-1.558v6.255h0c0,5.66,3.74,11.319,11.22,15.638,14.959,8.636,39.212,8.637,54.171,0,7.48-4.318,11.219-9.978,11.219-15.638h0Z" fill="#f9bf30"/>
        <path id="Path_4044" data-name="Path 4044" d="M361.679,152.552A50.752,50.752,0,0,0,342.9,158.5c-4.694,2.709-7.913,5.948-9.661,9.383h-1.558v6.255c0,5.66,3.74,11.319,11.22,15.638a50.765,50.765,0,0,0,18.777,5.947Z" fill="#fdd762"/>
        <path id="Path_4045" data-name="Path 4045" d="M397.177,189.713c7.408-4.311,11.115-9.942,11.115-15.575v-6.255h-1.559a22.331,22.331,0,0,0-7.689-8.147h-1.867Z" fill="#e8a200"/>
        <g id="Group_886" data-name="Group 886" opacity="0.4">
          <path id="Path_4046" data-name="Path 4046" d="M406.321,167.155a18.277,18.277,0,0,0-1.662-2.4v18.8a18.273,18.273,0,0,0,1.662-2.408Z" fill="#e8a200"/>
          <path id="Path_4047" data-name="Path 4047" d="M342.9,158.5a30.119,30.119,0,0,0-5.35,3.885V185.9c.521.478,1.07.949,1.661,1.408V161.821h3.132v27.616c.187.113.366.228.558.339.361.208.732.407,1.1.6v-28.56h3.132v30.066q.819.353,1.661.677V161.821h3.132v31.824q.822.253,1.662.483V161.821h3.131v33.064q.826.176,1.662.328V161.821h3.132V195.7q.828.108,1.661.195V161.821h3.132v34.331c.553.03,1.107.052,1.662.069v-34.4h3.132v34.417q.831-.014,1.661-.049V161.821H375.9v34.165q.834-.075,1.662-.17V161.821h3.132v33.553q.836-.139,1.661-.3v-33.25h3.132v32.541q.839-.213,1.662-.452V161.821h3.132v31.073q.842-.3,1.661-.636V161.821h3.132v29.023q.848-.424,1.662-.881V161.821h3.132v26.154c.586-.421,1.136-.853,1.661-1.292V161.821h.278a31.2,31.2,0,0,0-4.733-3.321,46.077,46.077,0,0,0-11.754-4.628H354.654A46.085,46.085,0,0,0,342.9,158.5Z" fill="#e8a200"/>
          <path id="Path_4048" data-name="Path 4048" d="M334.419,165.943a17.151,17.151,0,0,0-1.179,1.94h-.483v11.465a16.362,16.362,0,0,0,1.662,3.007Z" fill="#e8a200"/>
        </g>
        <ellipse id="Ellipse_20" data-name="Ellipse 20" cx="38.305" cy="22.115" rx="38.305" ry="22.115" transform="translate(331.682 145.767)" fill="#fdd762"/>
        <path id="Path_4049" data-name="Path 4049" d="M378.568,171.662c11.012-6.358,13.907-15.623,8.705-23.515-14.371-4.2-32.364-2.835-44.372,4.1-11.012,6.358-13.907,15.623-8.7,23.515C348.567,179.957,366.56,178.6,378.568,171.662Z" fill="#fff" opacity="0.2"/>
        <path id="Path_4050" data-name="Path 4050" d="M397.073,183.521c-14.959,8.637-39.212,8.636-54.171,0-7.229-4.173-10.954-9.6-11.2-15.068-.259,5.849,3.466,11.745,11.2,16.209,14.959,8.636,39.212,8.636,54.171,0,7.731-4.463,11.455-10.359,11.2-16.207C408.026,173.922,404.3,179.348,397.073,183.521Z" fill="#fff" opacity="0.7"/>
        <path id="Path_4051" data-name="Path 4051" d="M389.214,178.983c-10.619,6.131-27.834,6.13-38.453,0s-10.619-16.07,0-22.2,27.835-6.13,38.453,0S399.832,172.853,389.214,178.983Z" fill="#e8a200"/>
        <path id="Path_4052" data-name="Path 4052" d="M350.76,158.216c10.619-6.131,27.835-6.131,38.453,0,4.994,2.883,7.638,6.609,7.935,10.384.334-4.253-2.31-8.57-7.935-11.817-10.618-6.131-27.834-6.131-38.453,0-5.624,3.248-8.268,7.564-7.933,11.817C343.124,164.823,345.767,161.1,350.76,158.216Z" fill="#f9bf30"/>
        <path id="Path_4053" data-name="Path 4053" d="M383.359,160.47l-2.108.6.6.238-2.058,1.188a11.621,11.621,0,0,0-5.217-1.219,9.981,9.981,0,0,0-5.025,1.359,7.817,7.817,0,0,0-1.516,1.1,3.224,3.224,0,0,0-.813,1.163,3.9,3.9,0,0,0-.267,1.114A6.334,6.334,0,0,0,367,167.22l.244,1.919a5.719,5.719,0,0,1,.049,1.346,2.407,2.407,0,0,1-.456,1.089,3.674,3.674,0,0,1-1.206,1.033,2.461,2.461,0,0,1-2.585.189q-.861-.5-.438-1.239a6.687,6.687,0,0,1,2.294-1.85v-1.44l-1.8.676-2.591-1.1a8.385,8.385,0,0,0-3.072,2.76l-.3-.333v1.412h.006c.009.97.749,1.925,2.233,2.866l-1.024.591-1.391-.637v1.44l1.249.722,2.439-1.408a10.656,10.656,0,0,0,4.934.984,9.793,9.793,0,0,0,4.653-1.251,7.9,7.9,0,0,0,1.651-1.225,3.972,3.972,0,0,0,.915-1.335,5.035,5.035,0,0,0,.34-1.317,7.031,7.031,0,0,0-.005-1.4l-.207-1.857c-.032-.373-.049-.644-.048-.812a3.7,3.7,0,0,1,.091-.7,1.637,1.637,0,0,1,.418-.8,3.9,3.9,0,0,1,.9-.679,3.643,3.643,0,0,1,1.384-.442,2.222,2.222,0,0,1,1.383.232,1.262,1.262,0,0,1,.43.333.389.389,0,0,1,.076.24l-2.144.446v1.44l4.345,1.934c.355-.225.672-.433.951-.627a9.219,9.219,0,0,0,.875-.7,5.2,5.2,0,0,0,.727-.785,2.759,2.759,0,0,0,.413-.847,1.828,1.828,0,0,0,.071-.43l.005-.006v-1.515l-.553.115c-.008-.009-.012-.018-.02-.028a5.129,5.129,0,0,0-1.16-.991l2.281-1.317Z" fill="#f9bf30"/>
        <g id="Group_887" data-name="Group 887">
          <path id="Path_4054" data-name="Path 4054" d="M356.967,174.5l2.415-1.394q-2.477-1.569-2.215-3.191t3.344-3.513l4.392,1.863a6.687,6.687,0,0,0-2.294,1.85q-.425.742.438,1.239a2.462,2.462,0,0,0,2.585-.188,3.676,3.676,0,0,0,1.206-1.034,2.407,2.407,0,0,0,.456-1.089,5.719,5.719,0,0,0-.049-1.346L367,165.78a6.334,6.334,0,0,1-.047-1.205,3.9,3.9,0,0,1,.267-1.114,3.224,3.224,0,0,1,.813-1.163,7.817,7.817,0,0,1,1.516-1.1,9.981,9.981,0,0,1,5.025-1.359,11.608,11.608,0,0,1,5.217,1.22l2.293-1.325,1.274.736-2.281,1.317a5.129,5.129,0,0,1,1.16.991,2.5,2.5,0,0,1,.528.949,1.741,1.741,0,0,1-.031.915,2.776,2.776,0,0,1-.413.848,5.249,5.249,0,0,1-.727.784,9.219,9.219,0,0,1-.875.7c-.279.194-.6.4-.951.627l-4.345-1.934q.5-.3.813-.505c.21-.135.425-.284.643-.448a2.669,2.669,0,0,0,.473-.427,1.177,1.177,0,0,0,.207-.378.394.394,0,0,0-.068-.368,1.261,1.261,0,0,0-.43-.333,2.229,2.229,0,0,0-1.383-.232,3.643,3.643,0,0,0-1.384.442,3.9,3.9,0,0,0-.9.679,1.637,1.637,0,0,0-.418.8,3.7,3.7,0,0,0-.091.7c0,.168.016.439.048.812l.207,1.857a7.031,7.031,0,0,1,.005,1.4,5.035,5.035,0,0,1-.34,1.317,3.972,3.972,0,0,1-.915,1.335,7.9,7.9,0,0,1-1.651,1.225,9.793,9.793,0,0,1-4.653,1.251,10.656,10.656,0,0,1-4.934-.984l-2.439,1.408Z" fill="#fdd762"/>
        </g>
      </g>
      <g id="Group_891" data-name="Group 891">
        <path id="Path_4055" data-name="Path 4055" d="M408.292,161.622h-1.559c-1.748-3.434-4.967-6.673-9.661-9.382-14.959-8.637-39.212-8.637-54.171,0-4.694,2.71-7.913,5.948-9.661,9.383h-1.558v6.255h0c0,5.66,3.74,11.32,11.22,15.638,14.959,8.637,39.212,8.638,54.171,0,7.48-4.318,11.219-9.979,11.219-15.639h0Z" fill="#f9bf30"/>
        <path id="Path_4056" data-name="Path 4056" d="M361.679,146.292a50.769,50.769,0,0,0-18.778,5.947c-4.694,2.71-7.913,5.948-9.661,9.383h-1.558v6.255c0,5.66,3.74,11.32,11.22,15.638a50.765,50.765,0,0,0,18.777,5.948Z" fill="#fdd762"/>
        <path id="Path_4057" data-name="Path 4057" d="M397.177,183.453c7.408-4.311,11.115-9.943,11.115-15.576v-6.255h-1.559a22.328,22.328,0,0,0-7.689-8.146h-1.867Z" fill="#e8a200"/>
        <g id="Group_889" data-name="Group 889" opacity="0.4">
          <path id="Path_4058" data-name="Path 4058" d="M406.321,160.894a18.268,18.268,0,0,0-1.662-2.4v18.8a18.141,18.141,0,0,0,1.662-2.408Z" fill="#e8a200"/>
          <path id="Path_4059" data-name="Path 4059" d="M342.9,152.239a30.171,30.171,0,0,0-5.35,3.886v23.512c.521.478,1.07.949,1.661,1.408V155.561h3.132v27.616c.187.112.366.227.558.338.361.209.732.407,1.1.606v-28.56h3.132v30.066q.819.353,1.661.677V155.561h3.132v31.823q.822.255,1.662.484V155.561h3.131v33.063q.826.176,1.662.328V155.561h3.132v33.882q.828.107,1.661.2V155.561h3.132v34.331c.553.03,1.107.051,1.662.068v-34.4h3.132v34.417q.831-.014,1.661-.049V155.561H375.9v34.164c.556-.05,1.11-.105,1.662-.169V155.561h3.132v33.553q.836-.14,1.661-.3V155.561h3.132V188.1c.559-.142,1.113-.294,1.662-.452V155.561h3.132v31.072q.842-.3,1.661-.636V155.561h3.132v29.023q.848-.425,1.662-.882V155.561h3.132v26.154c.586-.421,1.136-.853,1.661-1.292V155.561h.278a31.2,31.2,0,0,0-4.733-3.321,46.076,46.076,0,0,0-11.754-4.628H354.654A46.12,46.12,0,0,0,342.9,152.239Z" fill="#e8a200"/>
          <path id="Path_4060" data-name="Path 4060" d="M334.419,159.683a17.228,17.228,0,0,0-1.179,1.939h-.483v11.466a16.4,16.4,0,0,0,1.662,3.007Z" fill="#e8a200"/>
        </g>
        <ellipse id="Ellipse_21" data-name="Ellipse 21" cx="38.305" cy="22.115" rx="38.305" ry="22.115" transform="translate(331.682 139.507)" fill="#fdd762"/>
        <path id="Path_4061" data-name="Path 4061" d="M378.568,165.4c11.012-6.357,13.907-15.622,8.705-23.514-14.371-4.2-32.364-2.836-44.372,4.1-11.012,6.358-13.907,15.622-8.7,23.515C348.567,173.7,366.56,172.334,378.568,165.4Z" fill="#fff" opacity="0.2"/>
        <path id="Path_4062" data-name="Path 4062" d="M397.073,177.261c-14.959,8.636-39.212,8.636-54.171,0-7.229-4.173-10.954-9.6-11.2-15.068-.259,5.848,3.466,11.745,11.2,16.208,14.959,8.637,39.212,8.637,54.171,0,7.731-4.463,11.455-10.359,11.2-16.208C408.026,167.661,404.3,173.087,397.073,177.261Z" fill="#fff" opacity="0.7"/>
        <ellipse id="Ellipse_22" data-name="Ellipse 22" cx="27.19" cy="15.698" rx="27.19" ry="15.698" transform="translate(342.797 145.924)" fill="#e8a200"/>
        <path id="Path_4063" data-name="Path 4063" d="M350.76,151.955c10.619-6.13,27.835-6.13,38.453,0,4.994,2.883,7.638,6.608,7.935,10.384.334-4.253-2.31-8.57-7.935-11.818-10.618-6.13-27.834-6.131-38.453,0-5.624,3.247-8.268,7.564-7.933,11.816C343.124,158.563,345.767,154.838,350.76,151.955Z" fill="#f9bf30"/>
        <path id="Path_4064" data-name="Path 4064" d="M383.359,154.209l-2.108.6.6.238-2.058,1.188a11.608,11.608,0,0,0-5.217-1.219,9.981,9.981,0,0,0-5.025,1.359,7.776,7.776,0,0,0-1.516,1.1,3.229,3.229,0,0,0-.813,1.162,3.913,3.913,0,0,0-.267,1.114A6.345,6.345,0,0,0,367,160.96l.244,1.919a5.712,5.712,0,0,1,.049,1.345,2.41,2.41,0,0,1-.456,1.09,3.674,3.674,0,0,1-1.206,1.033,2.461,2.461,0,0,1-2.585.189q-.861-.5-.438-1.24a6.711,6.711,0,0,1,2.294-1.85v-1.44l-1.8.676-2.591-1.1a8.393,8.393,0,0,0-3.072,2.759l-.3-.332v1.412h.006c.009.969.749,1.925,2.233,2.865l-1.024.592-1.391-.637v1.44l1.249.721,2.439-1.408a10.657,10.657,0,0,0,4.934.985,9.8,9.8,0,0,0,4.653-1.251,7.863,7.863,0,0,0,1.651-1.226,3.963,3.963,0,0,0,.915-1.335,5.015,5.015,0,0,0,.34-1.317,7.021,7.021,0,0,0-.005-1.4l-.207-1.857c-.032-.374-.049-.645-.048-.813a3.7,3.7,0,0,1,.091-.7,1.629,1.629,0,0,1,.418-.8,3.9,3.9,0,0,1,.9-.68,3.66,3.66,0,0,1,1.384-.441,2.229,2.229,0,0,1,1.383.231,1.286,1.286,0,0,1,.43.333.392.392,0,0,1,.076.241l-2.144.446v1.44l4.345,1.933q.532-.336.951-.627a9.062,9.062,0,0,0,.875-.7,5.154,5.154,0,0,0,.727-.784,2.771,2.771,0,0,0,.413-.847,1.828,1.828,0,0,0,.071-.431l.005-.005v-1.515l-.553.115c-.008-.01-.012-.019-.02-.028a5.157,5.157,0,0,0-1.16-.992l2.281-1.317Z" fill="#f9bf30"/>
        <g id="Group_890" data-name="Group 890">
          <path id="Path_4065" data-name="Path 4065" d="M356.967,168.242l2.415-1.394q-2.477-1.571-2.215-3.191t3.344-3.514l4.392,1.863a6.7,6.7,0,0,0-2.294,1.851q-.425.741.438,1.239a2.461,2.461,0,0,0,2.585-.189,3.674,3.674,0,0,0,1.206-1.033,2.411,2.411,0,0,0,.456-1.089,5.719,5.719,0,0,0-.049-1.346L367,159.52a6.344,6.344,0,0,1-.047-1.206,3.913,3.913,0,0,1,.267-1.114,3.229,3.229,0,0,1,.813-1.162,7.776,7.776,0,0,1,1.516-1.1,9.981,9.981,0,0,1,5.025-1.359,11.621,11.621,0,0,1,5.217,1.219l2.293-1.324,1.274.735-2.281,1.318a5.13,5.13,0,0,1,1.16.991,2.5,2.5,0,0,1,.528.949,1.742,1.742,0,0,1-.031.915,2.759,2.759,0,0,1-.413.847,5.154,5.154,0,0,1-.727.784,9.062,9.062,0,0,1-.875.7q-.418.291-.951.627l-4.345-1.933q.5-.3.813-.505c.21-.135.425-.285.643-.448a2.629,2.629,0,0,0,.473-.428,1.156,1.156,0,0,0,.207-.378.4.4,0,0,0-.068-.368,1.287,1.287,0,0,0-.43-.333,2.229,2.229,0,0,0-1.383-.231,3.66,3.66,0,0,0-1.384.441,3.9,3.9,0,0,0-.9.68,1.637,1.637,0,0,0-.418.8,3.7,3.7,0,0,0-.091.7c0,.167.016.439.048.812l.207,1.857a7.021,7.021,0,0,1,.005,1.4,5.031,5.031,0,0,1-.34,1.318,3.969,3.969,0,0,1-.915,1.334,7.863,7.863,0,0,1-1.651,1.226,9.793,9.793,0,0,1-4.653,1.251,10.656,10.656,0,0,1-4.934-.985l-2.439,1.408Z" fill="#fdd762"/>
        </g>
      </g>
      <g id="Group_894" data-name="Group 894">
        <path id="Path_4066" data-name="Path 4066" d="M408.292,155.362h-1.559c-1.748-3.435-4.967-6.673-9.661-9.382-14.959-8.637-39.212-8.637-54.171,0-4.694,2.71-7.913,5.948-9.661,9.383h-1.558v6.255h0c0,5.66,3.74,11.32,11.22,15.638,14.959,8.637,39.212,8.637,54.171,0,7.48-4.319,11.219-9.979,11.219-15.639h0Z" fill="#f9bf30"/>
        <path id="Path_4067" data-name="Path 4067" d="M361.679,140.032a50.751,50.751,0,0,0-18.778,5.947c-4.694,2.71-7.913,5.948-9.661,9.383h-1.558v6.255c0,5.66,3.74,11.32,11.22,15.638a50.764,50.764,0,0,0,18.777,5.947Z" fill="#fdd762"/>
        <path id="Path_4068" data-name="Path 4068" d="M397.177,177.193c7.408-4.311,11.115-9.943,11.115-15.576v-6.255h-1.559a22.321,22.321,0,0,0-7.689-8.146h-1.867Z" fill="#e8a200"/>
        <g id="Group_892" data-name="Group 892" opacity="0.4">
          <path id="Path_4069" data-name="Path 4069" d="M406.321,154.634a18.343,18.343,0,0,0-1.662-2.4v18.8a18.2,18.2,0,0,0,1.662-2.408Z" fill="#e8a200"/>
          <path id="Path_4070" data-name="Path 4070" d="M342.9,145.979a30.171,30.171,0,0,0-5.35,3.886v23.512c.521.478,1.07.949,1.661,1.408V149.3h3.132v27.615c.187.113.366.228.558.339.361.208.732.407,1.1.606V149.3h3.132v30.065q.819.353,1.661.678V149.3h3.132v31.823q.822.254,1.662.483V149.3h3.131v33.063q.826.176,1.662.328V149.3h3.132v33.881q.828.108,1.661.195V149.3h3.132v34.33c.553.031,1.107.052,1.662.069V149.3h3.132v34.416c.554-.009,1.108-.026,1.661-.048V149.3H375.9v34.164c.556-.05,1.11-.1,1.662-.169v-34h3.132v33.552q.836-.14,1.661-.3V149.3h3.132v32.541q.839-.214,1.662-.453V149.3h3.132v31.072q.842-.3,1.661-.636V149.3h3.132v29.022q.848-.425,1.662-.881V149.3h3.132v26.153c.586-.42,1.136-.852,1.661-1.291V149.3h.278a31.057,31.057,0,0,0-4.733-3.321,46.078,46.078,0,0,0-11.754-4.629H354.654A46.084,46.084,0,0,0,342.9,145.979Z" fill="#e8a200"/>
          <path id="Path_4071" data-name="Path 4071" d="M334.419,153.423a17.138,17.138,0,0,0-1.179,1.939h-.483v11.466a16.354,16.354,0,0,0,1.662,3.006Z" fill="#e8a200"/>
        </g>
        <ellipse id="Ellipse_23" data-name="Ellipse 23" cx="38.305" cy="22.115" rx="38.305" ry="22.115" transform="translate(331.682 133.246)" fill="#fdd762"/>
        <path id="Path_4072" data-name="Path 4072" d="M378.568,159.141c11.012-6.358,13.907-15.622,8.705-23.514-14.371-4.2-32.364-2.836-44.372,4.1-11.012,6.358-13.907,15.622-8.7,23.515C348.567,167.436,366.56,166.074,378.568,159.141Z" fill="#fff" opacity="0.2"/>
        <path id="Path_4073" data-name="Path 4073" d="M397.073,171c-14.959,8.637-39.212,8.636-54.171,0-7.229-4.174-10.954-9.6-11.2-15.069-.259,5.849,3.466,11.745,11.2,16.209,14.959,8.637,39.212,8.637,54.171,0,7.731-4.463,11.455-10.359,11.2-16.207C408.026,161.4,404.3,166.827,397.073,171Z" fill="#fff" opacity="0.7"/>
        <ellipse id="Ellipse_24" data-name="Ellipse 24" cx="27.19" cy="15.698" rx="27.19" ry="15.698" transform="translate(342.797 139.664)" fill="#e8a200"/>
        <path id="Path_4074" data-name="Path 4074" d="M350.76,145.7c10.619-6.131,27.835-6.13,38.453,0,4.994,2.883,7.638,6.609,7.935,10.385.334-4.254-2.31-8.57-7.935-11.818-10.618-6.131-27.834-6.131-38.453,0-5.624,3.248-8.268,7.564-7.933,11.817C343.124,152.3,345.767,148.578,350.76,145.7Z" fill="#f9bf30"/>
        <path id="Path_4075" data-name="Path 4075" d="M383.359,147.949l-2.108.6.6.237-2.058,1.189a11.609,11.609,0,0,0-5.217-1.22,9.981,9.981,0,0,0-5.025,1.359,7.818,7.818,0,0,0-1.516,1.1,3.212,3.212,0,0,0-.813,1.162,3.905,3.905,0,0,0-.267,1.114A6.347,6.347,0,0,0,367,154.7l.244,1.919a5.711,5.711,0,0,1,.049,1.345,2.415,2.415,0,0,1-.456,1.09,3.686,3.686,0,0,1-1.206,1.033,2.46,2.46,0,0,1-2.585.188q-.861-.5-.438-1.239a6.7,6.7,0,0,1,2.294-1.85v-1.44l-1.8.676-2.591-1.1a8.393,8.393,0,0,0-3.072,2.759l-.3-.333v1.412h.006c.009.969.749,1.924,2.233,2.865l-1.024.591-1.391-.637v1.44l1.249.722,2.439-1.408a10.643,10.643,0,0,0,4.934.984,9.793,9.793,0,0,0,4.653-1.251,7.86,7.86,0,0,0,1.651-1.225,3.972,3.972,0,0,0,.915-1.335,5.025,5.025,0,0,0,.34-1.317,7.021,7.021,0,0,0-.005-1.4l-.207-1.857c-.032-.374-.049-.645-.048-.813a3.7,3.7,0,0,1,.091-.7,1.637,1.637,0,0,1,.418-.8,3.932,3.932,0,0,1,.9-.679,3.661,3.661,0,0,1,1.384-.442,2.236,2.236,0,0,1,1.383.232,1.274,1.274,0,0,1,.43.333.391.391,0,0,1,.076.24l-2.144.447v1.439l4.345,1.934c.355-.225.672-.433.951-.627a9.217,9.217,0,0,0,.875-.7,5.248,5.248,0,0,0,.727-.784,2.765,2.765,0,0,0,.413-.848,1.828,1.828,0,0,0,.071-.43l.005,0v-1.515l-.553.115c-.008-.01-.012-.019-.02-.029a5.13,5.13,0,0,0-1.16-.991l2.281-1.317Z" fill="#f9bf30"/>
        <g id="Group_893" data-name="Group 893">
          <path id="Path_4076" data-name="Path 4076" d="M356.967,161.982l2.415-1.395q-2.477-1.569-2.215-3.191t3.344-3.513l4.392,1.863a6.7,6.7,0,0,0-2.294,1.85q-.425.743.438,1.24a2.463,2.463,0,0,0,2.585-.189,3.686,3.686,0,0,0,1.206-1.033,2.41,2.41,0,0,0,.456-1.09,5.711,5.711,0,0,0-.049-1.345L367,153.26a6.347,6.347,0,0,1-.047-1.206,3.913,3.913,0,0,1,.267-1.114,3.221,3.221,0,0,1,.813-1.162,7.777,7.777,0,0,1,1.516-1.1,9.982,9.982,0,0,1,5.025-1.36,11.609,11.609,0,0,1,5.217,1.22l2.293-1.324,1.274.735-2.281,1.317a5.155,5.155,0,0,1,1.16.991,2.5,2.5,0,0,1,.528.95,1.738,1.738,0,0,1-.031.914,2.765,2.765,0,0,1-.413.848,5.154,5.154,0,0,1-.727.784,9.219,9.219,0,0,1-.875.7q-.418.291-.951.627l-4.345-1.933q.5-.3.813-.5c.21-.135.425-.285.643-.448a2.707,2.707,0,0,0,.473-.428,1.157,1.157,0,0,0,.207-.378.4.4,0,0,0-.068-.368,1.274,1.274,0,0,0-.43-.333,2.228,2.228,0,0,0-1.383-.231,3.642,3.642,0,0,0-1.384.441,3.9,3.9,0,0,0-.9.68,1.629,1.629,0,0,0-.418.8,3.7,3.7,0,0,0-.091.7c0,.168.016.439.048.813l.207,1.857a7.021,7.021,0,0,1,.005,1.4,5.015,5.015,0,0,1-.34,1.317,3.962,3.962,0,0,1-.915,1.335,7.9,7.9,0,0,1-1.651,1.226,9.8,9.8,0,0,1-4.653,1.25,10.644,10.644,0,0,1-4.934-.984l-2.439,1.408Z" fill="#fdd762"/>
        </g>
      </g>
      <g id="Group_897" data-name="Group 897">
        <path id="Path_4077" data-name="Path 4077" d="M411.029,149.1H409.47c-1.748-3.434-4.967-6.672-9.661-9.382-14.959-8.637-39.213-8.637-54.171,0-4.694,2.709-7.913,5.948-9.661,9.382h-1.558v6.256h0c0,5.66,3.74,11.319,11.219,15.637,14.96,8.637,39.213,8.638,54.172,0,7.479-4.318,11.219-9.978,11.219-15.638h0Z" fill="#f9bf30"/>
        <path id="Path_4078" data-name="Path 4078" d="M364.416,133.771a50.752,50.752,0,0,0-18.778,5.948c-4.694,2.709-7.913,5.948-9.661,9.382h-1.558v6.256c0,5.66,3.74,11.319,11.219,15.637a50.758,50.758,0,0,0,18.778,5.948Z" fill="#fdd762"/>
        <path id="Path_4079" data-name="Path 4079" d="M399.914,170.932c7.408-4.311,11.115-9.942,11.115-15.575V149.1H409.47a22.34,22.34,0,0,0-7.69-8.146h-1.866Z" fill="#e8a200"/>
        <g id="Group_895" data-name="Group 895" opacity="0.4">
          <path id="Path_4080" data-name="Path 4080" d="M409.057,148.374a18.265,18.265,0,0,0-1.661-2.4v18.8a18.259,18.259,0,0,0,1.661-2.408Z" fill="#e8a200"/>
          <path id="Path_4081" data-name="Path 4081" d="M345.638,139.719a30.128,30.128,0,0,0-5.351,3.885v23.513c.522.478,1.071.949,1.662,1.408V143.04h3.132v27.616c.187.113.365.228.557.338.361.209.733.408,1.1.606V143.04h3.132v30.066q.819.353,1.662.678V143.04h3.132v31.824q.822.254,1.661.483V143.04h3.132V176.1q.825.175,1.662.328V143.04h3.132v33.882q.828.108,1.661.2V143.04h3.132v34.331q.83.045,1.662.068v-34.4h3.132v34.417q.831-.014,1.661-.049V143.04h3.132v34.165q.834-.075,1.662-.17v-34h3.132v33.553q.836-.14,1.661-.3V143.04h3.132v32.541q.839-.213,1.662-.452V143.04h3.131v31.073q.843-.3,1.662-.637V143.04h3.132v29.023q.848-.425,1.661-.881V143.04H402.6v26.154c.587-.421,1.137-.853,1.662-1.292V143.04h.277a31.137,31.137,0,0,0-4.732-3.321,46.142,46.142,0,0,0-11.754-4.628H357.39A46.077,46.077,0,0,0,345.638,139.719Z" fill="#e8a200"/>
          <path id="Path_4082" data-name="Path 4082" d="M337.155,147.162a17.216,17.216,0,0,0-1.178,1.939h-.483v11.466a16.416,16.416,0,0,0,1.661,3.007Z" fill="#e8a200"/>
        </g>
        <ellipse id="Ellipse_25" data-name="Ellipse 25" cx="38.305" cy="22.115" rx="38.305" ry="22.115" transform="translate(334.419 126.986)" fill="#fdd762"/>
        <path id="Path_4083" data-name="Path 4083" d="M381.3,152.881c11.012-6.358,13.906-15.623,8.7-23.515-14.371-4.2-32.364-2.835-44.371,4.1-11.013,6.358-13.907,15.623-8.7,23.515C351.3,161.176,369.3,159.814,381.3,152.881Z" fill="#fff" opacity="0.2"/>
        <path id="Path_4084" data-name="Path 4084" d="M399.81,164.74c-14.959,8.637-39.212,8.636-54.172,0-7.228-4.173-10.953-9.6-11.2-15.068-.259,5.849,3.465,11.745,11.2,16.209,14.96,8.637,39.213,8.637,54.172,0,7.73-4.463,11.455-10.359,11.2-16.207C410.762,155.141,407.038,160.567,399.81,164.74Z" fill="#fff" opacity="0.7"/>
        <ellipse id="Ellipse_26" data-name="Ellipse 26" cx="27.19" cy="15.698" rx="27.19" ry="15.698" transform="translate(345.534 133.403)" fill="#e8a200"/>
        <path id="Path_4085" data-name="Path 4085" d="M353.5,139.435c10.618-6.131,27.834-6.131,38.453,0,4.993,2.883,7.637,6.609,7.934,10.384.335-4.253-2.309-8.57-7.934-11.817-10.619-6.131-27.835-6.131-38.453,0-5.625,3.248-8.268,7.564-7.934,11.817C345.86,146.042,348.5,142.317,353.5,139.435Z" fill="#f9bf30"/>
        <path id="Path_4086" data-name="Path 4086" d="M386.1,141.689l-2.108.6.6.238-2.058,1.188a11.622,11.622,0,0,0-5.218-1.219,9.98,9.98,0,0,0-5.024,1.359,7.827,7.827,0,0,0-1.517,1.1,3.249,3.249,0,0,0-.813,1.163,3.893,3.893,0,0,0-.266,1.114,6.334,6.334,0,0,0,.047,1.205l.244,1.919a5.83,5.83,0,0,1,.049,1.346,2.418,2.418,0,0,1-.456,1.089,3.679,3.679,0,0,1-1.207,1.033,2.461,2.461,0,0,1-2.585.189q-.861-.5-.437-1.239a6.687,6.687,0,0,1,2.294-1.85v-1.44l-1.8.676-2.591-1.1a8.385,8.385,0,0,0-3.072,2.76l-.3-.333V152.9h.006c.009.97.748,1.925,2.233,2.866l-1.024.591-1.391-.637v1.44l1.249.722,2.439-1.408a10.652,10.652,0,0,0,4.933.984,9.8,9.8,0,0,0,4.654-1.251,7.921,7.921,0,0,0,1.651-1.225,3.987,3.987,0,0,0,.915-1.335,5.035,5.035,0,0,0,.34-1.317,7.108,7.108,0,0,0-.005-1.4l-.207-1.857c-.032-.373-.049-.644-.048-.812a3.678,3.678,0,0,1,.09-.7,1.647,1.647,0,0,1,.419-.8,3.876,3.876,0,0,1,.9-.679,3.638,3.638,0,0,1,1.383-.442,2.219,2.219,0,0,1,1.383.232,1.278,1.278,0,0,1,.431.332.4.4,0,0,1,.076.241l-2.145.446v1.44l4.345,1.934c.355-.225.673-.433.952-.627a9.219,9.219,0,0,0,.875-.7,5.2,5.2,0,0,0,.727-.785,2.782,2.782,0,0,0,.413-.847,1.938,1.938,0,0,0,.071-.43l.005-.006V145.35l-.554.115c-.007-.009-.011-.018-.019-.028a5.13,5.13,0,0,0-1.16-.991l2.281-1.317Z" fill="#f9bf30"/>
        <g id="Group_896" data-name="Group 896">
          <path id="Path_4087" data-name="Path 4087" d="M359.7,155.721l2.415-1.394q-2.477-1.569-2.215-3.191t3.344-3.513l4.392,1.863a6.687,6.687,0,0,0-2.294,1.85q-.425.742.437,1.239a2.462,2.462,0,0,0,2.585-.188,3.692,3.692,0,0,0,1.207-1.034,2.418,2.418,0,0,0,.456-1.089,5.774,5.774,0,0,0-.049-1.346L369.738,147a6.347,6.347,0,0,1-.047-1.206,3.893,3.893,0,0,1,.266-1.114,3.249,3.249,0,0,1,.813-1.163,7.827,7.827,0,0,1,1.517-1.1,9.98,9.98,0,0,1,5.024-1.359,11.61,11.61,0,0,1,5.218,1.22l2.293-1.325,1.274.736-2.281,1.317a5.13,5.13,0,0,1,1.16.991,2.483,2.483,0,0,1,.527.949,1.731,1.731,0,0,1-.03.915,2.782,2.782,0,0,1-.413.847,5.2,5.2,0,0,1-.727.785,9.217,9.217,0,0,1-.875.7c-.279.194-.6.4-.952.627l-4.345-1.934q.5-.3.814-.5c.21-.136.424-.285.643-.449a2.67,2.67,0,0,0,.473-.427,1.174,1.174,0,0,0,.206-.378.39.39,0,0,0-.067-.368,1.266,1.266,0,0,0-.431-.333,2.226,2.226,0,0,0-1.383-.232,3.638,3.638,0,0,0-1.383.442,3.9,3.9,0,0,0-.9.679,1.647,1.647,0,0,0-.419.8,3.688,3.688,0,0,0-.09.7c0,.168.016.439.048.812l.207,1.857a7.108,7.108,0,0,1,.005,1.4,5.034,5.034,0,0,1-.34,1.317,3.987,3.987,0,0,1-.915,1.335,7.886,7.886,0,0,1-1.651,1.225,9.8,9.8,0,0,1-4.654,1.251,10.652,10.652,0,0,1-4.933-.984l-2.439,1.408Z" fill="#fdd762"/>
        </g>
      </g>
      <g id="Group_900" data-name="Group 900">
        <path id="Path_4088" data-name="Path 4088" d="M403.335,141.462h-1.559c-1.748-3.435-4.967-6.673-9.661-9.383-14.959-8.637-39.212-8.637-54.171,0-4.694,2.709-7.913,5.948-9.661,9.383h-1.558v6.255h0c0,5.66,3.74,11.32,11.22,15.638,14.959,8.637,39.212,8.637,54.171,0,7.48-4.318,11.219-9.978,11.219-15.638h0Z" fill="#f9bf30"/>
        <path id="Path_4089" data-name="Path 4089" d="M356.722,126.132a50.751,50.751,0,0,0-18.778,5.947c-4.694,2.709-7.913,5.948-9.661,9.383h-1.558v6.255c0,5.66,3.74,11.32,11.22,15.638a50.764,50.764,0,0,0,18.777,5.947Z" fill="#fdd762"/>
        <path id="Path_4090" data-name="Path 4090" d="M392.22,163.292c7.408-4.31,11.115-9.942,11.115-15.575v-6.255h-1.559a22.321,22.321,0,0,0-7.689-8.146H392.22Z" fill="#e8a200"/>
        <g id="Group_898" data-name="Group 898" opacity="0.4">
          <path id="Path_4091" data-name="Path 4091" d="M401.364,140.734a18.372,18.372,0,0,0-1.662-2.4v18.8a18.272,18.272,0,0,0,1.662-2.408Z" fill="#e8a200"/>
          <path id="Path_4092" data-name="Path 4092" d="M337.944,132.079a30.215,30.215,0,0,0-5.351,3.885v23.513c.522.478,1.071.949,1.662,1.408V135.4h3.132v27.615c.187.113.366.228.558.339.361.208.732.407,1.1.606V135.4h3.132v30.065q.82.353,1.662.678V135.4h3.132v31.823q.822.254,1.661.483V135.4h3.132v33.063q.826.175,1.662.328V135.4h3.132v33.881q.828.108,1.661.2V135.4h3.132v34.33c.553.03,1.107.052,1.662.069V135.4h3.132v34.416q.831-.014,1.661-.049V135.4h3.132v34.164q.834-.075,1.662-.17V135.4h3.132v33.552q.836-.14,1.661-.3V135.4h3.132v32.54q.838-.213,1.662-.452V135.4h3.132v31.072q.842-.3,1.661-.636V135.4h3.132v29.022q.848-.425,1.662-.881V135.4h3.132v26.153c.586-.421,1.136-.852,1.661-1.292V135.4h.278a31.131,31.131,0,0,0-4.733-3.322,46.113,46.113,0,0,0-11.754-4.628H349.7A46.085,46.085,0,0,0,337.944,132.079Z" fill="#e8a200"/>
          <path id="Path_4093" data-name="Path 4093" d="M329.462,139.522a17,17,0,0,0-1.179,1.94H327.8v11.466a16.387,16.387,0,0,0,1.662,3.006Z" fill="#e8a200"/>
        </g>
        <ellipse id="Ellipse_27" data-name="Ellipse 27" cx="38.305" cy="22.115" rx="38.305" ry="22.115" transform="translate(326.725 119.346)" fill="#fdd762"/>
        <path id="Path_4094" data-name="Path 4094" d="M373.611,145.241c11.012-6.358,13.906-15.622,8.705-23.515-14.371-4.2-32.365-2.835-44.372,4.1-11.012,6.358-13.907,15.623-8.7,23.515C343.61,153.536,361.6,152.174,373.611,145.241Z" fill="#fff" opacity="0.2"/>
        <path id="Path_4095" data-name="Path 4095" d="M392.116,157.1c-14.959,8.637-39.212,8.636-54.171,0-7.229-4.173-10.954-9.6-11.2-15.068-.259,5.849,3.466,11.745,11.2,16.209,14.959,8.637,39.212,8.637,54.171,0,7.731-4.463,11.455-10.359,11.2-16.207C403.069,147.5,399.344,152.927,392.116,157.1Z" fill="#fff" opacity="0.7"/>
        <ellipse id="Ellipse_28" data-name="Ellipse 28" cx="27.19" cy="15.698" rx="27.19" ry="15.698" transform="translate(337.84 125.764)" fill="#e8a200"/>
        <path id="Path_4096" data-name="Path 4096" d="M345.8,131.795c10.619-6.131,27.834-6.131,38.453,0,4.994,2.883,7.638,6.609,7.934,10.384.335-4.253-2.309-8.57-7.934-11.817-10.619-6.131-27.834-6.131-38.453,0-5.624,3.248-8.268,7.564-7.934,11.817C338.167,138.4,340.81,134.677,345.8,131.795Z" fill="#f9bf30"/>
        <path id="Path_4097" data-name="Path 4097" d="M378.4,134.049l-2.108.6.6.238-2.058,1.189a11.609,11.609,0,0,0-5.217-1.22,9.981,9.981,0,0,0-5.025,1.359,7.777,7.777,0,0,0-1.516,1.1,3.228,3.228,0,0,0-.814,1.162,3.927,3.927,0,0,0-.266,1.114,6.347,6.347,0,0,0,.047,1.206l.244,1.918a5.774,5.774,0,0,1,.049,1.346,2.407,2.407,0,0,1-.456,1.089,3.67,3.67,0,0,1-1.207,1.034,2.461,2.461,0,0,1-2.584.188q-.861-.5-.438-1.239a6.687,6.687,0,0,1,2.294-1.85v-1.44l-1.8.676-2.591-1.1a8.375,8.375,0,0,0-3.072,2.759l-.3-.333v1.412h.006c.009.97.749,1.925,2.233,2.866l-1.024.591-1.391-.637v1.44l1.249.722,2.439-1.408a10.656,10.656,0,0,0,4.934.984,9.793,9.793,0,0,0,4.653-1.251,7.86,7.86,0,0,0,1.651-1.225,3.972,3.972,0,0,0,.915-1.335,5.035,5.035,0,0,0,.34-1.317,7.108,7.108,0,0,0-.005-1.4l-.207-1.857c-.032-.373-.049-.644-.048-.812a3.7,3.7,0,0,1,.091-.7,1.637,1.637,0,0,1,.418-.8,3.9,3.9,0,0,1,.9-.679,3.643,3.643,0,0,1,1.384-.442,2.229,2.229,0,0,1,1.383.232,1.271,1.271,0,0,1,.43.333.391.391,0,0,1,.076.24l-2.144.446v1.44l4.344,1.934c.356-.225.673-.433.952-.627a9.219,9.219,0,0,0,.875-.7,5.2,5.2,0,0,0,.727-.785,2.76,2.76,0,0,0,.413-.847,1.83,1.83,0,0,0,.071-.43l.005-.006V137.71l-.553.115c-.008-.009-.012-.018-.02-.028a5.13,5.13,0,0,0-1.16-.991l2.281-1.317Z" fill="#f9bf30"/>
        <g id="Group_899" data-name="Group 899">
          <path id="Path_4098" data-name="Path 4098" d="M352.01,148.081l2.415-1.394q-2.477-1.569-2.215-3.191t3.344-3.513l4.392,1.863a6.687,6.687,0,0,0-2.294,1.85q-.425.742.438,1.239a2.458,2.458,0,0,0,2.584-.188,3.68,3.68,0,0,0,1.207-1.033,2.415,2.415,0,0,0,.456-1.09,5.764,5.764,0,0,0-.049-1.345l-.244-1.919a6.347,6.347,0,0,1-.047-1.206,3.927,3.927,0,0,1,.266-1.114,3.228,3.228,0,0,1,.814-1.162,7.777,7.777,0,0,1,1.516-1.1,9.981,9.981,0,0,1,5.025-1.359,11.609,11.609,0,0,1,5.217,1.22l2.293-1.324,1.274.735-2.281,1.317a5.13,5.13,0,0,1,1.16.991,2.5,2.5,0,0,1,.528.949,1.742,1.742,0,0,1-.031.915,2.765,2.765,0,0,1-.413.848,5.249,5.249,0,0,1-.727.784,9.217,9.217,0,0,1-.875.7c-.279.194-.6.4-.952.627l-4.344-1.934q.5-.3.813-.5t.643-.449a2.67,2.67,0,0,0,.473-.427,1.174,1.174,0,0,0,.206-.378.391.391,0,0,0-.067-.368,1.271,1.271,0,0,0-.43-.333,2.236,2.236,0,0,0-1.383-.232,3.66,3.66,0,0,0-1.384.442,3.932,3.932,0,0,0-.9.679,1.637,1.637,0,0,0-.418.8,3.705,3.705,0,0,0-.091.7c0,.168.016.439.048.812l.207,1.858a7.1,7.1,0,0,1,.005,1.4,5.024,5.024,0,0,1-.34,1.317,3.962,3.962,0,0,1-.915,1.335,7.861,7.861,0,0,1-1.651,1.225,9.793,9.793,0,0,1-4.653,1.251,10.656,10.656,0,0,1-4.934-.984l-2.439,1.408Z" fill="#fdd762"/>
        </g>
      </g>
    </g>
    <g id="Group_914" data-name="Group 914">
      <g id="Group_904" data-name="Group 904">
        <path id="Path_4099" data-name="Path 4099" d="M466.389,220.767H464.83c-1.748-3.435-4.967-6.673-9.661-9.383-14.959-8.636-39.213-8.636-54.171,0-4.694,2.71-7.913,5.948-9.661,9.383h-1.558v6.255h0c0,5.66,3.74,11.32,11.219,15.638,14.96,8.637,39.213,8.637,54.172,0,7.48-4.319,11.219-9.979,11.219-15.639h0Z" fill="#f9bf30"/>
        <path id="Path_4100" data-name="Path 4100" d="M419.776,205.437A50.751,50.751,0,0,0,401,211.384c-4.694,2.71-7.913,5.948-9.661,9.383h-1.558v6.255c0,5.66,3.74,11.32,11.219,15.638a50.757,50.757,0,0,0,18.778,5.947Z" fill="#fdd762"/>
        <path id="Path_4101" data-name="Path 4101" d="M455.274,242.6c7.408-4.311,11.115-9.943,11.115-15.576v-6.255H464.83a22.324,22.324,0,0,0-7.69-8.146h-1.866Z" fill="#e8a200"/>
        <g id="Group_902" data-name="Group 902" opacity="0.4">
          <path id="Path_4102" data-name="Path 4102" d="M464.418,220.039a18.371,18.371,0,0,0-1.662-2.4v18.8a18.3,18.3,0,0,0,1.662-2.408Z" fill="#e8a200"/>
          <path id="Path_4103" data-name="Path 4103" d="M401,211.384a30.218,30.218,0,0,0-5.351,3.886v23.512c.522.478,1.071.949,1.662,1.408V214.706h3.132v27.615c.187.113.366.228.557.339.362.208.733.407,1.1.606v-28.56h3.132v30.065q.819.353,1.662.678V214.706h3.132v31.823q.822.253,1.661.483V214.706h3.132v33.063q.826.176,1.662.328V214.706h3.132v33.881q.828.108,1.661.195V214.706h3.132v34.33c.553.031,1.107.052,1.662.069v-34.4H429.2v34.416q.831-.013,1.661-.049V214.706h3.132V248.87c.556-.05,1.11-.1,1.662-.17V214.706h3.132v33.552q.836-.14,1.661-.3V214.706h3.132v32.541q.838-.214,1.662-.453V214.706h3.132v31.072q.842-.3,1.661-.636V214.706h3.132v29.022q.848-.424,1.662-.881V214.706h3.131v26.153c.587-.421,1.137-.852,1.662-1.291V214.706h.277a31.07,31.07,0,0,0-4.732-3.322,46.128,46.128,0,0,0-11.754-4.628H412.75A46.091,46.091,0,0,0,401,211.384Z" fill="#e8a200"/>
          <path id="Path_4104" data-name="Path 4104" d="M392.515,218.828a17.039,17.039,0,0,0-1.178,1.939h-.483v11.466a16.4,16.4,0,0,0,1.661,3.006Z" fill="#e8a200"/>
        </g>
        <ellipse id="Ellipse_29" data-name="Ellipse 29" cx="38.305" cy="22.115" rx="38.305" ry="22.115" transform="translate(389.779 198.651)" fill="#fdd762"/>
        <path id="Path_4105" data-name="Path 4105" d="M436.665,224.546c11.012-6.358,13.906-15.622,8.7-23.515-14.372-4.2-32.365-2.835-44.372,4.1-11.013,6.358-13.907,15.622-8.7,23.514C406.664,232.841,424.657,231.479,436.665,224.546Z" fill="#fff" opacity="0.2"/>
        <path id="Path_4106" data-name="Path 4106" d="M455.17,236.4c-14.959,8.637-39.212,8.636-54.172,0-7.228-4.173-10.953-9.6-11.2-15.068-.259,5.849,3.465,11.745,11.2,16.209,14.96,8.637,39.213,8.637,54.172,0,7.73-4.463,11.455-10.359,11.195-16.207C466.122,226.806,462.4,232.232,455.17,236.4Z" fill="#fff" opacity="0.7"/>
        <ellipse id="Ellipse_30" data-name="Ellipse 30" cx="27.19" cy="15.698" rx="27.19" ry="15.698" transform="translate(400.894 205.069)" fill="#e8a200"/>
        <path id="Path_4107" data-name="Path 4107" d="M408.857,211.1c10.618-6.131,27.834-6.13,38.453,0,4.994,2.883,7.637,6.609,7.934,10.384.335-4.253-2.309-8.57-7.934-11.817-10.619-6.131-27.835-6.131-38.453,0-5.625,3.248-8.268,7.564-7.934,11.817C401.22,217.708,403.864,213.983,408.857,211.1Z" fill="#f9bf30"/>
        <path id="Path_4108" data-name="Path 4108" d="M441.456,213.354l-2.108.6.6.238-2.058,1.189a11.61,11.61,0,0,0-5.218-1.22,9.98,9.98,0,0,0-5.024,1.359,7.786,7.786,0,0,0-1.516,1.1,3.229,3.229,0,0,0-.814,1.162,3.937,3.937,0,0,0-.266,1.114,6.349,6.349,0,0,0,.047,1.206l.244,1.919a5.766,5.766,0,0,1,.049,1.345,2.426,2.426,0,0,1-.456,1.09,3.69,3.69,0,0,1-1.207,1.033,2.458,2.458,0,0,1-2.584.188q-.863-.5-.438-1.239a6.7,6.7,0,0,1,2.294-1.85v-1.44l-1.8.676-2.591-1.1a8.392,8.392,0,0,0-3.072,2.759l-.3-.333v1.412h.006c.009.969.748,1.924,2.233,2.865l-1.024.591-1.391-.637v1.44l1.249.722,2.439-1.408a10.641,10.641,0,0,0,4.934.984,9.8,9.8,0,0,0,4.653-1.251,7.86,7.86,0,0,0,1.651-1.225,3.962,3.962,0,0,0,.915-1.335,5.023,5.023,0,0,0,.34-1.317,7.105,7.105,0,0,0-.005-1.4l-.207-1.857c-.032-.373-.049-.644-.048-.812a3.629,3.629,0,0,1,.091-.7,1.637,1.637,0,0,1,.418-.8,3.933,3.933,0,0,1,.9-.679,3.637,3.637,0,0,1,1.384-.441,2.224,2.224,0,0,1,1.382.231,1.279,1.279,0,0,1,.431.333.4.4,0,0,1,.076.24l-2.144.447v1.439l4.344,1.934c.355-.225.673-.433.952-.627a9.215,9.215,0,0,0,.875-.7,5.251,5.251,0,0,0,.727-.784,2.788,2.788,0,0,0,.413-.848,1.831,1.831,0,0,0,.071-.43l0-.006v-1.514l-.553.115c-.008-.01-.012-.019-.02-.029a5.129,5.129,0,0,0-1.16-.991l2.281-1.317Z" fill="#f9bf30"/>
        <g id="Group_903" data-name="Group 903">
          <path id="Path_4109" data-name="Path 4109" d="M415.064,227.386l2.415-1.394q-2.477-1.569-2.215-3.191t3.344-3.513L423,221.151a6.7,6.7,0,0,0-2.294,1.85q-.424.742.438,1.24a2.461,2.461,0,0,0,2.584-.189,3.69,3.69,0,0,0,1.207-1.033,2.421,2.421,0,0,0,.456-1.09,5.766,5.766,0,0,0-.049-1.345l-.244-1.919a6.349,6.349,0,0,1-.047-1.206,3.937,3.937,0,0,1,.266-1.114,3.229,3.229,0,0,1,.814-1.162,7.787,7.787,0,0,1,1.516-1.1,9.99,9.99,0,0,1,5.024-1.359,11.61,11.61,0,0,1,5.218,1.22l2.293-1.324,1.274.735-2.281,1.317a5.129,5.129,0,0,1,1.16.991,2.5,2.5,0,0,1,.527.949,1.731,1.731,0,0,1-.03.915,2.788,2.788,0,0,1-.413.848,5.2,5.2,0,0,1-.727.784,9.215,9.215,0,0,1-.875.7c-.279.194-.6.4-.952.627l-4.344-1.933q.5-.3.813-.5c.21-.135.424-.285.643-.448a2.708,2.708,0,0,0,.473-.428,1.154,1.154,0,0,0,.206-.378.391.391,0,0,0-.067-.368,1.279,1.279,0,0,0-.431-.333,2.224,2.224,0,0,0-1.382-.231,3.637,3.637,0,0,0-1.384.441,3.906,3.906,0,0,0-.9.68,1.63,1.63,0,0,0-.418.8,3.629,3.629,0,0,0-.091.7c0,.168.016.439.048.813l.207,1.857a7.1,7.1,0,0,1,.005,1.4,5.023,5.023,0,0,1-.34,1.317,3.962,3.962,0,0,1-.915,1.335,7.9,7.9,0,0,1-1.651,1.226,9.807,9.807,0,0,1-4.653,1.25,10.641,10.641,0,0,1-4.934-.984l-2.439,1.408Z" fill="#fdd762"/>
        </g>
      </g>
      <g id="Group_907" data-name="Group 907">
        <path id="Path_4110" data-name="Path 4110" d="M466.389,214.507H464.83c-1.748-3.435-4.967-6.673-9.661-9.383-14.959-8.637-39.213-8.637-54.171,0-4.694,2.709-7.913,5.948-9.661,9.383h-1.558v6.255h0c0,5.66,3.74,11.319,11.219,15.638,14.96,8.636,39.213,8.637,54.172,0,7.48-4.318,11.219-9.978,11.219-15.638h0Z" fill="#f9bf30"/>
        <path id="Path_4111" data-name="Path 4111" d="M419.776,199.176A50.752,50.752,0,0,0,401,205.124c-4.694,2.709-7.913,5.948-9.661,9.383h-1.558v6.255c0,5.66,3.74,11.319,11.219,15.638a50.775,50.775,0,0,0,18.778,5.947Z" fill="#fdd762"/>
        <path id="Path_4112" data-name="Path 4112" d="M455.274,236.337c7.408-4.311,11.115-9.942,11.115-15.575v-6.255H464.83a22.334,22.334,0,0,0-7.69-8.147h-1.866Z" fill="#e8a200"/>
        <g id="Group_905" data-name="Group 905" opacity="0.4">
          <path id="Path_4113" data-name="Path 4113" d="M464.418,213.779a18.371,18.371,0,0,0-1.662-2.405v18.8a18.369,18.369,0,0,0,1.662-2.408Z" fill="#e8a200"/>
          <path id="Path_4114" data-name="Path 4114" d="M401,205.124a30.166,30.166,0,0,0-5.351,3.885v23.513c.522.478,1.071.949,1.662,1.408V208.445h3.132v27.616c.187.112.366.228.557.339.362.208.733.407,1.1.605v-28.56h3.132v30.066q.819.353,1.662.677V208.445h3.132v31.824q.822.254,1.661.483V208.445h3.132v33.064q.826.174,1.662.328V208.445h3.132v33.882q.828.108,1.661.2V208.445h3.132v34.331c.553.03,1.107.052,1.662.069v-34.4H429.2v34.417q.831-.014,1.661-.049V208.445h3.132V242.61q.834-.075,1.662-.17V208.445h3.132V242q.836-.14,1.661-.3v-33.25h3.132v32.541q.838-.213,1.662-.452V208.445h3.132v31.073q.842-.3,1.661-.636V208.445h3.132v29.023q.848-.425,1.662-.881V208.445h3.131V234.6c.587-.421,1.137-.853,1.662-1.292V208.445h.277a31.138,31.138,0,0,0-4.732-3.321,46.092,46.092,0,0,0-11.754-4.628H412.75A46.091,46.091,0,0,0,401,205.124Z" fill="#e8a200"/>
          <path id="Path_4115" data-name="Path 4115" d="M392.515,212.567a17.138,17.138,0,0,0-1.178,1.94h-.483v11.465a16.412,16.412,0,0,0,1.661,3.007Z" fill="#e8a200"/>
        </g>
        <ellipse id="Ellipse_31" data-name="Ellipse 31" cx="38.305" cy="22.115" rx="38.305" ry="22.115" transform="translate(389.779 192.391)" fill="#fdd762"/>
        <path id="Path_4116" data-name="Path 4116" d="M436.665,218.286c11.012-6.358,13.906-15.623,8.7-23.515-14.372-4.2-32.365-2.835-44.372,4.1-11.013,6.358-13.907,15.623-8.7,23.515C406.664,226.58,424.657,225.219,436.665,218.286Z" fill="#fff" opacity="0.2"/>
        <path id="Path_4117" data-name="Path 4117" d="M455.17,230.145c-14.959,8.637-39.212,8.636-54.172,0-7.228-4.173-10.953-9.6-11.2-15.068-.259,5.849,3.465,11.745,11.2,16.209,14.96,8.636,39.213,8.636,54.172,0,7.73-4.463,11.455-10.359,11.195-16.207C466.122,220.546,462.4,225.972,455.17,230.145Z" fill="#fff" opacity="0.7"/>
        <ellipse id="Ellipse_32" data-name="Ellipse 32" cx="27.19" cy="15.698" rx="27.19" ry="15.698" transform="translate(400.894 198.808)" fill="#e8a200"/>
        <path id="Path_4118" data-name="Path 4118" d="M408.857,204.84c10.618-6.131,27.834-6.131,38.453,0,4.994,2.883,7.637,6.608,7.934,10.384.335-4.253-2.309-8.57-7.934-11.817-10.619-6.131-27.835-6.131-38.453,0-5.625,3.248-8.268,7.564-7.934,11.817C401.22,211.447,403.864,207.722,408.857,204.84Z" fill="#f9bf30"/>
        <path id="Path_4119" data-name="Path 4119" d="M441.456,207.094l-2.108.6.6.238-2.058,1.188a11.622,11.622,0,0,0-5.218-1.219,9.98,9.98,0,0,0-5.024,1.359,7.786,7.786,0,0,0-1.516,1.1,3.24,3.24,0,0,0-.814,1.163,3.929,3.929,0,0,0-.266,1.114,6.337,6.337,0,0,0,.047,1.2l.244,1.919a5.774,5.774,0,0,1,.049,1.346,2.418,2.418,0,0,1-.456,1.089,3.679,3.679,0,0,1-1.207,1.033,2.459,2.459,0,0,1-2.584.189q-.863-.5-.438-1.239A6.7,6.7,0,0,1,423,216.33v-1.439l-1.8.676-2.591-1.1a8.384,8.384,0,0,0-3.072,2.76l-.3-.333v1.412h.006c.009.97.748,1.925,2.233,2.866l-1.024.591-1.391-.637v1.44l1.249.722,2.439-1.408a10.654,10.654,0,0,0,4.934.984,9.8,9.8,0,0,0,4.653-1.251,7.861,7.861,0,0,0,1.651-1.226,3.959,3.959,0,0,0,.915-1.334,5.03,5.03,0,0,0,.34-1.318,7.1,7.1,0,0,0-.005-1.4l-.207-1.857c-.032-.373-.049-.644-.048-.812a3.629,3.629,0,0,1,.091-.7,1.637,1.637,0,0,1,.418-.8,3.876,3.876,0,0,1,.9-.679,3.637,3.637,0,0,1,1.384-.442,2.217,2.217,0,0,1,1.382.232,1.266,1.266,0,0,1,.431.333.4.4,0,0,1,.076.24l-2.144.446v1.44l4.344,1.933c.355-.224.673-.432.952-.627a9.039,9.039,0,0,0,.875-.7,5.205,5.205,0,0,0,.727-.785,2.782,2.782,0,0,0,.413-.847,1.831,1.831,0,0,0,.071-.43l0-.006v-1.515l-.553.115c-.008-.009-.012-.018-.02-.028a5.13,5.13,0,0,0-1.16-.991l2.281-1.317Z" fill="#f9bf30"/>
        <g id="Group_906" data-name="Group 906">
          <path id="Path_4120" data-name="Path 4120" d="M415.064,221.126l2.415-1.394q-2.477-1.569-2.215-3.191t3.344-3.514L423,214.891a6.687,6.687,0,0,0-2.294,1.85q-.424.742.438,1.239a2.461,2.461,0,0,0,2.584-.188,3.68,3.68,0,0,0,1.207-1.034,2.418,2.418,0,0,0,.456-1.089,5.774,5.774,0,0,0-.049-1.346L425.1,212.4a6.337,6.337,0,0,1-.047-1.205,3.929,3.929,0,0,1,.266-1.114,3.24,3.24,0,0,1,.814-1.163,7.786,7.786,0,0,1,1.516-1.1,9.98,9.98,0,0,1,5.024-1.359,11.622,11.622,0,0,1,5.218,1.219l2.293-1.324,1.274.736-2.281,1.317a5.13,5.13,0,0,1,1.16.991,2.482,2.482,0,0,1,.527.949,1.731,1.731,0,0,1-.03.915,2.8,2.8,0,0,1-.413.848,5.25,5.25,0,0,1-.727.784,9.213,9.213,0,0,1-.875.7c-.279.194-.6.4-.952.627l-4.344-1.934q.5-.3.813-.505t.643-.448a2.67,2.67,0,0,0,.473-.427,1.175,1.175,0,0,0,.206-.378.39.39,0,0,0-.067-.368,1.266,1.266,0,0,0-.431-.333,2.224,2.224,0,0,0-1.382-.232,3.637,3.637,0,0,0-1.384.442,3.9,3.9,0,0,0-.9.679,1.637,1.637,0,0,0-.418.8,3.629,3.629,0,0,0-.091.7c0,.168.016.439.048.812l.207,1.857a7.106,7.106,0,0,1,.005,1.4,5.033,5.033,0,0,1-.34,1.317,3.972,3.972,0,0,1-.915,1.335,7.9,7.9,0,0,1-1.651,1.225,9.8,9.8,0,0,1-4.653,1.251,10.653,10.653,0,0,1-4.934-.984l-2.439,1.408Z" fill="#fdd762"/>
        </g>
      </g>
      <g id="Group_910" data-name="Group 910">
        <path id="Path_4121" data-name="Path 4121" d="M461.026,211.563h-1.559c-1.748-3.434-4.967-6.672-9.661-9.382-14.959-8.637-39.213-8.637-54.171,0-4.694,2.71-7.913,5.948-9.661,9.383h-1.558v6.256h0c0,5.659,3.74,11.319,11.219,15.637,14.96,8.637,39.213,8.637,54.172,0,7.48-4.318,11.219-9.979,11.219-15.638h0Z" fill="#f9bf30"/>
        <path id="Path_4122" data-name="Path 4122" d="M414.413,196.233a50.769,50.769,0,0,0-18.778,5.947c-4.694,2.71-7.913,5.948-9.661,9.383h-1.558v6.256c0,5.659,3.74,11.319,11.219,15.637a50.776,50.776,0,0,0,18.778,5.948Z" fill="#fdd762"/>
        <path id="Path_4123" data-name="Path 4123" d="M449.911,233.394c7.408-4.311,11.115-9.943,11.115-15.575v-6.256h-1.559a22.332,22.332,0,0,0-7.69-8.146h-1.866Z" fill="#e8a200"/>
        <g id="Group_908" data-name="Group 908" opacity="0.4">
          <path id="Path_4124" data-name="Path 4124" d="M459.054,210.835a18.254,18.254,0,0,0-1.661-2.4v18.8a18.2,18.2,0,0,0,1.661-2.408Z" fill="#e8a200"/>
          <path id="Path_4125" data-name="Path 4125" d="M395.635,202.18a30.182,30.182,0,0,0-5.351,3.886v23.512c.522.478,1.071.949,1.662,1.408V205.5h3.132v27.615c.187.113.365.229.557.339.361.209.733.408,1.1.606V205.5h3.132v30.066q.819.353,1.662.677V205.5h3.132v31.823c.548.17,1.1.33,1.661.484V205.5h3.132v33.063q.825.176,1.662.328V205.5h3.132v33.881q.828.108,1.661.2V205.5h3.132v34.33c.553.031,1.107.052,1.662.069V205.5h3.132v34.417q.831-.014,1.661-.049V205.5h3.132v34.164c.556-.05,1.11-.1,1.662-.169V205.5h3.132v33.553q.836-.139,1.661-.3V205.5h3.132v32.541q.839-.213,1.662-.452V205.5h3.131v31.072q.843-.3,1.662-.636V205.5h3.132v29.023c.565-.284,1.119-.576,1.661-.882V205.5H452.6v26.154c.587-.421,1.137-.853,1.662-1.292V205.5h.277a31.137,31.137,0,0,0-4.732-3.321,46.106,46.106,0,0,0-11.754-4.628H407.387A46.112,46.112,0,0,0,395.635,202.18Z" fill="#e8a200"/>
          <path id="Path_4126" data-name="Path 4126" d="M387.152,209.624a17.218,17.218,0,0,0-1.178,1.939h-.483v11.466a16.445,16.445,0,0,0,1.661,3.007Z" fill="#e8a200"/>
        </g>
        <ellipse id="Ellipse_33" data-name="Ellipse 33" cx="38.305" cy="22.115" rx="38.305" ry="22.115" transform="translate(384.416 189.448)" fill="#fdd762"/>
        <path id="Path_4127" data-name="Path 4127" d="M431.3,215.342c11.012-6.357,13.906-15.622,8.7-23.514-14.371-4.2-32.364-2.836-44.371,4.1-11.013,6.358-13.907,15.622-8.705,23.515C401.3,223.637,419.294,222.275,431.3,215.342Z" fill="#fff" opacity="0.2"/>
        <path id="Path_4128" data-name="Path 4128" d="M449.807,227.2c-14.959,8.636-39.212,8.636-54.172,0-7.228-4.174-10.953-9.6-11.2-15.068-.259,5.848,3.465,11.745,11.2,16.208,14.96,8.637,39.213,8.637,54.172,0,7.73-4.463,11.455-10.359,11.2-16.208C460.759,217.6,457.035,223.028,449.807,227.2Z" fill="#fff" opacity="0.7"/>
        <path id="Path_4129" data-name="Path 4129" d="M441.947,222.664c-10.618,6.13-27.834,6.13-38.452,0s-10.619-16.07,0-22.2,27.834-6.131,38.453,0S452.566,216.533,441.947,222.664Z" fill="#e8a200"/>
        <path id="Path_4130" data-name="Path 4130" d="M403.494,201.9c10.618-6.13,27.834-6.13,38.453,0,4.993,2.883,7.637,6.608,7.934,10.384.335-4.253-2.309-8.57-7.934-11.818-10.619-6.13-27.835-6.131-38.453,0-5.625,3.247-8.268,7.563-7.934,11.816C395.857,208.5,398.5,204.779,403.494,201.9Z" fill="#f9bf30"/>
        <path id="Path_4131" data-name="Path 4131" d="M436.093,204.15l-2.108.6.6.238-2.058,1.188a11.608,11.608,0,0,0-5.218-1.219,9.98,9.98,0,0,0-5.024,1.359,7.785,7.785,0,0,0-1.517,1.1,3.254,3.254,0,0,0-.813,1.162,3.91,3.91,0,0,0-.266,1.114,6.347,6.347,0,0,0,.047,1.206l.244,1.919a5.823,5.823,0,0,1,.049,1.345,2.421,2.421,0,0,1-.456,1.09,3.678,3.678,0,0,1-1.207,1.033,2.46,2.46,0,0,1-2.585.189q-.861-.5-.437-1.24a6.711,6.711,0,0,1,2.294-1.85v-1.44l-1.8.676-2.591-1.1a8.392,8.392,0,0,0-3.072,2.759l-.3-.332v1.412h.006c.009.969.748,1.925,2.233,2.865l-1.024.592-1.391-.637v1.44l1.249.721,2.439-1.408a10.639,10.639,0,0,0,4.933.984,9.785,9.785,0,0,0,4.654-1.25,7.889,7.889,0,0,0,1.651-1.226,3.977,3.977,0,0,0,.915-1.335,5.012,5.012,0,0,0,.34-1.317,7.1,7.1,0,0,0,0-1.4l-.207-1.857c-.032-.374-.049-.645-.048-.813a3.688,3.688,0,0,1,.09-.7,1.648,1.648,0,0,1,.419-.8,3.9,3.9,0,0,1,.9-.68,3.655,3.655,0,0,1,1.383-.441,2.226,2.226,0,0,1,1.383.231,1.292,1.292,0,0,1,.431.333.4.4,0,0,1,.076.241l-2.145.446v1.44l4.345,1.933q.532-.336.952-.627a9.066,9.066,0,0,0,.875-.7,5.157,5.157,0,0,0,.727-.784,2.788,2.788,0,0,0,.413-.848,1.921,1.921,0,0,0,.071-.43l.005-.005v-1.515l-.554.115a.27.27,0,0,0-.019-.028,5.129,5.129,0,0,0-1.16-.991l2.281-1.318Z" fill="#f9bf30"/>
        <g id="Group_909" data-name="Group 909">
          <path id="Path_4132" data-name="Path 4132" d="M409.7,218.183l2.415-1.4q-2.477-1.569-2.215-3.19t3.344-3.514l4.392,1.863a6.7,6.7,0,0,0-2.294,1.851q-.424.741.438,1.239a2.459,2.459,0,0,0,2.584-.189,3.679,3.679,0,0,0,1.207-1.033,2.421,2.421,0,0,0,.456-1.09,5.769,5.769,0,0,0-.049-1.345l-.244-1.919a6.339,6.339,0,0,1-.047-1.205,3.908,3.908,0,0,1,.266-1.115,3.254,3.254,0,0,1,.813-1.162,7.827,7.827,0,0,1,1.517-1.1,9.98,9.98,0,0,1,5.024-1.359,11.622,11.622,0,0,1,5.218,1.219l2.293-1.324,1.274.735-2.281,1.318a5.129,5.129,0,0,1,1.16.991,2.482,2.482,0,0,1,.527.949,1.731,1.731,0,0,1-.03.915,2.782,2.782,0,0,1-.413.847,5.156,5.156,0,0,1-.727.784,8.914,8.914,0,0,1-.875.7q-.419.291-.952.627l-4.345-1.933q.5-.3.814-.505c.21-.135.424-.285.643-.448a2.631,2.631,0,0,0,.473-.428,1.154,1.154,0,0,0,.206-.378.391.391,0,0,0-.067-.368,1.292,1.292,0,0,0-.431-.333,2.226,2.226,0,0,0-1.383-.231,3.655,3.655,0,0,0-1.383.441,3.9,3.9,0,0,0-.9.68,1.648,1.648,0,0,0-.419.8,3.7,3.7,0,0,0-.09.705c0,.168.016.439.048.812l.207,1.857a7.1,7.1,0,0,1,0,1.4,5.029,5.029,0,0,1-.34,1.318,3.983,3.983,0,0,1-.915,1.334,7.888,7.888,0,0,1-1.651,1.226,9.8,9.8,0,0,1-4.654,1.251,10.653,10.653,0,0,1-4.933-.985L410.95,218.9Z" fill="#fdd762"/>
        </g>
      </g>
      <g id="Group_913" data-name="Group 913">
        <path id="Path_4133" data-name="Path 4133" d="M466.389,201.986H464.83c-1.748-3.435-4.967-6.673-9.661-9.382-14.959-8.637-39.213-8.637-54.171,0-4.694,2.71-7.913,5.948-9.661,9.383h-1.558v6.255h0c0,5.66,3.74,11.32,11.219,15.638,14.96,8.637,39.213,8.637,54.172,0,7.48-4.319,11.219-9.979,11.219-15.639h0Z" fill="#f9bf30"/>
        <path id="Path_4134" data-name="Path 4134" d="M419.776,186.656A50.751,50.751,0,0,0,401,192.6c-4.694,2.71-7.913,5.948-9.661,9.383h-1.558v6.255c0,5.66,3.74,11.32,11.219,15.638a50.757,50.757,0,0,0,18.778,5.947Z" fill="#fdd762"/>
        <path id="Path_4135" data-name="Path 4135" d="M455.274,223.817c7.408-4.311,11.115-9.943,11.115-15.576v-6.255H464.83a22.324,22.324,0,0,0-7.69-8.146h-1.866Z" fill="#e8a200"/>
        <g id="Group_911" data-name="Group 911" opacity="0.4">
          <path id="Path_4136" data-name="Path 4136" d="M464.418,201.258a18.439,18.439,0,0,0-1.662-2.4v18.8a18.3,18.3,0,0,0,1.662-2.408Z" fill="#e8a200"/>
          <path id="Path_4137" data-name="Path 4137" d="M401,192.6a30.168,30.168,0,0,0-5.351,3.886V220c.522.478,1.071.949,1.662,1.408V195.925h3.132V223.54c.187.113.366.228.557.339.362.208.733.407,1.1.606v-28.56h3.132V225.99q.819.353,1.662.678V195.925h3.132v31.823q.822.254,1.661.483V195.925h3.132v33.063q.826.175,1.662.328V195.925h3.132v33.881q.828.108,1.661.2V195.925h3.132v34.33c.553.031,1.107.052,1.662.069v-34.4H429.2v34.416c.554-.009,1.108-.026,1.661-.048V195.925h3.132v34.164c.556-.05,1.11-.105,1.662-.17V195.925h3.132v33.552q.836-.14,1.661-.3V195.925h3.132v32.541q.838-.215,1.662-.453V195.925h3.132V227q.842-.3,1.661-.636V195.925h3.132v29.022q.848-.425,1.662-.881V195.925h3.131v26.153c.587-.42,1.137-.852,1.662-1.291V195.925h.277a31,31,0,0,0-4.732-3.321,46.093,46.093,0,0,0-11.754-4.629H412.75A46.091,46.091,0,0,0,401,192.6Z" fill="#e8a200"/>
          <path id="Path_4138" data-name="Path 4138" d="M392.515,200.046a17.139,17.139,0,0,0-1.178,1.94h-.483v11.466a16.437,16.437,0,0,0,1.661,3.006Z" fill="#e8a200"/>
        </g>
        <ellipse id="Ellipse_34" data-name="Ellipse 34" cx="38.305" cy="22.115" rx="38.305" ry="22.115" transform="translate(389.779 179.87)" fill="#fdd762"/>
        <path id="Path_4139" data-name="Path 4139" d="M436.665,205.765c11.012-6.358,13.906-15.622,8.7-23.515-14.372-4.2-32.365-2.835-44.372,4.1-11.013,6.358-13.907,15.622-8.7,23.514C406.664,214.06,424.657,212.7,436.665,205.765Z" fill="#fff" opacity="0.2"/>
        <path id="Path_4140" data-name="Path 4140" d="M455.17,217.624c-14.959,8.637-39.212,8.636-54.172,0-7.228-4.174-10.953-9.6-11.2-15.069-.259,5.849,3.465,11.745,11.2,16.209,14.96,8.637,39.213,8.637,54.172,0,7.73-4.463,11.455-10.359,11.195-16.207C466.122,208.025,462.4,213.451,455.17,217.624Z" fill="#fff" opacity="0.7"/>
        <ellipse id="Ellipse_35" data-name="Ellipse 35" cx="27.19" cy="15.698" rx="27.19" ry="15.698" transform="translate(400.894 186.288)" fill="#01c8ef"/>
        <path id="Path_4141" data-name="Path 4141" d="M408.857,192.319c10.618-6.131,27.834-6.13,38.453,0,4.994,2.883,7.637,6.609,7.934,10.384.335-4.253-2.309-8.57-7.934-11.817-10.619-6.131-27.835-6.131-38.453,0-5.625,3.248-8.268,7.564-7.934,11.817C401.22,198.927,403.864,195.2,408.857,192.319Z" fill="#f9bf30"/>
        <path id="Path_4142" data-name="Path 4142" d="M441.456,194.573l-2.108.6.6.238-2.058,1.189a11.61,11.61,0,0,0-5.218-1.22,9.98,9.98,0,0,0-5.024,1.359,7.745,7.745,0,0,0-1.516,1.1,3.229,3.229,0,0,0-.814,1.162,3.929,3.929,0,0,0-.266,1.114,6.35,6.35,0,0,0,.047,1.206l.244,1.918a5.775,5.775,0,0,1,.049,1.346,2.426,2.426,0,0,1-.456,1.09,3.69,3.69,0,0,1-1.207,1.033,2.458,2.458,0,0,1-2.584.188q-.863-.5-.438-1.239A6.687,6.687,0,0,1,423,203.81v-1.44l-1.8.676-2.591-1.1a8.392,8.392,0,0,0-3.072,2.759l-.3-.333v1.412h.006c.009.969.748,1.924,2.233,2.865l-1.024.591-1.391-.637v1.44l1.249.722,2.439-1.408a10.654,10.654,0,0,0,4.934.984,9.8,9.8,0,0,0,4.653-1.251,7.86,7.86,0,0,0,1.651-1.225,3.972,3.972,0,0,0,.915-1.335,5.023,5.023,0,0,0,.34-1.317,7.1,7.1,0,0,0-.005-1.4l-.207-1.857c-.032-.374-.049-.645-.048-.813a3.629,3.629,0,0,1,.091-.7,1.637,1.637,0,0,1,.418-.8,3.933,3.933,0,0,1,.9-.679,3.654,3.654,0,0,1,1.384-.442,2.231,2.231,0,0,1,1.382.232,1.266,1.266,0,0,1,.431.333.4.4,0,0,1,.076.24l-2.144.446v1.44l4.344,1.934c.355-.225.673-.433.952-.627a9.215,9.215,0,0,0,.875-.7,5.251,5.251,0,0,0,.727-.784,2.788,2.788,0,0,0,.413-.848,1.831,1.831,0,0,0,.071-.43l0-.005v-1.516l-.553.116c-.008-.01-.012-.019-.02-.029a5.129,5.129,0,0,0-1.16-.991l2.281-1.317Z" fill="#f9bf30"/>
        <g id="Group_912" data-name="Group 912">
          <path id="Path_4143" data-name="Path 4143" d="M415.064,208.6l2.415-1.394q-2.477-1.569-2.215-3.191t3.344-3.513L423,202.37a6.7,6.7,0,0,0-2.294,1.85q-.424.742.438,1.239a2.458,2.458,0,0,0,2.584-.188,3.69,3.69,0,0,0,1.207-1.033,2.421,2.421,0,0,0,.456-1.09,5.766,5.766,0,0,0-.049-1.345l-.244-1.919a6.35,6.35,0,0,1-.047-1.206,3.945,3.945,0,0,1,.266-1.114,3.229,3.229,0,0,1,.814-1.162,7.744,7.744,0,0,1,1.516-1.1,9.981,9.981,0,0,1,5.024-1.36,11.61,11.61,0,0,1,5.218,1.22l2.293-1.324,1.274.735-2.281,1.317a5.13,5.13,0,0,1,1.16.991,2.492,2.492,0,0,1,.527.95,1.727,1.727,0,0,1-.03.914,2.788,2.788,0,0,1-.413.848,5.251,5.251,0,0,1-.727.784,9.215,9.215,0,0,1-.875.7c-.279.194-.6.4-.952.627l-4.344-1.934q.5-.3.813-.5c.21-.135.424-.285.643-.448a2.708,2.708,0,0,0,.473-.428,1.154,1.154,0,0,0,.206-.378.391.391,0,0,0-.067-.368,1.279,1.279,0,0,0-.431-.333,2.224,2.224,0,0,0-1.382-.231,3.637,3.637,0,0,0-1.384.441,3.906,3.906,0,0,0-.9.68,1.63,1.63,0,0,0-.418.8,3.629,3.629,0,0,0-.091.7c0,.168.016.439.048.813l.207,1.857a7.1,7.1,0,0,1,.005,1.4,5.023,5.023,0,0,1-.34,1.317,3.962,3.962,0,0,1-.915,1.335,7.86,7.86,0,0,1-1.651,1.225,9.8,9.8,0,0,1-4.653,1.251,10.641,10.641,0,0,1-4.934-.984l-2.439,1.408Z" fill="#fdd762"/>
        </g>
      </g>
    </g>
    <g id="Group_921" data-name="Group 921">
      <g id="Group_917" data-name="Group 917">
        <path id="Path_4144" data-name="Path 4144" d="M524.486,254.87h-1.559c-1.748-3.434-4.968-6.673-9.661-9.382-14.959-8.637-39.213-8.637-54.172,0-4.693,2.71-7.912,5.948-9.66,9.383h-1.559v6.255h0c0,5.66,3.741,11.32,11.22,15.638,14.959,8.637,39.213,8.637,54.172,0,7.479-4.319,11.219-9.979,11.219-15.639h0Z" fill="#f9bf30"/>
        <path id="Path_4145" data-name="Path 4145" d="M477.873,239.54a50.781,50.781,0,0,0-18.779,5.947c-4.693,2.71-7.912,5.948-9.66,9.383h-1.559v6.255c0,5.66,3.741,11.32,11.22,15.638a50.776,50.776,0,0,0,18.778,5.948Z" fill="#fdd762"/>
        <path id="Path_4146" data-name="Path 4146" d="M513.371,276.7c7.408-4.311,11.115-9.943,11.115-15.576V254.87h-1.559a22.332,22.332,0,0,0-7.69-8.146h-1.866Z" fill="#e8a200"/>
        <g id="Group_915" data-name="Group 915" opacity="0.4">
          <path id="Path_4147" data-name="Path 4147" d="M522.514,254.142a18.255,18.255,0,0,0-1.661-2.4v18.8a18.292,18.292,0,0,0,1.661-2.408Z" fill="#e8a200"/>
          <path id="Path_4148" data-name="Path 4148" d="M459.094,245.487a30.171,30.171,0,0,0-5.35,3.886v23.512c.521.478,1.071.949,1.662,1.408V248.809h3.132v27.615c.187.113.365.228.557.339.361.209.732.407,1.1.606v-28.56h3.132v30.065q.819.354,1.662.678V248.809h3.132v31.823q.822.255,1.661.483V248.809h3.132v33.063q.825.176,1.662.328V248.809h3.131V282.69q.828.108,1.662.2V248.809h3.132v34.33c.553.031,1.107.052,1.661.069v-34.4H487.3v34.417q.832-.014,1.662-.049V248.809h3.132v34.164c.555-.05,1.109-.1,1.661-.169V248.809h3.132v33.553q.837-.139,1.662-.3V248.809h3.132V281.35q.839-.215,1.661-.452V248.809h3.132v31.072q.843-.3,1.662-.636V248.809h3.132v29.023c.564-.284,1.119-.576,1.661-.882V248.809h3.132v26.154c.586-.421,1.137-.853,1.662-1.292V248.809H518a31.064,31.064,0,0,0-4.732-3.321,46.069,46.069,0,0,0-11.754-4.628H470.847A46.1,46.1,0,0,0,459.094,245.487Z" fill="#e8a200"/>
          <path id="Path_4149" data-name="Path 4149" d="M450.612,252.931a17.07,17.07,0,0,0-1.178,1.939h-.483v11.466a16.448,16.448,0,0,0,1.661,3.007Z" fill="#e8a200"/>
        </g>
        <ellipse id="Ellipse_36" data-name="Ellipse 36" cx="38.305" cy="22.115" rx="38.305" ry="22.115" transform="translate(447.875 232.755)" fill="#fdd762"/>
        <path id="Path_4150" data-name="Path 4150" d="M494.762,258.649c11.012-6.357,13.906-15.622,8.7-23.514-14.371-4.2-32.364-2.836-44.372,4.1-11.012,6.358-13.906,15.622-8.7,23.515C464.761,266.944,482.754,265.582,494.762,258.649Z" fill="#fff" opacity="0.2"/>
        <path id="Path_4151" data-name="Path 4151" d="M513.267,270.508c-14.959,8.637-39.213,8.637-54.172,0-7.228-4.174-10.953-9.6-11.2-15.068-.26,5.848,3.465,11.745,11.2,16.208,14.959,8.637,39.213,8.637,54.172,0,7.73-4.464,11.455-10.36,11.195-16.208C524.219,260.909,520.495,266.335,513.267,270.508Z" fill="#fff" opacity="0.7"/>
        <ellipse id="Ellipse_37" data-name="Ellipse 37" cx="27.19" cy="15.698" rx="27.19" ry="15.698" transform="translate(458.99 239.172)" fill="#e8a200"/>
        <path id="Path_4152" data-name="Path 4152" d="M466.954,245.2c10.618-6.13,27.834-6.13,38.453,0,4.993,2.883,7.637,6.608,7.934,10.384.335-4.254-2.309-8.57-7.934-11.818-10.619-6.13-27.835-6.131-38.453,0-5.625,3.247-8.268,7.563-7.934,11.816C459.317,251.811,461.961,248.086,466.954,245.2Z" fill="#f9bf30"/>
        <path id="Path_4153" data-name="Path 4153" d="M499.552,247.457l-2.107.6.6.238-2.058,1.188a11.6,11.6,0,0,0-5.218-1.219,9.967,9.967,0,0,0-5.024,1.359,7.786,7.786,0,0,0-1.517,1.1,3.246,3.246,0,0,0-.813,1.162,3.909,3.909,0,0,0-.266,1.114,6.187,6.187,0,0,0,.047,1.206l.244,1.919a5.757,5.757,0,0,1,.048,1.345,2.408,2.408,0,0,1-.455,1.09,3.679,3.679,0,0,1-1.207,1.033,2.463,2.463,0,0,1-2.585.189q-.861-.5-.437-1.24a6.689,6.689,0,0,1,2.294-1.85v-1.44l-1.8.676-2.592-1.1a8.388,8.388,0,0,0-3.071,2.759l-.3-.332v1.411h.006c.009.969.748,1.925,2.233,2.865l-1.024.592-1.391-.637v1.44l1.249.721,2.439-1.408a10.639,10.639,0,0,0,4.933.984,9.807,9.807,0,0,0,4.654-1.25,7.853,7.853,0,0,0,1.65-1.226,3.966,3.966,0,0,0,.916-1.335,5.014,5.014,0,0,0,.34-1.317,7.026,7.026,0,0,0-.006-1.4l-.206-1.857q-.05-.561-.049-.813a3.79,3.79,0,0,1,.091-.7,1.623,1.623,0,0,1,.419-.8,3.862,3.862,0,0,1,.9-.68,3.655,3.655,0,0,1,1.383-.441,2.226,2.226,0,0,1,1.383.231,1.292,1.292,0,0,1,.431.333.4.4,0,0,1,.076.241l-2.145.446v1.44l4.345,1.933q.532-.336.952-.627a9.062,9.062,0,0,0,.875-.7,5.154,5.154,0,0,0,.727-.784,2.788,2.788,0,0,0,.413-.848,1.92,1.92,0,0,0,.071-.43l.005-.005v-.022a.133.133,0,0,1,0-.02v-1.473l-.554.115c-.008-.01-.011-.019-.019-.029a5.155,5.155,0,0,0-1.16-.991l2.28-1.317Z" fill="#f9bf30"/>
        <g id="Group_916" data-name="Group 916">
          <path id="Path_4154" data-name="Path 4154" d="M473.161,261.49l2.415-1.395q-2.477-1.569-2.215-3.191t3.343-3.513l4.393,1.863a6.7,6.7,0,0,0-2.294,1.85q-.425.742.437,1.24a2.461,2.461,0,0,0,2.585-.189,3.679,3.679,0,0,0,1.207-1.033,2.408,2.408,0,0,0,.455-1.09,5.759,5.759,0,0,0-.048-1.345l-.244-1.919a6.184,6.184,0,0,1-.047-1.206,3.909,3.909,0,0,1,.266-1.114,3.254,3.254,0,0,1,.813-1.162,7.786,7.786,0,0,1,1.517-1.1,9.977,9.977,0,0,1,5.024-1.359,11.609,11.609,0,0,1,5.218,1.219l2.293-1.324,1.273.735-2.28,1.318a5.13,5.13,0,0,1,1.16.991,2.5,2.5,0,0,1,.527.949,1.731,1.731,0,0,1-.03.915,2.794,2.794,0,0,1-.413.847,5.154,5.154,0,0,1-.727.784,9.062,9.062,0,0,1-.875.7q-.418.291-.952.627l-4.345-1.933q.5-.3.814-.505c.21-.135.424-.285.642-.448a2.644,2.644,0,0,0,.474-.428,1.153,1.153,0,0,0,.206-.378.391.391,0,0,0-.067-.368,1.291,1.291,0,0,0-.431-.333,2.226,2.226,0,0,0-1.383-.231,3.655,3.655,0,0,0-1.383.441,3.862,3.862,0,0,0-.9.68,1.632,1.632,0,0,0-.419.8,3.79,3.79,0,0,0-.091.7c0,.168.016.44.049.813l.206,1.857a7.026,7.026,0,0,1,.006,1.4,5.015,5.015,0,0,1-.34,1.317,3.966,3.966,0,0,1-.916,1.335,7.853,7.853,0,0,1-1.65,1.226,9.785,9.785,0,0,1-4.654,1.25,10.639,10.639,0,0,1-4.933-.984l-2.439,1.408Z" fill="#fdd762"/>
        </g>
      </g>
      <g id="Group_920" data-name="Group 920">
        <path id="Path_4155" data-name="Path 4155" d="M529.083,245.482h-1.559c-1.748-3.435-4.967-6.673-9.661-9.382-14.959-8.637-39.212-8.637-54.171,0-4.694,2.71-7.913,5.948-9.661,9.383h-1.558v6.255h0c0,5.66,3.74,11.32,11.219,15.638,14.96,8.637,39.213,8.637,54.172,0,7.48-4.319,11.219-9.979,11.219-15.639h0Z" fill="#f9bf30"/>
        <path id="Path_4156" data-name="Path 4156" d="M482.47,230.152a50.77,50.77,0,0,0-18.778,5.947c-4.694,2.71-7.913,5.948-9.661,9.383h-1.558v6.255c0,5.66,3.74,11.32,11.219,15.638a50.776,50.776,0,0,0,18.778,5.948Z" fill="#fdd762"/>
        <path id="Path_4157" data-name="Path 4157" d="M517.968,267.313c7.408-4.311,11.115-9.943,11.115-15.576v-6.255h-1.559a22.332,22.332,0,0,0-7.69-8.146h-1.866Z" fill="#e8a200"/>
        <g id="Group_918" data-name="Group 918" opacity="0.4">
          <path id="Path_4158" data-name="Path 4158" d="M527.112,244.754a18.436,18.436,0,0,0-1.662-2.4v18.8a18.3,18.3,0,0,0,1.662-2.408Z" fill="#e8a200"/>
          <path id="Path_4159" data-name="Path 4159" d="M463.692,236.1a30.218,30.218,0,0,0-5.351,3.886V263.5c.522.478,1.071.949,1.662,1.408V239.421h3.132v27.615c.187.113.366.228.557.339.362.208.733.407,1.1.606v-28.56h3.132v30.065q.819.354,1.662.678V239.421h3.132v31.823q.822.255,1.661.483V239.421h3.132v33.063q.826.176,1.662.328V239.421h3.132V273.3q.828.108,1.661.2V239.421H487.1v34.33c.553.031,1.107.052,1.662.069v-34.4H491.9v34.417q.831-.014,1.661-.049V239.421h3.132v34.164c.556-.05,1.11-.1,1.662-.169V239.421h3.132v33.553q.836-.139,1.661-.3V239.421h3.132v32.541q.838-.213,1.662-.453V239.421h3.132v31.072q.842-.3,1.661-.636V239.421h3.132v29.023c.565-.284,1.12-.576,1.662-.882V239.421h3.131v26.153c.587-.42,1.137-.852,1.662-1.291V239.421h.277a31.064,31.064,0,0,0-4.732-3.321,46.04,46.04,0,0,0-11.754-4.628H475.444A46.09,46.09,0,0,0,463.692,236.1Z" fill="#e8a200"/>
          <path id="Path_4160" data-name="Path 4160" d="M455.209,243.543a17.217,17.217,0,0,0-1.178,1.939h-.483v11.466a16.444,16.444,0,0,0,1.661,3.007Z" fill="#e8a200"/>
        </g>
        <ellipse id="Ellipse_38" data-name="Ellipse 38" cx="38.305" cy="22.115" rx="38.305" ry="22.115" transform="translate(452.473 223.367)" fill="#fdd762"/>
        <path id="Path_4161" data-name="Path 4161" d="M499.359,249.261c11.012-6.358,13.906-15.622,8.7-23.514-14.371-4.2-32.365-2.836-44.372,4.1-11.013,6.358-13.907,15.622-8.7,23.515C469.358,257.556,487.351,256.194,499.359,249.261Z" fill="#fff" opacity="0.2"/>
        <path id="Path_4162" data-name="Path 4162" d="M517.864,261.121c-14.959,8.636-39.212,8.636-54.172,0-7.228-4.174-10.953-9.6-11.2-15.068-.259,5.848,3.465,11.745,11.2,16.208,14.96,8.637,39.213,8.637,54.172,0,7.73-4.464,11.455-10.36,11.2-16.208C528.816,251.521,525.092,256.947,517.864,261.121Z" fill="#fff" opacity="0.7"/>
        <ellipse id="Ellipse_39" data-name="Ellipse 39" cx="27.19" cy="15.698" rx="27.19" ry="15.698" transform="translate(463.588 229.784)" fill="#e8a200"/>
        <path id="Path_4163" data-name="Path 4163" d="M471.551,235.815c10.618-6.13,27.834-6.13,38.453,0,4.994,2.884,7.637,6.609,7.934,10.385.335-4.253-2.309-8.57-7.934-11.818-10.619-6.131-27.835-6.131-38.453,0-5.624,3.247-8.268,7.563-7.934,11.816C463.915,242.423,466.558,238.7,471.551,235.815Z" fill="#f9bf30"/>
        <path id="Path_4164" data-name="Path 4164" d="M504.15,238.069l-2.108.6.6.238-2.058,1.188a11.623,11.623,0,0,0-5.218-1.22,9.981,9.981,0,0,0-5.024,1.36,7.744,7.744,0,0,0-1.516,1.1,3.237,3.237,0,0,0-.814,1.162,3.945,3.945,0,0,0-.266,1.114,6.35,6.35,0,0,0,.047,1.206l.244,1.919a5.767,5.767,0,0,1,.049,1.345,2.421,2.421,0,0,1-.456,1.09,3.679,3.679,0,0,1-1.207,1.033,2.459,2.459,0,0,1-2.584.189q-.863-.5-.438-1.24a6.7,6.7,0,0,1,2.294-1.85v-1.44l-1.8.676-2.591-1.1a8.392,8.392,0,0,0-3.072,2.759l-.3-.332v1.412h.006c.009.969.748,1.924,2.233,2.865l-1.024.592-1.391-.637v1.44l1.249.721,2.439-1.408a10.643,10.643,0,0,0,4.934.984,9.807,9.807,0,0,0,4.653-1.25,7.862,7.862,0,0,0,1.651-1.226,3.962,3.962,0,0,0,.915-1.335,5.014,5.014,0,0,0,.34-1.317,7.1,7.1,0,0,0-.005-1.4l-.207-1.857c-.032-.374-.049-.645-.048-.813a3.629,3.629,0,0,1,.091-.7,1.63,1.63,0,0,1,.418-.8,3.906,3.906,0,0,1,.9-.68,3.637,3.637,0,0,1,1.384-.441,2.224,2.224,0,0,1,1.382.231,1.279,1.279,0,0,1,.431.333.4.4,0,0,1,.076.241l-2.144.446v1.44l4.344,1.933q.533-.336.952-.627a9.058,9.058,0,0,0,.875-.7,5.155,5.155,0,0,0,.727-.784,2.765,2.765,0,0,0,.413-.848,1.813,1.813,0,0,0,.071-.43l.005-.005v-1.515l-.553.115c-.008-.01-.012-.019-.02-.028a5.157,5.157,0,0,0-1.16-.992l2.281-1.317Z" fill="#f9bf30"/>
        <g id="Group_919" data-name="Group 919">
          <path id="Path_4165" data-name="Path 4165" d="M477.758,252.1l2.415-1.4q-2.477-1.569-2.215-3.191T481.3,244l4.392,1.863a6.711,6.711,0,0,0-2.294,1.85q-.424.742.438,1.24a2.459,2.459,0,0,0,2.584-.189,3.679,3.679,0,0,0,1.207-1.033,2.421,2.421,0,0,0,.456-1.09,5.767,5.767,0,0,0-.049-1.345l-.244-1.919a6.347,6.347,0,0,1-.047-1.206,3.945,3.945,0,0,1,.266-1.114,3.246,3.246,0,0,1,.814-1.162,7.744,7.744,0,0,1,1.516-1.1,9.98,9.98,0,0,1,5.024-1.359,11.609,11.609,0,0,1,5.218,1.219l2.293-1.324,1.274.735-2.281,1.317a5.156,5.156,0,0,1,1.16.992,2.482,2.482,0,0,1,.527.949,1.727,1.727,0,0,1-.03.914,2.765,2.765,0,0,1-.413.848,5.155,5.155,0,0,1-.727.784,9.058,9.058,0,0,1-.875.7q-.418.291-.952.627l-4.344-1.933q.5-.3.813-.505c.21-.135.424-.285.643-.448a2.668,2.668,0,0,0,.473-.428,1.154,1.154,0,0,0,.206-.378.391.391,0,0,0-.067-.368,1.291,1.291,0,0,0-.431-.333,2.224,2.224,0,0,0-1.382-.231,3.654,3.654,0,0,0-1.384.441,3.906,3.906,0,0,0-.9.68,1.63,1.63,0,0,0-.418.8,3.629,3.629,0,0,0-.091.7c0,.168.016.44.048.813l.207,1.857a7.1,7.1,0,0,1,.005,1.4,5.03,5.03,0,0,1-.34,1.318,3.969,3.969,0,0,1-.915,1.334,7.862,7.862,0,0,1-1.651,1.226,9.807,9.807,0,0,1-4.653,1.251,10.657,10.657,0,0,1-4.934-.985l-2.439,1.408Z" fill="#fdd762"/>
        </g>
      </g>
    </g>
    <g id="Group_925" data-name="Group 925">
      <g id="Group_924" data-name="Group 924">
        <g id="Group_923" data-name="Group 923">
          <g id="Group_922" data-name="Group 922">
            <path id="Path_4166" data-name="Path 4166" d="M428.443,195.325c-.247.618-4.51,5.808-8.773,7.1a9.81,9.81,0,0,1-3.917.541,1.291,1.291,0,0,1-1.049-1.72,16.2,16.2,0,0,1,8.178-9.015C430.111,188.653,428.443,195.325,428.443,195.325Z" fill="#396caa"/>
            <path id="Path_4167" data-name="Path 4167" d="M429.864,197.319a35.254,35.254,0,0,0-2.1,6.92c-.3,1.922.753,4.418,1.622,6.073a1.773,1.773,0,0,0,2.764.479,10.254,10.254,0,0,0,3.461-6.614c.494-5.313,0-6.24,0-6.24Z" fill="#396caa"/>
            <path id="Path_4168" data-name="Path 4168" d="M440.133,133.1a101.067,101.067,0,0,1,0,14.116c-.556,7.414-2.546,42.086-2.917,50.426,0,0,.185,2.526-4.7,1.97s-4.495-3.36-4.495-3.36-6.866-.092-7.082-4.139S413.9,143.789,413.9,127.87Z" fill="#fdd762"/>
            <path id="Path_4169" data-name="Path 4169" d="M428.018,196.252a14.028,14.028,0,0,1-1.962-.2h0l-1.344-53.9Z" fill="#d8892b"/>
            <path id="Path_4170" data-name="Path 4170" d="M432.88,84.421C444.094,89.07,443.869,95.7,443.869,95.7s-2.2,24.3-1.447,40.531c.314,6.784-36.046,7.3-30.624-10.8,6.394-21.342,4-38.62,6.99-41.225S429.98,83.219,432.88,84.421Z" fill="#1d8cc6"/>
            <path id="Path_4171" data-name="Path 4171" d="M436.488,90.3c-.586,2.277-3.569,3.477-6.663,2.68s-5.125-3.289-4.539-5.566,3.57-3.476,6.663-2.679S437.075,88.022,436.488,90.3Z" fill="#ffc2b0"/>
            <path id="Path_4172" data-name="Path 4172" d="M431.718,93.759a8.137,8.137,0,0,1-2.027-.261c-3.374-.87-5.583-3.659-4.924-6.219s3.94-3.933,7.316-3.065,5.583,3.659,4.925,6.219h0C436.481,92.472,434.292,93.759,431.718,93.759Zm-1.688-8.736c-2.083,0-3.824.967-4.224,2.524-.512,1.987,1.351,4.191,4.153,4.912s5.5-.307,6.01-2.294h0c.512-1.987-1.352-4.19-4.154-4.912A7.14,7.14,0,0,0,430.03,85.023Z" fill="#fff"/>
            <path id="Path_4173" data-name="Path 4173" d="M428.384,83.916a27.607,27.607,0,0,1-.1,4c-.061,1.117,3.851,2.161,4.862,1.149s.606-2.062.849-5.864S428.384,83.916,428.384,83.916Z" fill="#ffc2b0"/>
            <path id="Path_4174" data-name="Path 4174" d="M434,83.2s-.963,3.525-5.712,4.877l.072-3.2Z" fill="#ea9c92"/>
            <path id="Path_4175" data-name="Path 4175" d="M437.006,74.248a8.632,8.632,0,1,1-10.517-6.2A8.632,8.632,0,0,1,437.006,74.248Z" fill="#ffc2b0"/>
            <path id="Path_4176" data-name="Path 4176" d="M430.632,76.725s-4.753,2.036-8.043,2.059-2.566-2.732-2.566-2.732l9.768-1.412Z" fill="#ea9c92"/>
            <path id="Path_4177" data-name="Path 4177" d="M421.608,77.261s4.139-1.757,7.771-1.024a3.807,3.807,0,0,1,2.2,1.3,1.3,1.3,0,0,0,.664.48c.644.146,1.7-2.526,2.95-2.587s2.087.826,1.061,2.469-.68,3.482-.207,3.746,5.481-3.573,1.063-12.326-15.642-4.038-17.388-2.264c0,0-1.839,1.6-3.335.176C416.382,67.235,414.706,79.793,421.608,77.261Z" fill="#ff2c9c"/>
            <path id="Path_4178" data-name="Path 4178" d="M413.3,82.431l-6.03-2.6a2.675,2.675,0,0,1-1.47-1.584l-5.954-17.256-2.76.48L401.9,82.945a3.62,3.62,0,0,0,1.761,2.365L413.7,90.949Z" fill="#ffc2b0"/>
          </g>
          <path id="Path_4179" data-name="Path 4179" d="M476.038,85.238l1.383-.635a11.1,11.1,0,0,0,3.176-2.194l.963-.95a1.865,1.865,0,0,0,.408-2.053h0a1.027,1.027,0,0,0-1.411-.518l-2.89,1.459s.452-1.279.235-1.612-2.453,2.136-3.488,3.886S476.038,85.238,476.038,85.238Z" fill="#ffc2b0"/>
          <path id="Path_4180" data-name="Path 4180" d="M451.973,92.14l5.158-.576a9.1,9.1,0,0,0,3.467-1.123l13.816-7.82,1.624,2.617L461.911,96.145a6.466,6.466,0,0,1-1.42.833l-8.425,3.6Z" fill="#ffc2b0"/>
          <path id="Path_4181" data-name="Path 4181" d="M397.089,61.472l-.526-.607a4.845,4.845,0,0,1-1.133-2.473l-.369-2.516a2.158,2.158,0,0,1,.828-2.05l.07-.05a1.3,1.3,0,0,1,1.911.623l1.24,3s-.391-1.553.11-1.725c.367-.126,1.064,1.8.652,2.872a4.531,4.531,0,0,0-.023,2.447Z" fill="#ffc2b0"/>
          <path id="Path_4182" data-name="Path 4182" d="M425.224,82.351,423,81.739a5.38,5.38,0,0,0,2.617,2.1c1.553.426,1.795-.889,1.795-.889Z" fill="#fff"/>
        </g>
      </g>
      <path id="Path_4183" data-name="Path 4183" d="M421.882,82.967s-10.072-1.99-13.148-2.925-4.361,7.514-4.127,9.656,10.707,4.531,11.953,8.2S421.882,82.967,421.882,82.967Z" fill="#1d8cc6"/>
      <path id="Path_4184" data-name="Path 4184" d="M437.283,86.675s7.362,3.159,19.682,4.7a1.326,1.326,0,0,1,1.1.871,14.584,14.584,0,0,1,.652,7.406,2.719,2.719,0,0,1-2.694,2.14c-3.857-.027-12.157.343-13.5,3.948C440.75,110.462,437.283,86.675,437.283,86.675Z" fill="#1d8cc6"/>
      <path id="Path_4185" data-name="Path 4185" d="M437,78.784a1.173,1.173,0,1,1-1.174-1.174A1.174,1.174,0,0,1,437,78.784Z" fill="#fff"/>
    </g>
    <g id="Group_926" data-name="Group 926">
      <path id="Path_4186" data-name="Path 4186" d="M291.6,213.656l-2.246,2.722L291.8,214.8Z" fill="#721bd5"/>
      <path id="Path_4187" data-name="Path 4187" d="M346.177,269.412l-2.441,1.576.848-2.733,1.56.72Z" fill="#721bd5"/>
      <path id="Path_4188" data-name="Path 4188" d="M286.454,190.238l22.951,10.26-6.121,4.973L346.6,258.541l20.084-16.318,41.679,51.3,18.472-15.008,54.694,66.93-5.6,4.553-49.767-60.969-18.472,15.008-41.422-50.938-20.084,16.318-48.5-59.388L291.8,214.8Z" fill="#1d31c6"/>
      <path id="Path_4189" data-name="Path 4189" d="M407.683,304.033l-2.441,1.576,2.629-5.1Z" fill="#721bd5"/>
      <path id="Path_4190" data-name="Path 4190" d="M366.68,242.223l-2.441,1.576.493,1.361Z" fill="#721bd5"/>
      <path id="Path_4191" data-name="Path 4191" d="M426.831,278.511l-2.441,1.576.407.965Z" fill="#721bd5"/>
      <path id="Path_4192" data-name="Path 4192" d="M284.013,191.814l22.951,10.26-6.121,4.973,43.312,53.069L364.239,243.8l41.679,51.3,18.472-15.008,54.694,66.93-5.6,4.553L423.714,290.6l-18.472,15.008L363.82,254.67l-20.084,16.318-48.5-59.388-5.881,4.778Z" fill="#1d8cc6"/>
      <path id="Path_4193" data-name="Path 4193" d="M284.013,191.814l2.441-1.576,22.951,10.26-2.441,1.576Z" fill="#1d31c6"/>
      <path id="Path_4194" data-name="Path 4194" d="M481.525,345.441l-2.441,1.576-5.6,4.553,2.441-1.576Z" fill="#721bd5"/>
    </g>
    <g id="Group_928" data-name="Group 928">
      <g id="Group_927" data-name="Group 927">
        <path id="Path_4195" data-name="Path 4195" d="M373.1,82.057a2.217,2.217,0,1,1-1.292-2.857A2.217,2.217,0,0,1,373.1,82.057Z" fill="#01c8ef"/>
      </g>
      <rect id="Rectangle_351" data-name="Rectangle 351" width="9.231" height="9.231" transform="translate(358.624 62.361) rotate(20.659)" fill="#fdd762"/>
    </g>
  </g>
</svg>
