<?xml version="1.0" encoding="utf-8"?>
<!-- Generator: Adobe Illustrator 24.2.0, SVG Export Plug-In . SVG Version: 6.00 Build 0)  -->
<!DOCTYPE svg PUBLIC "-//W3C//DTD SVG 1.1//EN" "http://www.w3.org/Graphics/SVG/1.1/DTD/svg11.dtd" [
	<!ENTITY ns_extend "http://ns.adobe.com/Extensibility/1.0/">
	<!ENTITY ns_ai "http://ns.adobe.com/AdobeIllustrator/10.0/">
	<!ENTITY ns_graphs "http://ns.adobe.com/Graphs/1.0/">
	<!ENTITY ns_vars "http://ns.adobe.com/Variables/1.0/">
	<!ENTITY ns_imrep "http://ns.adobe.com/ImageReplacement/1.0/">
	<!ENTITY ns_sfw "http://ns.adobe.com/SaveForWeb/1.0/">
	<!ENTITY ns_custom "http://ns.adobe.com/GenericCustomNamespace/1.0/">
	<!ENTITY ns_adobe_xpath "http://ns.adobe.com/XPath/1.0/">
]>
<svg version="1.1" id="Layer_1" xmlns:x="&ns_extend;" xmlns:i="&ns_ai;" xmlns:graph="&ns_graphs;"
	 xmlns="http://www.w3.org/2000/svg" xmlns:xlink="http://www.w3.org/1999/xlink" x="0px" y="0px" width="20.9px" height="18.8px"
	 viewBox="0 0 20.9 18.8" style="enable-background:new 0 0 20.9 18.8;" xml:space="preserve">
<style type="text/css">
	.st0{fill:#FFFFFF;}
</style>
<metadata>
	<sfw  xmlns="&ns_sfw;">
		<slices></slices>
		<sliceSourceBounds  bottomLeftOrigin="true" height="18.8" width="20.9" x="0" y="0"></sliceSourceBounds>
	</sfw>
</metadata>
<g id="Group_314" transform="translate(-394.381 -1474.298)">
	<g id="Group_282" transform="translate(394.381 1474.298)">
		<path id="Path_456" class="st0" d="M17.8,6.3c1.7,0,3.1-1.4,3.2-3.1c0-1.7-1.4-3.1-3.1-3.2c-1.3,0-2.5,0.8-3,2.1H0v2.1h14.8
			C15.3,5.4,16.4,6.3,17.8,6.3z M17.8,2.1c0.6,0,1,0.5,1,1c0,0.6-0.5,1-1,1c-0.6,0-1-0.5-1-1c0,0,0,0,0,0
			C16.7,2.6,17.2,2.1,17.8,2.1L17.8,2.1z"/>
		<path id="Path_457" class="st0" d="M7.3,6.3C6,6.3,4.8,7.1,4.4,8.4H0v2.1h4.4c0.6,1.6,2.3,2.5,4,1.9c0.9-0.3,1.6-1,1.9-1.9h10.6
			V8.4H10.3C9.8,7.1,8.6,6.3,7.3,6.3z M7.3,10.4c-0.6,0-1-0.5-1-1c0-0.6,0.5-1,1-1c0.6,0,1,0.5,1,1c0,0,0,0,0,0
			C8.4,10,7.9,10.4,7.3,10.4L7.3,10.4z"/>
		<path id="Path_458" class="st0" d="M17.8,12.5c-1.3,0-2.5,0.8-2.9,2.1H0v2.1h14.8c0.6,1.6,2.4,2.5,4,1.9c1.6-0.6,2.5-2.4,1.9-4
			C20.3,13.4,19.1,12.5,17.8,12.5L17.8,12.5z M17.8,16.7c-0.6,0-1-0.5-1-1s0.5-1,1-1c0.6,0,1,0.5,1,1S18.3,16.7,17.8,16.7
			C17.8,16.7,17.8,16.7,17.8,16.7z"/>
	</g>
</g>
</svg>
