<svg xmlns="http://www.w3.org/2000/svg" width="338.149" height="312.345" viewBox="0 0 338.149 312.345">
  <g id="Group_3223" data-name="Group 3223" transform="translate(-1449.244 -622.196)">
    <g id="Group_3224" data-name="Group 3224" transform="translate(1701.588 678.497)">
      <rect id="Rectangle_342" data-name="Rectangle 342" width="3.066" height="8.907" transform="matrix(-0.574, -0.819, 0.819, -0.574, 1.761, 24.34)" fill="#fdd762"/>
      <rect id="Rectangle_343" data-name="Rectangle 343" width="3.066" height="8.907" transform="matrix(-0.574, -0.819, 0.819, -0.574, 4.363, 18.768)" fill="#fdd762"/>
      <rect id="Rectangle_344" data-name="Rectangle 344" width="3.066" height="8.907" transform="matrix(-0.574, -0.819, 0.819, -0.574, 6.964, 13.197)" fill="#fdd762"/>
      <rect id="Rectangle_345" data-name="Rectangle 345" width="3.066" height="8.907" transform="matrix(-0.574, -0.819, 0.819, -0.574, 9.566, 7.626)" fill="#fdd762"/>
    </g>
    <g id="Group_3225" data-name="Group 3225" transform="translate(1595.72 641.374)">
      <g id="Group_865" data-name="Group 865" transform="translate(3.849)">
        <path id="Path_3986" data-name="Path 3986" d="M532.972,207.308l-16.7-9.64-16.7,9.64,16.7,9.64Z" transform="translate(-499.576 -115.294)" fill="#d4ecff"/>
        <path id="Path_3987" data-name="Path 3987" d="M517.6,211.364v-60.05l14.183-8.189v60.05Z" transform="translate(-493.085 -134.937)" fill="#1d31c6"/>
        <path id="Path_3988" data-name="Path 3988" d="M521.358,151.314l-14.183-8.189v60.05l14.183,8.189Z" transform="translate(-496.84 -134.937)" fill="#1d8cc6"/>
        <path id="Path_3989" data-name="Path 3989" d="M535.541,145.293,521.358,137.1l-14.183,8.189,14.183,8.189Z" transform="translate(-496.84 -137.105)" fill="#00a0c9"/>
      </g>
      <g id="Group_866" data-name="Group 866" transform="translate(28.366 70.969)">
        <path id="Path_3990" data-name="Path 3990" d="M531.785,197.471,517.6,189.283v5.459l14.183,8.189Z" transform="translate(-517.602 -189.283)" fill="#95d359"/>
      </g>
      <g id="Group_867" data-name="Group 867" transform="translate(0 24.566)">
        <path id="Path_3991" data-name="Path 3991" d="M507.174,213.049V169.375l14.183-8.189V204.86Z" transform="translate(-492.991 -152.998)" fill="#c13d1a"/>
        <path id="Path_3992" data-name="Path 3992" d="M510.93,169.375l-14.183-8.189V204.86l14.183,8.189Z" transform="translate(-496.747 -152.998)" fill="#db5126"/>
        <path id="Path_3993" data-name="Path 3993" d="M525.113,163.355l-14.183-8.189-14.183,8.189,14.183,8.189Z" transform="translate(-496.747 -155.166)" fill="#ef602e"/>
        <path id="Path_3994" data-name="Path 3994" d="M507.174,213.049V169.375l14.183-8.189V204.86Z" transform="translate(-492.991 -152.998)" fill="#5793ce"/>
        <path id="Path_3995" data-name="Path 3995" d="M510.93,169.375l-14.183-8.189V204.86l14.183,8.189Z" transform="translate(-496.747 -152.998)" fill="#01c8ef"/>
        <path id="Path_3996" data-name="Path 3996" d="M525.113,163.355l-14.183-8.189-14.183,8.189,14.183,8.189Z" transform="translate(-496.747 -155.166)" fill="#396caa"/>
      </g>
      <g id="Group_868" data-name="Group 868" transform="translate(14.183 51.862)">
        <path id="Path_3997" data-name="Path 3997" d="M517.6,214.01V189.444l14.183-8.189v24.566Z" transform="translate(-503.419 -173.067)" fill="#e8a200"/>
        <path id="Path_3998" data-name="Path 3998" d="M521.358,189.444l-14.183-8.189v24.566l14.183,8.189Z" transform="translate(-507.174 -173.067)" fill="#f9bf30"/>
        <path id="Path_3999" data-name="Path 3999" d="M535.541,183.423l-14.183-8.189-14.183,8.189,14.183,8.189Z" transform="translate(-507.174 -175.235)" fill="#fdd762"/>
      </g>
    </g>
    <path id="Path_4307" data-name="Path 4307" d="M484.759,143.51a12.468,12.468,0,1,1,12.467-12.467A12.482,12.482,0,0,1,484.759,143.51Zm0-22.215a9.747,9.747,0,1,0,9.747,9.748A9.759,9.759,0,0,0,484.759,121.3Z" transform="translate(1290.166 507.597)" fill="#ff2c9c"/>
    <ellipse id="Ellipse_46" data-name="Ellipse 46" cx="9.011" cy="9.011" rx="9.011" ry="9.011" transform="translate(1754.807 637.846)" fill="#fdd762"/>
    <g id="Group_3226" data-name="Group 3226" transform="translate(1267.877 482.185)">
      <rect id="Rectangle_348" data-name="Rectangle 348" width="9.5" height="2" transform="translate(306.465 146.729) rotate(-45)" fill="#b45ef4"/>
      <rect id="Rectangle_349" data-name="Rectangle 349" width="2" height="9.5" transform="translate(306.465 141.425) rotate(-45)" fill="#b45ef4"/>
    </g>
    <g id="Group_3227" data-name="Group 3227" transform="translate(1416.877 595.185)">
      <g id="Group_875" data-name="Group 875">
        <path id="Path_4009" data-name="Path 4009" d="M350.555,305.065a2.218,2.218,0,1,1,1.862,2.524A2.218,2.218,0,0,1,350.555,305.065Z" fill="#1d31c6"/>
      </g>
      <rect id="Rectangle_350" data-name="Rectangle 350" width="9.231" height="9.231" transform="matrix(-0.989, -0.149, 0.149, -0.989, 368.837, 321.295)" fill="#1d31c6"/>
    </g>
    <g id="Group_3228" data-name="Group 3228" transform="translate(1093.877 607.185)">
      <g id="Group_927" data-name="Group 927">
        <path id="Path_4195" data-name="Path 4195" d="M373.1,82.057a2.217,2.217,0,1,1-1.292-2.857A2.217,2.217,0,0,1,373.1,82.057Z" fill="#01c8ef"/>
      </g>
      <rect id="Rectangle_351" data-name="Rectangle 351" width="9.231" height="9.231" transform="translate(358.624 62.361) rotate(20.659)" fill="#fdd762"/>
    </g>
    <g id="Group_3250" data-name="Group 3250" transform="translate(1440.471 492.131)">
      <g id="Group_3251" data-name="Group 3251" transform="translate(116.822 218.975)">
        <circle id="Ellipse_47" data-name="Ellipse 47" cx="79.916" cy="79.916" r="79.916" transform="translate(0 62.383) rotate(-22.973)" fill="#f45762"/>
        <circle id="Ellipse_48" data-name="Ellipse 48" cx="60.573" cy="60.573" r="60.573" transform="translate(25.373 72.606) rotate(-22.947)" fill="#ebebeb"/>
        <circle id="Ellipse_49" data-name="Ellipse 49" cx="43.266" cy="43.266" r="43.266" transform="translate(55.182 140.618) rotate(-80.865)" fill="#f45762"/>
        <path id="Path_4372" data-name="Path 4372" d="M145.865,255.183a29.778,29.778,0,1,1-29.778-29.778A29.779,29.779,0,0,1,145.865,255.183Z" transform="translate(-11.318 -150.414)" fill="#ebebeb"/>
        <path id="Path_4373" data-name="Path 4373" d="M119.609,244.961a13.744,13.744,0,1,1-13.744-13.744A13.746,13.746,0,0,1,119.609,244.961Z" transform="translate(-1.096 -140.192)" fill="#f45762"/>
        <g id="Group_3250-2" data-name="Group 3250" transform="translate(104.769 39.508)">
          <path id="Path_4374" data-name="Path 4374" d="M153.744,218.838c-1.23-1.368-4.946-6.2-13.206,1.272-7.868,7.115-17.413,17.273-17.413,17.273s13.493-3.5,23.51-6.993C157.152,226.726,154.749,220.427,153.744,218.838Z" transform="translate(-51.337 -206.396)" fill="#f45762"/>
          <path id="Path_4375" data-name="Path 4375" d="M187.833,218.217l-13.866,5.3a74.518,74.518,0,0,0-12.034,5.887L97.1,268.672l65.242-26.821a74.675,74.675,0,0,0,20.227-12.39l7.41-6.359A12.5,12.5,0,0,1,187.833,218.217Z" transform="translate(-97.103 -202.563)" fill="#110239"/>
          <path id="Path_4376" data-name="Path 4376" d="M122.43,243.53s1.865-20.531,13.063-29.182,8.823,16.627,8.823,16.627Z" transform="translate(-52.559 -212.543)" fill="#f45762"/>
          <path id="Path_4377" data-name="Path 4377" d="M122.43,231.805s18.71,8.657,31.8,3.291-9.981-15.959-9.981-15.959Z" transform="translate(-52.559 -200.945)" fill="#f45762"/>
        </g>
      </g>
      <path id="Path_4378" data-name="Path 4378" d="M159.127,342.114c-.629-20.647,9.482-43.679,1.47-63.17-7.667-18.649-20.831-43.343-36.744-56.309-7.385-6.017-16.453-6.891-24.942-9.272a79.909,79.909,0,0,0,60.883,142.049C159.422,350.818,159.254,346.3,159.127,342.114Z" transform="translate(73.54 47.382)" fill="#c9071e" opacity="0.35" style="mix-blend-mode: multiply;isolation: isolate"/>
      <path id="Path_4379" data-name="Path 4379" d="M116.055,202.627S91.623,208.735,73.3,222.311s-37.326,55.65-41.061,85.174-11.2,52.6,0,67.7,47.509,18.155,78.729,21.209,74.3-4.411,82.961-15.273,7.981-93.053-8.307-124.067S139.808,201.948,116.055,202.627Z" transform="translate(0 28.476)" fill="#09c9ce"/>
      <path id="Path_4380" data-name="Path 4380" d="M114.615,251.073c-15.708-.143-28.109,3.233-37.119,16.853-5.97,9.021-13.921,23.083-9.38,34.38a63.387,63.387,0,0,0,4.541,8.729c22.889-2.064,44.295-7.829,50.124-15.135,3.606-4.522,5.584-21.424,5.5-41.839C123.959,252.687,119.627,251.12,114.615,251.073Z" transform="translate(71.146 113.697)" fill="#23a1ad"/>
      <path id="Path_4381" data-name="Path 4381" d="M157.665,372.682c-6.276-2.086-12.732-4.364-17.91-8.632-11.115-9.159-17.893-11.876-31.726-11.741-12.654.127-24.881.091-35.748-7.09-9.68-6.4-15.093-20.693-12.757-31.919,1.7-8.174,4.152-14.688,9.2-21.386,7.115-9.449,8.48-16.241,5.948-28.057-3.029-14.117-3.482-26.183.662-40.176,2.141-7.228,7.187-12.478,12.864-17.206a103.355,103.355,0,0,0-14.9,9.043c-18.324,13.573-37.326,55.65-41.061,85.174s-11.2,52.6,0,67.7,47.509,18.155,78.729,21.209,74.3-4.411,82.961-15.273c1.68-2.1,3-6.922,3.934-13.507C187.021,371.54,172.968,377.766,157.665,372.682Z" transform="translate(0 35.268)" fill="#23a1ad"/>
      <path id="Path_4382" data-name="Path 4382" d="M77.06,237.21S50.846,230.849,47.282,211s6.872-26.724,14.889-22.142,9.289,2.11,14.889-1.363,13.744,2.127,17.816,7.981,4.836-1.018,14.506-1.782,12.98,8.144,7.89,19.852S107.345,237.721,77.06,237.21Z" transform="translate(35.602)" fill="#09c9ce"/>
      <g id="Group_3254" data-name="Group 3254" transform="translate(82.165 189.768)">
        <g id="Group_3253" data-name="Group 3253">
          <g id="Group_3252" data-name="Group 3252">
            <path id="Path_4383" data-name="Path 4383" d="M105.472,223.915c-6.792,1.749-2.77-7.027-3.876-10.075-1.777.086-2.436,3.032-3.029,4.315a7.961,7.961,0,0,1-7.217,4.58c-4.232-.052-4.82-4.671-6.627-7.509-.761-1.192-1.115-1.15-1.586.281-.521,1.578-.022,3.424-1.49,4.654-2.712,2.273-7.222-.306-9.325-2.135-2.3-1.995-3.253-5.275-5.705-7.211a3.378,3.378,0,0,0-.764,1.7c-.607,2.858-.43,8.293-5.082,7.294-3.945-.844-6.593-7.291-7.862-10.574-1.462-3.777-2.839-8.285-2.828-12.365a38.549,38.549,0,0,1,.353-5.22,14.908,14.908,0,0,1,.968-4.006l-.03-.014c-3.777,3.319-6.05,10.312-4.091,21.229,3.032,16.884,22.448,24.012,28.183,25.764a10.71,10.71,0,0,0,3.1.466c23.858.061,31.279-8.251,35.952-17.62-.014.011-.025.033-.041.044C114.471,217.518,107.9,223.286,105.472,223.915Z" transform="translate(-46.564 -187.635)" fill="#23a1ad"/>
          </g>
        </g>
      </g>
      <g id="Group_3256" data-name="Group 3256" transform="translate(85.837 280.079)">
        <g id="Group_3255" data-name="Group 3255">
          <path id="Path_4384" data-name="Path 4384" d="M85.757,236.477c12.85,1.269,24.465,7.043,24.238,19.913l-21.455-.383c-.028-4.866-5-6-8.133-6.053-1.97-.036-8.345-.149-8.414,3.791-.157,8.811,39.547.356,39.105,25.284-.265,14.958-12.075,20.318-26.47,21.1l.646,15.907-13.1-.229,1.092-15.992c-13.308-1.63-25.607-8.108-25.367-21.56l21.452.381-.011.461c.011,5.917,6.6,7.195,9.962,7.253,3.253.058,9.634-.055,9.705-4.351.163-9.162-39.525-1.509-39.1-25.629.251-13.915,11.129-19.063,24.484-19.982l-.524-16.017,13.1.232Z" transform="translate(-47.895 -220.371)" fill="#ffd066"/>
        </g>
      </g>
      <g id="Group_3260" data-name="Group 3260" transform="translate(155.174 364.908)">
        <g id="Group_3257" data-name="Group 3257">
          <path id="Path_4385" data-name="Path 4385" d="M150.53,289.872a38.751,38.751,0,1,1-38.75-38.752A38.751,38.751,0,0,1,150.53,289.872Z" transform="translate(-73.028 -251.12)" fill="#ffd066"/>
          <path id="Path_4386" data-name="Path 4386" d="M138.866,285.331A31.628,31.628,0,1,1,107.239,253.7,31.628,31.628,0,0,1,138.866,285.331Z" transform="translate(-68.487 -246.579)" fill="#feac1a"/>
        </g>
        <g id="Group_3259" data-name="Group 3259" transform="translate(21.133 14.701)">
          <g id="Group_3258" data-name="Group 3258">
            <path id="Path_4387" data-name="Path 4387" d="M94.539,264.218c6.348-1.962,13.008-1.542,15.468,4.6l-10.249,4.1c-.985-2.3-3.567-1.848-5.065-1.247-.941.375-3.986,1.595-3.233,3.476,1.683,4.21,18.823-7.725,23.59,4.185,2.861,7.145-1.669,12.045-8.34,15.292l3.482,7.413-6.26,2.508-2.673-7.8c-6.635,1.881-13.761,1.266-16.332-5.162l10.249-4.1.086.223c1.186,2.8,4.566,2.094,6.171,1.448,1.556-.621,4.557-1.948,3.735-4-1.752-4.375-19.044,7.176-23.659-4.348-2.659-6.649,1.473-11.261,7.622-14.362l-3.446-7.493,6.26-2.5Z" transform="translate(-80.688 -256.449)" fill="#ffd066"/>
          </g>
        </g>
      </g>
      <path id="Path_4388" data-name="Path 4388" d="M52.2,201.412,49.84,213.906s6.7,6.442,24.936,6.442,28.079-6.447,28.079-6.447l-1.186-11.281S76.719,208.941,52.2,201.412Z" transform="translate(41.364 26.363)" fill="#ffd066"/>
    </g>
  </g>
</svg>
