<svg xmlns="http://www.w3.org/2000/svg" width="315.667" height="390.546" viewBox="0 0 315.667 390.546">
  <g id="Group_3223" data-name="Group 3223" transform="translate(-1474.457 -538)">
    <ellipse id="Ellipse_44" data-name="Ellipse 44" cx="56.063" cy="32.368" rx="56.063" ry="32.368" transform="translate(1627.237 860.148)" fill="#d4ecff"/>
    <g id="Group_3220" data-name="Group 3220" transform="translate(1612.561 730.428)">
      <g id="Group_879" data-name="Group 879" transform="translate(8.488 77.394)">
        <path id="Path_4010" data-name="Path 4010" d="M462.853,197.96h-2.669c-2.993-5.881-8.5-11.425-16.542-16.065-25.613-14.788-67.139-14.788-92.751,0-8.037,4.638-13.549,10.184-16.542,16.065h-2.668v10.71h0c0,9.691,6.4,19.38,19.211,26.773,25.613,14.788,67.139,14.79,92.751,0,12.807-7.393,19.209-17.084,19.209-26.775h0Z" transform="translate(-331.682 -160.093)" fill="#f9bf30"/>
        <path id="Path_4011" data-name="Path 4011" d="M383.043,171.333c-11.782,1.505-22.988,4.892-32.152,10.184-8.037,4.638-13.549,10.184-16.542,16.065h-2.668v10.71c0,9.691,6.4,19.38,19.211,26.773,9.164,5.292,20.368,8.679,32.15,10.184Z" transform="translate(-331.682 -159.716)" fill="#fdd762"/>
        <path id="Path_4012" data-name="Path 4012" d="M397.177,229.843c12.684-7.38,19.031-17.023,19.031-26.667v-10.71h-2.669c-2.551-5.013-6.95-9.777-13.165-13.949h-3.2Z" transform="translate(-285.037 -154.6)" fill="#e8a200"/>
        <g id="Group_877" data-name="Group 877" transform="translate(1.841 13.877)" opacity="0.4">
          <path id="Path_4013" data-name="Path 4013" d="M407.5,187.649a31.287,31.287,0,0,0-2.846-4.118v32.186a31.282,31.282,0,0,0,2.846-4.123Z" transform="translate(-281.549 -164.906)" fill="#e8a200"/>
          <path id="Path_4014" data-name="Path 4014" d="M346.711,180.577a51.569,51.569,0,0,0-9.16,6.652v40.259c.892.818,1.832,1.625,2.844,2.411V186.263h5.363v47.284c.32.192.627.39.955.579.618.358,1.253.7,1.89,1.038v-48.9h5.363v51.479q1.4.6,2.844,1.161V186.263h5.363v54.489q1.407.434,2.846.827V186.263h5.361v56.612q1.415.3,2.846.562V186.263h5.363v58.012q1.418.185,2.844.334V186.263h5.363v58.781c.947.051,1.9.089,2.846.118v-58.9H395v58.928q1.423-.023,2.844-.084V186.263h5.363v58.5q1.428-.128,2.846-.291V186.263h5.363v57.449q1.431-.239,2.844-.519v-56.93h5.363v55.716q1.436-.365,2.846-.774V186.263h5.363v53.2q1.441-.521,2.844-1.091V186.263h5.363v49.693q1.451-.727,2.846-1.508V186.263h5.363v44.781c1-.721,1.945-1.461,2.844-2.212V186.263h.476a53.416,53.416,0,0,0-8.1-5.686,78.954,78.954,0,0,0-20.125-7.924h-52.5A78.905,78.905,0,0,0,346.711,180.577Z" transform="translate(-329.343 -172.653)" fill="#e8a200"/>
          <path id="Path_4015" data-name="Path 4015" d="M335.6,184.724a29.363,29.363,0,0,0-2.019,3.322h-.827v19.63a28.011,28.011,0,0,0,2.846,5.149Z" transform="translate(-332.757 -164.056)" fill="#e8a200"/>
        </g>
        <ellipse id="Ellipse_14" data-name="Ellipse 14" cx="65.586" cy="37.866" rx="65.586" ry="37.866" fill="#fdd762"/>
        <path id="Path_4016" data-name="Path 4016" d="M411.954,208.882c18.855-10.886,23.812-26.748,14.9-40.262-24.606-7.186-55.414-4.854-75.974,7.015-18.855,10.886-23.811,26.749-14.9,40.262C360.587,223.085,391.394,220.753,411.954,208.882Z" transform="translate(-331.676 -164.545)" fill="#fff" opacity="0.2"/>
        <path id="Path_4017" data-name="Path 4017" d="M443.637,213.034c-25.613,14.786-67.139,14.786-92.751,0-12.378-7.145-18.755-16.437-19.172-25.8-.443,10.015,5.935,20.11,19.172,27.753,25.613,14.788,67.139,14.788,92.751,0,13.237-7.641,19.613-17.737,19.17-27.749C462.391,196.6,456.013,205.889,443.637,213.034Z" transform="translate(-331.675 -148.392)" fill="#fff" opacity="0.7"/>
        <ellipse id="Ellipse_15" data-name="Ellipse 15" cx="46.555" cy="26.878" rx="46.555" ry="26.878" transform="translate(19.031 10.987)" fill="#e8a200"/>
        <path id="Path_4018" data-name="Path 4018" d="M356.43,181.292c18.182-10.5,47.659-10.5,65.839,0,8.551,4.936,13.078,11.316,13.586,17.779.572-7.282-3.955-14.673-13.586-20.233-18.18-10.5-47.657-10.5-65.839,0-9.629,5.561-14.156,12.951-13.583,20.233C343.356,192.607,347.881,186.227,356.43,181.292Z" transform="translate(-323.765 -159.978)" fill="#f9bf30"/>
        <path id="Path_4019" data-name="Path 4019" d="M402.155,179.251l-3.609,1.031,1.026.408-3.524,2.034a19.9,19.9,0,0,0-8.932-2.087,17.09,17.09,0,0,0-8.6,2.327,13.385,13.385,0,0,0-2.6,1.883,5.52,5.52,0,0,0-1.392,1.991,6.673,6.673,0,0,0-.457,1.907,10.845,10.845,0,0,0,.08,2.063l.418,3.286a9.793,9.793,0,0,1,.084,2.3,4.121,4.121,0,0,1-.781,1.865,6.29,6.29,0,0,1-2.065,1.769,4.213,4.213,0,0,1-4.426.324q-1.474-.85-.75-2.121t3.928-3.168V192.6l-3.084,1.157-4.436-1.883c-2.717,1.668-4.464,3.241-5.26,4.726l-.507-.57v2.418h.01c.015,1.661,1.282,3.3,3.823,4.907l-1.753,1.012-2.382-1.091v2.466l2.139,1.236,4.176-2.411a18.246,18.246,0,0,0,8.448,1.685,16.768,16.768,0,0,0,7.967-2.142,13.463,13.463,0,0,0,2.827-2.1,6.779,6.779,0,0,0,1.567-2.284,8.619,8.619,0,0,0,.582-2.255,12.036,12.036,0,0,0-.009-2.394l-.354-3.18c-.055-.639-.084-1.1-.082-1.39a6.344,6.344,0,0,1,.156-1.205,2.8,2.8,0,0,1,.716-1.375,6.636,6.636,0,0,1,1.538-1.163,6.237,6.237,0,0,1,2.37-.757,3.8,3.8,0,0,1,2.368.4,2.18,2.18,0,0,1,.736.568.677.677,0,0,1,.13.413l-3.671.764v2.466l7.44,3.311c.608-.385,1.151-.741,1.628-1.074a15.781,15.781,0,0,0,1.5-1.2,8.909,8.909,0,0,0,1.245-1.344,4.725,4.725,0,0,0,.707-1.45,3.132,3.132,0,0,0,.122-.736l.009-.01v-2.594l-.947.2c-.014-.015-.021-.031-.034-.048a8.785,8.785,0,0,0-1.986-1.7l3.906-2.255Z" transform="translate(-313.674 -154.077)" fill="#f9bf30"/>
        <g id="Group_878" data-name="Group 878" transform="translate(43.293 23.914)">
          <path id="Path_4020" data-name="Path 4020" d="M356.967,203.8l4.135-2.387q-4.24-2.686-3.793-5.464t5.726-6.015l7.52,3.19q-3.2,1.9-3.928,3.168t.75,2.121a4.216,4.216,0,0,0,4.426-.322,6.294,6.294,0,0,0,2.065-1.77,4.121,4.121,0,0,0,.781-1.865,9.793,9.793,0,0,0-.084-2.3l-.418-3.284a10.866,10.866,0,0,1-.08-2.065,6.674,6.674,0,0,1,.457-1.907,5.5,5.5,0,0,1,1.392-1.99,13.315,13.315,0,0,1,2.6-1.885,17.09,17.09,0,0,1,8.6-2.327,19.877,19.877,0,0,1,8.932,2.089l3.926-2.269,2.181,1.26-3.906,2.255a8.784,8.784,0,0,1,1.986,1.7,4.28,4.28,0,0,1,.9,1.625,2.981,2.981,0,0,1-.053,1.567,4.752,4.752,0,0,1-.707,1.452,8.985,8.985,0,0,1-1.245,1.342,15.781,15.781,0,0,1-1.5,1.2c-.478.332-1.02.688-1.628,1.074l-7.44-3.311q.85-.516,1.392-.863c.36-.233.728-.488,1.1-.769a4.57,4.57,0,0,0,.81-.731,2.014,2.014,0,0,0,.354-.647.674.674,0,0,0-.116-.63,2.16,2.16,0,0,0-.736-.57,3.828,3.828,0,0,0-2.368-.4,6.237,6.237,0,0,0-2.37.757,6.685,6.685,0,0,0-1.538,1.163,2.8,2.8,0,0,0-.716,1.375,6.344,6.344,0,0,0-.156,1.205c0,.288.027.752.082,1.39l.354,3.18a12.036,12.036,0,0,1,.009,2.394,8.6,8.6,0,0,1-.582,2.255,6.8,6.8,0,0,1-1.567,2.286,13.459,13.459,0,0,1-2.827,2.1,16.768,16.768,0,0,1-7.967,2.142,18.246,18.246,0,0,1-8.448-1.685l-4.176,2.411Z" transform="translate(-356.967 -178.515)" fill="#fdd762"/>
        </g>
      </g>
      <g id="Group_882" data-name="Group 882" transform="translate(8.487 66.675)">
        <path id="Path_4021" data-name="Path 4021" d="M462.853,191.7h-2.669c-2.993-5.88-8.5-11.424-16.542-16.064-25.613-14.788-67.139-14.788-92.751,0-8.037,4.64-13.549,10.184-16.542,16.065h-2.668V202.41h0c0,9.689,6.4,19.38,19.211,26.773,25.613,14.788,67.139,14.79,92.751,0,12.807-7.393,19.209-17.086,19.209-26.775h0Z" transform="translate(-331.682 -153.833)" fill="#f9bf30"/>
        <path id="Path_4022" data-name="Path 4022" d="M383.043,165.073c-11.782,1.505-22.988,4.892-32.152,10.182-8.037,4.64-13.549,10.184-16.542,16.065h-2.668v10.711c0,9.689,6.4,19.38,19.211,26.773,9.164,5.291,20.368,8.679,32.15,10.184Z" transform="translate(-331.682 -153.456)" fill="#fdd762"/>
        <path id="Path_4023" data-name="Path 4023" d="M397.177,223.583c12.684-7.381,19.031-17.024,19.031-26.667V186.2h-2.669c-2.551-5.013-6.95-9.775-13.165-13.947h-3.2Z" transform="translate(-285.037 -148.339)" fill="#e8a200"/>
        <g id="Group_880" data-name="Group 880" transform="translate(1.841 13.878)" opacity="0.4">
          <path id="Path_4024" data-name="Path 4024" d="M407.5,181.387a31.273,31.273,0,0,0-2.846-4.116v32.184a31.058,31.058,0,0,0,2.846-4.123Z" transform="translate(-281.549 -158.646)" fill="#e8a200"/>
          <path id="Path_4025" data-name="Path 4025" d="M346.711,174.315a51.659,51.659,0,0,0-9.16,6.654v40.257c.892.818,1.832,1.625,2.844,2.411V180h5.363v47.282c.32.193.627.392.955.58.618.358,1.253.7,1.89,1.038V180h5.363v51.479q1.4.6,2.844,1.159V180h5.363V234.49q1.407.437,2.846.829V180h5.361v56.61q1.415.3,2.846.562V180h5.363v58.011q1.418.185,2.844.336V180h5.363v58.779c.947.053,1.9.089,2.846.118V180H395v58.928q1.423-.023,2.844-.084V180h5.363v58.5c.952-.086,1.9-.18,2.846-.289V180h5.363v57.449q1.431-.239,2.844-.52V180h5.363v55.716c.957-.243,1.906-.5,2.846-.774V180h5.363v53.2q1.441-.519,2.844-1.089V180h5.363V229.7c.967-.486,1.918-.986,2.846-1.51V180h5.363v44.781c1-.721,1.945-1.46,2.844-2.212V180h.476a53.421,53.421,0,0,0-8.1-5.686,78.828,78.828,0,0,0-20.125-7.924h-52.5A78.9,78.9,0,0,0,346.711,174.315Z" transform="translate(-329.343 -166.393)" fill="#e8a200"/>
          <path id="Path_4026" data-name="Path 4026" d="M335.6,178.464a29.5,29.5,0,0,0-2.019,3.32h-.827v19.632a28.067,28.067,0,0,0,2.846,5.149Z" transform="translate(-332.757 -157.796)" fill="#e8a200"/>
        </g>
        <ellipse id="Ellipse_16" data-name="Ellipse 16" cx="65.586" cy="37.866" rx="65.586" ry="37.866" fill="#fdd762"/>
        <path id="Path_4027" data-name="Path 4027" d="M411.954,202.621c18.855-10.884,23.812-26.748,14.9-40.26-24.606-7.188-55.414-4.856-75.974,7.015-18.855,10.886-23.811,26.748-14.9,40.262C360.587,216.824,391.394,214.492,411.954,202.621Z" transform="translate(-331.676 -158.285)" fill="#fff" opacity="0.2"/>
        <path id="Path_4028" data-name="Path 4028" d="M443.637,206.774c-25.613,14.786-67.139,14.786-92.751,0-12.378-7.145-18.755-16.437-19.172-25.8-.443,10.013,5.935,20.11,19.172,27.751,25.613,14.788,67.139,14.788,92.751,0,13.237-7.643,19.613-17.737,19.17-27.751C462.391,190.337,456.013,199.627,443.637,206.774Z" transform="translate(-331.674 -142.132)" fill="#fff" opacity="0.7"/>
        <ellipse id="Ellipse_17" data-name="Ellipse 17" cx="46.555" cy="26.878" rx="46.555" ry="26.878" transform="translate(19.031 10.987)" fill="#e8a200"/>
        <path id="Path_4029" data-name="Path 4029" d="M356.43,175.031c18.182-10.5,47.659-10.5,65.839,0,8.551,4.936,13.078,11.314,13.586,17.779.572-7.282-3.955-14.673-13.586-20.235-18.18-10.5-47.657-10.5-65.839,0-9.629,5.559-14.156,12.951-13.583,20.231C343.356,186.345,347.881,179.967,356.43,175.031Z" transform="translate(-323.765 -153.718)" fill="#f9bf30"/>
        <path id="Path_4030" data-name="Path 4030" d="M402.155,172.99l-3.609,1.032,1.026.408-3.524,2.034a19.874,19.874,0,0,0-8.932-2.087,17.072,17.072,0,0,0-8.6,2.327,13.313,13.313,0,0,0-2.6,1.883,5.529,5.529,0,0,0-1.392,1.99,6.7,6.7,0,0,0-.457,1.907,10.862,10.862,0,0,0,.08,2.065l.418,3.286a9.781,9.781,0,0,1,.084,2.3,4.127,4.127,0,0,1-.781,1.866,6.291,6.291,0,0,1-2.065,1.769q-2.5,1.441-4.426.324-1.474-.853-.75-2.123t3.928-3.168V186.34l-3.084,1.157-4.436-1.882c-2.717,1.668-4.464,3.241-5.26,4.724l-.507-.568v2.418h.01c.015,1.659,1.282,3.3,3.823,4.905l-1.753,1.014-2.382-1.091v2.466l2.139,1.234,4.176-2.411a18.247,18.247,0,0,0,8.448,1.686,16.806,16.806,0,0,0,7.967-2.142,13.46,13.46,0,0,0,2.827-2.1,6.785,6.785,0,0,0,1.567-2.286,8.585,8.585,0,0,0,.582-2.255,12.019,12.019,0,0,0-.009-2.392l-.354-3.18c-.055-.639-.084-1.1-.082-1.392a6.345,6.345,0,0,1,.156-1.205,2.8,2.8,0,0,1,.716-1.373,6.686,6.686,0,0,1,1.538-1.164,6.266,6.266,0,0,1,2.37-.755,3.815,3.815,0,0,1,2.368.4,2.2,2.2,0,0,1,.736.57.67.67,0,0,1,.13.413l-3.671.764v2.466l7.44,3.31q.912-.575,1.628-1.074a15.517,15.517,0,0,0,1.5-1.2,8.821,8.821,0,0,0,1.245-1.342,4.734,4.734,0,0,0,.707-1.452,3.1,3.1,0,0,0,.122-.736l.009-.009V179.26l-.947.2c-.014-.017-.021-.033-.034-.048a8.784,8.784,0,0,0-1.986-1.7l3.906-2.257Z" transform="translate(-313.674 -147.817)" fill="#f9bf30"/>
        <g id="Group_881" data-name="Group 881" transform="translate(43.293 23.914)">
          <path id="Path_4031" data-name="Path 4031" d="M356.967,197.541l4.135-2.388q-4.24-2.686-3.793-5.462t5.726-6.017l7.52,3.19q-3.2,1.9-3.928,3.168t.75,2.123a4.213,4.213,0,0,0,4.426-.324,6.291,6.291,0,0,0,2.065-1.769,4.127,4.127,0,0,0,.781-1.866,9.781,9.781,0,0,0-.084-2.3l-.418-3.286a10.862,10.862,0,0,1-.08-2.065,6.7,6.7,0,0,1,.457-1.907,5.529,5.529,0,0,1,1.392-1.99,13.385,13.385,0,0,1,2.6-1.883,17.09,17.09,0,0,1,8.6-2.327,19.875,19.875,0,0,1,8.932,2.087l3.926-2.267,2.181,1.258-3.906,2.257a8.785,8.785,0,0,1,1.986,1.7,4.28,4.28,0,0,1,.9,1.625,2.982,2.982,0,0,1-.053,1.567,4.724,4.724,0,0,1-.707,1.45,8.822,8.822,0,0,1-1.245,1.342,15.522,15.522,0,0,1-1.5,1.2q-.716.5-1.628,1.074l-7.44-3.31q.85-.516,1.392-.865c.36-.231.728-.488,1.1-.767a4.5,4.5,0,0,0,.81-.733,1.979,1.979,0,0,0,.354-.647.676.676,0,0,0-.116-.63,2.2,2.2,0,0,0-.736-.57,3.816,3.816,0,0,0-2.368-.4,6.265,6.265,0,0,0-2.37.755,6.686,6.686,0,0,0-1.538,1.164,2.8,2.8,0,0,0-.716,1.373,6.342,6.342,0,0,0-.156,1.207c0,.288.027.752.082,1.39l.354,3.18a12.018,12.018,0,0,1,.009,2.392,8.613,8.613,0,0,1-.582,2.257,6.8,6.8,0,0,1-1.567,2.284,13.462,13.462,0,0,1-2.827,2.1,16.768,16.768,0,0,1-7.967,2.142,18.247,18.247,0,0,1-8.448-1.686l-4.176,2.411Z" transform="translate(-356.967 -172.255)" fill="#fdd762"/>
        </g>
      </g>
      <g id="Group_885" data-name="Group 885" transform="translate(8.488 55.956)">
        <path id="Path_4032" data-name="Path 4032" d="M462.853,185.438h-2.669c-2.993-5.881-8.5-11.425-16.542-16.064-25.613-14.788-67.139-14.788-92.751,0-8.037,4.64-13.549,10.184-16.542,16.065h-2.668v10.71h0c0,9.691,6.4,19.382,19.211,26.775,25.613,14.788,67.139,14.788,92.751,0,12.807-7.395,19.209-17.086,19.209-26.777h0Z" transform="translate(-331.682 -147.572)" fill="#f9bf30"/>
        <path id="Path_4033" data-name="Path 4033" d="M383.043,158.813c-11.782,1.5-22.988,4.892-32.152,10.182-8.037,4.64-13.549,10.184-16.542,16.065h-2.668v10.71c0,9.691,6.4,19.382,19.211,26.775,9.164,5.291,20.368,8.679,32.15,10.182Z" transform="translate(-331.682 -147.195)" fill="#fdd762"/>
        <path id="Path_4034" data-name="Path 4034" d="M397.177,217.323c12.684-7.381,19.031-17.024,19.031-26.669v-10.71h-2.669c-2.551-5.013-6.95-9.777-13.165-13.947h-3.2Z" transform="translate(-285.037 -142.079)" fill="#e8a200"/>
        <g id="Group_883" data-name="Group 883" transform="translate(1.841 13.876)" opacity="0.4">
          <path id="Path_4035" data-name="Path 4035" d="M407.5,175.128a31.4,31.4,0,0,0-2.846-4.118V203.2a31.17,31.17,0,0,0,2.846-4.123Z" transform="translate(-281.549 -152.385)" fill="#e8a200"/>
          <path id="Path_4036" data-name="Path 4036" d="M346.711,168.056a51.662,51.662,0,0,0-9.16,6.654v40.257c.892.818,1.832,1.625,2.844,2.411V173.744h5.363v47.282c.32.193.627.39.955.58.618.356,1.253.7,1.89,1.038v-48.9h5.363v51.477q1.4.6,2.844,1.161V173.744h5.363v54.487q1.407.434,2.846.827V173.744h5.361v56.61q1.415.3,2.846.562V173.744h5.363v58.011q1.418.185,2.844.334V173.744h5.363v58.779c.947.053,1.9.089,2.846.118v-58.9H395V232.67q1.423-.023,2.844-.082V173.744h5.363v58.5c.952-.086,1.9-.18,2.846-.289V173.744h5.363v57.447q1.431-.239,2.844-.519V173.744h5.363V229.46q1.436-.367,2.846-.776V173.744h5.363v53.2q1.441-.521,2.844-1.089V173.744h5.363v49.693q1.451-.729,2.846-1.51V173.744h5.363v44.779c1-.719,1.945-1.459,2.844-2.21V173.744h.476a53.178,53.178,0,0,0-8.1-5.686,78.9,78.9,0,0,0-20.125-7.926h-52.5A78.9,78.9,0,0,0,346.711,168.056Z" transform="translate(-329.343 -160.132)" fill="#e8a200"/>
          <path id="Path_4037" data-name="Path 4037" d="M335.6,172.2a29.343,29.343,0,0,0-2.019,3.32h-.827v19.632A28,28,0,0,0,335.6,200.3Z" transform="translate(-332.757 -151.535)" fill="#e8a200"/>
        </g>
        <ellipse id="Ellipse_18" data-name="Ellipse 18" cx="65.586" cy="37.866" rx="65.586" ry="37.866" fill="#fdd762"/>
        <path id="Path_4038" data-name="Path 4038" d="M411.954,196.361c18.855-10.886,23.812-26.748,14.9-40.26-24.606-7.188-55.414-4.856-75.974,7.015-18.855,10.886-23.811,26.748-14.9,40.262C360.587,210.564,391.394,208.232,411.954,196.361Z" transform="translate(-331.676 -152.025)" fill="#fff" opacity="0.2"/>
        <path id="Path_4039" data-name="Path 4039" d="M443.637,200.513c-25.613,14.788-67.139,14.788-92.751,0-12.378-7.145-18.755-16.435-19.172-25.8-.443,10.015,5.935,20.11,19.172,27.753,25.613,14.788,67.139,14.788,92.751,0,13.237-7.642,19.613-17.737,19.17-27.749C462.391,184.078,456.013,193.368,443.637,200.513Z" transform="translate(-331.675 -135.872)" fill="#fff" opacity="0.7"/>
        <ellipse id="Ellipse_19" data-name="Ellipse 19" cx="46.555" cy="26.878" rx="46.555" ry="26.878" transform="translate(19.031 10.988)" fill="#e8a200"/>
        <path id="Path_4040" data-name="Path 4040" d="M356.43,168.771c18.182-10.5,47.659-10.5,65.839,0,8.551,4.936,13.078,11.316,13.586,17.779.572-7.282-3.955-14.672-13.586-20.233-18.18-10.5-47.657-10.5-65.839,0-9.629,5.559-14.156,12.949-13.583,20.231C343.356,180.086,347.881,173.708,356.43,168.771Z" transform="translate(-323.765 -147.457)" fill="#f9bf30"/>
        <path id="Path_4041" data-name="Path 4041" d="M402.155,166.73l-3.609,1.031,1.026.408-3.524,2.036a19.877,19.877,0,0,0-8.932-2.089,17.09,17.09,0,0,0-8.6,2.327,13.389,13.389,0,0,0-2.6,1.885,5.5,5.5,0,0,0-1.392,1.99,6.687,6.687,0,0,0-.457,1.907,10.867,10.867,0,0,0,.08,2.065l.418,3.286a9.779,9.779,0,0,1,.084,2.3,4.127,4.127,0,0,1-.781,1.866,6.31,6.31,0,0,1-2.065,1.769q-2.5,1.438-4.426.322-1.474-.85-.75-2.121t3.928-3.168V180.08l-3.084,1.157-4.436-1.882c-2.717,1.668-4.464,3.241-5.26,4.724l-.507-.57v2.418l.01,0c.015,1.659,1.282,3.294,3.823,4.905l-1.753,1.012-2.382-1.091v2.466l2.139,1.236,4.176-2.411a18.224,18.224,0,0,0,8.448,1.685,16.768,16.768,0,0,0,7.967-2.142,13.458,13.458,0,0,0,2.827-2.1,6.785,6.785,0,0,0,1.567-2.286,8.6,8.6,0,0,0,.582-2.255,12.019,12.019,0,0,0-.009-2.392l-.354-3.18c-.055-.64-.084-1.1-.082-1.392a6.344,6.344,0,0,1,.156-1.205,2.8,2.8,0,0,1,.716-1.375,6.732,6.732,0,0,1,1.538-1.163,6.236,6.236,0,0,1,2.37-.755,3.816,3.816,0,0,1,2.368.4,2.181,2.181,0,0,1,.736.57.669.669,0,0,1,.13.411l-3.671.765V178.1l7.44,3.311c.608-.385,1.151-.741,1.628-1.074a15.786,15.786,0,0,0,1.5-1.2,8.987,8.987,0,0,0,1.245-1.342,4.733,4.733,0,0,0,.707-1.452,3.132,3.132,0,0,0,.122-.736l.009-.009V173l-.947.2c-.014-.017-.021-.033-.034-.05a8.786,8.786,0,0,0-1.986-1.7l3.906-2.255Z" transform="translate(-313.674 -141.557)" fill="#f9bf30"/>
        <g id="Group_884" data-name="Group 884" transform="translate(43.293 23.915)">
          <path id="Path_4042" data-name="Path 4042" d="M356.967,191.279l4.135-2.387q-4.24-2.686-3.793-5.464t5.726-6.015l7.52,3.19q-3.2,1.9-3.928,3.168t.75,2.123q1.931,1.117,4.426-.324a6.311,6.311,0,0,0,2.065-1.769,4.127,4.127,0,0,0,.781-1.866,9.779,9.779,0,0,0-.084-2.3l-.418-3.286a10.867,10.867,0,0,1-.08-2.065,6.7,6.7,0,0,1,.457-1.907,5.5,5.5,0,0,1,1.392-1.99,13.387,13.387,0,0,1,2.6-1.885,17.107,17.107,0,0,1,8.6-2.327,19.877,19.877,0,0,1,8.932,2.089l3.926-2.267,2.181,1.258-3.906,2.255a8.785,8.785,0,0,1,1.986,1.7,4.3,4.3,0,0,1,.9,1.627,2.975,2.975,0,0,1-.053,1.565,4.734,4.734,0,0,1-.707,1.452,8.9,8.9,0,0,1-1.245,1.342,15.781,15.781,0,0,1-1.5,1.2c-.478.332-1.02.688-1.628,1.074l-7.44-3.31q.85-.516,1.392-.865c.36-.231.728-.488,1.1-.767a4.634,4.634,0,0,0,.81-.733,1.98,1.98,0,0,0,.354-.647.676.676,0,0,0-.116-.63,2.181,2.181,0,0,0-.736-.57,3.816,3.816,0,0,0-2.368-.4,6.236,6.236,0,0,0-2.37.755,6.687,6.687,0,0,0-1.538,1.164,2.79,2.79,0,0,0-.716,1.373,6.344,6.344,0,0,0-.156,1.205c0,.288.027.752.082,1.392l.354,3.18a12.019,12.019,0,0,1,.009,2.392,8.6,8.6,0,0,1-.582,2.255,6.785,6.785,0,0,1-1.567,2.286,13.52,13.52,0,0,1-2.827,2.1,16.786,16.786,0,0,1-7.967,2.14,18.224,18.224,0,0,1-8.448-1.685l-4.176,2.411Z" transform="translate(-356.967 -165.995)" fill="#fdd762"/>
        </g>
      </g>
      <g id="Group_888" data-name="Group 888" transform="translate(8.487 45.237)">
        <path id="Path_4043" data-name="Path 4043" d="M462.853,179.179h-2.669c-2.993-5.881-8.5-11.425-16.542-16.065-25.613-14.788-67.139-14.788-92.751,0-8.037,4.638-13.549,10.184-16.542,16.065h-2.668v10.71h0c0,9.691,6.4,19.38,19.211,26.775,25.613,14.786,67.139,14.788,92.751,0,12.807-7.393,19.209-17.084,19.209-26.775h0Z" transform="translate(-331.682 -141.312)" fill="#f9bf30"/>
        <path id="Path_4044" data-name="Path 4044" d="M383.043,152.552c-11.782,1.505-22.988,4.892-32.152,10.184-8.037,4.638-13.549,10.184-16.542,16.065h-2.668v10.71c0,9.691,6.4,19.38,19.211,26.775,9.164,5.291,20.368,8.677,32.15,10.182Z" transform="translate(-331.682 -140.935)" fill="#fdd762"/>
        <path id="Path_4045" data-name="Path 4045" d="M397.177,211.062c12.684-7.381,19.031-17.023,19.031-26.667v-10.71h-2.669c-2.551-5.013-6.95-9.777-13.165-13.949h-3.2Z" transform="translate(-285.036 -135.819)" fill="#e8a200"/>
        <g id="Group_886" data-name="Group 886" transform="translate(1.841 13.877)" opacity="0.4">
          <path id="Path_4046" data-name="Path 4046" d="M407.5,168.868a31.287,31.287,0,0,0-2.846-4.118v32.186a31.282,31.282,0,0,0,2.846-4.123Z" transform="translate(-281.549 -146.125)" fill="#e8a200"/>
          <path id="Path_4047" data-name="Path 4047" d="M346.711,161.8a51.572,51.572,0,0,0-9.16,6.652v40.259c.892.818,1.832,1.625,2.844,2.411V167.482h5.363v47.284c.32.193.627.39.955.58.618.356,1.253.7,1.89,1.036v-48.9h5.363v51.479q1.4.6,2.844,1.159V167.482h5.363v54.489q1.407.434,2.846.827V167.482h5.361v56.612q1.415.3,2.846.562V167.482h5.363v58.012q1.418.185,2.844.334V167.482h5.363v58.781c.947.051,1.9.089,2.846.118v-58.9H395v58.928q1.423-.023,2.844-.084V167.482h5.363v58.5q1.428-.128,2.846-.291V167.482h5.363v57.449q1.431-.239,2.844-.519v-56.93h5.363V223.2q1.436-.365,2.846-.774V167.482h5.363v53.2q1.441-.521,2.844-1.089V167.482h5.363v49.693q1.451-.727,2.846-1.508V167.482h5.363v44.781c1-.721,1.945-1.461,2.844-2.212V167.482h.476a53.419,53.419,0,0,0-8.1-5.686,78.892,78.892,0,0,0-20.125-7.924h-52.5A78.906,78.906,0,0,0,346.711,161.8Z" transform="translate(-329.343 -153.872)" fill="#e8a200"/>
          <path id="Path_4048" data-name="Path 4048" d="M335.6,165.943a29.367,29.367,0,0,0-2.019,3.322h-.827v19.63a28.012,28.012,0,0,0,2.846,5.149Z" transform="translate(-332.757 -145.275)" fill="#e8a200"/>
        </g>
        <ellipse id="Ellipse_20" data-name="Ellipse 20" cx="65.586" cy="37.866" rx="65.586" ry="37.866" fill="#fdd762"/>
        <path id="Path_4049" data-name="Path 4049" d="M411.954,190.1c18.855-10.886,23.812-26.749,14.9-40.262-24.606-7.186-55.414-4.854-75.974,7.015-18.855,10.886-23.811,26.749-14.9,40.262C360.587,204.3,391.394,201.972,411.954,190.1Z" transform="translate(-331.676 -145.764)" fill="#fff" opacity="0.2"/>
        <path id="Path_4050" data-name="Path 4050" d="M443.637,194.253c-25.613,14.788-67.139,14.786-92.751,0-12.378-7.145-18.755-16.437-19.172-25.8-.443,10.015,5.935,20.11,19.172,27.753,25.613,14.786,67.139,14.786,92.751,0,13.237-7.642,19.613-17.737,19.17-27.749C462.391,177.818,456.013,187.108,443.637,194.253Z" transform="translate(-331.674 -129.611)" fill="#fff" opacity="0.7"/>
        <path id="Path_4051" data-name="Path 4051" d="M422.272,198.068c-18.182,10.5-47.657,10.5-65.839,0s-18.182-27.515,0-38.012,47.659-10.5,65.839,0S440.452,187.573,422.272,198.068Z" transform="translate(-323.766 -141.197)" fill="#e8a200"/>
        <path id="Path_4052" data-name="Path 4052" d="M356.43,162.511c18.182-10.5,47.659-10.5,65.839,0,8.551,4.936,13.078,11.316,13.586,17.779.572-7.282-3.955-14.673-13.586-20.233-18.18-10.5-47.657-10.5-65.839,0-9.629,5.561-14.156,12.951-13.583,20.233C343.356,173.824,347.881,167.446,356.43,162.511Z" transform="translate(-323.765 -141.197)" fill="#f9bf30"/>
        <path id="Path_4053" data-name="Path 4053" d="M402.155,160.47l-3.609,1.031,1.026.407-3.524,2.034a19.9,19.9,0,0,0-8.932-2.087,17.089,17.089,0,0,0-8.6,2.327,13.385,13.385,0,0,0-2.6,1.883,5.52,5.52,0,0,0-1.392,1.991,6.674,6.674,0,0,0-.457,1.907,10.845,10.845,0,0,0,.08,2.063l.418,3.286a9.793,9.793,0,0,1,.084,2.3,4.121,4.121,0,0,1-.781,1.865,6.29,6.29,0,0,1-2.065,1.769q-2.5,1.441-4.426.324-1.474-.85-.75-2.121t3.928-3.168V173.82l-3.084,1.157-4.436-1.883c-2.717,1.668-4.464,3.241-5.26,4.726l-.507-.57v2.418h.01c.015,1.661,1.282,3.3,3.823,4.907l-1.753,1.012-2.382-1.091v2.466l2.139,1.236,4.176-2.411a18.246,18.246,0,0,0,8.448,1.685,16.768,16.768,0,0,0,7.967-2.142,13.52,13.52,0,0,0,2.827-2.1,6.8,6.8,0,0,0,1.567-2.286,8.618,8.618,0,0,0,.582-2.255,12.036,12.036,0,0,0-.009-2.394l-.354-3.18c-.055-.639-.084-1.1-.082-1.39a6.344,6.344,0,0,1,.156-1.205,2.8,2.8,0,0,1,.716-1.375,6.684,6.684,0,0,1,1.538-1.163,6.237,6.237,0,0,1,2.37-.757,3.8,3.8,0,0,1,2.368.4,2.16,2.16,0,0,1,.736.57.666.666,0,0,1,.13.411l-3.671.764v2.466l7.44,3.311c.608-.385,1.151-.741,1.628-1.074a15.785,15.785,0,0,0,1.5-1.2,8.908,8.908,0,0,0,1.245-1.344,4.725,4.725,0,0,0,.707-1.45,3.132,3.132,0,0,0,.122-.736l.009-.01v-2.594l-.947.2c-.014-.015-.021-.031-.034-.048a8.783,8.783,0,0,0-1.986-1.7l3.906-2.255Z" transform="translate(-313.674 -135.296)" fill="#f9bf30"/>
        <g id="Group_887" data-name="Group 887" transform="translate(43.293 23.914)">
          <path id="Path_4054" data-name="Path 4054" d="M356.967,185.02l4.135-2.387q-4.24-2.686-3.793-5.464t5.726-6.015l7.52,3.19q-3.2,1.9-3.928,3.168t.75,2.121a4.216,4.216,0,0,0,4.426-.322,6.294,6.294,0,0,0,2.065-1.77,4.121,4.121,0,0,0,.781-1.865,9.793,9.793,0,0,0-.084-2.3l-.418-3.286a10.845,10.845,0,0,1-.08-2.063,6.673,6.673,0,0,1,.457-1.907,5.52,5.52,0,0,1,1.392-1.991,13.384,13.384,0,0,1,2.6-1.883,17.089,17.089,0,0,1,8.6-2.327A19.876,19.876,0,0,1,396.048,162l3.926-2.269,2.181,1.26-3.906,2.255a8.784,8.784,0,0,1,1.986,1.7,4.28,4.28,0,0,1,.9,1.625,2.981,2.981,0,0,1-.053,1.567,4.753,4.753,0,0,1-.707,1.452,8.986,8.986,0,0,1-1.245,1.342,15.786,15.786,0,0,1-1.5,1.2c-.478.332-1.02.688-1.628,1.074l-7.44-3.311q.85-.516,1.392-.865c.36-.231.728-.486,1.1-.767a4.571,4.571,0,0,0,.81-.731,2.015,2.015,0,0,0,.354-.647.674.674,0,0,0-.116-.63,2.16,2.16,0,0,0-.736-.57,3.816,3.816,0,0,0-2.368-.4,6.236,6.236,0,0,0-2.37.757,6.685,6.685,0,0,0-1.538,1.163,2.8,2.8,0,0,0-.716,1.375,6.344,6.344,0,0,0-.156,1.205c0,.288.027.752.082,1.39l.354,3.18a12.036,12.036,0,0,1,.009,2.394A8.618,8.618,0,0,1,384.09,179a6.8,6.8,0,0,1-1.567,2.286,13.518,13.518,0,0,1-2.827,2.1,16.768,16.768,0,0,1-7.967,2.142,18.246,18.246,0,0,1-8.448-1.685l-4.176,2.411Z" transform="translate(-356.967 -159.734)" fill="#fdd762"/>
        </g>
      </g>
      <g id="Group_891" data-name="Group 891" transform="translate(8.488 34.519)">
        <path id="Path_4055" data-name="Path 4055" d="M462.853,172.917h-2.669c-2.993-5.88-8.5-11.425-16.542-16.064-25.613-14.788-67.139-14.788-92.751,0-8.037,4.64-13.549,10.184-16.542,16.065h-2.668v10.71h0c0,9.691,6.4,19.382,19.211,26.775,25.613,14.788,67.139,14.79,92.751,0,12.807-7.393,19.209-17.086,19.209-26.777h0Z" transform="translate(-331.682 -135.052)" fill="#f9bf30"/>
        <path id="Path_4056" data-name="Path 4056" d="M383.043,146.292c-11.782,1.505-22.988,4.892-32.152,10.182-8.037,4.64-13.549,10.184-16.542,16.065h-2.668v10.71c0,9.691,6.4,19.382,19.211,26.775,9.164,5.291,20.368,8.679,32.15,10.184Z" transform="translate(-331.682 -134.675)" fill="#fdd762"/>
        <path id="Path_4057" data-name="Path 4057" d="M397.177,204.8c12.684-7.381,19.031-17.024,19.031-26.669v-10.71h-2.669c-2.551-5.013-6.95-9.775-13.165-13.947h-3.2Z" transform="translate(-285.037 -129.558)" fill="#e8a200"/>
        <g id="Group_889" data-name="Group 889" transform="translate(1.841 13.878)" opacity="0.4">
          <path id="Path_4058" data-name="Path 4058" d="M407.5,162.606a31.274,31.274,0,0,0-2.846-4.116v32.184a31.056,31.056,0,0,0,2.846-4.123Z" transform="translate(-281.549 -139.865)" fill="#e8a200"/>
          <path id="Path_4059" data-name="Path 4059" d="M346.711,155.534a51.659,51.659,0,0,0-9.16,6.654v40.257c.892.818,1.832,1.625,2.844,2.411V161.222h5.363v47.284c.32.192.627.389.955.579.618.358,1.253.7,1.89,1.038v-48.9h5.363V212.7q1.4.6,2.844,1.159V161.222h5.363v54.487q1.407.437,2.846.829V161.222h5.361v56.61q1.415.3,2.846.562V161.222h5.363v58.012q1.418.182,2.844.334V161.222h5.363V220c.947.051,1.9.087,2.846.116v-58.9H395V220.15q1.423-.023,2.844-.084V161.222h5.363v58.5c.952-.086,1.9-.18,2.846-.289V161.222h5.363v57.449q1.431-.239,2.844-.521V161.222h5.363v55.716c.957-.243,1.906-.5,2.846-.774V161.222h5.363v53.2q1.441-.521,2.844-1.089V161.222h5.363v49.693q1.451-.727,2.846-1.51V161.222h5.363V206c1-.721,1.945-1.46,2.844-2.212V161.222h.476a53.417,53.417,0,0,0-8.1-5.686,78.892,78.892,0,0,0-20.125-7.924h-52.5A78.966,78.966,0,0,0,346.711,155.534Z" transform="translate(-329.343 -147.612)" fill="#e8a200"/>
          <path id="Path_4060" data-name="Path 4060" d="M335.6,159.683a29.5,29.5,0,0,0-2.019,3.32h-.827v19.632a28.067,28.067,0,0,0,2.846,5.149Z" transform="translate(-332.757 -139.015)" fill="#e8a200"/>
        </g>
        <ellipse id="Ellipse_21" data-name="Ellipse 21" cx="65.586" cy="37.866" rx="65.586" ry="37.866" fill="#fdd762"/>
        <path id="Path_4061" data-name="Path 4061" d="M411.954,183.84c18.855-10.884,23.812-26.748,14.9-40.26-24.606-7.188-55.414-4.856-75.974,7.015-18.855,10.886-23.811,26.748-14.9,40.262C360.587,198.043,391.394,195.711,411.954,183.84Z" transform="translate(-331.676 -139.504)" fill="#fff" opacity="0.2"/>
        <path id="Path_4062" data-name="Path 4062" d="M443.637,187.993c-25.613,14.786-67.139,14.786-92.751,0-12.378-7.145-18.755-16.437-19.172-25.8-.443,10.013,5.935,20.11,19.172,27.751,25.613,14.788,67.139,14.788,92.751,0,13.237-7.641,19.613-17.737,19.17-27.751C462.391,171.556,456.013,180.846,443.637,187.993Z" transform="translate(-331.675 -123.351)" fill="#fff" opacity="0.7"/>
        <ellipse id="Ellipse_22" data-name="Ellipse 22" cx="46.555" cy="26.878" rx="46.555" ry="26.878" transform="translate(19.031 10.987)" fill="#e8a200"/>
        <path id="Path_4063" data-name="Path 4063" d="M356.43,156.25c18.182-10.5,47.659-10.5,65.839,0,8.551,4.936,13.078,11.314,13.586,17.779.572-7.282-3.955-14.673-13.586-20.235-18.18-10.5-47.657-10.5-65.839,0-9.629,5.559-14.156,12.951-13.583,20.231C343.356,167.564,347.881,161.186,356.43,156.25Z" transform="translate(-323.765 -134.937)" fill="#f9bf30"/>
        <path id="Path_4064" data-name="Path 4064" d="M402.155,154.209l-3.609,1.032,1.026.408-3.524,2.034a19.875,19.875,0,0,0-8.932-2.087,17.09,17.09,0,0,0-8.6,2.327,13.316,13.316,0,0,0-2.6,1.883,5.529,5.529,0,0,0-1.392,1.99,6.7,6.7,0,0,0-.457,1.907,10.862,10.862,0,0,0,.08,2.065l.418,3.286a9.781,9.781,0,0,1,.084,2.3,4.127,4.127,0,0,1-.781,1.866,6.291,6.291,0,0,1-2.065,1.769,4.213,4.213,0,0,1-4.426.324q-1.474-.853-.75-2.123t3.928-3.168v-2.466l-3.084,1.157-4.436-1.882c-2.717,1.668-4.464,3.241-5.26,4.724l-.507-.568v2.418h.01c.015,1.659,1.282,3.3,3.823,4.905l-1.753,1.014-2.382-1.091V180.7l2.139,1.234,4.176-2.411a18.246,18.246,0,0,0,8.448,1.686,16.787,16.787,0,0,0,7.967-2.142,13.461,13.461,0,0,0,2.827-2.1,6.785,6.785,0,0,0,1.567-2.286,8.584,8.584,0,0,0,.582-2.255,12.019,12.019,0,0,0-.009-2.392l-.354-3.18c-.055-.64-.084-1.1-.082-1.392a6.344,6.344,0,0,1,.156-1.205,2.79,2.79,0,0,1,.716-1.373,6.686,6.686,0,0,1,1.538-1.164,6.265,6.265,0,0,1,2.37-.755,3.816,3.816,0,0,1,2.368.4,2.2,2.2,0,0,1,.736.57.671.671,0,0,1,.13.413l-3.671.764v2.466l7.44,3.31q.912-.575,1.628-1.074a15.519,15.519,0,0,0,1.5-1.2,8.824,8.824,0,0,0,1.245-1.342,4.744,4.744,0,0,0,.707-1.45,3.132,3.132,0,0,0,.122-.738l.009-.009v-2.594l-.947.2c-.014-.017-.021-.033-.034-.048a8.831,8.831,0,0,0-1.986-1.7l3.906-2.255Z" transform="translate(-313.674 -129.036)" fill="#f9bf30"/>
        <g id="Group_890" data-name="Group 890" transform="translate(43.293 23.914)">
          <path id="Path_4065" data-name="Path 4065" d="M356.967,178.76l4.135-2.387q-4.24-2.689-3.793-5.464t5.726-6.017l7.52,3.19q-3.2,1.9-3.928,3.169t.75,2.121q1.931,1.117,4.426-.324a6.291,6.291,0,0,0,2.065-1.769,4.129,4.129,0,0,0,.781-1.865,9.793,9.793,0,0,0-.084-2.3l-.418-3.286a10.862,10.862,0,0,1-.08-2.065,6.7,6.7,0,0,1,.457-1.907,5.529,5.529,0,0,1,1.392-1.99,13.315,13.315,0,0,1,2.6-1.883,17.09,17.09,0,0,1,8.6-2.327,19.9,19.9,0,0,1,8.932,2.087l3.926-2.267,2.181,1.258-3.906,2.257a8.784,8.784,0,0,1,1.986,1.7,4.28,4.28,0,0,1,.9,1.625,2.982,2.982,0,0,1-.053,1.567,4.724,4.724,0,0,1-.707,1.45,8.824,8.824,0,0,1-1.245,1.342,15.517,15.517,0,0,1-1.5,1.2q-.716.5-1.628,1.074l-7.44-3.31q.85-.516,1.392-.865c.36-.231.728-.488,1.1-.767a4.5,4.5,0,0,0,.81-.733,1.979,1.979,0,0,0,.354-.647.676.676,0,0,0-.116-.63,2.2,2.2,0,0,0-.736-.57,3.816,3.816,0,0,0-2.368-.4,6.266,6.266,0,0,0-2.37.755,6.686,6.686,0,0,0-1.538,1.164,2.8,2.8,0,0,0-.716,1.375,6.328,6.328,0,0,0-.156,1.205c0,.286.027.752.082,1.39l.354,3.18a12.018,12.018,0,0,1,.009,2.392,8.613,8.613,0,0,1-.582,2.257,6.8,6.8,0,0,1-1.567,2.284,13.461,13.461,0,0,1-2.827,2.1,16.767,16.767,0,0,1-7.967,2.142,18.246,18.246,0,0,1-8.448-1.686l-4.176,2.411Z" transform="translate(-356.967 -153.474)" fill="#fdd762"/>
        </g>
      </g>
      <g id="Group_894" data-name="Group 894" transform="translate(8.488 23.8)">
        <path id="Path_4066" data-name="Path 4066" d="M462.853,166.657h-2.669c-2.993-5.881-8.5-11.425-16.542-16.064-25.613-14.788-67.139-14.788-92.751,0-8.037,4.64-13.549,10.184-16.542,16.065h-2.668v10.71h0c0,9.691,6.4,19.382,19.211,26.775,25.613,14.788,67.139,14.788,92.751,0,12.807-7.395,19.209-17.086,19.209-26.777h0Z" transform="translate(-331.682 -128.791)" fill="#f9bf30"/>
        <path id="Path_4067" data-name="Path 4067" d="M383.043,140.032c-11.782,1.5-22.988,4.892-32.152,10.182-8.037,4.64-13.549,10.184-16.542,16.065h-2.668v10.71c0,9.691,6.4,19.382,19.211,26.775,9.164,5.291,20.368,8.677,32.15,10.182Z" transform="translate(-331.682 -128.414)" fill="#fdd762"/>
        <path id="Path_4068" data-name="Path 4068" d="M397.177,198.542c12.684-7.381,19.031-17.024,19.031-26.669v-10.71h-2.669c-2.551-5.013-6.95-9.777-13.165-13.947h-3.2Z" transform="translate(-285.037 -123.298)" fill="#e8a200"/>
        <g id="Group_892" data-name="Group 892" transform="translate(1.841 13.876)" opacity="0.4">
          <path id="Path_4069" data-name="Path 4069" d="M407.5,156.347a31.4,31.4,0,0,0-2.846-4.118v32.186a31.167,31.167,0,0,0,2.846-4.123Z" transform="translate(-281.549 -133.604)" fill="#e8a200"/>
          <path id="Path_4070" data-name="Path 4070" d="M346.711,149.275a51.659,51.659,0,0,0-9.16,6.654v40.257c.892.818,1.832,1.625,2.844,2.411V154.963h5.363v47.282c.32.193.627.39.955.58.618.356,1.253.7,1.89,1.038v-48.9h5.363V206.44q1.4.6,2.844,1.161V154.963h5.363V209.45q1.407.434,2.846.827V154.963h5.361v56.61q1.415.3,2.846.562V154.963h5.363v58.011q1.418.185,2.844.334V154.963h5.363v58.779c.947.053,1.9.089,2.846.118v-58.9H395v58.927c.949-.015,1.9-.045,2.844-.082V154.963h5.363v58.5c.952-.086,1.9-.18,2.846-.289V154.963h5.363V212.41q1.431-.239,2.844-.519V154.963h5.363v55.716q1.436-.367,2.846-.776V154.963h5.363v53.2q1.441-.521,2.844-1.089V154.963h5.363v49.691q1.451-.727,2.846-1.508V154.963h5.363v44.779c1-.719,1.945-1.459,2.844-2.21V154.963h.476a53.176,53.176,0,0,0-8.1-5.686,78.894,78.894,0,0,0-20.125-7.926h-52.5A78.906,78.906,0,0,0,346.711,149.275Z" transform="translate(-329.343 -141.351)" fill="#e8a200"/>
          <path id="Path_4071" data-name="Path 4071" d="M335.6,153.423a29.346,29.346,0,0,0-2.019,3.32h-.827v19.632a28,28,0,0,0,2.846,5.147Z" transform="translate(-332.757 -132.753)" fill="#e8a200"/>
        </g>
        <ellipse id="Ellipse_23" data-name="Ellipse 23" cx="65.586" cy="37.866" rx="65.586" ry="37.866" fill="#fdd762"/>
        <path id="Path_4072" data-name="Path 4072" d="M411.954,177.58c18.855-10.886,23.812-26.748,14.9-40.26-24.606-7.188-55.414-4.856-75.974,7.015-18.855,10.886-23.811,26.748-14.9,40.262C360.587,191.783,391.394,189.451,411.954,177.58Z" transform="translate(-331.676 -133.244)" fill="#fff" opacity="0.2"/>
        <path id="Path_4073" data-name="Path 4073" d="M443.637,181.732c-25.613,14.788-67.139,14.786-92.751,0-12.378-7.147-18.755-16.437-19.172-25.8-.443,10.015,5.935,20.11,19.172,27.753,25.613,14.788,67.139,14.788,92.751,0,13.237-7.642,19.613-17.737,19.17-27.749C462.391,165.3,456.013,174.587,443.637,181.732Z" transform="translate(-331.675 -117.091)" fill="#fff" opacity="0.7"/>
        <ellipse id="Ellipse_24" data-name="Ellipse 24" cx="46.555" cy="26.878" rx="46.555" ry="26.878" transform="translate(19.031 10.988)" fill="#e8a200"/>
        <path id="Path_4074" data-name="Path 4074" d="M356.43,149.99c18.182-10.5,47.659-10.5,65.839,0,8.551,4.936,13.078,11.316,13.586,17.781.572-7.284-3.955-14.673-13.586-20.235-18.18-10.5-47.657-10.5-65.839,0-9.629,5.561-14.156,12.951-13.583,20.233C343.356,161.3,347.881,154.927,356.43,149.99Z" transform="translate(-323.765 -128.676)" fill="#f9bf30"/>
        <path id="Path_4075" data-name="Path 4075" d="M402.155,147.949l-3.609,1.032,1.026.406-3.524,2.036a19.877,19.877,0,0,0-8.932-2.089,17.09,17.09,0,0,0-8.6,2.327,13.387,13.387,0,0,0-2.6,1.885,5.5,5.5,0,0,0-1.392,1.99,6.687,6.687,0,0,0-.457,1.907,10.866,10.866,0,0,0,.08,2.065l.418,3.286a9.779,9.779,0,0,1,.084,2.3,4.134,4.134,0,0,1-.781,1.866,6.311,6.311,0,0,1-2.065,1.769q-2.5,1.438-4.426.322-1.474-.85-.75-2.121t3.928-3.168V161.3l-3.084,1.157-4.436-1.882c-2.717,1.668-4.464,3.241-5.26,4.724l-.507-.57v2.418l.01,0c.015,1.659,1.282,3.294,3.823,4.905l-1.753,1.012-2.382-1.091v2.466l2.139,1.236,4.176-2.411a18.224,18.224,0,0,0,8.448,1.685,16.768,16.768,0,0,0,7.967-2.142,13.459,13.459,0,0,0,2.827-2.1,6.8,6.8,0,0,0,1.567-2.286,8.6,8.6,0,0,0,.582-2.255,12.019,12.019,0,0,0-.009-2.392l-.354-3.18c-.055-.64-.084-1.1-.082-1.392a6.344,6.344,0,0,1,.156-1.205,2.8,2.8,0,0,1,.716-1.375,6.733,6.733,0,0,1,1.538-1.163,6.267,6.267,0,0,1,2.37-.757,3.828,3.828,0,0,1,2.368.4,2.181,2.181,0,0,1,.736.57.669.669,0,0,1,.13.411l-3.671.765v2.464l7.44,3.311c.608-.385,1.151-.741,1.628-1.074a15.781,15.781,0,0,0,1.5-1.2,8.985,8.985,0,0,0,1.245-1.342,4.734,4.734,0,0,0,.707-1.452,3.132,3.132,0,0,0,.122-.736l.009-.009v-2.594l-.947.2c-.014-.017-.021-.033-.034-.05a8.784,8.784,0,0,0-1.986-1.7l3.906-2.255Z" transform="translate(-313.674 -122.776)" fill="#f9bf30"/>
        <g id="Group_893" data-name="Group 893" transform="translate(43.293 23.915)">
          <path id="Path_4076" data-name="Path 4076" d="M356.967,172.5l4.135-2.388q-4.24-2.686-3.793-5.464t5.726-6.015l7.52,3.19q-3.2,1.9-3.928,3.168t.75,2.123q1.931,1.117,4.426-.324a6.311,6.311,0,0,0,2.065-1.769,4.127,4.127,0,0,0,.781-1.866,9.779,9.779,0,0,0-.084-2.3l-.418-3.286a10.866,10.866,0,0,1-.08-2.065,6.7,6.7,0,0,1,.457-1.907,5.515,5.515,0,0,1,1.392-1.99,13.317,13.317,0,0,1,2.6-1.883,17.092,17.092,0,0,1,8.6-2.329,19.877,19.877,0,0,1,8.932,2.089l3.926-2.267,2.181,1.258-3.906,2.255a8.827,8.827,0,0,1,1.986,1.7,4.285,4.285,0,0,1,.9,1.627,2.975,2.975,0,0,1-.053,1.565,4.734,4.734,0,0,1-.707,1.452,8.824,8.824,0,0,1-1.245,1.342,15.783,15.783,0,0,1-1.5,1.2q-.716.5-1.628,1.074l-7.44-3.31q.85-.516,1.392-.865c.36-.231.728-.488,1.1-.767a4.635,4.635,0,0,0,.81-.733,1.98,1.98,0,0,0,.354-.647.676.676,0,0,0-.116-.63,2.182,2.182,0,0,0-.736-.57,3.816,3.816,0,0,0-2.368-.4,6.236,6.236,0,0,0-2.37.755,6.687,6.687,0,0,0-1.538,1.164,2.79,2.79,0,0,0-.716,1.373,6.344,6.344,0,0,0-.156,1.205c0,.288.027.752.082,1.392l.354,3.18a12.019,12.019,0,0,1,.009,2.392,8.584,8.584,0,0,1-.582,2.255,6.785,6.785,0,0,1-1.567,2.286,13.52,13.52,0,0,1-2.827,2.1,16.787,16.787,0,0,1-7.967,2.14,18.224,18.224,0,0,1-8.448-1.685l-4.176,2.411Z" transform="translate(-356.967 -147.214)" fill="#fdd762"/>
        </g>
      </g>
      <g id="Group_897" data-name="Group 897" transform="translate(13.173 13.081)">
        <path id="Path_4077" data-name="Path 4077" d="M465.59,160.4h-2.669c-2.993-5.88-8.5-11.424-16.542-16.064-25.613-14.788-67.14-14.788-92.751,0-8.037,4.638-13.549,10.184-16.542,16.064h-2.668v10.711h0c0,9.691,6.4,19.38,19.209,26.773,25.614,14.788,67.14,14.79,92.753,0,12.806-7.393,19.209-17.084,19.209-26.775h0Z" transform="translate(-334.418 -122.531)" fill="#f9bf30"/>
        <path id="Path_4078" data-name="Path 4078" d="M385.78,133.771c-11.782,1.505-22.988,4.892-32.152,10.184-8.037,4.638-13.549,10.184-16.542,16.064h-2.668V170.73c0,9.691,6.4,19.38,19.209,26.773,9.165,5.292,20.37,8.679,32.152,10.184Z" transform="translate(-334.418 -122.154)" fill="#fdd762"/>
        <path id="Path_4079" data-name="Path 4079" d="M399.914,192.281c12.684-7.381,19.031-17.023,19.031-26.667V154.9h-2.669c-2.551-5.012-6.951-9.775-13.167-13.947h-3.195Z" transform="translate(-287.773 -117.038)" fill="#e8a200"/>
        <g id="Group_895" data-name="Group 895" transform="translate(1.841 13.877)" opacity="0.4">
          <path id="Path_4080" data-name="Path 4080" d="M410.24,150.087a31.27,31.27,0,0,0-2.844-4.118v32.186a31.262,31.262,0,0,0,2.844-4.123Z" transform="translate(-284.286 -127.344)" fill="#e8a200"/>
          <path id="Path_4081" data-name="Path 4081" d="M349.449,143.015a51.585,51.585,0,0,0-9.162,6.652v40.259c.894.818,1.834,1.625,2.846,2.411V148.7H348.5v47.284c.32.193.625.39.954.579.618.358,1.255.7,1.89,1.038V148.7H356.7V200.18q1.4.6,2.846,1.161V148.7h5.363V203.19q1.407.434,2.844.827V148.7h5.363v56.612q1.412.3,2.846.562V148.7h5.363v58.012q1.418.185,2.844.334V148.7h5.363v58.781q1.42.077,2.846.116V148.7h5.363v58.928q1.423-.023,2.844-.084V148.7h5.363v58.5q1.428-.128,2.846-.291V148.7h5.363V206.15q1.431-.239,2.844-.519V148.7h5.363v55.716q1.436-.365,2.846-.774V148.7h5.361v53.2q1.443-.521,2.846-1.091V148.7h5.363v49.693q1.451-.727,2.844-1.508V148.7h5.363v44.781c1.005-.721,1.947-1.461,2.846-2.212V148.7h.474a53.315,53.315,0,0,0-8.1-5.686,79,79,0,0,0-20.125-7.924h-52.5A78.893,78.893,0,0,0,349.449,143.015Z" transform="translate(-332.08 -135.091)" fill="#e8a200"/>
          <path id="Path_4082" data-name="Path 4082" d="M338.338,147.162a29.483,29.483,0,0,0-2.017,3.32h-.827v19.632a28.107,28.107,0,0,0,2.844,5.149Z" transform="translate(-335.494 -126.494)" fill="#e8a200"/>
        </g>
        <ellipse id="Ellipse_25" data-name="Ellipse 25" cx="65.586" cy="37.866" rx="65.586" ry="37.866" fill="#fdd762"/>
        <path id="Path_4083" data-name="Path 4083" d="M414.691,171.32c18.855-10.886,23.81-26.749,14.9-40.262-24.606-7.186-55.414-4.854-75.972,7.015-18.856,10.886-23.812,26.749-14.9,40.262C363.324,185.523,394.131,183.191,414.691,171.32Z" transform="translate(-334.413 -126.983)" fill="#fff" opacity="0.2"/>
        <path id="Path_4084" data-name="Path 4084" d="M446.374,175.472c-25.613,14.788-67.139,14.786-92.753,0-12.376-7.145-18.754-16.437-19.17-25.8-.443,10.015,5.933,20.11,19.17,27.753,25.614,14.788,67.14,14.788,92.753,0,13.235-7.641,19.613-17.737,19.168-27.749C465.126,159.037,458.75,168.327,446.374,175.472Z" transform="translate(-334.411 -110.83)" fill="#fff" opacity="0.7"/>
        <ellipse id="Ellipse_26" data-name="Ellipse 26" cx="46.555" cy="26.878" rx="46.555" ry="26.878" transform="translate(19.031 10.987)" fill="#e8a200"/>
        <path id="Path_4085" data-name="Path 4085" d="M359.168,143.73c18.18-10.5,47.657-10.5,65.839,0,8.549,4.936,13.076,11.316,13.585,17.779.574-7.282-3.953-14.673-13.585-20.233-18.182-10.5-47.659-10.5-65.839,0-9.631,5.561-14.156,12.951-13.585,20.233C346.092,155.043,350.619,148.665,359.168,143.73Z" transform="translate(-326.502 -122.416)" fill="#f9bf30"/>
        <path id="Path_4086" data-name="Path 4086" d="M404.892,141.689l-3.609,1.031,1.026.408-3.524,2.034a19.9,19.9,0,0,0-8.934-2.087,17.088,17.088,0,0,0-8.6,2.327,13.4,13.4,0,0,0-2.6,1.883,5.562,5.562,0,0,0-1.392,1.991,6.668,6.668,0,0,0-.455,1.907,10.85,10.85,0,0,0,.081,2.063l.418,3.286a9.98,9.98,0,0,1,.084,2.3,4.141,4.141,0,0,1-.781,1.865,6.3,6.3,0,0,1-2.067,1.769,4.213,4.213,0,0,1-4.426.324q-1.474-.85-.748-2.121t3.928-3.168v-2.466l-3.084,1.157-4.436-1.883c-2.717,1.668-4.464,3.241-5.26,4.726l-.507-.57v2.418h.01c.015,1.661,1.281,3.3,3.823,4.907l-1.753,1.012-2.382-1.091v2.466l2.138,1.236,4.176-2.411a18.238,18.238,0,0,0,8.446,1.685,16.775,16.775,0,0,0,7.969-2.142,13.563,13.563,0,0,0,2.827-2.1,6.826,6.826,0,0,0,1.567-2.286,8.621,8.621,0,0,0,.582-2.255,12.171,12.171,0,0,0-.009-2.394l-.354-3.18c-.055-.639-.084-1.1-.082-1.39a6.3,6.3,0,0,1,.154-1.205,2.819,2.819,0,0,1,.717-1.375,6.636,6.636,0,0,1,1.538-1.163,6.228,6.228,0,0,1,2.368-.757,3.8,3.8,0,0,1,2.368.4,2.188,2.188,0,0,1,.738.568.686.686,0,0,1,.13.413l-3.673.764v2.466l7.439,3.311c.608-.385,1.152-.741,1.63-1.074a15.779,15.779,0,0,0,1.5-1.2,8.91,8.91,0,0,0,1.245-1.344,4.763,4.763,0,0,0,.707-1.45,3.318,3.318,0,0,0,.122-.736l.009-.01v-2.594l-.949.2c-.012-.015-.019-.031-.033-.048a8.783,8.783,0,0,0-1.986-1.7l3.906-2.255Z" transform="translate(-316.41 -116.515)" fill="#f9bf30"/>
        <g id="Group_896" data-name="Group 896" transform="translate(43.294 23.914)">
          <path id="Path_4087" data-name="Path 4087" d="M359.7,166.239l4.135-2.387q-4.24-2.686-3.792-5.464t5.726-6.015l7.52,3.19q-3.2,1.9-3.928,3.168t.748,2.121a4.216,4.216,0,0,0,4.426-.322,6.323,6.323,0,0,0,2.067-1.77,4.141,4.141,0,0,0,.781-1.865,9.882,9.882,0,0,0-.084-2.3l-.418-3.284a10.872,10.872,0,0,1-.081-2.065,6.668,6.668,0,0,1,.455-1.907,5.562,5.562,0,0,1,1.392-1.991,13.4,13.4,0,0,1,2.6-1.883,17.088,17.088,0,0,1,8.6-2.327,19.878,19.878,0,0,1,8.934,2.089l3.926-2.269,2.181,1.26-3.906,2.255a8.783,8.783,0,0,1,1.986,1.7,4.251,4.251,0,0,1,.9,1.625,2.964,2.964,0,0,1-.051,1.567,4.763,4.763,0,0,1-.707,1.45,8.91,8.91,0,0,1-1.245,1.344,15.774,15.774,0,0,1-1.5,1.2c-.478.332-1.022.688-1.63,1.074l-7.439-3.311q.853-.516,1.394-.863c.359-.233.726-.488,1.1-.769a4.573,4.573,0,0,0,.81-.731,2.009,2.009,0,0,0,.353-.647.669.669,0,0,0-.115-.63,2.168,2.168,0,0,0-.738-.57,3.811,3.811,0,0,0-2.368-.4,6.229,6.229,0,0,0-2.368.757,6.685,6.685,0,0,0-1.538,1.163,2.819,2.819,0,0,0-.717,1.375,6.317,6.317,0,0,0-.154,1.205c0,.288.027.752.082,1.39l.354,3.18a12.171,12.171,0,0,1,.009,2.394,8.621,8.621,0,0,1-.582,2.255,6.826,6.826,0,0,1-1.567,2.286,13.5,13.5,0,0,1-2.827,2.1,16.774,16.774,0,0,1-7.969,2.142,18.238,18.238,0,0,1-8.446-1.685l-4.176,2.411Z" transform="translate(-359.704 -140.953)" fill="#fdd762"/>
        </g>
      </g>
      <g id="Group_900" data-name="Group 900" transform="translate(0 0)">
        <path id="Path_4088" data-name="Path 4088" d="M457.9,152.758h-2.669c-2.993-5.881-8.5-11.425-16.542-16.065-25.613-14.788-67.139-14.788-92.751,0-8.037,4.638-13.549,10.184-16.542,16.065h-2.668v10.71h0c0,9.691,6.4,19.382,19.211,26.775,25.613,14.788,67.139,14.788,92.751,0,12.807-7.393,19.209-17.084,19.209-26.775h0Z" transform="translate(-326.725 -114.892)" fill="#f9bf30"/>
        <path id="Path_4089" data-name="Path 4089" d="M378.086,126.132c-11.782,1.5-22.988,4.892-32.152,10.182-8.037,4.638-13.549,10.184-16.542,16.065h-2.668v10.71c0,9.691,6.4,19.382,19.211,26.775,9.164,5.291,20.368,8.677,32.15,10.182Z" transform="translate(-326.725 -114.514)" fill="#fdd762"/>
        <path id="Path_4090" data-name="Path 4090" d="M392.22,184.641c12.684-7.38,19.031-17.023,19.031-26.667v-10.71h-2.669c-2.551-5.013-6.95-9.777-13.165-13.947h-3.2Z" transform="translate(-280.079 -109.397)" fill="#e8a200"/>
        <g id="Group_898" data-name="Group 898" transform="translate(1.841 13.877)" opacity="0.4">
          <path id="Path_4091" data-name="Path 4091" d="M402.548,142.447a31.451,31.451,0,0,0-2.846-4.118v32.186a31.285,31.285,0,0,0,2.846-4.123Z" transform="translate(-276.592 -119.704)" fill="#e8a200"/>
          <path id="Path_4092" data-name="Path 4092" d="M341.755,135.375a51.736,51.736,0,0,0-9.162,6.652v40.259c.894.818,1.834,1.625,2.846,2.411V141.063H340.8v47.282c.32.193.627.39.955.58.618.356,1.253.7,1.889,1.038v-48.9h5.363V192.54q1.4.6,2.846,1.161V141.063h5.363V195.55q1.407.434,2.844.827V141.063h5.363v56.61q1.415.3,2.846.562V141.063h5.363v58.011q1.418.185,2.844.334V141.063h5.363v58.779c.947.051,1.9.089,2.846.118v-58.9h5.363v58.927q1.423-.023,2.844-.084V141.063h5.363v58.5q1.428-.128,2.846-.291v-58.2h5.363V198.51q1.431-.239,2.844-.519V141.063h5.363v55.715q1.436-.365,2.846-.774V141.063h5.363v53.2q1.441-.521,2.844-1.089V141.063h5.363v49.691q1.451-.727,2.846-1.508V141.063h5.363v44.779c1-.721,1.945-1.459,2.844-2.212V141.063h.476a53.3,53.3,0,0,0-8.1-5.688,78.955,78.955,0,0,0-20.125-7.924h-52.5A78.907,78.907,0,0,0,341.755,135.375Z" transform="translate(-324.386 -127.451)" fill="#e8a200"/>
          <path id="Path_4093" data-name="Path 4093" d="M330.646,139.522a29.115,29.115,0,0,0-2.019,3.322H327.8v19.632a28.055,28.055,0,0,0,2.846,5.147Z" transform="translate(-327.8 -118.854)" fill="#e8a200"/>
        </g>
        <ellipse id="Ellipse_27" data-name="Ellipse 27" cx="65.586" cy="37.866" rx="65.586" ry="37.866" fill="#fdd762"/>
        <path id="Path_4094" data-name="Path 4094" d="M407,163.68c18.855-10.886,23.81-26.748,14.9-40.262-24.606-7.186-55.415-4.854-75.974,7.015-18.855,10.886-23.812,26.749-14.9,40.262C355.63,177.883,386.437,175.551,407,163.68Z" transform="translate(-326.719 -119.344)" fill="#fff" opacity="0.2"/>
        <path id="Path_4095" data-name="Path 4095" d="M438.68,167.832c-25.613,14.788-67.139,14.786-92.751,0-12.377-7.145-18.755-16.435-19.171-25.8-.443,10.015,5.934,20.11,19.171,27.753,25.613,14.788,67.139,14.788,92.751,0,13.237-7.641,19.613-17.737,19.17-27.749C457.434,151.4,451.056,160.687,438.68,167.832Z" transform="translate(-326.717 -103.191)" fill="#fff" opacity="0.7"/>
        <ellipse id="Ellipse_28" data-name="Ellipse 28" cx="46.555" cy="26.878" rx="46.555" ry="26.878" transform="translate(19.031 10.988)" fill="#e8a200"/>
        <path id="Path_4096" data-name="Path 4096" d="M351.474,136.09c18.182-10.5,47.657-10.5,65.839,0,8.551,4.936,13.078,11.316,13.585,17.779.574-7.282-3.953-14.673-13.585-20.233-18.182-10.5-47.657-10.5-65.839,0-9.629,5.561-14.156,12.951-13.585,20.233C338.4,147.4,342.925,141.025,351.474,136.09Z" transform="translate(-318.808 -114.776)" fill="#f9bf30"/>
        <path id="Path_4097" data-name="Path 4097" d="M397.2,134.049l-3.609,1.031,1.026.408-3.524,2.036a19.877,19.877,0,0,0-8.932-2.089,17.09,17.09,0,0,0-8.6,2.327,13.312,13.312,0,0,0-2.6,1.885,5.526,5.526,0,0,0-1.394,1.99,6.723,6.723,0,0,0-.455,1.907,10.862,10.862,0,0,0,.081,2.065l.418,3.284a9.892,9.892,0,0,1,.084,2.3,4.121,4.121,0,0,1-.781,1.865,6.285,6.285,0,0,1-2.067,1.77,4.213,4.213,0,0,1-4.424.322q-1.474-.85-.75-2.121t3.928-3.168V147.4l-3.084,1.157-4.436-1.882c-2.717,1.666-4.464,3.239-5.26,4.724l-.507-.57v2.418h.01c.015,1.661,1.282,3.3,3.823,4.907l-1.753,1.012-2.382-1.091v2.466l2.138,1.236,4.176-2.411a18.246,18.246,0,0,0,8.448,1.685,16.768,16.768,0,0,0,7.967-2.142,13.458,13.458,0,0,0,2.827-2.1,6.8,6.8,0,0,0,1.567-2.286,8.621,8.621,0,0,0,.582-2.255,12.171,12.171,0,0,0-.009-2.394l-.354-3.18c-.055-.639-.084-1.1-.082-1.39a6.341,6.341,0,0,1,.156-1.205,2.8,2.8,0,0,1,.716-1.375,6.685,6.685,0,0,1,1.538-1.163,6.237,6.237,0,0,1,2.37-.757,3.816,3.816,0,0,1,2.368.4,2.177,2.177,0,0,1,.736.57.669.669,0,0,1,.13.411l-3.671.764v2.466l7.438,3.311c.609-.385,1.152-.741,1.63-1.074a15.779,15.779,0,0,0,1.5-1.2,8.91,8.91,0,0,0,1.245-1.344,4.727,4.727,0,0,0,.707-1.45,3.133,3.133,0,0,0,.121-.736l.009-.01v-2.594l-.947.2c-.014-.015-.021-.031-.034-.048a8.783,8.783,0,0,0-1.986-1.7l3.906-2.255Z" transform="translate(-308.717 -108.875)" fill="#f9bf30"/>
        <g id="Group_899" data-name="Group 899" transform="translate(43.293 23.915)">
          <path id="Path_4098" data-name="Path 4098" d="M352.01,158.6l4.135-2.387q-4.24-2.686-3.792-5.464t5.726-6.015l7.52,3.19q-3.2,1.9-3.928,3.168t.75,2.121q1.931,1.12,4.424-.322a6.3,6.3,0,0,0,2.067-1.769,4.135,4.135,0,0,0,.781-1.866,9.875,9.875,0,0,0-.084-2.3l-.418-3.286a10.862,10.862,0,0,1-.081-2.065,6.723,6.723,0,0,1,.455-1.907,5.526,5.526,0,0,1,1.394-1.99,13.313,13.313,0,0,1,2.6-1.885,17.09,17.09,0,0,1,8.6-2.327,19.877,19.877,0,0,1,8.932,2.089l3.926-2.267,2.181,1.258-3.906,2.255a8.784,8.784,0,0,1,1.986,1.7,4.281,4.281,0,0,1,.9,1.625,2.982,2.982,0,0,1-.053,1.567,4.736,4.736,0,0,1-.707,1.452,8.988,8.988,0,0,1-1.245,1.342,15.78,15.78,0,0,1-1.5,1.2c-.478.332-1.021.688-1.63,1.074l-7.438-3.311q.85-.516,1.392-.863t1.1-.769a4.573,4.573,0,0,0,.81-.731,2.01,2.01,0,0,0,.353-.647.669.669,0,0,0-.115-.63,2.177,2.177,0,0,0-.736-.57,3.828,3.828,0,0,0-2.368-.4,6.267,6.267,0,0,0-2.37.757,6.733,6.733,0,0,0-1.538,1.163,2.8,2.8,0,0,0-.716,1.375,6.342,6.342,0,0,0-.156,1.205c0,.288.027.752.082,1.39l.354,3.181a12.154,12.154,0,0,1,.009,2.392,8.6,8.6,0,0,1-.582,2.255,6.786,6.786,0,0,1-1.567,2.286,13.46,13.46,0,0,1-2.827,2.1,16.768,16.768,0,0,1-7.967,2.142,18.245,18.245,0,0,1-8.448-1.685l-4.176,2.411Z" transform="translate(-352.01 -133.314)" fill="#fdd762"/>
        </g>
      </g>
    </g>
    <g id="Group_3221" data-name="Group 3221" transform="translate(1596.9 538)">
      <path id="Path_4280" data-name="Path 4280" d="M626.2,415.962s4.984,9.783,3.876,11.813-22.009,10.7-24.5,9.457-2.623-4.842,1.378-7.725c4.291-3.091,7.116-2.655,9.652-5.009s0-6.783,0-6.783Z" transform="translate(-496.694 -198.428)" fill="#110239"/>
      <path id="Path_4281" data-name="Path 4281" d="M667.487,419.373s.25,10.691-1.56,12.131-24.437,1.321-26.25-.794-.675-5.054,3.931-5.977c4.141-.828,7.2.044,10.405-1.251,2.816-1.135,4.338-7.363,4.338-7.363Z" transform="translate(-608.151 -198.253)" fill="#110239"/>
      <path id="Path_4282" data-name="Path 4282" d="M645.153,363.495l29.487,1.812s-24.78,55.614-27.825,61.982-18.548,52.322-18.548,52.322l-11.974-4.429s13.634-47.893,15.3-52.046S645.153,363.495,645.153,363.495Z" transform="translate(-567.524 -257.038)" fill="#f45762"/>
      <path id="Path_4283" data-name="Path 4283" d="M625.873,385.1c-.961-4.937-1.636-11.341-2.712-16.253-.425-1.95-3.148-2.047-3.355-3.989a5.617,5.617,0,0,0,1.181-1.211l24.378,1.5s-24.78,55.614-27.825,61.982c-.3.629-.728,1.658-1.247,2.979.013-1.067.055-2.134.136-3.2C617.066,418.323,626.963,390.7,625.873,385.1Z" transform="translate(-538.249 -256.873)" fill="#c9071e" opacity="0.35" style="mix-blend-mode: multiply;isolation: isolate"/>
      <path id="Path_4284" data-name="Path 4284" d="M604.947,364.672H630.14a38.214,38.214,0,0,1,2.907,19.932c-1.524,10.8-1.893,35.463-1.708,38.232s16.871,40.6,18.81,50.937l-11.61,4.154s-22.888-46.785-23.624-47.893S604.947,364.672,604.947,364.672Z" transform="translate(-519.012 -255.723)" fill="#f45762"/>
      <path id="Path_4285" data-name="Path 4285" d="M662.576,366.314s-4.984,7.2-8.445,6.643-24.5-15.086-24.5-15.086l1.937-4.706s19.24,13.149,21.177,12.594,4.431-5.814,4.431-5.814Z" transform="translate(-583.7 -268.577)" fill="#fcd4ca"/>
      <path id="Path_4286" data-name="Path 4286" d="M662.576,366.314s-4.984,7.2-8.445,6.643-24.5-15.086-24.5-15.086l1.937-4.706s19.24,13.149,21.177,12.594,4.431-5.814,4.431-5.814Z" transform="translate(-583.7 -268.577)" fill="#e8a393"/>
      <path id="Path_4287" data-name="Path 4287" d="M649.545,402.011s-25.284,5.72-44.662-1.291c0,0,4.336-17.9,5.86-27.869s3.553-25.655,9.273-29.529,9.552-4.475,9.552-4.475,1.107,3.737,4.566,4.566,10.52-4.566,10.52-4.566,16.058,7.395,17.887,10.391c3.743,6.135-11.242,23.106-13.458,32.1S649.545,402.011,649.545,402.011Z" transform="translate(-531.867 -284.573)" fill="#bbeadb"/>
      <path id="Path_4288" data-name="Path 4288" d="M614.362,371.755c1.177-4.116,1.061-13.308,5.932-17.955,2.811-2.684,6.248-6.847,10.422-7.569,5.045-.874,5.375.169,9.889-.876-.94,7.609-12.065,21.046-13.954,28.714-2.214,9,.461,20.671.461,20.671a109.816,109.816,0,0,1-22.183,2.2C609.478,389.257,612.027,379.916,614.362,371.755Z" transform="translate(-509.436 -277.302)" fill="#83ccc3"/>
      <path id="Path_4289" data-name="Path 4289" d="M632.077,335.043s-5.676,10.1-2.907,13.149c0,0-7.613,6.921-13.566,4.014s-2.5-5.517-2.5-5.517,4.16-1.819,6.237-10.539S632.077,335.043,632.077,335.043Z" transform="translate(-516.106 -292.259)" fill="#fcd4ca"/>
      <path id="Path_4290" data-name="Path 4290" d="M622.355,350.464a12.508,12.508,0,0,0-10.245-6.25,21.172,21.172,0,0,0,3.521-8.064c2.075-8.72,12.734-1.107,12.734-1.107s-5.676,10.1-2.907,13.149A23.613,23.613,0,0,1,622.355,350.464Z" transform="translate(-512.393 -292.259)" fill="#e8a393"/>
      <path id="Path_4291" data-name="Path 4291" d="M604.48,327.367a6.485,6.485,0,1,0,6.484-6.436A6.462,6.462,0,0,0,604.48,327.367Z" transform="translate(-485.324 -304.585)" fill="#ff2c9c"/>
      <path id="Path_4292" data-name="Path 4292" d="M623.716,323.979s-4.2,1.247-5.172,4.916-.485,2.145-1.317,2.629-5.189,3.737-4.844,4.291a14.245,14.245,0,0,0,3.114,2.214s-.968,1.66-2.215,3.944,6.853,5.121,9.69,4.084,9.9-5.536,10.172-12.319S630.343,321.972,623.716,323.979Z" transform="translate(-517.729 -301.682)" fill="#fcd4ca"/>
      <path id="Path_4293" data-name="Path 4293" d="M639.03,326.781s-5.248-2.49-7.71-3.6-5.325-2.767-8.924-1.937-6.861,4.558-4.954,8.786c0,0,2.555-3.48,5.047-2.765s1.937,4.5,3.322,6.438-1.291,8.792-2.769,10.486c0,0-9.6.747-10.808-.855,0,0-.866,1.3-2.111,3.656s-3.322,5.746-.345,7.338,11.972-.07,12.734-.832,3.22-7.215,6.021-6.228,2.013,2.6,2.013,2.6,1.723,1.135,5.67-2.187,4.247-7.467,3.459-11A50.732,50.732,0,0,1,639.03,326.781Z" transform="translate(-515.884 -304.485)" fill="#ff2c9c"/>
      <path id="Path_4294" data-name="Path 4294" d="M611.666,334.238a19.8,19.8,0,0,1,3.123-4.293c1.562-1.406,4.008.273,3.383,3.318S610.7,335.834,611.666,334.238Z" transform="translate(-501.165 -295.079)" fill="#fcd4ca"/>
      <g id="Group_3218" data-name="Group 3218" transform="translate(0 0)">
        <path id="Path_4295" data-name="Path 4295" d="M704.945,374.271a19.259,19.259,0,0,0,0,6.916c.739,3.138,16.964,25.837,15.311,31s-16.234,13.844-20.11,12.921S681.731,403.074,678.4,403.15s-40.815,4.613-53.735-24.179-.553-46.324,6.091-53.336,37.654-23.14,62.75-1.662C713.987,341.507,704.945,367.358,704.945,374.271Z" transform="translate(-619.01 -313.21)" fill="#ffd066"/>
        <g id="Group_3216" data-name="Group 3216" transform="translate(31.58 32.904)">
          <g id="Group_3215" data-name="Group 3215">
            <path id="Path_4296" data-name="Path 4296" d="M651.18,376.171s-15.645-19.1-16.477-22.979-2.214-18.687-2.767-21.594-4.711-3.411-3.986.97c.618,3.745,1.495,17.58,3.017,22.286S647.714,380.6,647.714,380.6Z" transform="translate(-600.143 -328.087)" fill="#0186cb"/>
            <path id="Path_4297" data-name="Path 4297" d="M670.506,373.766s-14.439-20.03-17.97-21.827-17.491-6.942-20.157-8.225-2.087-5.428,1.961-3.6c3.459,1.56,16.6,5.962,20.76,8.642s20.578,22.8,20.578,22.8Z" transform="translate(-630.751 -316.574)" fill="#0186cb"/>
            <g id="Group_3214" data-name="Group 3214" transform="translate(0.741)">
              <path id="Path_4298" data-name="Path 4298" d="M638.094,353.075c3.552-.756,8.193-4.018,10.8-7.522h.136c4.124,0,7.3-3.584,8.585-7.647a35.653,35.653,0,0,0,9.639-4.924l-1.287-1.8a35.8,35.8,0,0,1-7.816,4.224c.392-3.411-.783-5.885-3.08-6.466a4.176,4.176,0,0,0-5.379,2.7,5.2,5.2,0,0,0,3.245,6.374,5.9,5.9,0,0,0,2.164.3c-.984,2.3-2.691,4.257-4.787,4.842a6.514,6.514,0,0,0,.572-2.229,3.86,3.86,0,0,0-3.03-4.044,4.171,4.171,0,0,0-4.584.849,4.068,4.068,0,0,0-.533,4.384,5.67,5.67,0,0,0,3.624,3.042c-2.289,2.619-5.852,5.132-8.727,5.744Zm7.954-14.284a3.578,3.578,0,0,1,1.111.2c1.4.462,1.543,1.217,1.512,1.823a5.507,5.507,0,0,1-.883,2.422,3.824,3.824,0,0,1-3.029-2.013,1.9,1.9,0,0,1,.15-2A1.479,1.479,0,0,1,646.047,338.791Zm9.76-2.752a4.3,4.3,0,0,1-2.1-.1A2.988,2.988,0,0,1,651.8,332.3c.349-1.118,1.342-1.56,2.723-1.213s1.624,2.46,1.412,4.162C655.9,335.512,655.86,335.774,655.807,336.039Z" transform="translate(-637.632 -328.752)" fill="#0186cb"/>
            </g>
          </g>
        </g>
        <g id="Group_3217" data-name="Group 3217" transform="translate(60.748 67.374)">
          <path id="Path_4299" data-name="Path 4299" d="M632.024,358.871c3.3-2.936,8.286-5.619,10.3-9.743.654-1.342,1.224-2.714,1.77-4.094.034.2.059.407.106.6.739,3.138,16.964,25.837,15.311,31s-16.234,13.844-20.11,12.921c-3.483-.83-15.552-17.917-20.387-21.33A67.206,67.206,0,0,0,632.024,358.871Z" transform="translate(-619.01 -345.034)" fill="#1e1ea4"/>
          <path id="Path_4300" data-name="Path 4300" d="M627.64,373.571c-1.308-1.535-2.566-2.97-3.718-4.209,12.98-5.183,20.781-17.536,23.451-22.452.889,1.524,2.049,3.423,3.324,5.513C644.553,362.463,632.824,370.392,627.64,373.571Z" transform="translate(-620.48 -342.937)" fill="#110239"/>
          <path id="Path_4301" data-name="Path 4301" d="M625.111,376.529c-1.133-1.306-2.31-2.693-3.5-4.1,12.006-5.4,19.327-16.807,21.988-21.658,1.094,1.812,2.212,3.692,3.273,5.559C641.112,365.581,630.669,373.01,625.111,376.529Z" transform="translate(-611.778 -338.629)" fill="#110239"/>
          <path id="Path_4302" data-name="Path 4302" d="M619.515,375.35c10.907-5.477,17.694-15.789,20.406-20.633a59.116,59.116,0,0,1,2.9,6.078c-5.18,7.8-13.528,14.216-19.115,17.953l-.044,0C622.763,378.532,621.283,377.211,619.515,375.35Z" transform="translate(-603.271 -334.217)" fill="#110239"/>
        </g>
      </g>
      <path id="Path_4303" data-name="Path 4303" d="M664.333,352.629s-7.2,14.811-8.72,14.949-27.75-1.937-29.656-3.044a22.186,22.186,0,0,1-2.93-2.437,14.808,14.808,0,0,0-1.357-1.067,15.258,15.258,0,0,1-1.692-.955c-.406-.343-1.838-2.471-2.646-2.269-.641.159-.589.646-.474,1.162.146.665,1.059,1.294,1.5,1.768.252.271,1.006,1.037.872,1.469-.178.589-1.478-.44-1.772-.627a5.075,5.075,0,0,1-1.209-1.044,16.082,16.082,0,0,1-1.107-1.469c-.212-.307-.413-.633-.618-.938-.345-.517-.652-.98-.953-1.522-.227-.409-.586-.874-1.1-.6-.576.311-.009,1.27.216,1.685a14.157,14.157,0,0,1,.641,1.327c.127.3.631.821.457,1.181a7.278,7.278,0,0,1-1.435-1.643c-.263-.354-1.607-2.557-2.221-2.13-.976.682.191,2.128.644,2.735a6.469,6.469,0,0,0,1,1.12c.167.136.889.912.76.9-.925-.091-1.594-1.493-2.166-2.149-.356-.406-1.48-1.594-1.638-.411a1.847,1.847,0,0,0,.481,1.249,6.5,6.5,0,0,0,1.448,1.567,5.26,5.26,0,0,1,.942,1.063c-.69-.017-2.051-1.774-2.678-1.3-.406.307.038,1.145.265,1.4,1.592,1.783,4.016,2.975,6.089,4.1a63.949,63.949,0,0,0,6.978,3.237c3.4,1.344,32.252,10.382,35.713,9.965s12.595-18.1,15.226-23.235S664.333,352.629,664.333,352.629Z" transform="translate(-550.438 -269.288)" fill="#fcd4ca"/>
      <path id="Path_4304" data-name="Path 4304" d="M618.874,371.686s-9.135-3.383-14.394-8.128c0,0,11.779-26.476,20.146-19.833S618.874,371.686,618.874,371.686Z" transform="translate(-495.152 -280.317)" fill="#bbeadb"/>
      <path id="Path_4305" data-name="Path 4305" d="M615.488,330.25a2.417,2.417,0,0,0-2.617,1.008c-.944,1.385-.205,3.37.779,2.485s.487-1.5.6-2.151A2,2,0,0,1,615.488,330.25Z" transform="translate(-500.205 -294.258)" fill="#e8a393"/>
      <path id="Path_4306" data-name="Path 4306" d="M653.925,357.291c-.453-.294-1.078.028-1.859.709,1.029-1.285,2.257-2.613,1.048-2.79-1.171-.169-1.98,1.641-2.826,2.2.451-.631,3.131-2.5,2.087-3.9-.618-.83-3.487,2.424-4.08,3.074.557-.529,2.974-3.074,1.689-3.6-1.156-.472-2.809,1.7-3.631,2.4-.6.508-1.452.929-1.594,1.763-.273,1.62,2.092,2.725,3.317,3.07a6.369,6.369,0,0,0,4.829-.809C653.741,358.927,654.378,357.585,653.925,357.291Z" transform="translate(-607.182 -268.841)" fill="#fcd4ca"/>
    </g>
    <ellipse id="Ellipse_45" data-name="Ellipse 45" cx="51.698" cy="29.848" rx="51.698" ry="29.848" transform="translate(1488.807 868.85)" fill="#d4ecff"/>
    <g id="Group_3222" data-name="Group 3222" transform="translate(1474.457 791.985)">
      <g id="Group_904" data-name="Group 904" transform="translate(8.468 29.653)">
        <path id="Path_4099" data-name="Path 4099" d="M510.738,229.948h-2.462c-2.76-5.424-7.842-10.536-15.254-14.815-23.619-13.635-61.913-13.635-85.53,0-7.411,4.279-12.494,9.391-15.254,14.815h-2.46v9.876h0c0,8.937,5.905,17.873,17.714,24.691,23.62,13.637,61.913,13.637,85.532,0,11.81-6.819,17.714-15.756,17.714-24.693h0Z" transform="translate(-389.779 -195.03)" fill="#f9bf30"/>
        <path id="Path_4100" data-name="Path 4100" d="M437.141,205.437c-10.864,1.386-21.2,4.511-29.648,9.39-7.411,4.279-12.494,9.391-15.254,14.815h-2.46v9.876c0,8.937,5.905,17.873,17.714,24.691,8.452,4.879,18.784,8,29.648,9.39Z" transform="translate(-389.779 -194.723)" fill="#fdd762"/>
        <path id="Path_4101" data-name="Path 4101" d="M455.274,259.952c11.7-6.807,17.549-15.7,17.549-24.593v-9.876h-2.462c-2.353-4.623-6.41-9.016-12.142-12.862h-2.946Z" transform="translate(-351.864 -190.564)" fill="#e8a200"/>
        <g id="Group_902" data-name="Group 902" transform="translate(1.698 12.796)" opacity="0.4">
          <path id="Path_4102" data-name="Path 4102" d="M465.38,221.431a29,29,0,0,0-2.624-3.8v29.68a28.9,28.9,0,0,0,2.624-3.8Z" transform="translate(-349.231 -200.459)" fill="#e8a200"/>
          <path id="Path_4103" data-name="Path 4103" d="M404.1,214.063a47.711,47.711,0,0,0-8.449,6.136v37.123c.824.755,1.691,1.5,2.624,2.223V219.308h4.945v43.6c.3.178.578.36.879.535.572.328,1.157.643,1.743.957V219.308h4.945v47.47q1.293.557,2.624,1.07v-48.54h4.945v50.246q1.3.4,2.622.763V219.308h4.945v52.2q1.3.277,2.624.518V219.308h4.945V272.8q1.307.171,2.623.308v-53.8h4.945v54.2c.873.049,1.748.082,2.624.109V219.308h4.945v54.34q1.312-.021,2.623-.077V219.308h4.945V273.25c.878-.079,1.753-.166,2.624-.268V219.308h4.945v52.976q1.319-.22,2.623-.478v-52.5h4.945v51.379q1.324-.339,2.624-.715V219.308H478.9v49.06q1.329-.481,2.622-1V219.308h4.945v45.823q1.338-.67,2.624-1.391V219.308h4.944V260.6c.927-.665,1.8-1.345,2.624-2.038V219.308h.437a49.057,49.057,0,0,0-7.471-5.245,72.831,72.831,0,0,0-18.558-7.307H422.651A72.773,72.773,0,0,0,404.1,214.063Z" transform="translate(-388.079 -206.756)" fill="#e8a200"/>
          <path id="Path_4104" data-name="Path 4104" d="M393.477,218.828a26.906,26.906,0,0,0-1.86,3.061h-.763v18.1a25.9,25.9,0,0,0,2.623,4.746Z" transform="translate(-390.854 -199.767)" fill="#e8a200"/>
        </g>
        <ellipse id="Ellipse_29" data-name="Ellipse 29" cx="60.48" cy="34.918" rx="60.48" ry="34.918" fill="#fdd762"/>
        <path id="Path_4105" data-name="Path 4105" d="M463.8,239.534c17.387-10.039,21.956-24.666,13.744-37.128-22.692-6.627-51.1-4.476-70.059,6.47C390.1,218.915,385.53,233.543,393.744,246,416.434,252.632,444.843,250.481,463.8,239.534Z" transform="translate(-389.774 -198.649)" fill="#fff" opacity="0.2"/>
        <path id="Path_4106" data-name="Path 4106" d="M493.018,245.129c-23.619,13.637-61.912,13.635-85.532,0-11.412-6.589-17.294-15.156-17.677-23.791-.409,9.235,5.471,18.544,17.677,25.593,23.62,13.637,61.913,13.637,85.532,0,12.2-7.047,18.086-16.356,17.676-25.589C510.31,229.973,504.431,238.54,493.018,245.129Z" transform="translate(-389.773 -185.519)" fill="#fff" opacity="0.7"/>
        <ellipse id="Ellipse_30" data-name="Ellipse 30" cx="42.93" cy="24.786" rx="42.93" ry="24.786" transform="translate(17.549 10.132)" fill="#e8a200"/>
        <path id="Path_4107" data-name="Path 4107" d="M413.466,214.592c16.765-9.68,43.947-9.679,60.713,0,7.885,4.552,12.058,10.435,12.527,16.4.529-6.715-3.646-13.531-12.527-18.658-16.766-9.68-43.948-9.68-60.713,0-8.881,5.128-13.054,11.943-12.527,18.658C401.408,225.025,405.583,219.144,413.466,214.592Z" transform="translate(-383.344 -194.937)" fill="#f9bf30"/>
        <path id="Path_4108" data-name="Path 4108" d="M456.734,213.354l-3.328.95.946.376-3.249,1.877a18.331,18.331,0,0,0-8.239-1.926,15.757,15.757,0,0,0-7.932,2.146,12.294,12.294,0,0,0-2.394,1.738,5.1,5.1,0,0,0-1.285,1.835,6.216,6.216,0,0,0-.42,1.759,10.029,10.029,0,0,0,.074,1.9l.385,3.03a9.1,9.1,0,0,1,.077,2.124,3.83,3.83,0,0,1-.72,1.721,5.827,5.827,0,0,1-1.906,1.631,3.882,3.882,0,0,1-4.08.3q-1.362-.784-.692-1.956a10.578,10.578,0,0,1,3.622-2.921v-2.274l-2.844,1.067L420.66,225c-2.506,1.538-4.116,2.989-4.85,4.356l-.467-.526v2.229l.009,0c.014,1.53,1.181,3.038,3.526,4.524l-1.617.933-2.2-1.006v2.274l1.972,1.14,3.851-2.223a16.8,16.8,0,0,0,7.79,1.554,15.466,15.466,0,0,0,7.347-1.975,12.41,12.41,0,0,0,2.607-1.934,6.256,6.256,0,0,0,1.445-2.108,7.931,7.931,0,0,0,.537-2.079,11.22,11.22,0,0,0-.008-2.207l-.327-2.932c-.051-.589-.077-1.017-.076-1.282a5.733,5.733,0,0,1,.144-1.112,2.585,2.585,0,0,1,.66-1.268,6.211,6.211,0,0,1,1.418-1.072,5.742,5.742,0,0,1,2.185-.7,3.511,3.511,0,0,1,2.182.365,2.019,2.019,0,0,1,.681.526.628.628,0,0,1,.12.379l-3.385.706v2.272l6.859,3.054c.56-.355,1.063-.684,1.5-.99a14.545,14.545,0,0,0,1.382-1.107,8.288,8.288,0,0,0,1.148-1.238,4.4,4.4,0,0,0,.652-1.339,2.892,2.892,0,0,0,.112-.679l.008-.009v-2.39l-.873.182c-.013-.016-.019-.03-.032-.046a8.1,8.1,0,0,0-1.832-1.565l3.6-2.079Z" transform="translate(-375.141 -190.14)" fill="#f9bf30"/>
        <g id="Group_903" data-name="Group 903" transform="translate(39.923 22.053)">
          <path id="Path_4109" data-name="Path 4109" d="M415.064,235.935l3.813-2.2q-3.91-2.477-3.5-5.038t5.28-5.547l6.935,2.942a10.578,10.578,0,0,0-3.622,2.921q-.67,1.172.692,1.958a3.886,3.886,0,0,0,4.08-.3,5.827,5.827,0,0,0,1.906-1.631,3.823,3.823,0,0,0,.72-1.721,9.1,9.1,0,0,0-.077-2.124l-.385-3.03a10.029,10.029,0,0,1-.074-1.9,6.217,6.217,0,0,1,.42-1.759,5.1,5.1,0,0,1,1.285-1.835,12.3,12.3,0,0,1,2.394-1.738,15.773,15.773,0,0,1,7.932-2.146,18.331,18.331,0,0,1,8.239,1.926l3.62-2.09,2.012,1.16-3.6,2.079a8.1,8.1,0,0,1,1.832,1.565,3.942,3.942,0,0,1,.832,1.5,2.733,2.733,0,0,1-.047,1.445,4.4,4.4,0,0,1-.652,1.339,8.214,8.214,0,0,1-1.148,1.238,14.542,14.542,0,0,1-1.382,1.107c-.44.306-.943.635-1.5.99l-6.859-3.052q.784-.476,1.284-.8c.332-.213.669-.45,1.015-.707a4.272,4.272,0,0,0,.747-.676,1.823,1.823,0,0,0,.325-.6.618.618,0,0,0-.106-.581,2.019,2.019,0,0,0-.681-.526,3.512,3.512,0,0,0-2.182-.365,5.742,5.742,0,0,0-2.185.7,6.167,6.167,0,0,0-1.418,1.074,2.573,2.573,0,0,0-.66,1.266,5.733,5.733,0,0,0-.144,1.112c0,.265.025.693.076,1.284l.327,2.932a11.2,11.2,0,0,1,.008,2.206,7.931,7.931,0,0,1-.537,2.079,6.256,6.256,0,0,1-1.445,2.108,12.468,12.468,0,0,1-2.607,1.936,15.484,15.484,0,0,1-7.347,1.974,16.8,16.8,0,0,1-7.79-1.554l-3.851,2.223Z" transform="translate(-415.064 -212.619)" fill="#fdd762"/>
        </g>
      </g>
      <g id="Group_907" data-name="Group 907" transform="translate(8.468 19.769)">
        <path id="Path_4110" data-name="Path 4110" d="M510.738,223.689h-2.462c-2.76-5.424-7.842-10.536-15.254-14.815-23.619-13.637-61.913-13.637-85.53,0-7.411,4.277-12.494,9.391-15.254,14.815h-2.46v9.876h0c0,8.937,5.905,17.872,17.714,24.691,23.62,13.635,61.913,13.637,85.532,0,11.81-6.818,17.714-15.754,17.714-24.691h0Z" transform="translate(-389.779 -188.77)" fill="#f9bf30"/>
        <path id="Path_4111" data-name="Path 4111" d="M437.141,199.176c-10.864,1.388-21.2,4.511-29.648,9.391-7.411,4.277-12.494,9.391-15.254,14.815h-2.46v9.876c0,8.937,5.905,17.872,17.714,24.691,8.452,4.879,18.784,8,29.648,9.39Z" transform="translate(-389.779 -188.463)" fill="#fdd762"/>
        <path id="Path_4112" data-name="Path 4112" d="M455.274,253.691c11.7-6.807,17.549-15.7,17.549-24.592v-9.876h-2.462c-2.353-4.623-6.41-9.016-12.142-12.863h-2.946Z" transform="translate(-351.864 -184.304)" fill="#e8a200"/>
        <g id="Group_905" data-name="Group 905" transform="translate(1.698 12.797)" opacity="0.4">
          <path id="Path_4113" data-name="Path 4113" d="M465.38,215.171a29.006,29.006,0,0,0-2.624-3.8v29.68a29.009,29.009,0,0,0,2.624-3.8Z" transform="translate(-349.231 -194.199)" fill="#e8a200"/>
          <path id="Path_4114" data-name="Path 4114" d="M404.1,207.8a47.627,47.627,0,0,0-8.449,6.134v37.125c.824.755,1.691,1.5,2.624,2.223V213.047h4.945v43.6c.3.177.578.36.879.535.572.328,1.157.643,1.743.955V213.047h4.945v47.471q1.293.557,2.624,1.069v-48.54h4.945v50.247q1.3.4,2.622.763v-51.01h4.945v52.2q1.3.275,2.624.518V213.047h4.945v53.5q1.307.171,2.623.308v-53.8h4.945v54.205c.873.047,1.748.082,2.624.109V213.047h4.945v54.341q1.312-.021,2.623-.077V213.047h4.945V266.99q1.317-.118,2.624-.268V213.047h4.945v52.977q1.319-.22,2.623-.478v-52.5h4.945v51.379q1.324-.336,2.624-.714V213.047H478.9v49.061q1.329-.481,2.622-1V213.047h4.945v45.825q1.338-.67,2.624-1.391V213.047h4.944v41.295c.927-.665,1.8-1.347,2.624-2.04V213.047h.437a49.164,49.164,0,0,0-7.471-5.244,72.772,72.772,0,0,0-18.558-7.307H422.651A72.772,72.772,0,0,0,404.1,207.8Z" transform="translate(-388.079 -200.496)" fill="#e8a200"/>
          <path id="Path_4115" data-name="Path 4115" d="M393.477,212.567a27.061,27.061,0,0,0-1.86,3.063h-.763v18.1a25.914,25.914,0,0,0,2.623,4.748Z" transform="translate(-390.854 -193.508)" fill="#e8a200"/>
        </g>
        <ellipse id="Ellipse_31" data-name="Ellipse 31" cx="60.48" cy="34.918" rx="60.48" ry="34.918" fill="#fdd762"/>
        <path id="Path_4116" data-name="Path 4116" d="M463.8,233.274c17.387-10.039,21.956-24.667,13.744-37.128-22.692-6.627-51.1-4.476-70.059,6.469-17.388,10.039-21.958,24.667-13.744,37.128C416.434,246.37,444.843,244.221,463.8,233.274Z" transform="translate(-389.774 -192.389)" fill="#fff" opacity="0.2"/>
        <path id="Path_4117" data-name="Path 4117" d="M493.018,238.869c-23.619,13.637-61.912,13.635-85.532,0-11.412-6.589-17.294-15.158-17.677-23.791-.409,9.235,5.471,18.544,17.677,25.593,23.62,13.635,61.913,13.635,85.532,0,12.2-7.047,18.086-16.356,17.676-25.589C510.31,223.713,504.431,232.28,493.018,238.869Z" transform="translate(-389.773 -179.259)" fill="#fff" opacity="0.7"/>
        <ellipse id="Ellipse_32" data-name="Ellipse 32" cx="42.93" cy="24.786" rx="42.93" ry="24.786" transform="translate(17.549 10.132)" fill="#e8a200"/>
        <path id="Path_4118" data-name="Path 4118" d="M413.466,208.332c16.765-9.68,43.947-9.68,60.713,0,7.885,4.552,12.058,10.433,12.527,16.4.529-6.715-3.646-13.531-12.527-18.658-16.766-9.68-43.948-9.68-60.713,0-8.881,5.128-13.054,11.943-12.527,18.658C401.408,218.763,405.583,212.882,413.466,208.332Z" transform="translate(-383.344 -188.676)" fill="#f9bf30"/>
        <path id="Path_4119" data-name="Path 4119" d="M456.734,207.094l-3.328.951.946.376L451.1,210.3a18.35,18.35,0,0,0-8.239-1.925,15.758,15.758,0,0,0-7.932,2.146,12.294,12.294,0,0,0-2.394,1.737,5.116,5.116,0,0,0-1.285,1.836,6.2,6.2,0,0,0-.42,1.759,10.008,10.008,0,0,0,.074,1.9l.385,3.03a9.114,9.114,0,0,1,.077,2.125,3.817,3.817,0,0,1-.72,1.719,5.808,5.808,0,0,1-1.906,1.631,3.882,3.882,0,0,1-4.08.3q-1.362-.784-.692-1.956a10.577,10.577,0,0,1,3.622-2.923V219.4l-2.844,1.067-4.091-1.737c-2.506,1.538-4.116,2.989-4.85,4.358l-.467-.526V224.8h.009c.014,1.532,1.181,3.039,3.526,4.525l-1.617.933-2.2-1.006v2.274l1.972,1.14,3.851-2.223a16.82,16.82,0,0,0,7.79,1.554,15.466,15.466,0,0,0,7.347-1.975,12.412,12.412,0,0,0,2.607-1.936,6.251,6.251,0,0,0,1.445-2.106,7.941,7.941,0,0,0,.537-2.081,11.2,11.2,0,0,0-.008-2.206l-.327-2.932c-.051-.589-.077-1.017-.076-1.282a5.733,5.733,0,0,1,.144-1.112,2.585,2.585,0,0,1,.66-1.268,6.12,6.12,0,0,1,1.418-1.072,5.743,5.743,0,0,1,2.185-.7,3.5,3.5,0,0,1,2.182.366,2,2,0,0,1,.681.526.624.624,0,0,1,.12.379l-3.385.7v2.274l6.859,3.052c.56-.354,1.063-.682,1.5-.99a14.267,14.267,0,0,0,1.382-1.105,8.218,8.218,0,0,0,1.148-1.239,4.393,4.393,0,0,0,.652-1.337,2.892,2.892,0,0,0,.112-.679l.008-.009v-2.392l-.873.182c-.013-.014-.019-.028-.032-.044a8.1,8.1,0,0,0-1.832-1.565l3.6-2.079Z" transform="translate(-375.141 -183.88)" fill="#f9bf30"/>
        <g id="Group_906" data-name="Group 906" transform="translate(39.923 22.052)">
          <path id="Path_4120" data-name="Path 4120" d="M415.064,229.675l3.813-2.2q-3.91-2.477-3.5-5.038t5.28-5.548l6.935,2.943a10.559,10.559,0,0,0-3.622,2.921q-.67,1.172.692,1.956a3.885,3.885,0,0,0,4.08-.3,5.811,5.811,0,0,0,1.906-1.633,3.817,3.817,0,0,0,.72-1.719,9.114,9.114,0,0,0-.077-2.125l-.385-3.03a10.008,10.008,0,0,1-.074-1.9,6.2,6.2,0,0,1,.42-1.759,5.116,5.116,0,0,1,1.285-1.836,12.292,12.292,0,0,1,2.394-1.737,15.757,15.757,0,0,1,7.932-2.146,18.35,18.35,0,0,1,8.239,1.925l3.62-2.09,2.012,1.162-3.6,2.079a8.1,8.1,0,0,1,1.832,1.565,3.92,3.92,0,0,1,.832,1.5,2.733,2.733,0,0,1-.047,1.445,4.42,4.42,0,0,1-.652,1.339,8.288,8.288,0,0,1-1.148,1.238,14.54,14.54,0,0,1-1.382,1.107c-.44.306-.943.635-1.5.99l-6.859-3.054q.784-.476,1.284-.8t1.015-.707a4.214,4.214,0,0,0,.747-.674,1.855,1.855,0,0,0,.325-.6.617.617,0,0,0-.106-.581,2,2,0,0,0-.681-.526,3.512,3.512,0,0,0-2.182-.366,5.743,5.743,0,0,0-2.185.7,6.165,6.165,0,0,0-1.418,1.072,2.585,2.585,0,0,0-.66,1.268,5.733,5.733,0,0,0-.144,1.112c0,.265.025.693.076,1.282l.327,2.932a11.22,11.22,0,0,1,.008,2.207,7.947,7.947,0,0,1-.537,2.079,6.271,6.271,0,0,1-1.445,2.108,12.468,12.468,0,0,1-2.607,1.934,15.467,15.467,0,0,1-7.347,1.975,16.82,16.82,0,0,1-7.79-1.554l-3.851,2.223Z" transform="translate(-415.064 -206.358)" fill="#fdd762"/>
        </g>
      </g>
      <g id="Group_910" data-name="Group 910" transform="translate(0 15.122)">
        <path id="Path_4121" data-name="Path 4121" d="M505.375,220.744h-2.462c-2.76-5.422-7.842-10.534-15.254-14.813-23.619-13.637-61.913-13.637-85.53,0-7.411,4.279-12.494,9.391-15.254,14.815h-2.46v9.878h0c0,8.935,5.905,17.872,17.714,24.689,23.62,13.637,61.913,13.637,85.532,0,11.81-6.818,17.714-15.756,17.714-24.691h0Z" transform="translate(-384.415 -185.827)" fill="#f9bf30"/>
        <path id="Path_4122" data-name="Path 4122" d="M431.778,196.233c-10.864,1.388-21.2,4.511-29.648,9.39-7.411,4.279-12.494,9.391-15.254,14.815h-2.46v9.878c0,8.935,5.905,17.872,17.714,24.689,8.452,4.879,18.784,8,29.648,9.391Z" transform="translate(-384.415 -185.52)" fill="#fdd762"/>
        <path id="Path_4123" data-name="Path 4123" d="M449.911,250.748c11.7-6.807,17.549-15.7,17.549-24.591v-9.878H465c-2.353-4.623-6.41-9.014-12.142-12.862h-2.946Z" transform="translate(-346.501 -181.361)" fill="#e8a200"/>
        <g id="Group_908" data-name="Group 908" transform="translate(1.698 12.797)" opacity="0.4">
          <path id="Path_4124" data-name="Path 4124" d="M460.016,212.227a28.823,28.823,0,0,0-2.622-3.8V238.11a28.724,28.724,0,0,0,2.622-3.8Z" transform="translate(-343.868 -191.256)" fill="#e8a200"/>
          <path id="Path_4125" data-name="Path 4125" d="M398.733,204.859a47.653,47.653,0,0,0-8.449,6.136v37.123c.824.755,1.691,1.5,2.624,2.223V210.1h4.945v43.6c.3.178.576.362.879.535.57.33,1.157.644,1.743.957V210.1h4.945v47.471q1.293.557,2.624,1.069V210.1h4.945v50.246c.865.268,1.74.521,2.622.764V210.1h4.945v52.2q1.3.277,2.624.518V210.1h4.945v53.5q1.307.17,2.623.309V210.1h4.945v54.2c.873.049,1.748.082,2.624.109V210.1h4.945v54.341q1.312-.021,2.623-.077V210.1h4.945v53.942c.878-.079,1.753-.166,2.624-.267V210.1H458.4v52.977q1.319-.22,2.623-.48V210.1h4.945v51.379q1.324-.336,2.624-.714V210.1h4.943v49.06q1.331-.478,2.624-1V210.1H481.1v45.825c.892-.448,1.767-.909,2.623-1.393V210.1h4.945V251.4c.927-.665,1.8-1.347,2.624-2.04V210.1h.437a49.163,49.163,0,0,0-7.471-5.244,72.8,72.8,0,0,0-18.558-7.307H417.288A72.807,72.807,0,0,0,398.733,204.859Z" transform="translate(-382.716 -197.553)" fill="#e8a200"/>
          <path id="Path_4126" data-name="Path 4126" d="M388.114,209.624a27.188,27.188,0,0,0-1.86,3.062h-.763v18.1a25.965,25.965,0,0,0,2.623,4.748Z" transform="translate(-385.491 -190.565)" fill="#e8a200"/>
        </g>
        <ellipse id="Ellipse_33" data-name="Ellipse 33" cx="60.48" cy="34.918" rx="60.48" ry="34.918" fill="#fdd762"/>
        <path id="Path_4127" data-name="Path 4127" d="M458.439,230.33c17.387-10.037,21.956-24.666,13.743-37.126-22.69-6.628-51.1-4.478-70.057,6.469-17.388,10.039-21.958,24.666-13.744,37.128C411.071,243.427,439.48,241.277,458.439,230.33Z" transform="translate(-384.411 -189.446)" fill="#fff" opacity="0.2"/>
        <path id="Path_4128" data-name="Path 4128" d="M487.655,235.926c-23.619,13.635-61.912,13.635-85.532,0-11.412-6.59-17.294-15.158-17.677-23.791-.409,9.233,5.471,18.544,17.677,25.591,23.62,13.637,61.913,13.637,85.532,0,12.2-7.047,18.086-16.356,17.676-25.591C504.947,220.768,499.068,229.335,487.655,235.926Z" transform="translate(-384.409 -176.315)" fill="#fff" opacity="0.7"/>
        <path id="Path_4129" data-name="Path 4129" d="M468.817,238.178c-16.765,9.679-43.947,9.679-60.712,0s-16.766-25.373,0-35.052,43.947-9.68,60.713,0S485.583,228.5,468.817,238.178Z" transform="translate(-377.981 -185.733)" fill="#e8a200"/>
        <path id="Path_4130" data-name="Path 4130" d="M408.1,205.387c16.765-9.679,43.947-9.679,60.713,0,7.883,4.552,12.058,10.433,12.527,16.4.529-6.715-3.646-13.531-12.527-18.66-16.766-9.679-43.948-9.68-60.713,0-8.881,5.127-13.054,11.941-12.527,18.656C396.045,215.821,400.22,209.939,408.1,205.387Z" transform="translate(-377.98 -185.733)" fill="#f9bf30"/>
        <path id="Path_4131" data-name="Path 4131" d="M451.371,204.15l-3.328.952.946.376-3.249,1.876a18.329,18.329,0,0,0-8.239-1.925,15.758,15.758,0,0,0-7.932,2.146,12.294,12.294,0,0,0-2.4,1.737,5.139,5.139,0,0,0-1.284,1.835,6.176,6.176,0,0,0-.42,1.759,10.027,10.027,0,0,0,.074,1.9l.385,3.03a9.188,9.188,0,0,1,.077,2.124,3.823,3.823,0,0,1-.72,1.721,5.808,5.808,0,0,1-1.906,1.631,3.885,3.885,0,0,1-4.081.3q-1.359-.786-.69-1.958a10.6,10.6,0,0,1,3.622-2.921v-2.274l-2.844,1.067-4.091-1.735c-2.506,1.538-4.116,2.989-4.85,4.356l-.467-.524v2.229h.009c.014,1.53,1.181,3.039,3.526,4.524l-1.617.935-2.2-1.006v2.274l1.972,1.138,3.851-2.223a16.8,16.8,0,0,0,7.789,1.554,15.449,15.449,0,0,0,7.348-1.974,12.455,12.455,0,0,0,2.607-1.936,6.279,6.279,0,0,0,1.445-2.108,7.913,7.913,0,0,0,.537-2.079,11.2,11.2,0,0,0-.008-2.206l-.327-2.932c-.051-.59-.077-1.018-.076-1.284a5.823,5.823,0,0,1,.142-1.112,2.6,2.6,0,0,1,.662-1.266,6.167,6.167,0,0,1,1.418-1.074,5.771,5.771,0,0,1,2.184-.7,3.515,3.515,0,0,1,2.184.365,2.04,2.04,0,0,1,.68.526.629.629,0,0,1,.12.381l-3.387.7v2.274l6.86,3.052q.841-.531,1.5-.99a14.3,14.3,0,0,0,1.382-1.107,8.14,8.14,0,0,0,1.148-1.238,4.4,4.4,0,0,0,.652-1.339,3.032,3.032,0,0,0,.112-.679l.008-.008v-2.392l-.875.182a.425.425,0,0,0-.03-.044,8.1,8.1,0,0,0-1.832-1.565l3.6-2.081Z" transform="translate(-369.778 -180.937)" fill="#f9bf30"/>
        <g id="Group_909" data-name="Group 909" transform="translate(39.923 22.053)">
          <path id="Path_4132" data-name="Path 4132" d="M409.7,226.732l3.813-2.2q-3.91-2.477-3.5-5.037t5.28-5.548l6.935,2.941a10.577,10.577,0,0,0-3.622,2.923q-.67,1.17.692,1.956a3.882,3.882,0,0,0,4.08-.3,5.808,5.808,0,0,0,1.906-1.631,3.823,3.823,0,0,0,.72-1.721,9.107,9.107,0,0,0-.077-2.124l-.385-3.03a10.015,10.015,0,0,1-.074-1.9,6.173,6.173,0,0,1,.42-1.76,5.139,5.139,0,0,1,1.284-1.835,12.36,12.36,0,0,1,2.4-1.737,15.758,15.758,0,0,1,7.932-2.146,18.35,18.35,0,0,1,8.239,1.925l3.62-2.09,2.011,1.16-3.6,2.081a8.1,8.1,0,0,1,1.832,1.565,3.92,3.92,0,0,1,.832,1.5,2.734,2.734,0,0,1-.047,1.445,4.393,4.393,0,0,1-.652,1.337,8.14,8.14,0,0,1-1.148,1.238,14.056,14.056,0,0,1-1.382,1.107q-.661.46-1.5.99l-6.86-3.052q.786-.476,1.285-.8c.332-.213.669-.45,1.015-.707a4.152,4.152,0,0,0,.747-.676,1.823,1.823,0,0,0,.325-.6.618.618,0,0,0-.106-.581,2.04,2.04,0,0,0-.68-.526,3.515,3.515,0,0,0-2.184-.365,5.771,5.771,0,0,0-2.184.7,6.167,6.167,0,0,0-1.418,1.074,2.6,2.6,0,0,0-.662,1.266,5.836,5.836,0,0,0-.142,1.113c0,.265.025.693.076,1.282l.327,2.932a11.2,11.2,0,0,1,.008,2.206,7.939,7.939,0,0,1-.537,2.081,6.289,6.289,0,0,1-1.445,2.106,12.454,12.454,0,0,1-2.607,1.936,15.468,15.468,0,0,1-7.348,1.975,16.819,16.819,0,0,1-7.789-1.555l-3.851,2.223Z" transform="translate(-409.701 -203.415)" fill="#fdd762"/>
        </g>
      </g>
      <g id="Group_913" data-name="Group 913" transform="translate(8.468 0)">
        <path id="Path_4133" data-name="Path 4133" d="M510.738,211.167h-2.462c-2.76-5.424-7.842-10.536-15.254-14.813-23.619-13.637-61.913-13.637-85.53,0-7.411,4.279-12.494,9.391-15.254,14.815h-2.46v9.876h0c0,8.937,5.905,17.873,17.714,24.691,23.62,13.637,61.913,13.637,85.532,0,11.81-6.819,17.714-15.756,17.714-24.693h0Z" transform="translate(-389.779 -176.249)" fill="#f9bf30"/>
        <path id="Path_4134" data-name="Path 4134" d="M437.141,186.656c-10.864,1.386-21.2,4.511-29.648,9.39-7.411,4.279-12.494,9.391-15.254,14.815h-2.46v9.876c0,8.937,5.905,17.873,17.714,24.691,8.452,4.879,18.784,8,29.648,9.39Z" transform="translate(-389.779 -175.942)" fill="#fdd762"/>
        <path id="Path_4135" data-name="Path 4135" d="M455.274,241.171c11.7-6.807,17.549-15.7,17.549-24.593V206.7h-2.462c-2.353-4.623-6.41-9.016-12.142-12.862h-2.946Z" transform="translate(-351.864 -171.783)" fill="#e8a200"/>
        <g id="Group_911" data-name="Group 911" transform="translate(1.698 12.796)" opacity="0.4">
          <path id="Path_4136" data-name="Path 4136" d="M465.38,202.65a29.112,29.112,0,0,0-2.624-3.8v29.68a28.9,28.9,0,0,0,2.624-3.8Z" transform="translate(-349.231 -181.678)" fill="#e8a200"/>
          <path id="Path_4137" data-name="Path 4137" d="M404.1,195.282a47.632,47.632,0,0,0-8.449,6.136v37.123c.824.755,1.691,1.5,2.624,2.223V200.527h4.945v43.6c.3.178.578.36.879.535.572.328,1.157.643,1.743.957V200.527h4.945V248q1.293.557,2.624,1.07v-48.54h4.945v50.246q1.3.4,2.622.763V200.527h4.945v52.2q1.3.277,2.624.518V200.527h4.945v53.495q1.307.171,2.623.308v-53.8h4.945v54.2c.873.049,1.748.082,2.624.109V200.527h4.945v54.34c.875-.014,1.749-.041,2.623-.076V200.527h4.945v53.942c.878-.079,1.753-.166,2.624-.268V200.527h4.945V253.5q1.319-.22,2.623-.478v-52.5h4.945v51.379q1.324-.339,2.624-.715V200.527H478.9v49.06q1.329-.481,2.622-1V200.527h4.945V246.35q1.338-.67,2.624-1.391V200.527h4.944v41.293c.927-.663,1.8-1.345,2.624-2.038V200.527h.437a48.942,48.942,0,0,0-7.471-5.244,72.775,72.775,0,0,0-18.558-7.309H422.651A72.774,72.774,0,0,0,404.1,195.282Z" transform="translate(-388.079 -187.975)" fill="#e8a200"/>
          <path id="Path_4138" data-name="Path 4138" d="M393.477,200.046a27.064,27.064,0,0,0-1.86,3.063h-.763v18.1a25.953,25.953,0,0,0,2.623,4.746Z" transform="translate(-390.854 -180.987)" fill="#e8a200"/>
        </g>
        <ellipse id="Ellipse_34" data-name="Ellipse 34" cx="60.48" cy="34.918" rx="60.48" ry="34.918" fill="#fdd762"/>
        <path id="Path_4139" data-name="Path 4139" d="M463.8,220.753c17.387-10.039,21.956-24.666,13.744-37.128-22.692-6.627-51.1-4.476-70.059,6.47-17.388,10.039-21.958,24.666-13.744,37.126C416.434,233.85,444.843,231.7,463.8,220.753Z" transform="translate(-389.774 -179.868)" fill="#fff" opacity="0.2"/>
        <path id="Path_4140" data-name="Path 4140" d="M493.018,226.348c-23.619,13.637-61.912,13.635-85.532,0-11.412-6.59-17.294-15.158-17.677-23.793-.409,9.235,5.471,18.544,17.677,25.593,23.62,13.637,61.913,13.637,85.532,0,12.2-7.047,18.086-16.356,17.676-25.589C510.31,211.192,504.431,219.759,493.018,226.348Z" transform="translate(-389.773 -166.738)" fill="#fff" opacity="0.7"/>
        <ellipse id="Ellipse_35" data-name="Ellipse 35" cx="42.93" cy="24.786" rx="42.93" ry="24.786" transform="translate(17.549 10.132)" fill="#e8a200"/>
        <path id="Path_4141" data-name="Path 4141" d="M413.466,195.811c16.765-9.68,43.947-9.679,60.713,0,7.885,4.552,12.058,10.435,12.527,16.4.529-6.715-3.646-13.531-12.527-18.658-16.766-9.68-43.948-9.68-60.713,0-8.881,5.128-13.054,11.943-12.527,18.658C401.408,206.244,405.583,200.363,413.466,195.811Z" transform="translate(-383.344 -176.155)" fill="#f9bf30"/>
        <path id="Path_4142" data-name="Path 4142" d="M456.734,194.573l-3.328.951.946.376-3.249,1.877a18.331,18.331,0,0,0-8.239-1.926A15.757,15.757,0,0,0,434.931,198a12.229,12.229,0,0,0-2.394,1.738,5.1,5.1,0,0,0-1.285,1.835,6.2,6.2,0,0,0-.42,1.759,10.029,10.029,0,0,0,.074,1.9l.385,3.028a9.116,9.116,0,0,1,.077,2.125,3.83,3.83,0,0,1-.72,1.721,5.827,5.827,0,0,1-1.906,1.631,3.882,3.882,0,0,1-4.08.3q-1.362-.784-.692-1.956a10.559,10.559,0,0,1,3.622-2.921v-2.274l-2.844,1.067-4.091-1.735c-2.506,1.538-4.116,2.989-4.85,4.356l-.467-.526v2.229l.009,0c.014,1.53,1.181,3.038,3.526,4.524l-1.617.933-2.2-1.006V219l1.972,1.14,3.851-2.223a16.821,16.821,0,0,0,7.79,1.554,15.467,15.467,0,0,0,7.347-1.975,12.41,12.41,0,0,0,2.607-1.934,6.271,6.271,0,0,0,1.445-2.108,7.931,7.931,0,0,0,.537-2.079,11.2,11.2,0,0,0-.008-2.206l-.327-2.932c-.051-.59-.077-1.018-.076-1.284a5.733,5.733,0,0,1,.144-1.112,2.585,2.585,0,0,1,.66-1.268,6.21,6.21,0,0,1,1.418-1.072,5.77,5.77,0,0,1,2.185-.7,3.523,3.523,0,0,1,2.182.366,2,2,0,0,1,.681.526.627.627,0,0,1,.12.379l-3.385.7v2.274l6.859,3.054c.56-.355,1.063-.684,1.5-.99a14.547,14.547,0,0,0,1.382-1.107,8.289,8.289,0,0,0,1.148-1.238,4.4,4.4,0,0,0,.652-1.339,2.892,2.892,0,0,0,.112-.679l.008-.008v-2.394l-.873.183c-.013-.016-.019-.03-.032-.046a8.1,8.1,0,0,0-1.832-1.565l3.6-2.079Z" transform="translate(-375.141 -171.359)" fill="#f9bf30"/>
        <g id="Group_912" data-name="Group 912" transform="translate(39.923 22.053)">
          <path id="Path_4143" data-name="Path 4143" d="M415.064,217.154l3.813-2.2q-3.91-2.477-3.5-5.038t5.28-5.547l6.935,2.941a10.578,10.578,0,0,0-3.622,2.921q-.67,1.172.692,1.956a3.882,3.882,0,0,0,4.08-.3,5.827,5.827,0,0,0,1.906-1.631,3.823,3.823,0,0,0,.72-1.721,9.1,9.1,0,0,0-.077-2.124l-.385-3.03a10.029,10.029,0,0,1-.074-1.9,6.229,6.229,0,0,1,.42-1.759,5.1,5.1,0,0,1,1.285-1.835,12.228,12.228,0,0,1,2.394-1.737A15.759,15.759,0,0,1,442.864,194a18.331,18.331,0,0,1,8.239,1.926l3.62-2.09,2.012,1.16-3.6,2.079a8.1,8.1,0,0,1,1.832,1.565,3.936,3.936,0,0,1,.832,1.5,2.728,2.728,0,0,1-.047,1.443,4.4,4.4,0,0,1-.652,1.339,8.289,8.289,0,0,1-1.148,1.238,14.55,14.55,0,0,1-1.382,1.107c-.44.306-.943.635-1.5.99l-6.859-3.054q.784-.474,1.284-.8c.332-.213.669-.45,1.015-.707a4.274,4.274,0,0,0,.747-.676,1.823,1.823,0,0,0,.325-.6.618.618,0,0,0-.106-.581,2.019,2.019,0,0,0-.681-.526,3.512,3.512,0,0,0-2.182-.365,5.742,5.742,0,0,0-2.185.7,6.167,6.167,0,0,0-1.418,1.074,2.573,2.573,0,0,0-.66,1.266,5.733,5.733,0,0,0-.144,1.112c0,.265.025.693.076,1.284l.327,2.932a11.2,11.2,0,0,1,.008,2.206,7.931,7.931,0,0,1-.537,2.079,6.256,6.256,0,0,1-1.445,2.108,12.41,12.41,0,0,1-2.607,1.934,15.467,15.467,0,0,1-7.347,1.975,16.8,16.8,0,0,1-7.79-1.554l-3.851,2.223Z" transform="translate(-415.064 -193.838)" fill="#fdd762"/>
        </g>
      </g>
    </g>
    <g id="Group_3224" data-name="Group 3224" transform="translate(1595.588 697.497)">
      <rect id="Rectangle_342" data-name="Rectangle 342" width="3.066" height="8.907" transform="matrix(-0.574, -0.819, 0.819, -0.574, 1.761, 24.34)" fill="#fdd762"/>
      <rect id="Rectangle_343" data-name="Rectangle 343" width="3.066" height="8.907" transform="matrix(-0.574, -0.819, 0.819, -0.574, 4.363, 18.768)" fill="#fdd762"/>
      <rect id="Rectangle_344" data-name="Rectangle 344" width="3.066" height="8.907" transform="matrix(-0.574, -0.819, 0.819, -0.574, 6.964, 13.197)" fill="#fdd762"/>
      <rect id="Rectangle_345" data-name="Rectangle 345" width="3.066" height="8.907" transform="matrix(-0.574, -0.819, 0.819, -0.574, 9.566, 7.626)" fill="#fdd762"/>
    </g>
    <g id="Group_3225" data-name="Group 3225" transform="translate(1529.72 662.374)">
      <g id="Group_865" data-name="Group 865" transform="translate(3.849)">
        <path id="Path_3986" data-name="Path 3986" d="M532.972,207.308l-16.7-9.64-16.7,9.64,16.7,9.64Z" transform="translate(-499.576 -115.294)" fill="#d4ecff"/>
        <path id="Path_3987" data-name="Path 3987" d="M517.6,211.364v-60.05l14.183-8.189v60.05Z" transform="translate(-493.085 -134.937)" fill="#1d31c6"/>
        <path id="Path_3988" data-name="Path 3988" d="M521.358,151.314l-14.183-8.189v60.05l14.183,8.189Z" transform="translate(-496.84 -134.937)" fill="#1d8cc6"/>
        <path id="Path_3989" data-name="Path 3989" d="M535.541,145.293,521.358,137.1l-14.183,8.189,14.183,8.189Z" transform="translate(-496.84 -137.105)" fill="#00a0c9"/>
      </g>
      <g id="Group_866" data-name="Group 866" transform="translate(28.366 70.969)">
        <path id="Path_3990" data-name="Path 3990" d="M531.785,197.471,517.6,189.283v5.459l14.183,8.189Z" transform="translate(-517.602 -189.283)" fill="#95d359"/>
      </g>
      <g id="Group_867" data-name="Group 867" transform="translate(0 24.566)">
        <path id="Path_3991" data-name="Path 3991" d="M507.174,213.049V169.375l14.183-8.189V204.86Z" transform="translate(-492.991 -152.998)" fill="#c13d1a"/>
        <path id="Path_3992" data-name="Path 3992" d="M510.93,169.375l-14.183-8.189V204.86l14.183,8.189Z" transform="translate(-496.747 -152.998)" fill="#db5126"/>
        <path id="Path_3993" data-name="Path 3993" d="M525.113,163.355l-14.183-8.189-14.183,8.189,14.183,8.189Z" transform="translate(-496.747 -155.166)" fill="#ef602e"/>
        <path id="Path_3994" data-name="Path 3994" d="M507.174,213.049V169.375l14.183-8.189V204.86Z" transform="translate(-492.991 -152.998)" fill="#5793ce"/>
        <path id="Path_3995" data-name="Path 3995" d="M510.93,169.375l-14.183-8.189V204.86l14.183,8.189Z" transform="translate(-496.747 -152.998)" fill="#01c8ef"/>
        <path id="Path_3996" data-name="Path 3996" d="M525.113,163.355l-14.183-8.189-14.183,8.189,14.183,8.189Z" transform="translate(-496.747 -155.166)" fill="#396caa"/>
      </g>
      <g id="Group_868" data-name="Group 868" transform="translate(14.183 51.862)">
        <path id="Path_3997" data-name="Path 3997" d="M517.6,214.01V189.444l14.183-8.189v24.566Z" transform="translate(-503.419 -173.067)" fill="#e8a200"/>
        <path id="Path_3998" data-name="Path 3998" d="M521.358,189.444l-14.183-8.189v24.566l14.183,8.189Z" transform="translate(-507.174 -173.067)" fill="#f9bf30"/>
        <path id="Path_3999" data-name="Path 3999" d="M535.541,183.423l-14.183-8.189-14.183,8.189,14.183,8.189Z" transform="translate(-507.174 -175.235)" fill="#fdd762"/>
      </g>
    </g>
    <path id="Path_4307" data-name="Path 4307" d="M484.759,143.51a12.468,12.468,0,1,1,12.467-12.467A12.482,12.482,0,0,1,484.759,143.51Zm0-22.215a9.747,9.747,0,1,0,9.747,9.748A9.759,9.759,0,0,0,484.759,121.3Z" transform="translate(1024.166 518.597)" fill="#ff2c9c"/>
    <ellipse id="Ellipse_46" data-name="Ellipse 46" cx="9.011" cy="9.011" rx="9.011" ry="9.011" transform="translate(1488.807 648.846)" fill="#fdd762"/>
    <g id="Group_3226" data-name="Group 3226" transform="translate(1456.877 595.185)">
      <rect id="Rectangle_348" data-name="Rectangle 348" width="9.5" height="2" transform="translate(306.465 146.729) rotate(-45)" fill="#b45ef4"/>
      <rect id="Rectangle_349" data-name="Rectangle 349" width="2" height="9.5" transform="translate(306.465 141.425) rotate(-45)" fill="#b45ef4"/>
    </g>
    <g id="Group_3227" data-name="Group 3227" transform="translate(1416.877 595.185)">
      <g id="Group_875" data-name="Group 875">
        <path id="Path_4009" data-name="Path 4009" d="M350.555,305.065a2.218,2.218,0,1,1,1.862,2.524A2.218,2.218,0,0,1,350.555,305.065Z" fill="#1d31c6"/>
      </g>
      <rect id="Rectangle_350" data-name="Rectangle 350" width="9.231" height="9.231" transform="matrix(-0.989, -0.149, 0.149, -0.989, 368.837, 321.295)" fill="#1d31c6"/>
    </g>
    <g id="Group_3228" data-name="Group 3228" transform="translate(1416.877 595.185)">
      <g id="Group_927" data-name="Group 927">
        <path id="Path_4195" data-name="Path 4195" d="M373.1,82.057a2.217,2.217,0,1,1-1.292-2.857A2.217,2.217,0,0,1,373.1,82.057Z" fill="#01c8ef"/>
      </g>
      <rect id="Rectangle_351" data-name="Rectangle 351" width="9.231" height="9.231" transform="translate(358.624 62.361) rotate(20.659)" fill="#fdd762"/>
    </g>
  </g>
</svg>
