<svg xmlns="http://www.w3.org/2000/svg" width="26.795" height="30.623" viewBox="0 0 26.795 30.623">
  <g id="Group_559" data-name="Group 559" transform="translate(314 -242.5)">
    <path id="Path_644" data-name="Path 644" d="M-288.581,262.3a4.233,4.233,0,0,1,1.375,3.05,3.8,3.8,0,0,1-1.166,2.782,3.865,3.865,0,0,1-2.84,1.166h-5.563a3.7,3.7,0,0,1-1.107,2.72,3.7,3.7,0,0,1-2.72,1.108,3.7,3.7,0,0,1-2.72-1.108,3.7,3.7,0,0,1-1.107-2.72h-5.563a3.865,3.865,0,0,1-2.84-1.166A3.8,3.8,0,0,1-314,265.347a4.233,4.233,0,0,1,1.375-3.05,6.836,6.836,0,0,0,.957-1.136,5.875,5.875,0,0,0,.778-2.034,19.761,19.761,0,0,0,.3-3.769,9.728,9.728,0,0,1,1.107-4.576,10.106,10.106,0,0,1,3.019-3.529,9.575,9.575,0,0,1,4.308-1.763,1.749,1.749,0,0,1-.36-1.077,1.832,1.832,0,0,1,.569-1.345,1.831,1.831,0,0,1,1.345-.569,1.832,1.832,0,0,1,1.345.569,1.832,1.832,0,0,1,.569,1.345,1.749,1.749,0,0,1-.36,1.077,9.576,9.576,0,0,1,4.308,1.763,10.107,10.107,0,0,1,3.019,3.529,9.728,9.728,0,0,1,1.107,4.576,19.761,19.761,0,0,0,.3,3.769,5.875,5.875,0,0,0,.778,2.034A6.836,6.836,0,0,0-288.581,262.3Zm-2.631,4.126a1.024,1.024,0,0,0,1.046-.689,1.062,1.062,0,0,0-.27-1.225,16.6,16.6,0,0,1-1.554-1.855,8.6,8.6,0,0,1-1.077-2.69,21.42,21.42,0,0,1-.419-4.606,6.946,6.946,0,0,0-.957-3.557,7.087,7.087,0,0,0-2.6-2.6,6.962,6.962,0,0,0-3.56-.957,6.962,6.962,0,0,0-3.56.957,7.087,7.087,0,0,0-2.6,2.6,6.946,6.946,0,0,0-.957,3.557,20.54,20.54,0,0,1-.419,4.545,8.64,8.64,0,0,1-1.077,2.751,16.6,16.6,0,0,1-1.554,1.855,1.062,1.062,0,0,0-.27,1.225,1.024,1.024,0,0,0,1.046.689Zm-9.391,4.308a1.377,1.377,0,0,0,1.016-.421,1.375,1.375,0,0,0,.419-1.016h-2.871a1.377,1.377,0,0,0,.421,1.016A1.377,1.377,0,0,0-300.6,270.732Z" transform="translate(0 0)" fill="#00161c"/>
  </g>
</svg>
