<svg xmlns="http://www.w3.org/2000/svg" width="322.17" height="266.849" viewBox="0 0 322.17 266.849">
  <g id="Group_3262" data-name="Group 3262" transform="translate(-938.306 -378.796)">
    <g id="Group_3139" data-name="Group 3139" transform="translate(698.085 316.435)">
      <ellipse id="Ellipse_11" data-name="Ellipse 11" cx="53.243" cy="12.904" rx="53.243" ry="12.904" transform="translate(390.538 260.806)" fill="#d4ecff"/>
      <g id="Group_863" data-name="Group 863" transform="translate(265 30)">
        <path id="Path_3978" data-name="Path 3978" d="M296.82,293.14l-10.514-6.07-10.514,6.07,10.514,6.07Z" fill="#d4ecff"/>
        <g id="Group_862" data-name="Group 862">
          <g id="Group_859" data-name="Group 859">
            <path id="Path_3979" data-name="Path 3979" d="M286.306,292.4V277.863l11.085-6.4V286Z" fill="#721bd5"/>
            <path id="Path_3980" data-name="Path 3980" d="M286.306,277.863l-11.085-6.4V286l11.085,6.4Z" fill="#b45ef4"/>
          </g>
          <g id="Group_860" data-name="Group 860">
            <path id="Path_3981" data-name="Path 3981" d="M286.306,277.863V267.6l11.085-6.4v10.267Z" fill="#e8a200"/>
            <path id="Path_3982" data-name="Path 3982" d="M286.306,267.6l-11.085-6.4v10.267l11.085,6.4Z" fill="#f9bf30"/>
          </g>
          <g id="Group_861" data-name="Group 861">
            <path id="Path_3983" data-name="Path 3983" d="M286.306,267.6v-7.362l11.085-6.4V261.2Z" fill="#5793ce"/>
            <path id="Path_3984" data-name="Path 3984" d="M286.306,260.234l-11.085-6.4V261.2l11.085,6.4Z" fill="#01c8ef"/>
            <path id="Path_3985" data-name="Path 3985" d="M297.391,253.835l-11.085-6.4-11.085,6.4,11.085,6.4Z" fill="#396caa"/>
          </g>
        </g>
      </g>
      <g id="Group_864" data-name="Group 864">
        <rect id="Rectangle_342" data-name="Rectangle 342" width="2.254" height="6.549" transform="matrix(-0.574, -0.819, 0.819, -0.574, 546.469, 180.823)" fill="#fdd762"/>
        <rect id="Rectangle_343" data-name="Rectangle 343" width="2.254" height="6.549" transform="matrix(-0.574, -0.819, 0.819, -0.574, 548.382, 176.727)" fill="#fdd762"/>
        <rect id="Rectangle_344" data-name="Rectangle 344" width="2.254" height="6.549" transform="matrix(-0.574, -0.819, 0.819, -0.574, 550.295, 172.63)" fill="#fdd762"/>
        <rect id="Rectangle_345" data-name="Rectangle 345" width="2.254" height="6.549" transform="matrix(-0.574, -0.819, 0.819, -0.574, 552.208, 168.534)" fill="#fdd762"/>
      </g>
      <g id="Group_869" data-name="Group 869">
        <g id="Group_865" data-name="Group 865">
          <path id="Path_3986" data-name="Path 3986" d="M524.129,204.755l-12.277-7.088-12.277,7.088,12.277,7.088Z" fill="#d4ecff"/>
          <path id="Path_3987" data-name="Path 3987" d="M517.6,193.3v-44.15l10.428-6.021v44.15Z" fill="#1d31c6"/>
          <path id="Path_3988" data-name="Path 3988" d="M517.6,149.146l-10.428-6.021v44.15L517.6,193.3Z" fill="#1d8cc6"/>
          <path id="Path_3989" data-name="Path 3989" d="M528.03,143.125,517.6,137.1l-10.428,6.02,10.428,6.021Z" fill="#00a0c9"/>
        </g>
        <g id="Group_866" data-name="Group 866">
          <path id="Path_3990" data-name="Path 3990" d="M528.03,195.3,517.6,189.283V193.3l10.428,6.021Z" fill="#95d359"/>
        </g>
        <g id="Group_867" data-name="Group 867">
          <path id="Path_3991" data-name="Path 3991" d="M507.174,199.317V167.207l10.428-6.021V193.3Z" fill="#c13d1a"/>
          <path id="Path_3992" data-name="Path 3992" d="M507.174,167.207l-10.428-6.021V193.3l10.428,6.021Z" fill="#db5126"/>
          <path id="Path_3993" data-name="Path 3993" d="M517.6,161.187l-10.428-6.02-10.428,6.02,10.428,6.021Z" fill="#ef602e"/>
          <path id="Path_3994" data-name="Path 3994" d="M507.174,199.317V167.207l10.428-6.021V193.3Z" fill="#5793ce"/>
          <path id="Path_3995" data-name="Path 3995" d="M507.174,167.207l-10.428-6.021V193.3l10.428,6.021Z" fill="#01c8ef"/>
          <path id="Path_3996" data-name="Path 3996" d="M517.6,161.187l-10.428-6.02-10.428,6.02,10.428,6.021Z" fill="#396caa"/>
        </g>
        <g id="Group_868" data-name="Group 868">
          <path id="Path_3997" data-name="Path 3997" d="M517.6,205.337V187.276l10.428-6.02v18.062Z" fill="#e8a200"/>
          <path id="Path_3998" data-name="Path 3998" d="M517.6,187.276l-10.428-6.02v18.062l10.428,6.021Z" fill="#f9bf30"/>
          <path id="Path_3999" data-name="Path 3999" d="M528.03,181.255,517.6,175.235l-10.428,6.021,10.428,6.02Z" fill="#fdd762"/>
        </g>
      </g>
      <g id="Group_872" data-name="Group 872">
        <path id="Path_4000" data-name="Path 4000" d="M330.193,112.356,319.7,106.3l-10.489,6.056,10.489,6.056Z" fill="#d4ecff"/>
        <g id="Group_870" data-name="Group 870">
          <path id="Path_4001" data-name="Path 4001" d="M319.7,112.794V105.97l12.532-7.235v6.824Z" fill="#e8a200"/>
          <path id="Path_4002" data-name="Path 4002" d="M319.7,105.97l-12.532-7.235v6.824l12.532,7.235Z" fill="#f9bf30"/>
          <path id="Path_4003" data-name="Path 4003" d="M332.236,98.735,319.7,91.5l-12.532,7.235L319.7,105.97Z" fill="#fdd762"/>
          <path id="Path_4004" data-name="Path 4004" d="M328.012,98.735l-8.308-4.8-8.308,4.8,8.308,4.8Z" fill="#e8a200"/>
        </g>
        <g id="Group_871" data-name="Group 871">
          <path id="Path_4005" data-name="Path 4005" d="M319.7,99.644V92.82l12.532-7.235v6.824Z" fill="#5793ce"/>
          <path id="Path_4006" data-name="Path 4006" d="M319.7,92.82l-12.532-7.235v6.824L319.7,99.644Z" fill="#01c8ef"/>
          <path id="Path_4007" data-name="Path 4007" d="M332.236,85.585,319.7,78.349l-12.532,7.235L319.7,92.82Z" fill="#396caa"/>
        </g>
      </g>
      <g id="Group_873" data-name="Group 873">
        <rect id="Rectangle_346" data-name="Rectangle 346" width="9.5" height="2" transform="translate(482.291 322.294) rotate(-45)" fill="#b45ef4"/>
        <rect id="Rectangle_347" data-name="Rectangle 347" width="2" height="9.5" transform="translate(482.291 316.99) rotate(-44.996)" fill="#b45ef4"/>
      </g>
      <path id="Path_4008" data-name="Path 4008" d="M481.458,136.908a9.167,9.167,0,1,1,9.166-9.166A9.177,9.177,0,0,1,481.458,136.908Zm0-16.333a7.167,7.167,0,1,0,7.166,7.167A7.175,7.175,0,0,0,481.458,120.575Z" fill="#ff2c9c"/>
      <circle id="Ellipse_12" data-name="Ellipse 12" cx="6.625" cy="6.625" r="6.625" transform="translate(466.666 127.159)" fill="#fdd762"/>
      <g id="Group_874" data-name="Group 874">
        <rect id="Rectangle_348" data-name="Rectangle 348" width="9.5" height="2" transform="translate(306.465 146.729) rotate(-45)" fill="#b45ef4"/>
        <rect id="Rectangle_349" data-name="Rectangle 349" width="2" height="9.5" transform="translate(306.465 141.425) rotate(-45)" fill="#b45ef4"/>
      </g>
      <circle id="Ellipse_13" data-name="Ellipse 13" cx="4.857" cy="4.857" r="4.857" transform="translate(315.816 197.843)" fill="#fdd762"/>
      <g id="Group_876" data-name="Group 876">
        <g id="Group_875" data-name="Group 875">
          <path id="Path_4009" data-name="Path 4009" d="M350.555,305.065a2.218,2.218,0,1,1,1.862,2.524A2.218,2.218,0,0,1,350.555,305.065Z" fill="#1d31c6"/>
        </g>
        <rect id="Rectangle_350" data-name="Rectangle 350" width="9.231" height="9.231" transform="matrix(-0.989, -0.149, 0.149, -0.989, 368.837, 321.295)" fill="#1d31c6"/>
      </g>
      <g id="Group_928" data-name="Group 928">
        <g id="Group_927" data-name="Group 927">
          <path id="Path_4195" data-name="Path 4195" d="M373.1,82.057a2.217,2.217,0,1,1-1.292-2.857A2.217,2.217,0,0,1,373.1,82.057Z" fill="#01c8ef"/>
        </g>
        <rect id="Rectangle_351" data-name="Rectangle 351" width="9.231" height="9.231" transform="translate(358.624 62.361) rotate(20.659)" fill="#fdd762"/>
      </g>
      <g id="Group_3150" data-name="Group 3150" transform="translate(-35 -13)">
        <path id="Path_3978-2" data-name="Path 3978" d="M296.82,293.14l-10.514-6.07-10.514,6.07,10.514,6.07Z" fill="#d4ecff"/>
        <g id="Group_862-2" data-name="Group 862">
          <g id="Group_859-2" data-name="Group 859">
            <path id="Path_3979-2" data-name="Path 3979" d="M286.306,292.4V277.863l11.085-6.4V286Z" fill="#721bd5"/>
            <path id="Path_3980-2" data-name="Path 3980" d="M286.306,277.863l-11.085-6.4V286l11.085,6.4Z" fill="#b45ef4"/>
          </g>
          <g id="Group_860-2" data-name="Group 860">
            <path id="Path_3981-2" data-name="Path 3981" d="M286.306,277.863V267.6l11.085-6.4v10.267Z" fill="#e8a200"/>
            <path id="Path_3982-2" data-name="Path 3982" d="M286.306,267.6l-11.085-6.4v10.267l11.085,6.4Z" fill="#f9bf30"/>
          </g>
          <g id="Group_861-2" data-name="Group 861">
            <path id="Path_3983-2" data-name="Path 3983" d="M286.306,267.6v-7.362l11.085-6.4V261.2Z" fill="#5793ce"/>
            <path id="Path_3984-2" data-name="Path 3984" d="M286.306,260.234l-11.085-6.4V261.2l11.085,6.4Z" fill="#01c8ef"/>
            <path id="Path_3985-2" data-name="Path 3985" d="M297.391,253.835l-11.085-6.4-11.085,6.4,11.085,6.4Z" fill="#396caa"/>
          </g>
        </g>
      </g>
    </g>
    <g id="Group_3148" data-name="Group 3148" transform="translate(822.462 216.493)">
      <path id="Path_4196" data-name="Path 4196" d="M232.267,220.876a1.865,1.865,0,0,0,.263.093,6.92,6.92,0,0,0,2.077.238,40.4,40.4,0,0,0,3.995-.688c.467-.064.963-.087,1.437-.11a33.373,33.373,0,0,1,4.648.6c1.621.358,1.823.4,3.423.839.746.2,1.819.9,2.557,1.159,1.12.4,1.436,1.959.628,1.962a1.336,1.336,0,0,1-1.137-.306,25.982,25.982,0,0,0-2.606-1.176,8.9,8.9,0,0,1,2.606,1.176c.527.426,1.184.579,1.494,1.261.1.217.345.312.413.608a.918.918,0,0,1-.169.841.95.95,0,0,1-1.083.143,10.238,10.238,0,0,1-2.47-1.4,18.77,18.77,0,0,0-2.015-1.606,15.726,15.726,0,0,1,3.222,2.559c.374.339,1.143.961,1.558,1.248a1.176,1.176,0,0,1,.041,1.918c-.7.432-1.91-.354-2.379-.8-.616-.583-1.6-1.209-2.177-1.809a9.455,9.455,0,0,0-.837-.788,15.87,15.87,0,0,0-1.6-1.306,39.3,39.3,0,0,1,3.4,3.222c.449.546,1.081,1.333.639,2-.8,1.2-1.992.11-2.517-.368-.709-.647-1.5-1.143-2.189-1.829a17.877,17.877,0,0,0-3.574-2.668c-.637-.374-1.422-.205-2.094-.453.333.368.9.391,1.257.726a11.887,11.887,0,0,0,1.366,1.106,2.956,2.956,0,0,1,1.288,1.606c.17.67.248,1.381-.57,1.55-1.184.248-2.117-.624-2.964-1.308a6.4,6.4,0,0,0-3.148-1.8,14.154,14.154,0,0,0-1.517,0,22.052,22.052,0,0,1-3.948-.081,3.031,3.031,0,0,1-2.2-1.478,9.9,9.9,0,0,1-1.044-2.071c-.074-.244-.841-2.358-1.062-2.286,1.606-.515,2.826-1.668,4.336-2.356.674-.306.94.32,1.283.74A4.072,4.072,0,0,0,232.267,220.876Z" transform="translate(54.118 41.47)" fill="#fcd4ca"/>
      <path id="Path_4197" data-name="Path 4197" d="M251.226,238.89,246.016,248s-23.939-10.281-29.053-14.969-10.136-16.513-11.75-28.338c-.942-6.9,6.726-7.443,6.726-7.443,4.427,7.048,13.051,25.682,14.01,27.068S251.226,238.89,251.226,238.89Z" transform="translate(35.237 21.113)" fill="#fdd762"/>
      <path id="Path_4198" data-name="Path 4198" d="M194.083,270.758a27.594,27.594,0,0,0-1.4,7.2c-.014,3.138.213,6.474,1.176,7.263,1.924,1.575,26.263,1.78,28.245-.469s.661-5.887-4.494-7.145c-5.529-1.348-8.168.227-11.645-1.095s-.771-6.23-.771-6.23Z" transform="translate(23.562 89.562)" fill="#110239"/>
      <path id="Path_4199" data-name="Path 4199" d="M193.945,283.455a22.926,22.926,0,0,0-6.079-.945c-1.5-.048-3.888.029-4.979-1.182a3.628,3.628,0,0,1-.244-4.08c.085-.172,1.267-2.325,1.49-2.228l-9.632-4.161s-7.59,9.047-6.92,11.441c.138.5,2.038,2.321,4.041,4.177a19.607,19.607,0,0,0,12.251,5.19c6.531.362,13.071.25,14.123-.808C200.109,288.736,199.014,285.024,193.945,283.455Z" transform="translate(0 90.106)" fill="#110239"/>
      <path id="Path_4200" data-name="Path 4200" d="M197.285,218.248s-12.238,7.457-10.32,22.158,6.068,33.513,5.058,37.349-22.639,43.395-22.639,43.395l12.162,6.779s25.659-41.649,26.938-46.124,1.811-31.089,1.811-31.089,15.076,25.382,15.874,28.9S214.1,321.15,214.1,321.15l12.945,2.358s17.548-39.04,16.54-45.592c-.632-4.1-15.981-43.581-15.981-43.581Z" transform="translate(1.73 40.795)" fill="#0186cb"/>
      <path id="Path_4201" data-name="Path 4201" d="M206.182,273.027c.335-.668-3.508-17.457-5.238-20.031-1.182-1.753-5.593-9.859-6.951-12.373-1.672-3.092,1.631-11.864,2.05-15.417a7.8,7.8,0,0,1-1.108-.61c-1.17,6.937-4.432,20.171-4.432,20.171,2.621,4.82,14,23.646,15.676,28.3v-.012l.023.054Z" transform="translate(21.523 46.744)" fill="#0056a3" opacity="0.65"/>
      <path id="Path_4202" data-name="Path 4202" d="M208.815,188.742s-4.622,10.085-8.264,12.046c0,0,4.295,7.658,13.913,4.95,0,0-.374-3.923,2.9-12.515C217.361,193.223,211.01,191.45,208.815,188.742Z" transform="translate(30.942 13.14)" fill="#fcd4ca"/>
      <path id="Path_4203" data-name="Path 4203" d="M215.212,199.013c.087,0,.17.025.258.031a57.429,57.429,0,0,1,1.891-5.821s-6.35-1.773-8.545-4.481c0,0-4.622,10.085-8.264,12.046a12.084,12.084,0,0,0,5.626,4.7A9.178,9.178,0,0,1,215.212,199.013Z" transform="translate(30.942 13.14)" fill="#e8a393"/>
      <path id="Path_4204" data-name="Path 4204" d="M219.312,179.257s6.536,2.8,6.35,5.789.163,2.5-.327,4.46a13.313,13.313,0,0,0-.56,5.883c.351,2.451.26,3.642-2.286,3.012,0,0-.831-.42-.761.595s.385,7.038-4.727,7.249-12.958-7.565-12.538-10.856,1.331-10.856,4.9-14.429A8.877,8.877,0,0,1,219.312,179.257Z" transform="translate(34.593 3.481)" fill="#fcd4ca"/>
      <path id="Path_4205" data-name="Path 4205" d="M208.254,179.292s7.284,13.82,18.115,7.565a11.986,11.986,0,0,0-5.229-9.34C215.91,174.064,209.041,176.679,208.254,179.292Z" transform="translate(38.161 1.067)" fill="#ff2c9c"/>
      <path id="Path_4206" data-name="Path 4206" d="M225.159,201.83c-6.829-2.011-7.83-4.851-7.737-10.446s1.775-6.033,1.775-6.033c4.155-1.4,4.295-3.435,4.295-3.435,3.082-8.266-15.549-9.312-15.845-3.638s.436,3.642-3.975,7.914-2.383,8.406-.42,10.647-1.821,1.891-2.032,5.882c-.149,2.84,1.54,4.057,4.107,4.926.446.153,2.011-3.671,2.716-5.089.134.8,3.169,5.3,5.124,6.794,4.543,3.474,9.812,2.941,11.213.046S225.159,201.83,225.159,201.83Z" transform="translate(31.394 0)" fill="#ff2c9c"/>
      <g id="Group_3145" data-name="Group 3145" transform="translate(192.48 211.582)">
        <g id="Group_3144" data-name="Group 3144">
          <path id="Path_4209" data-name="Path 4209" d="M233.523,198.273s-8.95,5.533-11.56-4.524c0,0-7.59.4-17.339,13.741-9.706,13.286-14.063,19.975-24.212,36.411,1.49,1.658,18.352,19.361,38.275,14.781,0,0,1.97-4.363,2.844-6.4,3.754-8.8,13.828-32.8,14.975-39.914C238.1,202.451,233.523,198.273,233.523,198.273Z" transform="translate(-180.413 -193.749)" fill="#fdd762"/>
        </g>
      </g>
      <g id="Group_3147" data-name="Group 3147" transform="translate(224.581 218.638)">
        <g id="Group_3146" data-name="Group 3146">
          <path id="Path_4210" data-name="Path 4210" d="M212.06,221.374c.922-4.585-1.78-29.055-10.182-23.036-4.748,3.4-5.723,11.626-4.283,19.216a177.192,177.192,0,0,0,8.671,30.816c1.949-4.434,5.275-12.149,8.2-19.636A7.536,7.536,0,0,1,212.06,221.374Z" transform="translate(-196.983 -197.391)" fill="#d8892b"/>
        </g>
      </g>
      <path id="Path_4211" data-name="Path 4211" d="M248.779,248.488l-5.194,9.746s-30.107-12.03-35.109-16.641-17.094-41.1-5.269-44.937,14.777,34.226,17.366,36.57S248.779,248.488,248.779,248.488Z" transform="translate(28.72 20.304)" fill="#fdd762"/>
      <g id="Group_3149" data-name="Group 3149" transform="translate(721.313 212.156) rotate(139)">
        <path id="Path_4088" data-name="Path 4088" d="M430.033,162.667h-2.1a51.66,51.66,0,0,0-99.1,0h-2.1v14.617h0a51.654,51.654,0,1,0,103.308,0h0Z" transform="translate(0 8.362)" fill="#f9bf30"/>
        <path id="Path_4089" data-name="Path 4089" d="M367.176,126.132a51.663,51.663,0,0,0-38.35,35.825h-2.1v14.617a51.652,51.652,0,0,0,40.451,50.443Z" transform="translate(0 9.072)" fill="#fdd762"/>
        <path id="Path_4090" data-name="Path 4090" d="M392.22,203.368a51.531,51.531,0,0,0,14.988-36.4V152.353h-2.1a51.355,51.355,0,0,0-10.369-19.037H392.22Z" transform="translate(22.824 18.677)" fill="#e8a200"/>
        <g id="Group_898" data-name="Group 898" transform="translate(328.175 138.286)" opacity="0.4">
          <path id="Path_4091" data-name="Path 4091" d="M401.943,143.949a51.667,51.667,0,0,0-2.241-5.62v43.93a51.421,51.421,0,0,0,2.241-5.627Z" transform="translate(-302.743 -112.908)" fill="#e8a200"/>
          <path id="Path_4092" data-name="Path 4092" d="M339.809,138.266a51.81,51.81,0,0,0-7.216,9.079v54.948c.7,1.117,1.444,2.218,2.241,3.29V146.03h4.223v64.534c.252.264.494.533.752.792.487.486.987.951,1.487,1.416V146.03h4.223v70.26c.738.549,1.483,1.08,2.241,1.584V146.03h4.223V220.4q1.108.592,2.24,1.129v-75.5h4.223V223.3q1.115.41,2.241.767V146.03h4.223v79.178q1.117.252,2.24.456V146.03h4.224v80.227c.746.07,1.493.122,2.241.161V146.03h4.224v80.428c.747-.021,1.494-.061,2.24-.114V146.03H384.3v79.839c.75-.117,1.5-.248,2.241-.4V146.03h4.223v78.409c.751-.217,1.5-.456,2.24-.708v-77.7h4.223v76.044q1.131-.5,2.241-1.056V146.03H403.7v72.613q1.135-.712,2.24-1.486V146.03h4.223v67.822q1.143-.992,2.241-2.059V146.03h4.223v61.118c.79-.984,1.532-1.991,2.24-3.019v-58.1h.375a51.715,51.715,0,0,0-22.233-18.579h-41.35A51.481,51.481,0,0,0,339.809,138.266Z" transform="translate(-326.13 -127.451)" fill="#e8a200"/>
          <path id="Path_4093" data-name="Path 4093" d="M330.041,139.522c-.595,1.493-1.141,3-1.59,4.534H327.8v26.8a51.392,51.392,0,0,0,2.241,7.025Z" transform="translate(-327.8 -111.313)" fill="#e8a200"/>
        </g>
        <ellipse id="Ellipse_27" data-name="Ellipse 27" cx="51.654" cy="51.682" rx="51.654" ry="51.682" transform="translate(326.725 119.346)" fill="#fdd762"/>
        <path id="Path_4094" data-name="Path 4094" d="M389.947,179.855A51.7,51.7,0,0,0,401.686,124.9a51.663,51.663,0,0,0-71.574,64.527A51.641,51.641,0,0,0,389.947,179.855Z" transform="translate(0.003 0.005)" fill="#fff" opacity="0.2"/>
        <path id="Path_4095" data-name="Path 4095" d="M414.9,177.246a51.641,51.641,0,0,1-88.148-35.215,51.641,51.641,0,1,0,103.246,0A51.5,51.5,0,0,1,414.9,177.246Z" transform="translate(0.004 30.328)" fill="#fff" opacity="0.7"/>
        <ellipse id="Ellipse_28" data-name="Ellipse 28" cx="36.666" cy="36.686" rx="36.666" ry="36.686" transform="translate(341.713 134.343)" fill="#e8a200"/>
        <path id="Path_4096" data-name="Path 4096" d="M348.578,139.859a36.663,36.663,0,0,1,62.552,24.267,36.665,36.665,0,1,0-73.251,0A36.562,36.562,0,0,1,348.578,139.859Z" transform="translate(3.874 8.58)" fill="#f9bf30"/>
        <path id="Path_4097" data-name="Path 4097" d="M387.6,134.049l-2.843,1.407.808.556-2.775,2.779a10.652,10.652,0,0,0-7.035-2.851,9.6,9.6,0,0,0-6.776,3.176,13.369,13.369,0,0,0-2.044,2.573,8.993,8.993,0,0,0-1.1,2.716,15.025,15.025,0,0,0-.359,2.6,25.65,25.65,0,0,0,.063,2.818l.329,4.482a23.3,23.3,0,0,1,.066,3.145,8.283,8.283,0,0,1-.615,2.545,7.207,7.207,0,0,1-1.628,2.416q-1.964,1.963-3.485.439a2.632,2.632,0,0,1-.591-2.9,12.74,12.74,0,0,1,3.093-4.323V152.27l-2.429,1.58-3.494-2.568a17.233,17.233,0,0,0-4.143,6.448l-.4-.778v3.3h.008a10.051,10.051,0,0,0,3.011,6.7l-1.381,1.381-1.876-1.489v3.365l1.684,1.687,3.289-3.29a9.308,9.308,0,0,0,12.928-.624,13.738,13.738,0,0,0,2.226-2.863,11.2,11.2,0,0,0,1.234-3.12,19.09,19.09,0,0,0,.458-3.078,28.741,28.741,0,0,0-.007-3.267l-.279-4.34c-.043-.872-.066-1.5-.065-1.9a14.767,14.767,0,0,1,.123-1.645,5.2,5.2,0,0,1,.564-1.877,6.936,6.936,0,0,1,1.211-1.587,3.7,3.7,0,0,1,1.866-1.033,1.963,1.963,0,0,1,1.865.542,2.316,2.316,0,0,1,.58.778,1.417,1.417,0,0,1,.1.561L376.9,146.2v3.365l5.858,4.52c.48-.526.908-1.012,1.284-1.465a17.048,17.048,0,0,0,1.18-1.638,12.155,12.155,0,0,0,.98-1.834,9.047,9.047,0,0,0,.557-1.979,7.2,7.2,0,0,0,.1-1l.007-.014V142.6l-.746.269c-.011-.021-.016-.042-.027-.065a10.041,10.041,0,0,0-1.564-2.316l3.076-3.078Z" transform="translate(8.812 19.657)" fill="#f9bf30"/>
        <g id="Group_899" data-name="Group 899" transform="translate(360.822 151.988)">
          <path id="Path_4098" data-name="Path 4098" d="M352.01,167.823l3.257-3.258q-3.34-3.667-2.987-7.457t4.509-8.21l5.923,4.354a12.739,12.739,0,0,0-3.093,4.323,2.632,2.632,0,0,0,.591,2.9q1.521,1.528,3.485-.439a7.221,7.221,0,0,0,1.628-2.414,8.312,8.312,0,0,0,.615-2.547,23.26,23.26,0,0,0-.066-3.143l-.329-4.485a25.65,25.65,0,0,1-.063-2.818,15.024,15.024,0,0,1,.359-2.6,8.993,8.993,0,0,1,1.1-2.715,13.37,13.37,0,0,1,2.044-2.573,9.6,9.6,0,0,1,6.776-3.176,10.652,10.652,0,0,1,7.035,2.851l3.092-3.094,1.718,1.718-3.076,3.078a10.042,10.042,0,0,1,1.564,2.316,7.821,7.821,0,0,1,.712,2.218,6.964,6.964,0,0,1-.042,2.138,9.07,9.07,0,0,1-.557,1.982,12.251,12.251,0,0,1-.98,1.832,17.036,17.036,0,0,1-1.18,1.638c-.376.453-.8.939-1.284,1.465l-5.858-4.52q.669-.7,1.1-1.178t.867-1.049a5.477,5.477,0,0,0,.638-1,3.693,3.693,0,0,0,.278-.883,1.472,1.472,0,0,0-.09-.86,2.315,2.315,0,0,0-.58-.778,1.968,1.968,0,0,0-1.865-.542,3.722,3.722,0,0,0-1.866,1.033,6.988,6.988,0,0,0-1.211,1.587,5.2,5.2,0,0,0-.564,1.877,14.768,14.768,0,0,0-.123,1.645c0,.393.022,1.026.065,1.9l.279,4.342a28.7,28.7,0,0,1,.007,3.265,19.05,19.05,0,0,1-.458,3.078,11.174,11.174,0,0,1-1.234,3.12,13.74,13.74,0,0,1-2.226,2.863,9.308,9.308,0,0,1-12.928.624l-3.289,3.29Z" transform="translate(-352.01 -133.314)" fill="#fdd762"/>
        </g>
      </g>
      <path id="Path_4212" data-name="Path 4212" d="M227.3,224.449a5.685,5.685,0,0,0,1.048.418,10.58,10.58,0,0,0,2.021.5c.6.058,1.248-.016,1.862,0a12.8,12.8,0,0,0,2.786-.231A35.479,35.479,0,0,1,240.7,224.1c.139-.008.281-.01.42-.012a19.367,19.367,0,0,1,7.067,1.178c1.067.4,2.838.9,2.691,2.369-.066.657-.575.763-1.145.734a11,11,0,0,1-3.243-.734c-1.151-.457-3.311-1.583-3.311-1.583a17.109,17.109,0,0,1,2.908,1.319c.566.389.976.591,1.41.887.612.417,1.521.8,1.662,1.548.122.659.136,1.2-.595,1.48-.876.337-2.491-.418-3.229-.876-.7-.432-3.873-2.5-4.868-2.927a34.7,34.7,0,0,1,4.107,2.642,5.2,5.2,0,0,1,1.465,1.362,1.077,1.077,0,0,1-.581,1.676,4.762,4.762,0,0,1-2.127-.281,13.452,13.452,0,0,1-3.381-1.744,14.139,14.139,0,0,0-3-1.9,10.621,10.621,0,0,1,2.319,1.418,17.924,17.924,0,0,1,2.548,2.065c.3.492.12,1.829-1,1.8a4.9,4.9,0,0,1-1.8-.471c-.653-.306-1.321-.624-1.957-.969-1.108-.6-1.713-1.509-3.055-1.567a6.817,6.817,0,0,0-2.9.618,9.848,9.848,0,0,1-1.877.74c-.327.064-.666.11-1,.17a7.212,7.212,0,0,1-5.891-1.868c-.478-.442-.806-.986-1.24-1.465-.306-.335-1.441-1.087-1.461-1.585-.014-.337.951-1.226,1.2-1.478a21.2,21.2,0,0,0,1.348-1.678,10.171,10.171,0,0,1,1.728-1.918c.308-.231.285-.232.68-.081.271.107.568.207.837.331C226.089,223.612,226.643,224.1,227.3,224.449Z" transform="translate(48.831 45.131)" fill="#fcd4ca"/>
    </g>
  </g>
</svg>
