<svg xmlns="http://www.w3.org/2000/svg" xmlns:xlink="http://www.w3.org/1999/xlink" width="300.581" height="321.773" viewBox="0 0 300.581 321.773">
  <defs>
    <linearGradient id="linear-gradient" y1="0.5" x2="1" y2="0.5" gradientUnits="objectBoundingBox">
      <stop offset="0" stop-color="#1e32c7"/>
      <stop offset="1" stop-color="#4f84f0"/>
    </linearGradient>
  </defs>
  <g id="Group_3223" data-name="Group 3223" transform="translate(-1464.285 -606.773)">
    <ellipse id="Ellipse_45" data-name="Ellipse 45" cx="51.698" cy="29.848" rx="51.698" ry="29.848" transform="translate(1622.807 868.85)" fill="#d4ecff"/>
    <g id="Group_3222" data-name="Group 3222" transform="translate(1608.457 791.985)">
      <g id="Group_904" data-name="Group 904" transform="translate(8.468 29.653)">
        <path id="Path_4099" data-name="Path 4099" d="M510.738,229.948h-2.462c-2.76-5.424-7.842-10.536-15.254-14.815-23.619-13.635-61.913-13.635-85.53,0-7.411,4.279-12.494,9.391-15.254,14.815h-2.46v9.876h0c0,8.937,5.905,17.873,17.714,24.691,23.62,13.637,61.913,13.637,85.532,0,11.81-6.819,17.714-15.756,17.714-24.693h0Z" transform="translate(-389.779 -195.03)" fill="#f9bf30"/>
        <path id="Path_4100" data-name="Path 4100" d="M437.141,205.437c-10.864,1.386-21.2,4.511-29.648,9.39-7.411,4.279-12.494,9.391-15.254,14.815h-2.46v9.876c0,8.937,5.905,17.873,17.714,24.691,8.452,4.879,18.784,8,29.648,9.39Z" transform="translate(-389.779 -194.723)" fill="#fdd762"/>
        <path id="Path_4101" data-name="Path 4101" d="M455.274,259.952c11.7-6.807,17.549-15.7,17.549-24.593v-9.876h-2.462c-2.353-4.623-6.41-9.016-12.142-12.862h-2.946Z" transform="translate(-351.864 -190.564)" fill="#e8a200"/>
        <g id="Group_902" data-name="Group 902" transform="translate(1.698 12.796)" opacity="0.4">
          <path id="Path_4102" data-name="Path 4102" d="M465.38,221.431a29,29,0,0,0-2.624-3.8v29.68a28.9,28.9,0,0,0,2.624-3.8Z" transform="translate(-349.231 -200.459)" fill="#e8a200"/>
          <path id="Path_4103" data-name="Path 4103" d="M404.1,214.063a47.711,47.711,0,0,0-8.449,6.136v37.123c.824.755,1.691,1.5,2.624,2.223V219.308h4.945v43.6c.3.178.578.36.879.535.572.328,1.157.643,1.743.957V219.308h4.945v47.47q1.293.557,2.624,1.07v-48.54h4.945v50.246q1.3.4,2.622.763V219.308h4.945v52.2q1.3.277,2.624.518V219.308h4.945V272.8q1.307.171,2.623.308v-53.8h4.945v54.2c.873.049,1.748.082,2.624.109V219.308h4.945v54.34q1.312-.021,2.623-.077V219.308h4.945V273.25c.878-.079,1.753-.166,2.624-.268V219.308h4.945v52.976q1.319-.22,2.623-.478v-52.5h4.945v51.379q1.324-.339,2.624-.715V219.308H478.9v49.06q1.329-.481,2.622-1V219.308h4.945v45.823q1.338-.67,2.624-1.391V219.308h4.944V260.6c.927-.665,1.8-1.345,2.624-2.038V219.308h.437a49.057,49.057,0,0,0-7.471-5.245,72.831,72.831,0,0,0-18.558-7.307H422.651A72.773,72.773,0,0,0,404.1,214.063Z" transform="translate(-388.079 -206.756)" fill="#e8a200"/>
          <path id="Path_4104" data-name="Path 4104" d="M393.477,218.828a26.906,26.906,0,0,0-1.86,3.061h-.763v18.1a25.9,25.9,0,0,0,2.623,4.746Z" transform="translate(-390.854 -199.767)" fill="#e8a200"/>
        </g>
        <ellipse id="Ellipse_29" data-name="Ellipse 29" cx="60.48" cy="34.918" rx="60.48" ry="34.918" fill="#fdd762"/>
        <path id="Path_4105" data-name="Path 4105" d="M463.8,239.534c17.387-10.039,21.956-24.666,13.744-37.128-22.692-6.627-51.1-4.476-70.059,6.47C390.1,218.915,385.53,233.543,393.744,246,416.434,252.632,444.843,250.481,463.8,239.534Z" transform="translate(-389.774 -198.649)" fill="#fff" opacity="0.2"/>
        <path id="Path_4106" data-name="Path 4106" d="M493.018,245.129c-23.619,13.637-61.912,13.635-85.532,0-11.412-6.589-17.294-15.156-17.677-23.791-.409,9.235,5.471,18.544,17.677,25.593,23.62,13.637,61.913,13.637,85.532,0,12.2-7.047,18.086-16.356,17.676-25.589C510.31,229.973,504.431,238.54,493.018,245.129Z" transform="translate(-389.773 -185.519)" fill="#fff" opacity="0.7"/>
        <ellipse id="Ellipse_30" data-name="Ellipse 30" cx="42.93" cy="24.786" rx="42.93" ry="24.786" transform="translate(17.549 10.132)" fill="#e8a200"/>
        <path id="Path_4107" data-name="Path 4107" d="M413.466,214.592c16.765-9.68,43.947-9.679,60.713,0,7.885,4.552,12.058,10.435,12.527,16.4.529-6.715-3.646-13.531-12.527-18.658-16.766-9.68-43.948-9.68-60.713,0-8.881,5.128-13.054,11.943-12.527,18.658C401.408,225.025,405.583,219.144,413.466,214.592Z" transform="translate(-383.344 -194.937)" fill="#f9bf30"/>
        <path id="Path_4108" data-name="Path 4108" d="M456.734,213.354l-3.328.95.946.376-3.249,1.877a18.331,18.331,0,0,0-8.239-1.926,15.757,15.757,0,0,0-7.932,2.146,12.294,12.294,0,0,0-2.394,1.738,5.1,5.1,0,0,0-1.285,1.835,6.216,6.216,0,0,0-.42,1.759,10.029,10.029,0,0,0,.074,1.9l.385,3.03a9.1,9.1,0,0,1,.077,2.124,3.83,3.83,0,0,1-.72,1.721,5.827,5.827,0,0,1-1.906,1.631,3.882,3.882,0,0,1-4.08.3q-1.362-.784-.692-1.956a10.578,10.578,0,0,1,3.622-2.921v-2.274l-2.844,1.067L420.66,225c-2.506,1.538-4.116,2.989-4.85,4.356l-.467-.526v2.229l.009,0c.014,1.53,1.181,3.038,3.526,4.524l-1.617.933-2.2-1.006v2.274l1.972,1.14,3.851-2.223a16.8,16.8,0,0,0,7.79,1.554,15.466,15.466,0,0,0,7.347-1.975,12.41,12.41,0,0,0,2.607-1.934,6.256,6.256,0,0,0,1.445-2.108,7.931,7.931,0,0,0,.537-2.079,11.22,11.22,0,0,0-.008-2.207l-.327-2.932c-.051-.589-.077-1.017-.076-1.282a5.733,5.733,0,0,1,.144-1.112,2.585,2.585,0,0,1,.66-1.268,6.211,6.211,0,0,1,1.418-1.072,5.742,5.742,0,0,1,2.185-.7,3.511,3.511,0,0,1,2.182.365,2.019,2.019,0,0,1,.681.526.628.628,0,0,1,.12.379l-3.385.706v2.272l6.859,3.054c.56-.355,1.063-.684,1.5-.99a14.545,14.545,0,0,0,1.382-1.107,8.288,8.288,0,0,0,1.148-1.238,4.4,4.4,0,0,0,.652-1.339,2.892,2.892,0,0,0,.112-.679l.008-.009v-2.39l-.873.182c-.013-.016-.019-.03-.032-.046a8.1,8.1,0,0,0-1.832-1.565l3.6-2.079Z" transform="translate(-375.141 -190.14)" fill="#f9bf30"/>
        <g id="Group_903" data-name="Group 903" transform="translate(39.923 22.053)">
          <path id="Path_4109" data-name="Path 4109" d="M415.064,235.935l3.813-2.2q-3.91-2.477-3.5-5.038t5.28-5.547l6.935,2.942a10.578,10.578,0,0,0-3.622,2.921q-.67,1.172.692,1.958a3.886,3.886,0,0,0,4.08-.3,5.827,5.827,0,0,0,1.906-1.631,3.823,3.823,0,0,0,.72-1.721,9.1,9.1,0,0,0-.077-2.124l-.385-3.03a10.029,10.029,0,0,1-.074-1.9,6.217,6.217,0,0,1,.42-1.759,5.1,5.1,0,0,1,1.285-1.835,12.3,12.3,0,0,1,2.394-1.738,15.773,15.773,0,0,1,7.932-2.146,18.331,18.331,0,0,1,8.239,1.926l3.62-2.09,2.012,1.16-3.6,2.079a8.1,8.1,0,0,1,1.832,1.565,3.942,3.942,0,0,1,.832,1.5,2.733,2.733,0,0,1-.047,1.445,4.4,4.4,0,0,1-.652,1.339,8.214,8.214,0,0,1-1.148,1.238,14.542,14.542,0,0,1-1.382,1.107c-.44.306-.943.635-1.5.99l-6.859-3.052q.784-.476,1.284-.8c.332-.213.669-.45,1.015-.707a4.272,4.272,0,0,0,.747-.676,1.823,1.823,0,0,0,.325-.6.618.618,0,0,0-.106-.581,2.019,2.019,0,0,0-.681-.526,3.512,3.512,0,0,0-2.182-.365,5.742,5.742,0,0,0-2.185.7,6.167,6.167,0,0,0-1.418,1.074,2.573,2.573,0,0,0-.66,1.266,5.733,5.733,0,0,0-.144,1.112c0,.265.025.693.076,1.284l.327,2.932a11.2,11.2,0,0,1,.008,2.206,7.931,7.931,0,0,1-.537,2.079,6.256,6.256,0,0,1-1.445,2.108,12.468,12.468,0,0,1-2.607,1.936,15.484,15.484,0,0,1-7.347,1.974,16.8,16.8,0,0,1-7.79-1.554l-3.851,2.223Z" transform="translate(-415.064 -212.619)" fill="#fdd762"/>
        </g>
      </g>
      <g id="Group_907" data-name="Group 907" transform="translate(8.468 19.769)">
        <path id="Path_4110" data-name="Path 4110" d="M510.738,223.689h-2.462c-2.76-5.424-7.842-10.536-15.254-14.815-23.619-13.637-61.913-13.637-85.53,0-7.411,4.277-12.494,9.391-15.254,14.815h-2.46v9.876h0c0,8.937,5.905,17.872,17.714,24.691,23.62,13.635,61.913,13.637,85.532,0,11.81-6.818,17.714-15.754,17.714-24.691h0Z" transform="translate(-389.779 -188.77)" fill="#f9bf30"/>
        <path id="Path_4111" data-name="Path 4111" d="M437.141,199.176c-10.864,1.388-21.2,4.511-29.648,9.391-7.411,4.277-12.494,9.391-15.254,14.815h-2.46v9.876c0,8.937,5.905,17.872,17.714,24.691,8.452,4.879,18.784,8,29.648,9.39Z" transform="translate(-389.779 -188.463)" fill="#fdd762"/>
        <path id="Path_4112" data-name="Path 4112" d="M455.274,253.691c11.7-6.807,17.549-15.7,17.549-24.592v-9.876h-2.462c-2.353-4.623-6.41-9.016-12.142-12.863h-2.946Z" transform="translate(-351.864 -184.304)" fill="#e8a200"/>
        <g id="Group_905" data-name="Group 905" transform="translate(1.698 12.797)" opacity="0.4">
          <path id="Path_4113" data-name="Path 4113" d="M465.38,215.171a29.006,29.006,0,0,0-2.624-3.8v29.68a29.009,29.009,0,0,0,2.624-3.8Z" transform="translate(-349.231 -194.199)" fill="#e8a200"/>
          <path id="Path_4114" data-name="Path 4114" d="M404.1,207.8a47.627,47.627,0,0,0-8.449,6.134v37.125c.824.755,1.691,1.5,2.624,2.223V213.047h4.945v43.6c.3.177.578.36.879.535.572.328,1.157.643,1.743.955V213.047h4.945v47.471q1.293.557,2.624,1.069v-48.54h4.945v50.247q1.3.4,2.622.763v-51.01h4.945v52.2q1.3.275,2.624.518V213.047h4.945v53.5q1.307.171,2.623.308v-53.8h4.945v54.205c.873.047,1.748.082,2.624.109V213.047h4.945v54.341q1.312-.021,2.623-.077V213.047h4.945V266.99q1.317-.118,2.624-.268V213.047h4.945v52.977q1.319-.22,2.623-.478v-52.5h4.945v51.379q1.324-.336,2.624-.714V213.047H478.9v49.061q1.329-.481,2.622-1V213.047h4.945v45.825q1.338-.67,2.624-1.391V213.047h4.944v41.295c.927-.665,1.8-1.347,2.624-2.04V213.047h.437a49.164,49.164,0,0,0-7.471-5.244,72.772,72.772,0,0,0-18.558-7.307H422.651A72.772,72.772,0,0,0,404.1,207.8Z" transform="translate(-388.079 -200.496)" fill="#e8a200"/>
          <path id="Path_4115" data-name="Path 4115" d="M393.477,212.567a27.061,27.061,0,0,0-1.86,3.063h-.763v18.1a25.914,25.914,0,0,0,2.623,4.748Z" transform="translate(-390.854 -193.508)" fill="#e8a200"/>
        </g>
        <ellipse id="Ellipse_31" data-name="Ellipse 31" cx="60.48" cy="34.918" rx="60.48" ry="34.918" fill="#fdd762"/>
        <path id="Path_4116" data-name="Path 4116" d="M463.8,233.274c17.387-10.039,21.956-24.667,13.744-37.128-22.692-6.627-51.1-4.476-70.059,6.469-17.388,10.039-21.958,24.667-13.744,37.128C416.434,246.37,444.843,244.221,463.8,233.274Z" transform="translate(-389.774 -192.389)" fill="#fff" opacity="0.2"/>
        <path id="Path_4117" data-name="Path 4117" d="M493.018,238.869c-23.619,13.637-61.912,13.635-85.532,0-11.412-6.589-17.294-15.158-17.677-23.791-.409,9.235,5.471,18.544,17.677,25.593,23.62,13.635,61.913,13.635,85.532,0,12.2-7.047,18.086-16.356,17.676-25.589C510.31,223.713,504.431,232.28,493.018,238.869Z" transform="translate(-389.773 -179.259)" fill="#fff" opacity="0.7"/>
        <ellipse id="Ellipse_32" data-name="Ellipse 32" cx="42.93" cy="24.786" rx="42.93" ry="24.786" transform="translate(17.549 10.132)" fill="#e8a200"/>
        <path id="Path_4118" data-name="Path 4118" d="M413.466,208.332c16.765-9.68,43.947-9.68,60.713,0,7.885,4.552,12.058,10.433,12.527,16.4.529-6.715-3.646-13.531-12.527-18.658-16.766-9.68-43.948-9.68-60.713,0-8.881,5.128-13.054,11.943-12.527,18.658C401.408,218.763,405.583,212.882,413.466,208.332Z" transform="translate(-383.344 -188.676)" fill="#f9bf30"/>
        <path id="Path_4119" data-name="Path 4119" d="M456.734,207.094l-3.328.951.946.376L451.1,210.3a18.35,18.35,0,0,0-8.239-1.925,15.758,15.758,0,0,0-7.932,2.146,12.294,12.294,0,0,0-2.394,1.737,5.116,5.116,0,0,0-1.285,1.836,6.2,6.2,0,0,0-.42,1.759,10.008,10.008,0,0,0,.074,1.9l.385,3.03a9.114,9.114,0,0,1,.077,2.125,3.817,3.817,0,0,1-.72,1.719,5.808,5.808,0,0,1-1.906,1.631,3.882,3.882,0,0,1-4.08.3q-1.362-.784-.692-1.956a10.577,10.577,0,0,1,3.622-2.923V219.4l-2.844,1.067-4.091-1.737c-2.506,1.538-4.116,2.989-4.85,4.358l-.467-.526V224.8h.009c.014,1.532,1.181,3.039,3.526,4.525l-1.617.933-2.2-1.006v2.274l1.972,1.14,3.851-2.223a16.82,16.82,0,0,0,7.79,1.554,15.466,15.466,0,0,0,7.347-1.975,12.412,12.412,0,0,0,2.607-1.936,6.251,6.251,0,0,0,1.445-2.106,7.941,7.941,0,0,0,.537-2.081,11.2,11.2,0,0,0-.008-2.206l-.327-2.932c-.051-.589-.077-1.017-.076-1.282a5.733,5.733,0,0,1,.144-1.112,2.585,2.585,0,0,1,.66-1.268,6.12,6.12,0,0,1,1.418-1.072,5.743,5.743,0,0,1,2.185-.7,3.5,3.5,0,0,1,2.182.366,2,2,0,0,1,.681.526.624.624,0,0,1,.12.379l-3.385.7v2.274l6.859,3.052c.56-.354,1.063-.682,1.5-.99a14.267,14.267,0,0,0,1.382-1.105,8.218,8.218,0,0,0,1.148-1.239,4.393,4.393,0,0,0,.652-1.337,2.892,2.892,0,0,0,.112-.679l.008-.009v-2.392l-.873.182c-.013-.014-.019-.028-.032-.044a8.1,8.1,0,0,0-1.832-1.565l3.6-2.079Z" transform="translate(-375.141 -183.88)" fill="#f9bf30"/>
        <g id="Group_906" data-name="Group 906" transform="translate(39.923 22.052)">
          <path id="Path_4120" data-name="Path 4120" d="M415.064,229.675l3.813-2.2q-3.91-2.477-3.5-5.038t5.28-5.548l6.935,2.943a10.559,10.559,0,0,0-3.622,2.921q-.67,1.172.692,1.956a3.885,3.885,0,0,0,4.08-.3,5.811,5.811,0,0,0,1.906-1.633,3.817,3.817,0,0,0,.72-1.719,9.114,9.114,0,0,0-.077-2.125l-.385-3.03a10.008,10.008,0,0,1-.074-1.9,6.2,6.2,0,0,1,.42-1.759,5.116,5.116,0,0,1,1.285-1.836,12.292,12.292,0,0,1,2.394-1.737,15.757,15.757,0,0,1,7.932-2.146,18.35,18.35,0,0,1,8.239,1.925l3.62-2.09,2.012,1.162-3.6,2.079a8.1,8.1,0,0,1,1.832,1.565,3.92,3.92,0,0,1,.832,1.5,2.733,2.733,0,0,1-.047,1.445,4.42,4.42,0,0,1-.652,1.339,8.288,8.288,0,0,1-1.148,1.238,14.54,14.54,0,0,1-1.382,1.107c-.44.306-.943.635-1.5.99l-6.859-3.054q.784-.476,1.284-.8t1.015-.707a4.214,4.214,0,0,0,.747-.674,1.855,1.855,0,0,0,.325-.6.617.617,0,0,0-.106-.581,2,2,0,0,0-.681-.526,3.512,3.512,0,0,0-2.182-.366,5.743,5.743,0,0,0-2.185.7,6.165,6.165,0,0,0-1.418,1.072,2.585,2.585,0,0,0-.66,1.268,5.733,5.733,0,0,0-.144,1.112c0,.265.025.693.076,1.282l.327,2.932a11.22,11.22,0,0,1,.008,2.207,7.947,7.947,0,0,1-.537,2.079,6.271,6.271,0,0,1-1.445,2.108,12.468,12.468,0,0,1-2.607,1.934,15.467,15.467,0,0,1-7.347,1.975,16.82,16.82,0,0,1-7.79-1.554l-3.851,2.223Z" transform="translate(-415.064 -206.358)" fill="#fdd762"/>
        </g>
      </g>
      <g id="Group_910" data-name="Group 910" transform="translate(0 15.122)">
        <path id="Path_4121" data-name="Path 4121" d="M505.375,220.744h-2.462c-2.76-5.422-7.842-10.534-15.254-14.813-23.619-13.637-61.913-13.637-85.53,0-7.411,4.279-12.494,9.391-15.254,14.815h-2.46v9.878h0c0,8.935,5.905,17.872,17.714,24.689,23.62,13.637,61.913,13.637,85.532,0,11.81-6.818,17.714-15.756,17.714-24.691h0Z" transform="translate(-384.415 -185.827)" fill="#f9bf30"/>
        <path id="Path_4122" data-name="Path 4122" d="M431.778,196.233c-10.864,1.388-21.2,4.511-29.648,9.39-7.411,4.279-12.494,9.391-15.254,14.815h-2.46v9.878c0,8.935,5.905,17.872,17.714,24.689,8.452,4.879,18.784,8,29.648,9.391Z" transform="translate(-384.415 -185.52)" fill="#fdd762"/>
        <path id="Path_4123" data-name="Path 4123" d="M449.911,250.748c11.7-6.807,17.549-15.7,17.549-24.591v-9.878H465c-2.353-4.623-6.41-9.014-12.142-12.862h-2.946Z" transform="translate(-346.501 -181.361)" fill="#e8a200"/>
        <g id="Group_908" data-name="Group 908" transform="translate(1.698 12.797)" opacity="0.4">
          <path id="Path_4124" data-name="Path 4124" d="M460.016,212.227a28.823,28.823,0,0,0-2.622-3.8V238.11a28.724,28.724,0,0,0,2.622-3.8Z" transform="translate(-343.868 -191.256)" fill="#e8a200"/>
          <path id="Path_4125" data-name="Path 4125" d="M398.733,204.859a47.653,47.653,0,0,0-8.449,6.136v37.123c.824.755,1.691,1.5,2.624,2.223V210.1h4.945v43.6c.3.178.576.362.879.535.57.33,1.157.644,1.743.957V210.1h4.945v47.471q1.293.557,2.624,1.069V210.1h4.945v50.246c.865.268,1.74.521,2.622.764V210.1h4.945v52.2q1.3.277,2.624.518V210.1h4.945v53.5q1.307.17,2.623.309V210.1h4.945v54.2c.873.049,1.748.082,2.624.109V210.1h4.945v54.341q1.312-.021,2.623-.077V210.1h4.945v53.942c.878-.079,1.753-.166,2.624-.267V210.1H458.4v52.977q1.319-.22,2.623-.48V210.1h4.945v51.379q1.324-.336,2.624-.714V210.1h4.943v49.06q1.331-.478,2.624-1V210.1H481.1v45.825c.892-.448,1.767-.909,2.623-1.393V210.1h4.945V251.4c.927-.665,1.8-1.347,2.624-2.04V210.1h.437a49.163,49.163,0,0,0-7.471-5.244,72.8,72.8,0,0,0-18.558-7.307H417.288A72.807,72.807,0,0,0,398.733,204.859Z" transform="translate(-382.716 -197.553)" fill="#e8a200"/>
          <path id="Path_4126" data-name="Path 4126" d="M388.114,209.624a27.188,27.188,0,0,0-1.86,3.062h-.763v18.1a25.965,25.965,0,0,0,2.623,4.748Z" transform="translate(-385.491 -190.565)" fill="#e8a200"/>
        </g>
        <ellipse id="Ellipse_33" data-name="Ellipse 33" cx="60.48" cy="34.918" rx="60.48" ry="34.918" fill="#fdd762"/>
        <path id="Path_4127" data-name="Path 4127" d="M458.439,230.33c17.387-10.037,21.956-24.666,13.743-37.126-22.69-6.628-51.1-4.478-70.057,6.469-17.388,10.039-21.958,24.666-13.744,37.128C411.071,243.427,439.48,241.277,458.439,230.33Z" transform="translate(-384.411 -189.446)" fill="#fff" opacity="0.2"/>
        <path id="Path_4128" data-name="Path 4128" d="M487.655,235.926c-23.619,13.635-61.912,13.635-85.532,0-11.412-6.59-17.294-15.158-17.677-23.791-.409,9.233,5.471,18.544,17.677,25.591,23.62,13.637,61.913,13.637,85.532,0,12.2-7.047,18.086-16.356,17.676-25.591C504.947,220.768,499.068,229.335,487.655,235.926Z" transform="translate(-384.409 -176.315)" fill="#fff" opacity="0.7"/>
        <path id="Path_4129" data-name="Path 4129" d="M468.817,238.178c-16.765,9.679-43.947,9.679-60.712,0s-16.766-25.373,0-35.052,43.947-9.68,60.713,0S485.583,228.5,468.817,238.178Z" transform="translate(-377.981 -185.733)" fill="#e8a200"/>
        <path id="Path_4130" data-name="Path 4130" d="M408.1,205.387c16.765-9.679,43.947-9.679,60.713,0,7.883,4.552,12.058,10.433,12.527,16.4.529-6.715-3.646-13.531-12.527-18.66-16.766-9.679-43.948-9.68-60.713,0-8.881,5.127-13.054,11.941-12.527,18.656C396.045,215.821,400.22,209.939,408.1,205.387Z" transform="translate(-377.98 -185.733)" fill="#f9bf30"/>
        <path id="Path_4131" data-name="Path 4131" d="M451.371,204.15l-3.328.952.946.376-3.249,1.876a18.329,18.329,0,0,0-8.239-1.925,15.758,15.758,0,0,0-7.932,2.146,12.294,12.294,0,0,0-2.4,1.737,5.139,5.139,0,0,0-1.284,1.835,6.176,6.176,0,0,0-.42,1.759,10.027,10.027,0,0,0,.074,1.9l.385,3.03a9.188,9.188,0,0,1,.077,2.124,3.823,3.823,0,0,1-.72,1.721,5.808,5.808,0,0,1-1.906,1.631,3.885,3.885,0,0,1-4.081.3q-1.359-.786-.69-1.958a10.6,10.6,0,0,1,3.622-2.921v-2.274l-2.844,1.067-4.091-1.735c-2.506,1.538-4.116,2.989-4.85,4.356l-.467-.524v2.229h.009c.014,1.53,1.181,3.039,3.526,4.524l-1.617.935-2.2-1.006v2.274l1.972,1.138,3.851-2.223a16.8,16.8,0,0,0,7.789,1.554,15.449,15.449,0,0,0,7.348-1.974,12.455,12.455,0,0,0,2.607-1.936,6.279,6.279,0,0,0,1.445-2.108,7.913,7.913,0,0,0,.537-2.079,11.2,11.2,0,0,0-.008-2.206l-.327-2.932c-.051-.59-.077-1.018-.076-1.284a5.823,5.823,0,0,1,.142-1.112,2.6,2.6,0,0,1,.662-1.266,6.167,6.167,0,0,1,1.418-1.074,5.771,5.771,0,0,1,2.184-.7,3.515,3.515,0,0,1,2.184.365,2.04,2.04,0,0,1,.68.526.629.629,0,0,1,.12.381l-3.387.7v2.274l6.86,3.052q.841-.531,1.5-.99a14.3,14.3,0,0,0,1.382-1.107,8.14,8.14,0,0,0,1.148-1.238,4.4,4.4,0,0,0,.652-1.339,3.032,3.032,0,0,0,.112-.679l.008-.008v-2.392l-.875.182a.425.425,0,0,0-.03-.044,8.1,8.1,0,0,0-1.832-1.565l3.6-2.081Z" transform="translate(-369.778 -180.937)" fill="#f9bf30"/>
        <g id="Group_909" data-name="Group 909" transform="translate(39.923 22.053)">
          <path id="Path_4132" data-name="Path 4132" d="M409.7,226.732l3.813-2.2q-3.91-2.477-3.5-5.037t5.28-5.548l6.935,2.941a10.577,10.577,0,0,0-3.622,2.923q-.67,1.17.692,1.956a3.882,3.882,0,0,0,4.08-.3,5.808,5.808,0,0,0,1.906-1.631,3.823,3.823,0,0,0,.72-1.721,9.107,9.107,0,0,0-.077-2.124l-.385-3.03a10.015,10.015,0,0,1-.074-1.9,6.173,6.173,0,0,1,.42-1.76,5.139,5.139,0,0,1,1.284-1.835,12.36,12.36,0,0,1,2.4-1.737,15.758,15.758,0,0,1,7.932-2.146,18.35,18.35,0,0,1,8.239,1.925l3.62-2.09,2.011,1.16-3.6,2.081a8.1,8.1,0,0,1,1.832,1.565,3.92,3.92,0,0,1,.832,1.5,2.734,2.734,0,0,1-.047,1.445,4.393,4.393,0,0,1-.652,1.337,8.14,8.14,0,0,1-1.148,1.238,14.056,14.056,0,0,1-1.382,1.107q-.661.46-1.5.99l-6.86-3.052q.786-.476,1.285-.8c.332-.213.669-.45,1.015-.707a4.152,4.152,0,0,0,.747-.676,1.823,1.823,0,0,0,.325-.6.618.618,0,0,0-.106-.581,2.04,2.04,0,0,0-.68-.526,3.515,3.515,0,0,0-2.184-.365,5.771,5.771,0,0,0-2.184.7,6.167,6.167,0,0,0-1.418,1.074,2.6,2.6,0,0,0-.662,1.266,5.836,5.836,0,0,0-.142,1.113c0,.265.025.693.076,1.282l.327,2.932a11.2,11.2,0,0,1,.008,2.206,7.939,7.939,0,0,1-.537,2.081,6.289,6.289,0,0,1-1.445,2.106,12.454,12.454,0,0,1-2.607,1.936,15.468,15.468,0,0,1-7.348,1.975,16.819,16.819,0,0,1-7.789-1.555l-3.851,2.223Z" transform="translate(-409.701 -203.415)" fill="#fdd762"/>
        </g>
      </g>
      <g id="Group_913" data-name="Group 913" transform="translate(8.468 0)">
        <path id="Path_4133" data-name="Path 4133" d="M510.738,211.167h-2.462c-2.76-5.424-7.842-10.536-15.254-14.813-23.619-13.637-61.913-13.637-85.53,0-7.411,4.279-12.494,9.391-15.254,14.815h-2.46v9.876h0c0,8.937,5.905,17.873,17.714,24.691,23.62,13.637,61.913,13.637,85.532,0,11.81-6.819,17.714-15.756,17.714-24.693h0Z" transform="translate(-389.779 -176.249)" fill="#f9bf30"/>
        <path id="Path_4134" data-name="Path 4134" d="M437.141,186.656c-10.864,1.386-21.2,4.511-29.648,9.39-7.411,4.279-12.494,9.391-15.254,14.815h-2.46v9.876c0,8.937,5.905,17.873,17.714,24.691,8.452,4.879,18.784,8,29.648,9.39Z" transform="translate(-389.779 -175.942)" fill="#fdd762"/>
        <path id="Path_4135" data-name="Path 4135" d="M455.274,241.171c11.7-6.807,17.549-15.7,17.549-24.593V206.7h-2.462c-2.353-4.623-6.41-9.016-12.142-12.862h-2.946Z" transform="translate(-351.864 -171.783)" fill="#e8a200"/>
        <g id="Group_911" data-name="Group 911" transform="translate(1.698 12.796)" opacity="0.4">
          <path id="Path_4136" data-name="Path 4136" d="M465.38,202.65a29.112,29.112,0,0,0-2.624-3.8v29.68a28.9,28.9,0,0,0,2.624-3.8Z" transform="translate(-349.231 -181.678)" fill="#e8a200"/>
          <path id="Path_4137" data-name="Path 4137" d="M404.1,195.282a47.632,47.632,0,0,0-8.449,6.136v37.123c.824.755,1.691,1.5,2.624,2.223V200.527h4.945v43.6c.3.178.578.36.879.535.572.328,1.157.643,1.743.957V200.527h4.945V248q1.293.557,2.624,1.07v-48.54h4.945v50.246q1.3.4,2.622.763V200.527h4.945v52.2q1.3.277,2.624.518V200.527h4.945v53.495q1.307.171,2.623.308v-53.8h4.945v54.2c.873.049,1.748.082,2.624.109V200.527h4.945v54.34c.875-.014,1.749-.041,2.623-.076V200.527h4.945v53.942c.878-.079,1.753-.166,2.624-.268V200.527h4.945V253.5q1.319-.22,2.623-.478v-52.5h4.945v51.379q1.324-.339,2.624-.715V200.527H478.9v49.06q1.329-.481,2.622-1V200.527h4.945V246.35q1.338-.67,2.624-1.391V200.527h4.944v41.293c.927-.663,1.8-1.345,2.624-2.038V200.527h.437a48.942,48.942,0,0,0-7.471-5.244,72.775,72.775,0,0,0-18.558-7.309H422.651A72.774,72.774,0,0,0,404.1,195.282Z" transform="translate(-388.079 -187.975)" fill="#e8a200"/>
          <path id="Path_4138" data-name="Path 4138" d="M393.477,200.046a27.064,27.064,0,0,0-1.86,3.063h-.763v18.1a25.953,25.953,0,0,0,2.623,4.746Z" transform="translate(-390.854 -180.987)" fill="#e8a200"/>
        </g>
        <ellipse id="Ellipse_34" data-name="Ellipse 34" cx="60.48" cy="34.918" rx="60.48" ry="34.918" fill="#fdd762"/>
        <path id="Path_4139" data-name="Path 4139" d="M463.8,220.753c17.387-10.039,21.956-24.666,13.744-37.128-22.692-6.627-51.1-4.476-70.059,6.47-17.388,10.039-21.958,24.666-13.744,37.126C416.434,233.85,444.843,231.7,463.8,220.753Z" transform="translate(-389.774 -179.868)" fill="#fff" opacity="0.2"/>
        <path id="Path_4140" data-name="Path 4140" d="M493.018,226.348c-23.619,13.637-61.912,13.635-85.532,0-11.412-6.59-17.294-15.158-17.677-23.793-.409,9.235,5.471,18.544,17.677,25.593,23.62,13.637,61.913,13.637,85.532,0,12.2-7.047,18.086-16.356,17.676-25.589C510.31,211.192,504.431,219.759,493.018,226.348Z" transform="translate(-389.773 -166.738)" fill="#fff" opacity="0.7"/>
        <ellipse id="Ellipse_35" data-name="Ellipse 35" cx="42.93" cy="24.786" rx="42.93" ry="24.786" transform="translate(17.549 10.132)" fill="#e8a200"/>
        <path id="Path_4141" data-name="Path 4141" d="M413.466,195.811c16.765-9.68,43.947-9.679,60.713,0,7.885,4.552,12.058,10.435,12.527,16.4.529-6.715-3.646-13.531-12.527-18.658-16.766-9.68-43.948-9.68-60.713,0-8.881,5.128-13.054,11.943-12.527,18.658C401.408,206.244,405.583,200.363,413.466,195.811Z" transform="translate(-383.344 -176.155)" fill="#f9bf30"/>
        <path id="Path_4142" data-name="Path 4142" d="M456.734,194.573l-3.328.951.946.376-3.249,1.877a18.331,18.331,0,0,0-8.239-1.926A15.757,15.757,0,0,0,434.931,198a12.229,12.229,0,0,0-2.394,1.738,5.1,5.1,0,0,0-1.285,1.835,6.2,6.2,0,0,0-.42,1.759,10.029,10.029,0,0,0,.074,1.9l.385,3.028a9.116,9.116,0,0,1,.077,2.125,3.83,3.83,0,0,1-.72,1.721,5.827,5.827,0,0,1-1.906,1.631,3.882,3.882,0,0,1-4.08.3q-1.362-.784-.692-1.956a10.559,10.559,0,0,1,3.622-2.921v-2.274l-2.844,1.067-4.091-1.735c-2.506,1.538-4.116,2.989-4.85,4.356l-.467-.526v2.229l.009,0c.014,1.53,1.181,3.038,3.526,4.524l-1.617.933-2.2-1.006V219l1.972,1.14,3.851-2.223a16.821,16.821,0,0,0,7.79,1.554,15.467,15.467,0,0,0,7.347-1.975,12.41,12.41,0,0,0,2.607-1.934,6.271,6.271,0,0,0,1.445-2.108,7.931,7.931,0,0,0,.537-2.079,11.2,11.2,0,0,0-.008-2.206l-.327-2.932c-.051-.59-.077-1.018-.076-1.284a5.733,5.733,0,0,1,.144-1.112,2.585,2.585,0,0,1,.66-1.268,6.21,6.21,0,0,1,1.418-1.072,5.77,5.77,0,0,1,2.185-.7,3.523,3.523,0,0,1,2.182.366,2,2,0,0,1,.681.526.627.627,0,0,1,.12.379l-3.385.7v2.274l6.859,3.054c.56-.355,1.063-.684,1.5-.99a14.547,14.547,0,0,0,1.382-1.107,8.289,8.289,0,0,0,1.148-1.238,4.4,4.4,0,0,0,.652-1.339,2.892,2.892,0,0,0,.112-.679l.008-.008v-2.394l-.873.183c-.013-.016-.019-.03-.032-.046a8.1,8.1,0,0,0-1.832-1.565l3.6-2.079Z" transform="translate(-375.141 -171.359)" fill="#f9bf30"/>
        <g id="Group_912" data-name="Group 912" transform="translate(39.923 22.053)">
          <path id="Path_4143" data-name="Path 4143" d="M415.064,217.154l3.813-2.2q-3.91-2.477-3.5-5.038t5.28-5.547l6.935,2.941a10.578,10.578,0,0,0-3.622,2.921q-.67,1.172.692,1.956a3.882,3.882,0,0,0,4.08-.3,5.827,5.827,0,0,0,1.906-1.631,3.823,3.823,0,0,0,.72-1.721,9.1,9.1,0,0,0-.077-2.124l-.385-3.03a10.029,10.029,0,0,1-.074-1.9,6.229,6.229,0,0,1,.42-1.759,5.1,5.1,0,0,1,1.285-1.835,12.228,12.228,0,0,1,2.394-1.737A15.759,15.759,0,0,1,442.864,194a18.331,18.331,0,0,1,8.239,1.926l3.62-2.09,2.012,1.16-3.6,2.079a8.1,8.1,0,0,1,1.832,1.565,3.936,3.936,0,0,1,.832,1.5,2.728,2.728,0,0,1-.047,1.443,4.4,4.4,0,0,1-.652,1.339,8.289,8.289,0,0,1-1.148,1.238,14.55,14.55,0,0,1-1.382,1.107c-.44.306-.943.635-1.5.99l-6.859-3.054q.784-.474,1.284-.8c.332-.213.669-.45,1.015-.707a4.274,4.274,0,0,0,.747-.676,1.823,1.823,0,0,0,.325-.6.618.618,0,0,0-.106-.581,2.019,2.019,0,0,0-.681-.526,3.512,3.512,0,0,0-2.182-.365,5.742,5.742,0,0,0-2.185.7,6.167,6.167,0,0,0-1.418,1.074,2.573,2.573,0,0,0-.66,1.266,5.733,5.733,0,0,0-.144,1.112c0,.265.025.693.076,1.284l.327,2.932a11.2,11.2,0,0,1,.008,2.206,7.931,7.931,0,0,1-.537,2.079,6.256,6.256,0,0,1-1.445,2.108,12.41,12.41,0,0,1-2.607,1.934,15.467,15.467,0,0,1-7.347,1.975,16.8,16.8,0,0,1-7.79-1.554l-3.851,2.223Z" transform="translate(-415.064 -193.838)" fill="#fdd762"/>
        </g>
      </g>
    </g>
    <g id="Group_3224" data-name="Group 3224" transform="translate(1595.588 697.497)">
      <rect id="Rectangle_342" data-name="Rectangle 342" width="3.066" height="8.907" transform="matrix(-0.574, -0.819, 0.819, -0.574, 1.761, 24.34)" fill="#fdd762"/>
      <rect id="Rectangle_343" data-name="Rectangle 343" width="3.066" height="8.907" transform="matrix(-0.574, -0.819, 0.819, -0.574, 4.363, 18.768)" fill="#fdd762"/>
      <rect id="Rectangle_344" data-name="Rectangle 344" width="3.066" height="8.907" transform="matrix(-0.574, -0.819, 0.819, -0.574, 6.964, 13.197)" fill="#fdd762"/>
      <rect id="Rectangle_345" data-name="Rectangle 345" width="3.066" height="8.907" transform="matrix(-0.574, -0.819, 0.819, -0.574, 9.566, 7.626)" fill="#fdd762"/>
    </g>
    <g id="Group_3225" data-name="Group 3225" transform="translate(1464.285 697.497)">
      <g id="Group_865" data-name="Group 865" transform="translate(7.416)">
        <path id="Path_3986" data-name="Path 3986" d="M563.922,216.242l-32.173-18.575-32.173,18.575,32.173,18.575Z" transform="translate(-499.576 -38.952)" fill="#d4ecff"/>
        <path id="Path_3987" data-name="Path 3987" d="M517.6,274.608V158.9l27.328-15.778v115.7Z" transform="translate(-470.362 -127.347)" fill="#1d31c6"/>
        <path id="Path_3988" data-name="Path 3988" d="M534.5,158.9l-27.328-15.778v115.7L534.5,274.608Z" transform="translate(-487.262 -127.347)" fill="#1d8cc6"/>
        <path id="Path_3989" data-name="Path 3989" d="M561.831,152.883,534.5,137.1l-27.328,15.778L534.5,168.661Z" transform="translate(-487.262 -137.105)" fill="#00a0c9"/>
      </g>
      <g id="Group_866" data-name="Group 866" transform="translate(54.656 136.742)">
        <path id="Path_3990" data-name="Path 3990" d="M544.93,205.06,517.6,189.283V199.8l27.328,15.778Z" transform="translate(-517.602 -189.283)" fill="#95d359"/>
      </g>
      <g id="Group_867" data-name="Group 867" transform="translate(0 47.334)">
        <path id="Path_3991" data-name="Path 3991" d="M507.174,261.114V176.965L534.5,161.187v84.149Z" transform="translate(-479.846 -145.409)" fill="#c13d1a"/>
        <path id="Path_3992" data-name="Path 3992" d="M524.074,176.965l-27.328-15.778v84.149l27.328,15.778Z" transform="translate(-496.746 -145.409)" fill="#db5126"/>
        <path id="Path_3993" data-name="Path 3993" d="M551.4,170.944l-27.328-15.778-27.328,15.778,27.328,15.778Z" transform="translate(-496.746 -155.166)" fill="#ef602e"/>
        <path id="Path_3994" data-name="Path 3994" d="M507.174,261.114V176.965L534.5,161.187v84.149Z" transform="translate(-479.846 -145.409)" fill="#5793ce"/>
        <path id="Path_3995" data-name="Path 3995" d="M524.074,176.965l-27.328-15.778v84.149l27.328,15.778Z" transform="translate(-496.746 -145.409)" fill="#01c8ef"/>
        <path id="Path_3996" data-name="Path 3996" d="M551.4,170.944l-27.328-15.778-27.328,15.778,27.328,15.778Z" transform="translate(-496.746 -155.166)" fill="#396caa"/>
      </g>
      <g id="Group_868" data-name="Group 868" transform="translate(27.328 99.927)">
        <path id="Path_3997" data-name="Path 3997" d="M517.6,244.367V197.033l27.328-15.778v47.334Z" transform="translate(-490.274 -165.477)" fill="#e8a200"/>
        <path id="Path_3998" data-name="Path 3998" d="M534.5,197.033l-27.328-15.778v47.334L534.5,244.367Z" transform="translate(-507.174 -165.477)" fill="#f9bf30"/>
        <path id="Path_3999" data-name="Path 3999" d="M561.831,191.013,534.5,175.235l-27.328,15.778L534.5,206.79Z" transform="translate(-507.174 -175.235)" fill="#fdd762"/>
      </g>
    </g>
    <path id="Path_4307" data-name="Path 4307" d="M484.758,143.51a12.467,12.467,0,1,0-12.467-12.467A12.482,12.482,0,0,0,484.758,143.51Zm0-22.215a9.747,9.747,0,1,1-9.747,9.748A9.759,9.759,0,0,1,484.758,121.3Z" transform="translate(1090.516 488.597)" fill="#ff2c9c"/>
    <ellipse id="Ellipse_46" data-name="Ellipse 46" cx="9.011" cy="9.011" rx="9.011" ry="9.011" transform="translate(1577.371 618.846)" fill="#fdd762"/>
    <g id="Group_3226" data-name="Group 3226" transform="translate(1570.201 735.34) rotate(-13)">
      <rect id="Rectangle_348" data-name="Rectangle 348" width="9.5" height="2" transform="translate(6.718 8.132) rotate(-135)" fill="#b45ef4"/>
      <rect id="Rectangle_349" data-name="Rectangle 349" width="2" height="9.5" transform="translate(1.414 8.132) rotate(-135)" fill="#b45ef4"/>
    </g>
    <g id="Group_3227" data-name="Group 3227" transform="translate(1744.689 629.838) rotate(-13)">
      <g id="Group_875" data-name="Group 875" transform="translate(15.248 0)">
        <path id="Path_4009" data-name="Path 4009" d="M354.941,305.065a2.218,2.218,0,1,0-1.862,2.524A2.218,2.218,0,0,0,354.941,305.065Z" transform="translate(-350.53 -303.178)" fill="#1d31c6"/>
      </g>
      <rect id="Rectangle_350" data-name="Rectangle 350" width="9.231" height="9.231" transform="translate(0 8.99) rotate(-8.58)" fill="#1d31c6"/>
    </g>
    <g id="Group_3228" data-name="Group 3228" transform="translate(1573.561 877.876) rotate(-13)">
      <g id="Group_927" data-name="Group 927" transform="translate(0 16.696)">
        <path id="Path_4195" data-name="Path 4195" d="M368.954,82.057a2.217,2.217,0,1,0,1.292-2.857A2.217,2.217,0,0,0,368.954,82.057Z" transform="translate(-368.811 -79.057)" fill="#01c8ef"/>
      </g>
      <rect id="Rectangle_351" data-name="Rectangle 351" width="9.231" height="9.231" transform="translate(17.88 8.638) rotate(159.341)" fill="#fdd762"/>
    </g>
    <g id="Group_3231" data-name="Group 3231" transform="translate(769.668 471.86)">
      <path id="Path_4310" data-name="Path 4310" d="M883.671,161.02c-22.325,28.617-16.522,22.86-20.647,26.5s-31.289,19.4-31.289,19.4l2.91,13.584S867.875,201.587,872,198.192s20.01-20.617,20.01-20.617Z" transform="translate(5.894 27.422)" fill="#bbeadb"/>
      <path id="Path_4311" data-name="Path 4311" d="M844.828,196.511a5.5,5.5,0,0,0,5.837.195,132.816,132.816,0,0,0,13.379-7.851,41.664,41.664,0,0,0,7.115-5.419,108.143,108.143,0,0,0,10.994-11.716c1.753-2.239,4.2-4.052,6.237-6.114l3.6,7.154s-15.886,17.221-20.01,20.617-37.354,22.317-37.354,22.317l-2.881-13.442C836.114,200.568,840.516,198.635,844.828,196.511Z" transform="translate(5.908 32.238)" fill="#83ccc3"/>
      <path id="Path_4312" data-name="Path 4312" d="M874.354,238.4a27.6,27.6,0,0,1,1.4,7.187c.012,3.133-.213,6.463-1.175,7.25-1.921,1.573-26.223,1.778-28.2-.468s-.66-5.878,4.486-7.133c5.52-1.347,6.291-.773,9.762-2.091s2.635-5.222,2.635-5.222Z" transform="translate(20.359 108.202)" fill="#110239"/>
      <path id="Path_4313" data-name="Path 4313" d="M897.354,235.931a27.5,27.5,0,0,1,3.869,6.215c1.13,2.922,2.106,6.114,1.489,7.191-1.234,2.155-23.869,11.007-26.516,9.614s-2.711-5.257,1.651-8.265c4.677-3.225,5.6-2.961,8.376-5.432s.6-5.819.6-5.819Z" transform="translate(50.666 106.108)" fill="#110239"/>
      <path id="Path_4314" data-name="Path 4314" d="M867.5,187.785l32.745,3.637s-29.282,46.813-31.5,54.333.816,48.389.816,48.389H854.741s-3.184-48.268-2.456-51.908S867.5,187.785,867.5,187.785Z" transform="translate(27.365 55.536)" fill="#f45762"/>
      <path id="Path_4315" data-name="Path 4315" d="M860.26,188.968h37.381s4.365,11.46,2.364,20.192-3.334,27.287-3.151,30.561,18.433,46.934,18.433,46.934l-13.61,5.062s-18.769-41.627-20.59-46.355S860.26,188.968,860.26,188.968Z" transform="translate(35.856 56.778)" fill="#f45762"/>
      <path id="Path_4316" data-name="Path 4316" d="M867.038,158.574s6.635,4.3,14.043-1.152c0,0,14.111,2.469,15.841,3.172,1.435.582-2.338,20.67-.7,30.766s8.185,34.564,8.185,34.564-17.281,13.28-46.934,4.911c0,0-.968-34.307-.65-43.842.463-13.947.56-22.193.56-22.193A85.8,85.8,0,0,0,867.038,158.574Z" transform="translate(32.18 23.643)" fill="#bbeadb"/>
      <path id="Path_4317" data-name="Path 4317" d="M877.292,210.667c1.292-5.3,2.2-10.48,1.267-15.964-1.007-5.94,3.252-13.768,4.05-19.813.851-6.465,1.515-10.855,5.764-14.431-.287,6.1-2.259,19.885-.99,27.711,1.636,10.1,8.185,34.564,8.185,34.564s-10.976,8.378-30.389,7.595C872.83,225.7,875.149,219.465,877.292,210.667Z" transform="translate(41.022 26.833)" fill="#83ccc3"/>
      <path id="Path_4318" data-name="Path 4318" d="M974.907,224.81l-17.02,46.458a14.169,14.169,0,0,1-17.986,8.5l-104.283-36.5a14.171,14.171,0,0,1-8.644-18.193l16.588-45.863a14.169,14.169,0,0,1,17.92-8.583l104.718,35.9A14.169,14.169,0,0,1,974.907,224.81Z" transform="translate(0 36.706)" fill="url(#linear-gradient)"/>
      <g id="_0000" data-name=" 0000" transform="translate(845.205 243.78)" style="isolation: isolate">
        <text id="_0000-2" data-name="**** **** **** 0000" transform="matrix(0.947, 0.321, -0.321, 0.947, 0.401, 3.789)" fill="#fff" font-size="4" font-family="HelveticaNeue-Bold, Helvetica Neue" font-weight="700" letter-spacing="0.125em" style="isolation: isolate"><tspan x="0" y="0">**** **** **** 0000</tspan></text>
      </g>
      <g id="MM_YY" data-name="MM YY" transform="translate(926.992 270.452)" style="isolation: isolate">
        <text id="MM_YY-2" data-name="MM/YY" transform="matrix(0.947, 0.321, -0.321, 0.947, 0.883, 5.683)" fill="#fff" font-size="6" font-family="HelveticaNeue-Bold, Helvetica Neue" font-weight="700" letter-spacing="0.125em" style="isolation: isolate"><tspan x="0" y="0">MM/YY</tspan></text>
      </g>
      <g id="NAME" transform="translate(838.756 262.836)" style="isolation: isolate">
        <text id="NAME-2" data-name="NAME" transform="matrix(0.947, 0.321, -0.321, 0.947, 0.401, 3.789)" fill="#fff" font-size="4" font-family="HelveticaNeue-Bold, Helvetica Neue" font-weight="700" letter-spacing="0.125em" style="isolation: isolate"><tspan x="0" y="0">NAME</tspan></text>
      </g>
      <path id="Path_4319" data-name="Path 4319" d="M830.112,194.284c-2.733-1.417-3.315-5.333-2.731-7.919.474-2.085,2.561-2.577,5.6-3.406,2.052-.562,4-1,4.734-.564,2.268,2.155-4.685,3.475-6.373,4.2,0,0,7.185-2.274,8.05-1.091,1.546,2.229-5.272,3.356-6.918,3.935,1.532-.738,4.507-1.322,5.009-1.076,1.318-.221,1.238.828,1.136,1.1-.529,1.372-6.094,2.364-6.094,2.364.986-.176,4.486-1.591,4.031.137-.3,1.126-1.862,1.466-2.668,1.819A5.508,5.508,0,0,1,830.112,194.284Z" transform="translate(1.103 49.689)" fill="#fcd4ca"/>
      <path id="Path_4320" data-name="Path 4320" d="M881.673,184.811c-2.567-.1-5.688.383-8.333.383-1.208,0-2.456-.176-3.652-.246-.757-.045-2.294-.3-2.737.545-.486.925,1.031,1.255,1.63,1.386.865.189,2.653.07,2.817,1.226.236,1.681-2.91,2.13-4.136,2.668-1.138.5-4.152,1.56-2.175,2.674,1.331.75,4.134-.962,5.267-1.419a17.281,17.281,0,0,0-4.123,1.718c-.773.443-2.29,1.056-2.29,1.923,0,1.273,2.815.511,3.51.209a12.614,12.614,0,0,0,3.135-1.733c-1.183.625-5.526,2.467-4.1,3.97.869.919,4.261-1.665,5.614-2.212-.744.685-2.969,1.046-2.789,2.5.09.728,1.351.148,1.956-.182.851-.463,1.612-1.14,2.467-1.546a12.16,12.16,0,0,0,1.841-1.228c1.536-1.093,2.928-1.351,4.257-2.776a47.454,47.454,0,0,1,3.693-3.773C881.049,187.98,883.567,186.137,881.673,184.811Z" transform="translate(39.723 52.396)" fill="#fcd4ca"/>
      <path id="Path_4321" data-name="Path 4321" d="M870.757,211.341l3.639,8.409S911.964,207.562,910.2,197.7c-1.546-8.659-23.405-37.672-28.168-38.714-6.4-1.4-8.962,13.852-5.286,17.549,7.75,7.8,18.81,18.763,17.9,20.531S870.757,211.341,870.757,211.341Z" transform="translate(46.882 25.189)" fill="#bbeadb"/>
      <path id="Path_4322" data-name="Path 4322" d="M875.074,150.461s-1.37,12.626,2.731,14.5c0,0-4.7,10.252-11.946,9.883s-4.894-4.484-4.894-4.484,3.412-3.623,1.751-13.307S875.074,150.461,875.074,150.461Z" transform="translate(36.213 15.839)" fill="#fcd4ca"/>
      <path id="Path_4323" data-name="Path 4323" d="M874.638,168.59a13.7,13.7,0,0,0-13.014-1.89,23.2,23.2,0,0,0,.078-9.643c-1.661-9.682,12.358-6.6,12.358-6.6s-1.37,12.626,2.731,14.5A25.964,25.964,0,0,1,874.638,168.59Z" transform="translate(37.227 15.839)" fill="#e8a393"/>
      <path id="Path_4324" data-name="Path 4324" d="M865.315,144.768a7.107,7.107,0,1,0,3.765-9.278A7.08,7.08,0,0,0,865.315,144.768Z" transform="translate(40.573 0)" fill="#ff2c9c"/>
      <path id="Path_4325" data-name="Path 4325" d="M861.731,143.384s-3.7,3.065-3.1,7.18.435,2.37-.193,3.215-3.623,6-3.037,6.412a15.467,15.467,0,0,0,4.093.89s-.263,2.091-.535,4.931,9.11,2.212,11.523-.055,7.593-9.84,4.952-16.795S867.548,138.51,861.731,143.384Z" transform="translate(30.676 6.564)" fill="#fcd4ca"/>
      <path id="Path_4326" data-name="Path 4326" d="M878.408,138.838s-6.362-.252-9.321-.31-6.557-.5-9.828,1.886-4.954,7.548-1.212,10.986c0,0,1.078-4.605,3.9-4.956s3.89,3.7,6.118,5.056,2.483,9.42,1.722,11.763c0,0-9.352,4.884-11.263,3.789,0,0-.31,1.685-.552,4.593s-.876,7.219,2.809,7.543,12.038-5.222,12.477-6.317.141-8.659,3.387-8.87,3.151,1.755,3.151,1.755,2.225.4,4.771-4.644,1.068-9.354-1.249-12.579A55.582,55.582,0,0,1,878.408,138.838Z" transform="translate(31.294 3.726)" fill="#ff2c9c"/>
      <path id="Path_4327" data-name="Path 4327" d="M864.213,153.11a21.707,21.707,0,0,1,1.3-5.673c.97-2.089,4.156-1.45,4.839,1.888S863.932,155.132,864.213,153.11Z" transform="translate(40 11.892)" fill="#fcd4ca"/>
      <path id="Path_4328" data-name="Path 4328" d="M867.051,147.026a2.653,2.653,0,0,0-2.2,2.143c-.357,1.8,1.243,3.486,1.856,2.169s-.158-1.722-.32-2.426A2.2,2.2,0,0,1,867.051,147.026Z" transform="translate(40.621 12.723)" fill="#e8a393"/>
    </g>
  </g>
</svg>
