<svg xmlns="http://www.w3.org/2000/svg" width="421.263" height="348.927" viewBox="0 0 421.263 348.927">
  <g id="Group_3247" data-name="Group 3247" transform="translate(-1408.306 -687.796)">
    <g id="Group_3139" data-name="Group 3139" transform="translate(1408.306 687.796)">
      <ellipse id="Ellipse_11" data-name="Ellipse 11" cx="69.62" cy="16.873" rx="69.62" ry="16.873" transform="translate(85.471 259.483)" fill="#d4ecff"/>
      <g id="Group_863" data-name="Group 863" transform="translate(0 281.227)">
        <path id="Path_3978" data-name="Path 3978" d="M275.792,295.007l13.748-7.938,13.748,7.938-13.748,7.938Z" transform="translate(-275.046 -235.244)" fill="#d4ecff"/>
        <g id="Group_862" data-name="Group 862" transform="translate(0)">
          <g id="Group_859" data-name="Group 859" transform="translate(0 31.419)">
            <path id="Path_3979" data-name="Path 3979" d="M300.8,298.835v-19l-14.494-8.368v19Z" transform="translate(-286.306 -271.464)" fill="#721bd5"/>
            <path id="Path_3980" data-name="Path 3980" d="M275.221,279.832l14.494-8.368v19l-14.494,8.368Z" transform="translate(-260.727 -271.464)" fill="#b45ef4"/>
          </g>
          <g id="Group_860" data-name="Group 860" transform="translate(0 17.995)">
            <path id="Path_3981" data-name="Path 3981" d="M300.8,282.99V269.565L286.306,261.2v13.425Z" transform="translate(-286.306 -261.197)" fill="#e8a200"/>
            <path id="Path_3982" data-name="Path 3982" d="M275.221,269.565l14.494-8.368v13.425l-14.494,8.368Z" transform="translate(-260.727 -261.197)" fill="#f9bf30"/>
          </g>
          <g id="Group_861" data-name="Group 861" transform="translate(0)">
            <path id="Path_3983" data-name="Path 3983" d="M300.8,271.83V262.2l-14.494-8.368v9.627Z" transform="translate(-286.306 -245.466)" fill="#5793ce"/>
            <path id="Path_3984" data-name="Path 3984" d="M275.221,262.2l14.494-8.368v9.627l-14.494,8.368Z" transform="translate(-260.727 -245.466)" fill="#01c8ef"/>
            <path id="Path_3985" data-name="Path 3985" d="M275.221,255.8l14.494-8.368,14.494,8.368-14.494,8.368Z" transform="translate(-275.221 -247.435)" fill="#396caa"/>
          </g>
        </g>
      </g>
      <g id="Group_864" data-name="Group 864" transform="translate(6.306 131.499)">
        <rect id="Rectangle_342" data-name="Rectangle 342" width="2.948" height="8.563" transform="matrix(0.574, -0.819, 0.819, 0.574, 7.503, 18.481)" fill="#fdd762"/>
        <rect id="Rectangle_343" data-name="Rectangle 343" width="2.948" height="8.563" transform="matrix(0.574, -0.819, 0.819, 0.574, 5.002, 13.125)" fill="#fdd762"/>
        <rect id="Rectangle_344" data-name="Rectangle 344" width="2.948" height="8.563" transform="matrix(0.574, -0.819, 0.819, 0.574, 2.501, 7.769)" fill="#fdd762"/>
        <rect id="Rectangle_345" data-name="Rectangle 345" width="2.948" height="8.563" transform="matrix(0.574, -0.819, 0.819, 0.574, 0, 2.413)" fill="#fdd762"/>
      </g>
      <g id="Group_869" data-name="Group 869" transform="translate(44.929 97.733)">
        <g id="Group_865" data-name="Group 865" transform="translate(0)">
          <path id="Path_3986" data-name="Path 3986" d="M499.576,206.935l16.053-9.268,16.052,9.268L515.629,216.2Z" transform="translate(-494.476 -118.477)" fill="#d4ecff"/>
          <path id="Path_3987" data-name="Path 3987" d="M531.237,208.728V151L517.6,143.125v57.73Z" transform="translate(-517.602 -135.253)" fill="#1d31c6"/>
          <path id="Path_3988" data-name="Path 3988" d="M507.174,151l13.635-7.872v57.73l-13.635,7.872Z" transform="translate(-493.539 -135.253)" fill="#1d8cc6"/>
          <path id="Path_3989" data-name="Path 3989" d="M507.174,144.977,520.81,137.1l13.635,7.872-13.635,7.872Z" transform="translate(-507.174 -137.105)" fill="#00a0c9"/>
        </g>
        <g id="Group_866" data-name="Group 866" transform="translate(0 68.227)">
          <path id="Path_3990" data-name="Path 3990" d="M517.6,197.155l13.635-7.872v5.248L517.6,202.4Z" transform="translate(-517.602 -189.283)" fill="#95d359"/>
        </g>
        <g id="Group_867" data-name="Group 867" transform="translate(13.635 23.617)">
          <path id="Path_3991" data-name="Path 3991" d="M520.81,211.045V169.059l-13.635-7.872v41.986Z" transform="translate(-507.174 -153.315)" fill="#c13d1a"/>
          <path id="Path_3992" data-name="Path 3992" d="M496.746,169.059l13.635-7.872v41.986l-13.635,7.872Z" transform="translate(-483.111 -153.315)" fill="#db5126"/>
          <path id="Path_3993" data-name="Path 3993" d="M496.747,163.039l13.635-7.872,13.635,7.872-13.635,7.872Z" transform="translate(-496.747 -155.166)" fill="#ef602e"/>
          <path id="Path_3994" data-name="Path 3994" d="M520.81,211.045V169.059l-13.635-7.872v41.986Z" transform="translate(-507.174 -153.315)" fill="#5793ce"/>
          <path id="Path_3995" data-name="Path 3995" d="M496.746,169.059l13.635-7.872v41.986l-13.635,7.872Z" transform="translate(-483.111 -153.315)" fill="#01c8ef"/>
          <path id="Path_3996" data-name="Path 3996" d="M496.747,163.039l13.635-7.872,13.635,7.872-13.635,7.872Z" transform="translate(-496.747 -155.166)" fill="#396caa"/>
        </g>
        <g id="Group_868" data-name="Group 868" transform="translate(0 49.858)">
          <path id="Path_3997" data-name="Path 3997" d="M531.237,212.745V189.128L517.6,181.255v23.617Z" transform="translate(-517.602 -173.383)" fill="#e8a200"/>
          <path id="Path_3998" data-name="Path 3998" d="M507.174,189.128l13.635-7.872v23.617l-13.635,7.872Z" transform="translate(-493.539 -173.383)" fill="#f9bf30"/>
          <path id="Path_3999" data-name="Path 3999" d="M507.174,183.107l13.635-7.872,13.635,7.872-13.635,7.872Z" transform="translate(-507.174 -175.235)" fill="#fdd762"/>
        </g>
      </g>
      <g id="Group_872" data-name="Group 872" transform="translate(300.946 20.906)">
        <path id="Path_4000" data-name="Path 4000" d="M309.214,114.218,322.93,106.3l13.716,7.919-13.716,7.919Z" transform="translate(-306.543 -69.752)" fill="#d4ecff"/>
        <g id="Group_870" data-name="Group 870" transform="translate(0 17.195)">
          <path id="Path_4001" data-name="Path 4001" d="M336.09,117.119V108.2L319.7,98.735v8.923Z" transform="translate(-319.704 -89.274)" fill="#e8a200"/>
          <path id="Path_4002" data-name="Path 4002" d="M307.172,108.2l16.387-9.461v8.923l-16.387,9.461Z" transform="translate(-290.785 -89.274)" fill="#f9bf30"/>
          <path id="Path_4003" data-name="Path 4003" d="M307.172,100.961,323.558,91.5l16.387,9.461-16.387,9.461Z" transform="translate(-307.172 -91.5)" fill="#fdd762"/>
          <path id="Path_4004" data-name="Path 4004" d="M311.4,100.211l10.864-6.272,10.864,6.272-10.864,6.272Z" transform="translate(-305.873 -90.75)" fill="#e8a200"/>
        </g>
        <g id="Group_871" data-name="Group 871" transform="translate(0)">
          <path id="Path_4005" data-name="Path 4005" d="M336.09,103.968V95.045L319.7,85.585v8.923Z" transform="translate(-319.704 -76.124)" fill="#5793ce"/>
          <path id="Path_4006" data-name="Path 4006" d="M307.172,95.045l16.387-9.461v8.923l-16.387,9.461Z" transform="translate(-290.785 -76.124)" fill="#01c8ef"/>
          <path id="Path_4007" data-name="Path 4007" d="M307.172,87.81l16.387-9.461,16.387,9.461-16.387,9.461Z" transform="translate(-307.172 -78.349)" fill="#396caa"/>
        </g>
      </g>
      <g id="Group_873" data-name="Group 873" transform="translate(94.105 331.1)">
        <rect id="Rectangle_346" data-name="Rectangle 346" width="12.422" height="2.615" transform="translate(8.783 10.633) rotate(-135)" fill="#b45ef4"/>
        <rect id="Rectangle_347" data-name="Rectangle 347" width="2.615" height="12.422" transform="translate(1.849 10.633) rotate(-135.004)" fill="#b45ef4"/>
      </g>
      <path id="Path_4008" data-name="Path 4008" d="M484.276,142.547a11.986,11.986,0,1,0-11.985-11.985A12,12,0,0,0,484.276,142.547Zm0-21.357a9.371,9.371,0,1,1-9.37,9.371A9.382,9.382,0,0,1,484.276,121.19Z" transform="translate(-378.45 -45.071)" fill="#ff2c9c"/>
      <ellipse id="Ellipse_12" data-name="Ellipse 12" cx="8.663" cy="8.663" rx="8.663" ry="8.663" transform="translate(107.842 84.728)" fill="#fdd762"/>
      <g id="Group_874" data-name="Group 874" transform="translate(324.011 101.533)">
        <rect id="Rectangle_348" data-name="Rectangle 348" width="12.423" height="2.615" transform="translate(8.784 10.633) rotate(-135)" fill="#b45ef4"/>
        <rect id="Rectangle_349" data-name="Rectangle 349" width="2.615" height="12.423" transform="translate(1.849 10.633) rotate(-135)" fill="#b45ef4"/>
      </g>
      <ellipse id="Ellipse_13" data-name="Ellipse 13" cx="6.351" cy="6.351" rx="6.351" ry="6.351" transform="translate(309.714 177.154)" fill="#fdd762"/>
      <g id="Group_876" data-name="Group 876" transform="translate(251.287 314.888)">
        <g id="Group_875" data-name="Group 875" transform="translate(19.938)">
          <path id="Path_4009" data-name="Path 4009" d="M356.3,305.645a2.9,2.9,0,1,0-2.435,3.3A2.9,2.9,0,0,0,356.3,305.645Z" transform="translate(-350.53 -303.178)" fill="#1d31c6"/>
        </g>
        <rect id="Rectangle_350" data-name="Rectangle 350" width="12.07" height="12.07" transform="translate(0 11.755) rotate(-8.58)" fill="#1d31c6"/>
      </g>
      <g id="Group_928" data-name="Group 928" transform="translate(247.32 0)">
        <g id="Group_927" data-name="Group 927" transform="translate(0 21.831)">
          <path id="Path_4195" data-name="Path 4195" d="M369,82.98a2.9,2.9,0,1,0,1.689-3.736A2.9,2.9,0,0,0,369,82.98Z" transform="translate(-368.811 -79.057)" fill="#01c8ef"/>
        </g>
        <rect id="Rectangle_351" data-name="Rectangle 351" width="12.07" height="12.07" transform="translate(23.38 11.294) rotate(159.341)" fill="#fdd762"/>
      </g>
      <g id="Group_3150" data-name="Group 3150" transform="translate(392.274 225.001)">
        <path id="Path_3978-2" data-name="Path 3978" d="M275.792,295.007l13.748-7.938,13.748,7.938-13.748,7.938Z" transform="translate(-275.046 -235.244)" fill="#d4ecff"/>
        <g id="Group_862-2" data-name="Group 862">
          <g id="Group_859-2" data-name="Group 859" transform="translate(0 31.419)">
            <path id="Path_3979-2" data-name="Path 3979" d="M300.8,298.835v-19l-14.494-8.368v19Z" transform="translate(-286.306 -271.464)" fill="#721bd5"/>
            <path id="Path_3980-2" data-name="Path 3980" d="M275.221,279.832l14.494-8.368v19l-14.494,8.368Z" transform="translate(-260.727 -271.464)" fill="#b45ef4"/>
          </g>
          <g id="Group_860-2" data-name="Group 860" transform="translate(0 17.995)">
            <path id="Path_3981-2" data-name="Path 3981" d="M300.8,282.99V269.565L286.306,261.2v13.425Z" transform="translate(-286.306 -261.197)" fill="#e8a200"/>
            <path id="Path_3982-2" data-name="Path 3982" d="M275.221,269.565l14.494-8.368v13.425l-14.494,8.368Z" transform="translate(-260.727 -261.197)" fill="#f9bf30"/>
          </g>
          <g id="Group_861-2" data-name="Group 861">
            <path id="Path_3983-2" data-name="Path 3983" d="M300.8,271.83V262.2l-14.494-8.368v9.627Z" transform="translate(-286.306 -245.466)" fill="#5793ce"/>
            <path id="Path_3984-2" data-name="Path 3984" d="M275.221,262.2l14.494-8.368v9.627l-14.494,8.368Z" transform="translate(-260.727 -245.466)" fill="#01c8ef"/>
            <path id="Path_3985-2" data-name="Path 3985" d="M275.221,255.8l14.494-8.368,14.494,8.368-14.494,8.368Z" transform="translate(-275.221 -247.435)" fill="#396caa"/>
          </g>
        </g>
      </g>
    </g>
    <g id="Group_3148" data-name="Group 3148" transform="translate(1462.676 704.035)">
      <path id="Path_4196" data-name="Path 4196" d="M251.208,221.463a2.446,2.446,0,0,1-.345.122,9.049,9.049,0,0,1-2.716.312,52.82,52.82,0,0,1-5.223-.9c-.611-.084-1.259-.114-1.88-.144a43.638,43.638,0,0,0-6.077.783c-2.12.469-2.384.529-4.476,1.1-.975.266-2.379,1.17-3.344,1.515-1.464.522-1.877,2.561-.821,2.566a1.747,1.747,0,0,0,1.487-.4,33.976,33.976,0,0,1,3.407-1.538,11.637,11.637,0,0,0-3.407,1.538c-.689.557-1.548.757-1.953,1.649-.129.284-.451.408-.54.8a1.2,1.2,0,0,0,.22,1.1,1.242,1.242,0,0,0,1.416.187,13.388,13.388,0,0,0,3.23-1.826,24.537,24.537,0,0,1,2.634-2.1,20.563,20.563,0,0,0-4.213,3.346c-.489.443-1.495,1.256-2.037,1.631a1.538,1.538,0,0,0-.053,2.508c.917.565,2.5-.464,3.111-1.041.806-.762,2.092-1.581,2.847-2.366a12.359,12.359,0,0,1,1.094-1.031,20.751,20.751,0,0,1,2.095-1.707,51.389,51.389,0,0,0-4.446,4.213c-.588.714-1.413,1.743-.836,2.612,1.046,1.568,2.6.144,3.291-.481.927-.846,1.961-1.495,2.862-2.391a23.374,23.374,0,0,1,4.674-3.488c.833-.489,1.859-.269,2.738-.593-.436.481-1.178.512-1.644.95a15.538,15.538,0,0,1-1.786,1.446,3.865,3.865,0,0,0-1.685,2.1c-.223.877-.324,1.806.745,2.027,1.548.324,2.769-.816,3.876-1.71,1.234-1,2.455-2.166,4.116-2.353a18.507,18.507,0,0,1,1.983,0,28.833,28.833,0,0,0,5.163-.106,3.963,3.963,0,0,0,2.873-1.933,12.94,12.94,0,0,0,1.365-2.708c.1-.319,1.1-3.083,1.388-2.989-2.1-.674-3.7-2.181-5.669-3.08-.882-.4-1.229.418-1.677.968A5.324,5.324,0,0,1,251.208,221.463Z" transform="translate(-107.311 -106.887)" fill="#fcd4ca"/>
      <path id="Path_4197" data-name="Path 4197" d="M205.134,251.7l6.812,11.911s31.3-13.443,37.989-19.574,13.253-21.592,15.363-37.055c1.231-9.02-8.8-9.732-8.8-9.732-5.788,9.216-17.066,33.582-18.32,35.393S205.134,251.7,205.134,251.7Z" transform="translate(-61.339 -140.187)" fill="#fdd762"/>
      <path id="Path_4198" data-name="Path 4198" d="M230.459,270.9a36.082,36.082,0,0,1,1.837,9.411c.018,4.1-.279,8.466-1.538,9.5-2.515,2.06-34.342,2.328-36.933-.613s-.864-7.7,5.877-9.342c7.23-1.763,10.68.3,15.227-1.431s1.008-8.147,1.008-8.147Z" transform="translate(3.321 -28.22)" fill="#110239"/>
      <path id="Path_4199" data-name="Path 4199" d="M174.167,287.329a29.979,29.979,0,0,1,7.949-1.236c1.958-.063,5.084.038,6.51-1.545a4.744,4.744,0,0,0,.319-5.335c-.111-.226-1.657-3.04-1.948-2.913l12.595-5.441s9.925,11.83,9.048,14.961c-.18.648-2.665,3.035-5.284,5.461a25.638,25.638,0,0,1-16.02,6.786c-8.539.474-17.091.327-18.466-1.056C166.106,294.235,167.538,289.381,174.167,287.329Z" transform="translate(90.603 -27.331)" fill="#110239"/>
      <path id="Path_4200" data-name="Path 4200" d="M229.986,218.248s16,9.75,13.494,28.974-7.934,43.821-6.614,48.836,29.6,56.742,29.6,56.742l-15.9,8.863s-33.551-54.46-35.223-60.312-2.368-40.652-2.368-40.652-19.713,33.189-20.757,37.787S207.993,352.8,207.993,352.8l-16.926,3.083s-22.945-51.048-21.628-59.615c.826-5.363,20.9-56.985,20.9-56.985Z" transform="translate(28.155 -107.991)" fill="#0186cb"/>
      <path id="Path_4201" data-name="Path 4201" d="M190.529,287.923c-.438-.874,4.587-22.826,6.85-26.193,1.545-2.292,7.313-12.891,9.089-16.179,2.186-4.043-2.133-15.513-2.68-20.159a10.206,10.206,0,0,0,1.449-.8c1.53,9.071,5.8,26.375,5.8,26.375-3.427,6.3-18.312,30.919-20.5,37v-.015l-.03.071Z" transform="translate(30.096 -98.26)" fill="#0056a3" opacity="0.65"/>
      <path id="Path_4202" data-name="Path 4202" d="M211.725,188.742s6.044,13.188,10.806,15.751c0,0-5.616,10.013-18.193,6.472,0,0,.489-5.13-3.787-16.364C200.551,194.6,208.855,192.283,211.725,188.742Z" transform="translate(-6.858 -153.228)" fill="#fcd4ca"/>
      <path id="Path_4203" data-name="Path 4203" d="M203.36,202.173c-.114,0-.223.033-.337.04a75.1,75.1,0,0,0-2.472-7.612s8.3-2.318,11.174-5.859c0,0,6.044,13.188,10.806,15.751a15.8,15.8,0,0,1-7.356,6.148A12,12,0,0,0,203.36,202.173Z" transform="translate(-6.858 -153.228)" fill="#e8a393"/>
      <path id="Path_4204" data-name="Path 4204" d="M212.755,179.509s-8.547,3.663-8.3,7.569-.213,3.268.428,5.831a17.408,17.408,0,0,1,.732,7.693c-.458,3.2-.339,4.762,2.989,3.939,0,0,1.087-.55,1,.778s-.5,9.2,6.181,9.479,16.944-9.892,16.394-14.2-1.74-14.2-6.411-18.867A11.607,11.607,0,0,0,212.755,179.509Z" transform="translate(-26.388 -169.028)" fill="#fcd4ca"/>
      <path id="Path_4205" data-name="Path 4205" d="M231.941,180.348s-9.525,18.071-23.687,9.892a15.672,15.672,0,0,1,6.837-12.212C221.93,173.511,230.913,176.931,231.941,180.348Z" transform="translate(-35.781 -172.977)" fill="#ff2c9c"/>
      <path id="Path_4206" data-name="Path 4206" d="M201.212,210.168c8.929-2.629,10.239-6.343,10.117-13.659s-2.32-7.888-2.32-7.888c-5.434-1.831-5.616-4.491-5.616-4.491-4.03-10.809,20.331-12.177,20.719-4.757s-.57,4.762,5.2,10.348,3.116,10.991.55,13.922,2.381,2.472,2.657,7.691c.2,3.714-2.014,5.3-5.37,6.442-.583.2-2.629-4.8-3.551-6.655-.175,1.041-4.144,6.931-6.7,8.884-5.94,4.542-12.83,3.845-14.662.061S201.212,210.168,201.212,210.168Z" transform="translate(-18.308 -174.722)" fill="#ff2c9c"/>
      <g id="Group_3145" data-name="Group 3145" transform="translate(192.896 48.198)">
        <g id="Group_3144" data-name="Group 3144" transform="translate(0)">
          <path id="Path_4209" data-name="Path 4209" d="M184.757,199.664s11.7,7.235,15.115-5.915c0,0,9.925.519,22.672,17.968,12.691,17.372,18.388,26.119,31.659,47.61-1.948,2.168-24,25.316-50.047,19.328,0,0-2.576-5.7-3.719-8.375-4.909-11.5-18.082-42.883-19.581-52.19C178.766,205.128,184.757,199.664,184.757,199.664Z" transform="translate(-180.413 -193.749)" fill="#fdd762"/>
        </g>
      </g>
      <g id="Group_3147" data-name="Group 3147" transform="translate(201.849 57.424)">
        <g id="Group_3146" data-name="Group 3146" transform="translate(0)">
          <path id="Path_4210" data-name="Path 4210" d="M200.129,228.751c-1.206-6,2.328-37.992,13.314-30.121,6.209,4.451,7.483,15.2,5.6,25.126a231.7,231.7,0,0,1-11.338,40.295c-2.548-5.8-6.9-15.885-10.723-25.676A9.853,9.853,0,0,0,200.129,228.751Z" transform="translate(-196.983 -197.391)" fill="#d8892b"/>
        </g>
      </g>
      <path id="Path_4211" data-name="Path 4211" d="M198.181,264.514l6.791,12.744s39.367-15.731,45.908-21.76,22.352-53.743,6.89-58.759-19.323,44.753-22.707,47.818S198.181,264.514,198.181,264.514Z" transform="translate(-42.665 -141.51)" fill="#fdd762"/>
      <g id="Group_3149" data-name="Group 3149" transform="translate(101.212 95.022) rotate(41)">
        <path id="Path_4088" data-name="Path 4088" d="M135.083,86.693h-2.749a67.55,67.55,0,0,1-129.587,0H0V67.58H0a67.542,67.542,0,1,1,135.083,0h0Z" transform="translate(0 0)" fill="#f9bf30"/>
        <path id="Path_4089" data-name="Path 4089" d="M52.892,131.916A67.554,67.554,0,0,1,2.747,85.071H0V65.958A67.539,67.539,0,0,1,52.892,0Z" transform="translate(0 1.622)" fill="#fdd762"/>
        <path id="Path_4090" data-name="Path 4090" d="M0,0A67.382,67.382,0,0,1,19.6,47.593V66.707H16.85A67.151,67.151,0,0,1,3.292,91.6H0Z" transform="translate(115.485 19.987)" fill="#e8a200"/>
        <g id="Group_898" data-name="Group 898" transform="translate(1.896 0.048)" opacity="0.4">
          <path id="Path_4091" data-name="Path 4091" d="M2.931,50.093A67.559,67.559,0,0,1,0,57.442V0A67.237,67.237,0,0,1,2.931,7.358Z" transform="translate(126.782 38.777)" fill="#e8a200"/>
          <path id="Path_4092" data-name="Path 4092" d="M9.435,115.317A67.745,67.745,0,0,1,0,103.445V31.6c.92-1.461,1.888-2.9,2.931-4.3v77.872H8.453V20.782c.33-.345.645-.7.984-1.036.637-.636,1.291-1.244,1.945-1.852v87.272H16.9V13.3c.964-.718,1.94-1.412,2.931-2.072v93.942h5.523V7.923q1.449-.775,2.929-1.476v98.718h5.523V4.134q1.457-.536,2.931-1V105.166h5.523V1.635q1.46-.33,2.929-.6V105.166h5.523V.263C51.688.171,52.665.1,53.644.052V105.166h5.523V0c.977.028,1.954.079,2.929.15V105.166h5.523V.77c.98.153,1.957.324,2.931.519V105.166h5.522V2.64c.982.284,1.957.6,2.929.926v101.6h5.523V5.733q1.478.651,2.93,1.381v98.052h5.523V10.218q1.484.93,2.929,1.943v93h5.522V16.483q1.494,1.3,2.931,2.692v85.991h5.523V25.249c1.033,1.287,2,2.6,2.929,3.948v75.968h.49a67.621,67.621,0,0,1-29.071,24.293H30.159A67.315,67.315,0,0,1,9.435,115.317Z" transform="translate(8.451 0)" fill="#e8a200"/>
          <path id="Path_4093" data-name="Path 4093" d="M2.931,50.151C2.153,48.2,1.439,46.227.852,44.222H0V9.186A67.2,67.2,0,0,1,2.931,0Z" transform="translate(0 42.423)" fill="#e8a200"/>
        </g>
        <ellipse id="Ellipse_27" data-name="Ellipse 27" cx="67.542" cy="67.579" rx="67.542" ry="67.579" transform="translate(0 19.115)" fill="#fdd762"/>
        <path id="Path_4094" data-name="Path 4094" d="M82.658,19.782A67.606,67.606,0,0,1,98.007,91.637,67.554,67.554,0,0,1,4.419,7.262,67.525,67.525,0,0,1,82.658,19.782Z" transform="translate(0.015 55.364)" fill="#fff" opacity="0.2"/>
        <path id="Path_4095" data-name="Path 4095" d="M115.283,23.278A67.525,67.525,0,0,0,.022,69.324a67.525,67.525,0,1,1,135-.006A67.344,67.344,0,0,0,115.283,23.278Z" transform="translate(0.019 15.63)" fill="#fff" opacity="0.7"/>
        <ellipse id="Ellipse_28" data-name="Ellipse 28" cx="47.943" cy="47.969" rx="47.943" ry="47.969" transform="translate(19.599 38.725)" fill="#e8a200"/>
        <path id="Path_4096" data-name="Path 4096" d="M14.039,31.731a47.923,47.923,0,0,0,67.8,0A47.8,47.8,0,0,0,95.832,0,47.942,47.942,0,1,1,.05,0,47.808,47.808,0,0,0,14.039,31.731Z" transform="translate(19.6 84.502)" fill="#f9bf30"/>
        <path id="Path_4097" data-name="Path 4097" d="M46.536,49.484l-3.717-1.84,1.056-.727-3.629-3.633a13.928,13.928,0,0,1-9.2,3.728q-4.753-.041-8.86-4.153A17.481,17.481,0,0,1,19.514,39.5a11.759,11.759,0,0,1-1.435-3.551,19.646,19.646,0,0,1-.469-3.4,33.539,33.539,0,0,1,.083-3.685l.43-5.861a30.466,30.466,0,0,0,.086-4.113,10.831,10.831,0,0,0-.8-3.328,9.423,9.423,0,0,0-2.128-3.16q-2.568-2.567-4.556-.575a3.441,3.441,0,0,0-.772,3.786q.751,2.273,4.045,5.653v4.4l-3.176-2.066L6.249,26.951A22.534,22.534,0,0,1,.832,18.521L.31,19.538V15.224H.321C.337,12.26,1.642,9.341,4.258,6.466L2.453,4.66,0,6.606v-4.4L2.2,0,6.5,4.3a12.171,12.171,0,0,1,16.9.816,17.963,17.963,0,0,1,2.911,3.743,14.649,14.649,0,0,1,1.613,4.079,24.961,24.961,0,0,1,.6,4.024,37.581,37.581,0,0,1-.009,4.272l-.365,5.674c-.056,1.14-.086,1.968-.085,2.481a19.309,19.309,0,0,0,.16,2.151A6.8,6.8,0,0,0,28.97,34a9.07,9.07,0,0,0,1.583,2.075,4.844,4.844,0,0,0,2.44,1.351,2.566,2.566,0,0,0,2.439-.709,3.028,3.028,0,0,0,.758-1.018,1.852,1.852,0,0,0,.134-.733L32.545,33.6V29.2l7.66-5.91c.628.688,1.187,1.323,1.679,1.916a22.291,22.291,0,0,1,1.543,2.142,15.894,15.894,0,0,1,1.282,2.4,11.83,11.83,0,0,1,.728,2.588,9.42,9.42,0,0,1,.125,1.314l.009.018V38.3l-.975-.351c-.014.028-.021.055-.035.086a13.129,13.129,0,0,1-2.045,3.028l4.022,4.024Z" transform="translate(44.584 59.861)" fill="#f9bf30"/>
        <g id="Group_899" data-name="Group 899" transform="translate(44.584 64.261)">
          <path id="Path_4098" data-name="Path 4098" d="M0,2.206l4.258,4.26Q-.108,11.26.353,16.217t5.9,10.735l7.744-5.693q-3.3-3.383-4.045-5.653a3.441,3.441,0,0,1,.772-3.786q1.989-2,4.556.575a9.442,9.442,0,0,1,2.128,3.157,10.869,10.869,0,0,1,.8,3.331,30.414,30.414,0,0,1-.086,4.11l-.43,5.864a33.539,33.539,0,0,0-.083,3.685,19.645,19.645,0,0,0,.469,3.4A11.759,11.759,0,0,0,19.514,39.5a17.482,17.482,0,0,0,2.673,3.364q4.108,4.111,8.86,4.153a13.928,13.928,0,0,0,9.2-3.728L44.29,47.33l2.246-2.246L42.514,41.06a13.131,13.131,0,0,0,2.045-3.028,10.226,10.226,0,0,0,.931-2.9,9.106,9.106,0,0,0-.055-2.8,11.86,11.86,0,0,0-.728-2.591,16.02,16.02,0,0,0-1.282-2.4,22.277,22.277,0,0,0-1.543-2.142c-.492-.593-1.051-1.228-1.679-1.916l-7.66,5.91q.875.921,1.433,1.54t1.134,1.372a7.162,7.162,0,0,1,.834,1.3,4.829,4.829,0,0,1,.363,1.155,1.924,1.924,0,0,1-.118,1.125,3.028,3.028,0,0,1-.758,1.018,2.574,2.574,0,0,1-2.439.709,4.867,4.867,0,0,1-2.44-1.351A9.137,9.137,0,0,1,28.97,34a6.805,6.805,0,0,1-.737-2.454,19.31,19.31,0,0,1-.16-2.151c0-.513.028-1.341.085-2.481l.365-5.678a37.527,37.527,0,0,0,.009-4.269,24.909,24.909,0,0,0-.6-4.024,14.611,14.611,0,0,0-1.613-4.079,17.966,17.966,0,0,0-2.911-3.743A12.171,12.171,0,0,0,6.5,4.3L2.2,0Z" transform="translate(0 0)" fill="#fdd762"/>
        </g>
      </g>
      <path id="Path_4212" data-name="Path 4212" d="M250.477,224.933a7.434,7.434,0,0,1-1.37.547,13.835,13.835,0,0,1-2.642.651c-.785.076-1.631-.02-2.434,0a16.74,16.74,0,0,1-3.643-.3,46.392,46.392,0,0,0-7.43-1.345c-.182-.01-.367-.013-.55-.015a25.325,25.325,0,0,0-9.241,1.54c-1.4.522-3.711,1.183-3.519,3.1.086.859.752,1,1.5.96a14.377,14.377,0,0,0,4.24-.96c1.5-.6,4.329-2.07,4.329-2.07a22.37,22.37,0,0,0-3.8,1.725c-.74.509-1.277.773-1.844,1.16-.8.545-1.988,1.044-2.173,2.024-.16.861-.177,1.565.778,1.935,1.145.441,3.258-.547,4.223-1.145.912-.565,5.064-3.268,6.366-3.828a45.378,45.378,0,0,0-5.37,3.455,6.793,6.793,0,0,0-1.915,1.781,1.408,1.408,0,0,0,.76,2.191,6.227,6.227,0,0,0,2.781-.367,17.589,17.589,0,0,0,4.42-2.28c1.277-.823,2.46-2,3.926-2.482a13.89,13.89,0,0,0-3.032,1.854,23.434,23.434,0,0,0-3.331,2.7c-.4.643-.157,2.391,1.307,2.353a6.414,6.414,0,0,0,2.351-.615c.854-.4,1.728-.816,2.558-1.267,1.449-.788,2.239-1.973,3.995-2.049a8.914,8.914,0,0,1,3.79.808,12.876,12.876,0,0,0,2.455.968c.428.084.871.144,1.3.223a9.431,9.431,0,0,0,7.7-2.442c.626-.578,1.054-1.289,1.621-1.915.4-.438,1.885-1.421,1.91-2.072.018-.441-1.244-1.6-1.568-1.933a27.722,27.722,0,0,1-1.763-2.194,13.3,13.3,0,0,0-2.26-2.508c-.4-.3-.372-.3-.889-.106-.355.139-.742.271-1.094.433C252.061,223.839,251.336,224.48,250.477,224.933Z" transform="translate(-93.173 -100.898)" fill="#fcd4ca"/>
    </g>
  </g>
</svg>
