<svg xmlns="http://www.w3.org/2000/svg" width="120" height="120" viewBox="0 0 120 120">
  <g id="Group_3205" data-name="Group 3205" transform="translate(-426 -179)">
    <g id="Ellipse_19" data-name="Ellipse 19" transform="translate(426 179)" fill="#fff" stroke="#d0d0d0" stroke-width="1">
      <circle cx="60" cy="60" r="60" stroke="none"/>
      <circle cx="60" cy="60" r="59.5" fill="none"/>
    </g>
    <g id="Group_3249" data-name="Group 3249" transform="translate(32.736 208)">
      <g id="Group_3249-2" data-name="Group 3249" transform="translate(421 0)">
        <path id="Path_4355" data-name="Path 4355" d="M289.354,193.92l23.856,4.739a4,4,0,0,1,3.222,3.954v27.62a4.056,4.056,0,0,1-4.062,4.062H288a1.341,1.341,0,0,0,1.354-1.354v-1.354h23.017a1.358,1.358,0,0,0,1.354-1.354v-27.62a1.36,1.36,0,0,0-1.056-1.327l-23.315-4.6Z" transform="translate(-251.444 -169.794)"/>
        <path id="Path_4356" data-name="Path 4356" d="M369.437,298.667a1.354,1.354,0,1,1,0,2.708h-5.416a1.354,1.354,0,0,1,0-2.708Z" transform="translate(-316.633 -261.246)"/>
        <path id="Path_4357" data-name="Path 4357" d="M369.437,362.667a1.354,1.354,0,1,1,0,2.708h-5.416a1.354,1.354,0,0,1,0-2.708Z" transform="translate(-316.633 -317.122)"/>
        <path id="Path_4358" data-name="Path 4358" d="M369.437,426.667a1.354,1.354,0,1,1,0,2.708h-5.416a1.354,1.354,0,0,1,0-2.708Z" transform="translate(-316.633 -372.998)"/>
        <path id="Path_4359" data-name="Path 4359" d="M280.041,231.267a1.354,1.354,0,1,1-2.708,0v-37.91a1.44,1.44,0,0,1,.487-1.056,1.423,1.423,0,0,1,1.137-.271l1.083.217v39.02Z" transform="translate(-242.131 -168.121)"/>
        <path id="Path_4360" data-name="Path 4360" d="M212.145,490.667v1.354a1.341,1.341,0,0,0,1.354,1.354H202.667a1.341,1.341,0,0,0,1.354-1.354v-1.354Z" transform="translate(-176.942 -428.875)"/>
        <path id="Path_4361" data-name="Path 4361" d="M177.437,106.667a1.354,1.354,0,1,1,0,2.708h-5.416a1.354,1.354,0,0,1,0-2.708Z" transform="translate(-149.004 -93.616)"/>
        <path id="Path_4362" data-name="Path 4362" d="M178.791,172.021a1.341,1.341,0,0,1-1.354,1.354h-5.416a1.354,1.354,0,0,1,0-2.708h5.416A1.341,1.341,0,0,1,178.791,172.021Z" transform="translate(-149.004 -149.493)"/>
        <path id="Path_4363" data-name="Path 4363" d="M177.437,234.667a1.354,1.354,0,1,1,0,2.708h-5.416a1.354,1.354,0,0,1,0-2.708Z" transform="translate(-149.004 -205.369)"/>
        <path id="Path_4364" data-name="Path 4364" d="M177.437,298.667a1.354,1.354,0,1,1,0,2.708h-5.416a1.354,1.354,0,0,1,0-2.708Z" transform="translate(-149.004 -261.246)"/>
        <path id="Path_4365" data-name="Path 4365" d="M72.124,300.021a1.341,1.341,0,0,1-1.354,1.354H65.354a1.354,1.354,0,1,1,0-2.708H70.77A1.341,1.341,0,0,1,72.124,300.021Z" transform="translate(-55.876 -261.246)"/>
        <path id="Path_4366" data-name="Path 4366" d="M70.77,106.667a1.354,1.354,0,1,1,0,2.708H65.354a1.354,1.354,0,1,1,0-2.708Z" transform="translate(-55.876 -93.616)"/>
        <path id="Path_4367" data-name="Path 4367" d="M70.77,170.667a1.354,1.354,0,1,1,0,2.708H65.354a1.354,1.354,0,1,1,0-2.708Z" transform="translate(-55.876 -149.493)"/>
        <path id="Path_4368" data-name="Path 4368" d="M70.77,234.667a1.354,1.354,0,1,1,0,2.708H65.354a1.354,1.354,0,1,1,0-2.708Z" transform="translate(-55.876 -205.369)"/>
        <path id="Path_4369" data-name="Path 4369" d="M98.872,366.729a1.358,1.358,0,0,0-1.354-1.354H89.395a1.341,1.341,0,0,0-1.354,1.354v12.185H85.333V366.729a4.056,4.056,0,0,1,4.062-4.062h8.124a4.056,4.056,0,0,1,4.062,4.062v12.185H98.872Z" transform="translate(-74.502 -317.122)"/>
        <path id="Path_4370" data-name="Path 4370" d="M88.041,490.667H101.58v1.354a1.341,1.341,0,0,1-1.354,1.354H86.687a1.341,1.341,0,0,1-1.354-1.354v-1.354Z" transform="translate(-74.502 -428.875)"/>
        <path id="Path_4371" data-name="Path 4371" d="M4.739,3.9,34.5,8.426a4.047,4.047,0,0,1,3.412,4.008V27.977l-1.083-.217a1.423,1.423,0,0,0-1.137.271,1.44,1.44,0,0,0-.487,1.056V12.434a1.369,1.369,0,0,0-1.137-1.354l-29.76-4.5a.747.747,0,0,0-.244-.027,1.278,1.278,0,0,0-.867.325,1.3,1.3,0,0,0-.487,1.029V64.29a1.358,1.358,0,0,0,1.354,1.354h6.77V67a1.341,1.341,0,0,0,1.354,1.354H4.062A4.056,4.056,0,0,1,0,64.29V7.912A3.987,3.987,0,0,1,1.435,4.825,4.064,4.064,0,0,1,4.739,3.9Z" transform="translate(0 -3.851)"/>
      </g>
    </g>
  </g>
</svg>
