<svg xmlns="http://www.w3.org/2000/svg" width="120" height="120" viewBox="0 0 120 120">
  <g id="Group_3205" data-name="Group 3205" transform="translate(-426 -179)">
    <g id="Ellipse_19" data-name="Ellipse 19" transform="translate(426 179)" fill="#fff" stroke="#d0d0d0" stroke-width="1">
      <circle cx="60" cy="60" r="60" stroke="none"/>
      <circle cx="60" cy="60" r="59.5" fill="none"/>
    </g>
    <g id="Group_3232" data-name="Group 3232" transform="translate(443 196.672)">
      <path id="Path_4329" data-name="Path 4329" d="M227.355,55.655h2.236V53.418a3.355,3.355,0,0,0,0-6.709h-2.236a1.118,1.118,0,0,1,0-2.236h3.355v1.118h2.236V42.236h-3.355V40h-2.236v2.236a3.355,3.355,0,0,0,0,6.709h2.236a1.118,1.118,0,0,1,0,2.236h-3.355V50.064H224v3.355h3.355Z" transform="translate(-185.809 -27.527)"/>
      <path id="Path_4330" data-name="Path 4330" d="M75.092,48.255H68.383V32.6h4.473V29.759L54.726,17.906a12.3,12.3,0,0,0-24.124,0L12.473,29.759V32.6h4.473V48.255H10.236A2.239,2.239,0,0,0,8,50.491v4.473A2.239,2.239,0,0,0,10.236,57.2V77.328H75.092V57.2a2.239,2.239,0,0,0,2.236-2.236V50.491a2.239,2.239,0,0,0-2.236-2.236ZM49.714,30.364a12.284,12.284,0,0,0,5.229-9.646l14.751,9.646Zm-7.05-20.128A10.064,10.064,0,1,1,32.6,20.3,10.075,10.075,0,0,1,42.664,10.236ZM30.385,20.718a12.284,12.284,0,0,0,5.229,9.646H15.634ZM19.182,32.6H66.146V48.255H49.977L47.07,46.019h5.658V34.837H43.782v8.946H41.546V34.837H32.6V46.019h5.658l-2.907,2.236H19.182ZM46.019,75.092H39.309V67.264a3.355,3.355,0,1,1,6.709,0ZM42.664,61.673a5.6,5.6,0,0,0-5.591,5.591v7.827H34.837V59.437H50.491V75.092H48.255V67.264A5.6,5.6,0,0,0,42.664,61.673ZM32.6,59.437V75.092H30.364V59.437ZM35.661,57.2l7-5.905,7,5.905Zm17.067,2.236h2.236V75.092H52.728Zm.408-2.236L42.664,48.37,32.192,57.2H28.128v-.568l13.8-10.614H43.4L57.2,56.633V57.2ZM39.309,43.782H34.837V37.073h4.473Zm6.709,0V37.073h4.473v6.709ZM10.236,50.491H32.444l-5.815,4.473H10.236ZM12.473,57.2H25.891v2.236h2.236V75.092H12.473ZM72.855,75.092H57.2V59.437h2.236V57.2H72.855Zm2.236-20.128H58.7l-5.815-4.473H75.092Z"/>
      <path id="Path_4331" data-name="Path 4331" d="M352.946,200H344v11.182h8.946Zm-2.236,8.946h-4.473v-6.709h4.473Z" transform="translate(-289.036 -165.163)"/>
      <path id="Path_4332" data-name="Path 4332" d="M104,211.182h8.946V200H104Zm2.236-8.946h4.473v6.709h-4.473Z" transform="translate(-82.582 -165.163)"/>
      <path id="Path_4333" data-name="Path 4333" d="M387.182,389.418V376H376v13.418Zm-8.946-11.182h6.709v8.946h-6.709Z" transform="translate(-316.563 -316.563)"/>
      <path id="Path_4334" data-name="Path 4334" d="M56,389.418H67.182V376H56Zm2.236-11.182h6.709v8.946H58.236Z" transform="translate(-41.291 -316.563)"/>
    </g>
  </g>
</svg>
