<?xml version="1.0" encoding="utf-8"?>
<!-- Generator: Adobe Illustrator 24.2.0, SVG Export Plug-In . SVG Version: 6.00 Build 0)  -->
<!DOCTYPE svg PUBLIC "-//W3C//DTD SVG 1.1//EN" "http://www.w3.org/Graphics/SVG/1.1/DTD/svg11.dtd" [
	<!ENTITY ns_extend "http://ns.adobe.com/Extensibility/1.0/">
	<!ENTITY ns_ai "http://ns.adobe.com/AdobeIllustrator/10.0/">
	<!ENTITY ns_graphs "http://ns.adobe.com/Graphs/1.0/">
	<!ENTITY ns_vars "http://ns.adobe.com/Variables/1.0/">
	<!ENTITY ns_imrep "http://ns.adobe.com/ImageReplacement/1.0/">
	<!ENTITY ns_sfw "http://ns.adobe.com/SaveForWeb/1.0/">
	<!ENTITY ns_custom "http://ns.adobe.com/GenericCustomNamespace/1.0/">
	<!ENTITY ns_adobe_xpath "http://ns.adobe.com/XPath/1.0/">
]>
<svg version="1.1" id="Layer_1" xmlns:x="&ns_extend;" xmlns:i="&ns_ai;" xmlns:graph="&ns_graphs;"
	 xmlns="http://www.w3.org/2000/svg" xmlns:xlink="http://www.w3.org/1999/xlink" x="0px" y="0px" width="21.6px" height="25.9px"
	 viewBox="0 0 21.6 25.9" style="enable-background:new 0 0 21.6 25.9;" xml:space="preserve">
<style type="text/css">
	.st0{fill:#FFFFFF;}
</style>
<metadata>
	<sfw  xmlns="&ns_sfw;">
		<slices></slices>
		<sliceSourceBounds  bottomLeftOrigin="true" height="25.9" width="21.6" x="0" y="0"></sliceSourceBounds>
	</sfw>
</metadata>
<g id="Group_560" transform="translate(-394.717 -651.718)">
	<g id="Group_280" transform="translate(394.717 651.718)">
		<path id="Path_453" class="st0" d="M16.6,0h-8C7.4,0,6.5,1,6.5,2.2v15.1c0,1.2,1,2.2,2.2,2.2h10.8c1.2,0,2.2-1,2.2-2.2V4.9L16.6,0
			z M19.4,17.3H8.6V2.2h6.5v4.3h4.3L19.4,17.3z"/>
		<path id="Path_454" class="st0" d="M5.4,3.2H3.2v17.3c0,1.2,1,2.2,2.2,2.2h13v-2.2h-13V3.2z"/>
		<path id="Path_455" class="st0" d="M2.2,6.5H0v17.3c0,1.2,1,2.2,2.2,2.2h13v-2.2h-13V6.5z"/>
	</g>
</g>
</svg>
